<svg width="45" height="44" viewBox="0 0 45 44" fill="none" xmlns="http://www.w3.org/2000/svg">
<rect x="0.5" width="44" height="44" rx="6" fill="#FF9500" fill-opacity="0.03"/>
<path d="M17.3535 23.0156H22.4512C22.6465 23.0156 22.8092 22.9505 22.9395 22.8203C23.0697 22.6901 23.1348 22.5273 23.1348 22.332V15.75C23.1348 15.5612 23.0697 15.4017 22.9395 15.2715C22.8092 15.1413 22.6465 15.0762 22.4512 15.0762C22.2624 15.0762 22.1029 15.1413 21.9727 15.2715C21.8424 15.4017 21.7773 15.5612 21.7773 15.75V21.6582H17.3535C17.1582 21.6582 16.9954 21.7233 16.8652 21.8535C16.735 21.9837 16.6699 22.1432 16.6699 22.332C16.6699 22.5273 16.735 22.6901 16.8652 22.8203C16.9954 22.9505 17.1582 23.0156 17.3535 23.0156Z" fill="#FF9500"/>
<path d="M22.4609 31.9219C23.8216 31.9219 25.1026 31.6615 26.3037 31.1406C27.5049 30.6198 28.5645 29.9004 29.4824 28.9824C30.4004 28.0645 31.1198 27.0049 31.6406 25.8037C32.1615 24.6026 32.4219 23.3216 32.4219 21.9609C32.4219 20.6003 32.1615 19.3193 31.6406 18.1182C31.1198 16.917 30.4004 15.8574 29.4824 14.9395C28.5645 14.0215 27.5033 13.3021 26.2988 12.7812C25.0944 12.2604 23.8119 12 22.4512 12C21.0905 12 19.8096 12.2604 18.6084 12.7812C17.4072 13.3021 16.3493 14.0215 15.4346 14.9395C14.5199 15.8574 13.8021 16.917 13.2812 18.1182C12.7604 19.3193 12.5 20.6003 12.5 21.9609C12.5 23.3216 12.7604 24.6026 13.2812 25.8037C13.8021 27.0049 14.5215 28.0645 15.4395 28.9824C16.3574 29.9004 17.417 30.6198 18.6182 31.1406C19.8193 31.6615 21.1003 31.9219 22.4609 31.9219ZM22.4609 30.2617C21.3086 30.2617 20.2311 30.0469 19.2285 29.6172C18.2259 29.1875 17.3454 28.5935 16.5869 27.835C15.8284 27.0765 15.236 26.196 14.8096 25.1934C14.3831 24.1908 14.1699 23.1133 14.1699 21.9609C14.1699 20.8086 14.3831 19.7311 14.8096 18.7285C15.236 17.7259 15.8268 16.8438 16.582 16.082C17.3372 15.3203 18.2161 14.7262 19.2188 14.2998C20.2214 13.8734 21.2988 13.6602 22.4512 13.6602C23.6035 13.6602 24.681 13.8734 25.6836 14.2998C26.6862 14.7262 27.5684 15.3203 28.3301 16.082C29.0918 16.8438 29.6875 17.7259 30.1172 18.7285C30.5469 19.7311 30.7617 20.8086 30.7617 21.9609C30.7617 23.1133 30.5485 24.1908 30.1221 25.1934C29.6956 26.196 29.1032 27.0765 28.3447 27.835C27.5862 28.5935 26.7041 29.1875 25.6982 29.6172C24.6924 30.0469 23.6133 30.2617 22.4609 30.2617Z" fill="#FF9500"/>
</svg>