<svg width="24" height="24" viewBox="0 0 24 24" fill="none" xmlns="http://www.w3.org/2000/svg">
<g clip-path="url(#clip0_61442_33539)">
<path d="M8.49585 13.085L10.204 14.8181C10.3421 14.9562 10.5033 15.0252 10.6874 15.0253C10.8716 15.0253 11.0327 14.9562 11.1708 14.8181L15.825 10.1639C15.9585 10.0304 16.0253 9.8716 16.0253 9.68746C16.0252 9.50328 15.9562 9.34215 15.8181 9.20406C15.6846 9.07056 15.5257 9.00381 15.3416 9.00381C15.1575 9.00381 14.9986 9.07056 14.8651 9.20406L10.6874 13.3818L9.45568 12.1252C9.31757 11.9871 9.15644 11.9181 8.97229 11.9181C8.78816 11.918 8.62935 11.9848 8.49585 12.1183C8.35773 12.2564 8.28867 12.4175 8.28867 12.6017C8.28868 12.7858 8.35774 12.9469 8.49585 13.085Z" fill="#E83D45"/>
<path d="M4.91748 19.0044C5.87964 19.9665 6.96954 20.6881 8.18718 21.1692C9.40482 21.6503 10.6627 21.8908 11.9609 21.8908C13.2591 21.8908 14.5171 21.6503 15.7347 21.1692C16.9523 20.6881 18.0422 19.9665 19.0044 19.0044C19.9665 18.0422 20.6881 16.9523 21.1692 15.7347C21.6503 14.517 21.8908 13.2591 21.8908 11.9609C21.8908 10.6627 21.6491 9.40365 21.1657 8.18368C20.6824 6.96375 19.9596 5.87271 18.9975 4.91056C18.0353 3.94842 16.9454 3.22681 15.7278 2.74574C14.5102 2.26467 13.2534 2.02528 11.9575 2.02758C10.6616 2.02989 9.40481 2.27157 8.18717 2.75264C6.96953 3.23372 5.87963 3.95533 4.91749 4.91747C3.95532 5.87964 3.23372 6.96953 2.75267 8.18714C2.27158 9.4048 2.03105 10.6627 2.03107 11.9609C2.03105 13.2591 2.27159 14.517 2.75268 15.7347C3.23373 16.9523 3.95533 18.0422 4.91748 19.0044ZM6.09141 17.8304C5.27658 17.0156 4.6666 16.1018 4.26148 15.089C3.85635 14.0763 3.65378 13.0336 3.65378 11.9609C3.65379 10.8883 3.8575 9.84676 4.26491 8.83628C4.67232 7.8258 5.28345 6.91313 6.0983 6.09828C6.91313 5.28345 7.82579 4.67233 8.83627 4.26492C9.84675 3.8575 10.8883 3.65149 11.9609 3.64689C13.0336 3.64228 14.0751 3.84369 15.0856 4.2511C16.0961 4.65852 17.0087 5.26965 17.8236 6.08447C18.6384 6.89931 19.2495 7.81197 19.6569 8.82244C20.0644 9.83292 20.2681 10.8768 20.2681 11.954C20.2681 13.0313 20.0655 14.0763 19.6604 15.089C19.2553 16.1018 18.6453 17.0156 17.8305 17.8304C17.0156 18.6453 16.103 19.2564 15.0925 19.6639C14.082 20.0713 13.0404 20.275 11.9678 20.275C10.8952 20.275 9.85131 20.0712 8.83623 19.6638C7.8212 19.2564 6.90627 18.6453 6.09141 17.8304Z" fill="#E83D45"/>
</g>
<defs>
<clipPath id="clip0_61442_33539">
<rect width="24" height="24" fill="white"/>
</clipPath>
</defs>
</svg>