<svg width="24" height="24" viewBox="0 0 24 24" fill="none" xmlns="http://www.w3.org/2000/svg">
<path d="M6.85352 13.0156H11.9512C12.1465 13.0156 12.3092 12.9505 12.4395 12.8203C12.5697 12.6901 12.6348 12.5273 12.6348 12.332V5.75C12.6348 5.5612 12.5697 5.4017 12.4395 5.27148C12.3092 5.14128 12.1465 5.07617 11.9512 5.07617C11.7624 5.07617 11.6029 5.14128 11.4727 5.27148C11.3424 5.4017 11.2773 5.5612 11.2773 5.75V11.6582H6.85352C6.65821 11.6582 6.49545 11.7233 6.36523 11.8535C6.23503 11.9837 6.16992 12.1432 6.16992 12.332C6.16992 12.5273 6.23503 12.6901 6.36523 12.8203C6.49545 12.9505 6.65821 13.0156 6.85352 13.0156Z" fill="#007AFF"/>
<path d="M11.9609 21.9219C13.3216 21.9219 14.6026 21.6615 15.8037 21.1406C17.0049 20.6198 18.0645 19.9004 18.9824 18.9824C19.9004 18.0645 20.6198 17.0049 21.1406 15.8037C21.6615 14.6026 21.9219 13.3216 21.9219 11.9609C21.9219 10.6003 21.6615 9.31933 21.1406 8.11816C20.6198 6.91699 19.9004 5.85742 18.9824 4.93945C18.0645 4.02148 17.0033 3.30208 15.7988 2.78125C14.5944 2.26042 13.3119 2 11.9512 2C10.5905 2 9.30957 2.26042 8.1084 2.78125C6.90723 3.30208 5.84928 4.02148 4.93457 4.93945C4.01986 5.85742 3.30208 6.91699 2.78125 8.11816C2.26042 9.31933 2 10.6003 2 11.9609C2 13.3216 2.26042 14.6026 2.78125 15.8037C3.30208 17.0049 4.02148 18.0645 4.93945 18.9824C5.85742 19.9004 6.91699 20.6198 8.11816 21.1406C9.31933 21.6615 10.6003 21.9219 11.9609 21.9219ZM11.9609 20.2617C10.8086 20.2617 9.73112 20.0469 8.72852 19.6172C7.72591 19.1875 6.84538 18.5935 6.08691 17.835C5.32845 17.0765 4.736 16.196 4.30957 15.1934C3.88314 14.1908 3.66992 13.1133 3.66992 11.9609C3.66992 10.8086 3.88314 9.73112 4.30957 8.72852C4.736 7.72591 5.32682 6.84375 6.08203 6.08203C6.83724 5.32031 7.71614 4.72623 8.71875 4.2998C9.72136 3.87337 10.7988 3.66016 11.9512 3.66016C13.1035 3.66016 14.181 3.87337 15.1836 4.2998C16.1862 4.72623 17.0684 5.32031 17.8301 6.08203C18.5918 6.84375 19.1875 7.72591 19.6172 8.72852C20.0469 9.73112 20.2617 10.8086 20.2617 11.9609C20.2617 13.1133 20.0485 14.1908 19.6221 15.1934C19.1956 16.196 18.6032 17.0765 17.8447 17.835C17.0862 18.5935 16.2041 19.1875 15.1982 19.6172C14.1924 20.0469 13.1133 20.2617 11.9609 20.2617Z" fill="#007AFF"/>
</svg>