<svg width="26" height="26" viewBox="0 0 26 26" fill="none" xmlns="http://www.w3.org/2000/svg">
<path opacity="0.6" d="M8.23486 16.9399C7.92383 17.2509 7.91748 17.8032 8.24121 18.1269C8.57129 18.4506 9.12354 18.4443 9.42822 18.1396L13.186 14.3818L16.9375 18.1332C17.2549 18.4506 17.8008 18.4506 18.1245 18.1269C18.4482 17.7968 18.4482 17.2573 18.1309 16.9399L14.3794 13.1884L18.1309 9.43061C18.4482 9.11323 18.4546 8.56733 18.1245 8.2436C17.8008 7.91987 17.2549 7.91987 16.9375 8.23725L13.186 11.9887L9.42822 8.23725C9.12354 7.92621 8.56494 7.91352 8.24121 8.2436C7.91748 8.56733 7.92383 9.12592 8.23486 9.43061L11.9863 13.1884L8.23486 16.9399Z" fill="white"/>
</svg>