<svg width="25" height="24" viewBox="0 0 25 24" fill="none" xmlns="http://www.w3.org/2000/svg">
<path fill-rule="evenodd" clip-rule="evenodd" d="M16.0141 7.37812H13.9411C13.6523 6.57562 12.8836 6 11.9826 6C11.0817 6 10.313 6.57562 10.0242 7.37812H4.01343C3.6253 7.37812 3.3103 7.69266 3.3103 8.08125C3.3103 8.43703 3.57515 8.73047 3.91827 8.77688L6.01827 8.78438H10.0242C10.313 9.58687 11.0817 10.162 11.9826 10.162C12.8836 10.162 13.6523 9.58687 13.9411 8.78438H16.3278C16.1589 8.34232 16.0509 7.87014 16.0141 7.37812ZM18.128 11.0934L17.362 12.9567L15.5353 17.3751H14.7703C14.3826 17.3751 14.0671 17.6887 14.0671 18.0764C14.0662 20.8158 16.2946 23.0447 19.034 23.0447C21.7734 23.0447 24.0014 20.8158 24.0004 18.0764C24.0004 17.6887 23.685 17.3751 23.2973 17.3751H23.2968H22.5318L20.5875 12.6712L20.2903 11.95C19.4937 11.8368 18.7575 11.5359 18.128 11.0934ZM11.3076 8.08125C11.3076 8.45344 11.6105 8.75578 11.9826 8.75578C12.3548 8.75578 12.6576 8.45344 12.6576 8.08125C12.6576 7.70906 12.3548 7.40625 11.9826 7.40625C11.6105 7.40625 11.3076 7.70906 11.3076 8.08125ZM21.0103 17.3751L19.0335 12.5934L17.0564 17.3751H21.0103ZM15.5428 18.7814C15.87 20.4089 17.3109 21.6384 19.0335 21.6384C20.7557 21.6384 22.1967 20.4089 22.5239 18.7814H15.5428ZM9.23016 17.3751H8.46516L6.52078 12.6712L5.5725 10.3697C5.34938 9.8278 4.58156 9.82826 4.35891 10.3697L3.29531 12.9567L1.46813 17.3751H0.703126C0.31547 17.3751 2.95322e-07 17.6887 2.95322e-07 18.0764C-0.000936613 20.8158 2.2275 23.0447 4.96688 23.0447C7.70625 23.0447 9.93422 20.8158 9.93328 18.0764C9.93328 17.6887 9.61781 17.3751 9.23016 17.3751ZM4.96688 12.5934L6.94359 17.3751H2.98969L4.96688 12.5934ZM4.96688 21.6384C3.24422 21.6384 1.80328 20.4089 1.47609 18.7814H8.45719C8.13 20.4089 6.68906 21.6384 4.96688 21.6384Z" fill="white"/>
<g clip-path="url(#clip0_58721_11529)">
<rect x="9" width="16" height="16" rx="8" fill="white"/>
<path d="M17 14.6666C20.6667 14.6666 23.6667 11.6666 23.6667 7.99998C23.6667 4.33331 20.6667 1.33331 17 1.33331C13.3334 1.33331 10.3334 4.33331 10.3334 7.99998C10.3334 11.6666 13.3334 14.6666 17 14.6666Z" stroke="#69AE8D" stroke-linecap="round" stroke-linejoin="round"/>
<path d="M14.1666 7.99998L16.0533 9.88665L19.8333 6.11334" stroke="#69AE8D" stroke-linecap="round" stroke-linejoin="round"/>
</g>
<defs>
<clipPath id="clip0_58721_11529">
<rect x="9" width="16" height="16" rx="8" fill="white"/>
</clipPath>
</defs>
</svg>