<svg width="14" height="16" viewBox="0 0 14 16" fill="none" xmlns="http://www.w3.org/2000/svg">
<path d="M3.08426 3.52306H4.10811V2.0159C4.10811 1.69793 4.19184 1.4531 4.35931 1.2814C4.52677 1.1097 4.77584 1.02385 5.10652 1.02385H7.91733V4.28617C7.91733 4.65501 8.00741 4.92846 8.18758 5.10652C8.36778 5.28458 8.64018 5.37361 9.00476 5.37361H11.9809V10.8108C11.9809 11.1288 11.8961 11.3736 11.7265 11.5453C11.557 11.717 11.3069 11.8029 10.9762 11.8029H9.72335V12.8267H11.0334C11.6905 12.8267 12.1834 12.6593 12.512 12.3243C12.8405 11.9894 13.0048 11.4913 13.0048 10.8299V5.66614C13.0048 5.2761 12.9581 4.94542 12.8649 4.67409C12.7716 4.40276 12.6062 4.14415 12.3688 3.89825L9.1574 0.63593C8.93269 0.402756 8.68468 0.238474 8.41334 0.143085C8.14201 0.0476949 7.83465 0 7.49126 0H5.05565C4.39852 0 3.90567 0.167462 3.57711 0.502385C3.24854 0.837309 3.08426 1.33546 3.08426 1.99682V3.52306ZM8.83942 4.13355V1.52623L11.7139 4.45151H9.15102C9.04079 4.45151 8.9613 4.42714 8.91255 4.37838C8.8638 4.32963 8.83942 4.24802 8.83942 4.13355ZM0 14.0032C0 14.6688 0.164282 15.168 0.492846 15.5008C0.821409 15.8336 1.31425 16 1.97138 16H7.94911C8.60625 16 9.09909 15.8325 9.42764 15.4976C9.75623 15.1627 9.92053 14.6645 9.92053 14.0032V9.0366C9.92053 8.76527 9.90568 8.53633 9.87599 8.34979C9.84634 8.16324 9.78806 7.99259 9.70114 7.83782C9.61423 7.6831 9.48597 7.51882 9.31635 7.345L5.8124 3.77743C5.57075 3.52729 5.33334 3.36407 5.10016 3.28776C4.86699 3.21145 4.57234 3.17329 4.21622 3.17329H1.97138C1.31425 3.17329 0.821409 3.34076 0.492846 3.67568C0.164282 4.0106 0 4.50875 0 5.17011V14.0032ZM1.02385 13.9841V5.18283C1.02385 4.86911 1.10758 4.62639 1.27504 4.45469C1.4425 4.28299 1.69158 4.19714 2.02226 4.19714H4.10811V7.88555C4.10811 8.28829 4.2088 8.5893 4.41018 8.78856C4.61156 8.98783 4.90938 9.08746 5.30366 9.08746H8.89666V13.9841C8.89666 14.3021 8.81187 14.5469 8.6423 14.7186C8.47273 14.8903 8.22472 14.9761 7.89825 14.9761H2.0159C1.68945 14.9761 1.4425 14.8903 1.27504 14.7186C1.10758 14.5469 1.02385 14.3021 1.02385 13.9841ZM5.42449 8.12721C5.2973 8.12721 5.20615 8.09964 5.15104 8.04451C5.09592 7.98942 5.06836 7.89827 5.06836 7.77107V4.43243L8.69954 8.12721H5.42449Z" fill="#ACADBC"/>
</svg>