<svg width="18" height="18" viewBox="0 0 18 18" fill="none" xmlns="http://www.w3.org/2000/svg">
<path d="M5.7198 3.96344H6.87162V2.26788C6.87162 1.91017 6.96582 1.63474 7.15422 1.44157C7.34261 1.24841 7.62282 1.15183 7.99484 1.15183H11.157V4.82194C11.157 5.23689 11.2583 5.54452 11.461 5.74484C11.6638 5.94515 11.9702 6.04531 12.3804 6.04531H15.7285V12.1622C15.7285 12.5199 15.6331 12.7953 15.4424 12.9885C15.2516 13.1816 14.9702 13.2782 14.5982 13.2782H13.1888V14.4301H14.6626C15.4018 14.4301 15.9563 14.2417 16.3259 13.8649C16.6956 13.4881 16.8804 12.9277 16.8804 12.1837V6.37441C16.8804 5.93561 16.8279 5.56359 16.723 5.25835C16.6181 4.9531 16.432 4.66216 16.1649 4.38554L12.5521 0.715421C12.2993 0.4531 12.0203 0.268283 11.715 0.16097C11.4098 0.0536567 11.064 0 10.6777 0H7.9376C7.19833 0 6.64388 0.188394 6.27424 0.565183C5.90461 0.941972 5.7198 1.50239 5.7198 2.24643V3.96344ZM12.1943 4.65024V1.71701L15.4281 5.00795H12.5449C12.4209 5.00795 12.3315 4.98053 12.2766 4.92568C12.2218 4.87083 12.1943 4.77902 12.1943 4.65024ZM2.25 15.7536C2.25 16.5024 2.43482 17.064 2.80445 17.4384C3.17409 17.8128 3.72854 18 4.4678 18H11.1927C11.932 18 12.4865 17.8116 12.8561 17.4348C13.2258 17.058 13.4106 16.4976 13.4106 15.7536V10.1662C13.4106 9.86093 13.3939 9.60338 13.3605 9.39351C13.3271 9.18365 13.2616 8.99166 13.1638 8.81755C13.066 8.64349 12.9217 8.45868 12.7309 8.26312L8.78895 4.2496C8.51709 3.96821 8.25 3.78458 7.98768 3.69873C7.72536 3.61288 7.39388 3.56996 6.99325 3.56996H4.4678C3.72854 3.56996 3.17409 3.75835 2.80445 4.13514C2.43482 4.51193 2.25 5.07234 2.25 5.81638V15.7536ZM3.40183 15.7321V5.83068C3.40183 5.47775 3.49603 5.20469 3.68442 5.01153C3.87282 4.81836 4.15302 4.72178 4.52504 4.72178H6.87162V8.87125C6.87162 9.32433 6.9849 9.66296 7.21145 9.88713C7.438 10.1113 7.77306 10.2234 8.21662 10.2234H12.2587V15.7321C12.2587 16.0898 12.1634 16.3652 11.9726 16.5584C11.7818 16.7516 11.5028 16.8481 11.1355 16.8481H4.51788C4.15064 16.8481 3.87282 16.7516 3.68442 16.5584C3.49603 16.3652 3.40183 16.0898 3.40183 15.7321ZM8.35255 9.14311C8.20946 9.14311 8.10692 9.1121 8.04492 9.05007C7.98291 8.9881 7.95191 8.88556 7.95191 8.74246V4.98649L12.037 9.14311H8.35255Z" fill="#E83D45"/>
</svg>