<svg width="16" height="16" viewBox="0 0 16 16" fill="none" xmlns="http://www.w3.org/2000/svg">
<path d="M5.08426 3.52306H6.10811V2.0159C6.10811 1.69793 6.19184 1.4531 6.35931 1.2814C6.52677 1.1097 6.77584 1.02385 7.10652 1.02385H9.91733V4.28617C9.91733 4.65501 10.0074 4.92846 10.1876 5.10652C10.3678 5.28458 10.6402 5.37361 11.0048 5.37361H13.9809V10.8108C13.9809 11.1288 13.8961 11.3736 13.7265 11.5453C13.557 11.717 13.3069 11.8029 12.9762 11.8029H11.7233V12.8267H13.0334C13.6905 12.8267 14.1834 12.6593 14.512 12.3243C14.8405 11.9894 15.0048 11.4913 15.0048 10.8299V5.66614C15.0048 5.2761 14.9581 4.94542 14.8649 4.67409C14.7716 4.40276 14.6062 4.14415 14.3688 3.89825L11.1574 0.63593C10.9327 0.402756 10.6847 0.238474 10.4133 0.143085C10.142 0.0476949 9.83465 0 9.49126 0H7.05565C6.39852 0 5.90567 0.167462 5.57711 0.502385C5.24854 0.837309 5.08426 1.33546 5.08426 1.99682V3.52306ZM10.8394 4.13355V1.52623L13.7139 4.45151H11.151C11.0408 4.45151 10.9613 4.42714 10.9125 4.37838C10.8638 4.32963 10.8394 4.24802 10.8394 4.13355ZM2 14.0032C2 14.6688 2.16428 15.168 2.49285 15.5008C2.82141 15.8336 3.31425 16 3.97138 16H9.94911C10.6062 16 11.0991 15.8325 11.4276 15.4976C11.7562 15.1627 11.9205 14.6645 11.9205 14.0032V9.0366C11.9205 8.76527 11.9057 8.53633 11.876 8.34979C11.8463 8.16324 11.7881 7.99259 11.7011 7.83782C11.6142 7.6831 11.486 7.51882 11.3164 7.345L7.8124 3.77743C7.57075 3.52729 7.33334 3.36407 7.10016 3.28776C6.86699 3.21145 6.57234 3.17329 6.21622 3.17329H3.97138C3.31425 3.17329 2.82141 3.34076 2.49285 3.67568C2.16428 4.0106 2 4.50875 2 5.17011V14.0032ZM3.02385 13.9841V5.18283C3.02385 4.86911 3.10758 4.62639 3.27504 4.45469C3.4425 4.28299 3.69158 4.19714 4.02226 4.19714H6.10811V7.88555C6.10811 8.28829 6.2088 8.5893 6.41018 8.78856C6.61156 8.98783 6.90938 9.08746 7.30366 9.08746H10.8967V13.9841C10.8967 14.3021 10.8119 14.5469 10.6423 14.7186C10.4727 14.8903 10.2247 14.9761 9.89825 14.9761H4.0159C3.68945 14.9761 3.4425 14.8903 3.27504 14.7186C3.10758 14.5469 3.02385 14.3021 3.02385 13.9841ZM7.42449 8.12721C7.2973 8.12721 7.20615 8.09964 7.15104 8.04451C7.09592 7.98942 7.06836 7.89827 7.06836 7.77107V4.43243L10.6995 8.12721H7.42449Z" fill="#64667D"/>
</svg>