<svg width="18" height="18" viewBox="0 0 18 18" fill="none" xmlns="http://www.w3.org/2000/svg">
<g clip-path="url(#clip0_61936_9062)">
<path d="M0 11.2536C0 11.6801 0.106557 12.0694 0.319672 12.4216C0.532787 12.7738 0.818032 13.0549 1.17541 13.265C1.53279 13.4749 1.92787 13.5799 2.36065 13.5799C2.79344 13.5799 3.18852 13.4749 3.5459 13.265C3.90328 13.0549 4.19016 12.7738 4.40656 12.4216C4.62295 12.0694 4.73115 11.6801 4.73115 11.2536C4.73115 10.8272 4.62295 10.4378 4.40656 10.0856C4.19016 9.73341 3.90328 9.45233 3.5459 9.24231C3.18852 9.03229 2.79344 8.92728 2.36065 8.92728C1.92787 8.92728 1.53279 9.03229 1.17541 9.24231C0.818032 9.45233 0.532787 9.73341 0.319672 10.0856C0.106557 10.4378 0 10.8272 0 11.2536ZM1.20983 11.2536C1.20983 10.937 1.32295 10.6688 1.54918 10.449C1.77541 10.2294 2.04918 10.1195 2.3705 10.1195C2.6918 10.1195 2.96393 10.2294 3.18688 10.449C3.40983 10.6688 3.52131 10.937 3.52131 11.2536C3.52131 11.5767 3.40983 11.8465 3.18688 12.063C2.96393 12.2795 2.6918 12.3877 2.3705 12.3877C2.04918 12.3877 1.77541 12.2795 1.54918 12.063C1.32295 11.8465 1.20983 11.5767 1.20983 11.2536ZM2.3705 0C2.14754 0 1.95901 0.0759287 1.80492 0.227786C1.65082 0.379644 1.57377 0.565427 1.57377 0.785136V9.71243H3.15738V0.785136C3.15738 0.565427 3.08033 0.379644 2.92623 0.227786C2.77213 0.0759287 2.58688 0 2.3705 0ZM2.3705 17.0597C2.58688 17.0597 2.77213 16.9854 2.92623 16.8368C3.08033 16.6882 3.15738 16.5137 3.15738 16.3133V12.9402H1.57377V16.3133C1.57377 16.5137 1.65082 16.6882 1.80492 16.8368C1.95901 16.9854 2.14754 17.0597 2.3705 17.0597ZM6.6295 5.65104C6.6295 6.07753 6.7377 6.46687 6.9541 6.81905C7.17049 7.17123 7.45737 7.45233 7.81475 7.66235C8.17213 7.87236 8.56721 7.97737 9 7.97737C9.43279 7.97737 9.82786 7.87236 10.1852 7.66235C10.5426 7.45233 10.8278 7.17123 11.041 6.81905C11.2541 6.46687 11.3607 6.07753 11.3607 5.65104C11.3607 5.22455 11.2541 4.83521 11.041 4.48303C10.8278 4.13085 10.5426 3.84975 10.1852 3.63973C9.82786 3.42972 9.43279 3.32471 9 3.32471C8.56721 3.32471 8.17213 3.42972 7.81475 3.63973C7.45737 3.84975 7.17049 4.13085 6.9541 4.48303C6.7377 4.83521 6.6295 5.22455 6.6295 5.65104ZM7.84918 5.65104C7.84918 5.3344 7.96065 5.06622 8.1836 4.84652C8.40655 4.62681 8.67869 4.51695 9 4.51695C9.32787 4.51695 9.60164 4.62681 9.82131 4.84652C10.041 5.06622 10.1508 5.3344 10.1508 5.65104C10.1508 5.97414 10.041 6.24393 9.82131 6.46041C9.60164 6.67689 9.32787 6.78513 9 6.78513C8.67869 6.78513 8.40655 6.67689 8.1836 6.46041C7.96065 6.24393 7.84918 5.97414 7.84918 5.65104ZM9 0C8.77705 0 8.59017 0.0743131 8.43935 0.222939C8.28852 0.371566 8.21311 0.546041 8.21311 0.746364V3.98384H9.79671V0.746364C9.79671 0.546041 9.71967 0.371566 9.56557 0.222939C9.41147 0.0743131 9.22295 0 9 0ZM9 17.0597C9.22295 17.0597 9.41147 16.9838 9.56557 16.8319C9.71967 16.6801 9.79671 16.4943 9.79671 16.2746V7.19223H8.21311V16.2746C8.21311 16.4943 8.28852 16.6801 8.43935 16.8319C8.59017 16.9838 8.77705 17.0597 9 17.0597ZM13.2787 11.2536C13.2787 11.6801 13.3853 12.0694 13.5984 12.4216C13.8115 12.7738 14.0967 13.0549 14.4541 13.265C14.8115 13.4749 15.2065 13.5799 15.6393 13.5799C16.0721 13.5799 16.4672 13.4749 16.8246 13.265C17.1819 13.0549 17.4672 12.7738 17.6803 12.4216C17.8934 12.0694 18 11.6801 18 11.2536C18 10.8272 17.8934 10.4378 17.6803 10.0856C17.4672 9.73341 17.1819 9.45233 16.8246 9.24231C16.4672 9.03229 16.0721 8.92728 15.6393 8.92728C15.2065 8.92728 14.8115 9.03229 14.4541 9.24231C14.0967 9.45233 13.8115 9.73341 13.5984 10.0856C13.3853 10.4378 13.2787 10.8272 13.2787 11.2536ZM14.4886 11.2536C14.4886 10.937 14.6 10.6688 14.8229 10.449C15.0459 10.2294 15.318 10.1195 15.6393 10.1195C15.9672 10.1195 16.241 10.2294 16.4607 10.449C16.6803 10.6688 16.7901 10.937 16.7901 11.2536C16.7901 11.5767 16.6803 11.8465 16.4607 12.063C16.241 12.2795 15.9672 12.3877 15.6393 12.3877C15.318 12.3877 15.0459 12.2795 14.8229 12.063C14.6 11.8465 14.4886 11.5767 14.4886 11.2536ZM15.6393 0C15.4164 0 15.2278 0.0759287 15.0737 0.227786C14.9196 0.379644 14.8426 0.565427 14.8426 0.785136V9.76088H16.4262V0.785136C16.4262 0.565427 16.3492 0.379644 16.1951 0.227786C16.041 0.0759287 15.8557 0 15.6393 0ZM15.6393 17.0597C15.8557 17.0597 16.041 16.9854 16.1951 16.8368C16.3492 16.6882 16.4262 16.5137 16.4262 16.3133V12.8045H14.8426V16.3133C14.8426 16.5137 14.9196 16.6882 15.0737 16.8368C15.2278 16.9854 15.4164 17.0597 15.6393 17.0597Z" fill="white"/>
</g>
<defs>
<clipPath id="clip0_61936_9062">
<rect width="18" height="18" fill="white"/>
</clipPath>
</defs>
</svg>