<svg width="18" height="18" viewBox="0 0 18 18" fill="none" xmlns="http://www.w3.org/2000/svg">
<g clip-path="url(#clip0_61728_31960)">
<path d="M0 11.2536C0 11.6801 0.106286 12.0694 0.318858 12.4216C0.531429 12.7738 0.815948 13.0549 1.17241 13.265C1.52888 13.4749 1.92296 13.5799 2.35464 13.5799C2.78632 13.5799 3.1804 13.4749 3.53687 13.265C3.89333 13.0549 4.17948 12.7738 4.39533 12.4216C4.61117 12.0694 4.71909 11.6801 4.71909 11.2536C4.71909 10.8272 4.61117 10.4378 4.39533 10.0856C4.17948 9.73341 3.89333 9.45233 3.53687 9.24231C3.1804 9.03229 2.78632 8.92728 2.35464 8.92728C1.92296 8.92728 1.52888 9.03229 1.17241 9.24231C0.815948 9.45233 0.531429 9.73341 0.318858 10.0856C0.106286 10.4378 0 10.8272 0 11.2536ZM1.20675 11.2536C1.20675 10.937 1.31958 10.6688 1.54524 10.449C1.77089 10.2294 2.04396 10.1195 2.36445 10.1195C2.68494 10.1195 2.95638 10.2294 3.17876 10.449C3.40114 10.6688 3.51233 10.937 3.51233 11.2536C3.51233 11.5767 3.40114 11.8465 3.17876 12.063C2.95638 12.2795 2.68494 12.3877 2.36445 12.3877C2.04396 12.3877 1.77089 12.2795 1.54524 12.063C1.31958 11.8465 1.20675 11.5767 1.20675 11.2536ZM2.36445 0C2.14207 0 1.95402 0.0759287 1.80032 0.227786C1.64661 0.379644 1.56976 0.565427 1.56976 0.785136V9.71243H3.14933V0.785136C3.14933 0.565427 3.07248 0.379644 2.91877 0.227786C2.76506 0.0759287 2.58029 0 2.36445 0ZM2.36445 17.0597C2.58029 17.0597 2.76506 16.9854 2.91877 16.8368C3.07248 16.6882 3.14933 16.5137 3.14933 16.3133V12.9402H1.56976V16.3133C1.56976 16.5137 1.64661 16.6882 1.80032 16.8368C1.95402 16.9854 2.14207 17.0597 2.36445 17.0597ZM6.61261 5.65104C6.61261 6.07753 6.72053 6.46687 6.93638 6.81905C7.15222 7.17123 7.43837 7.45233 7.79484 7.66235C8.15131 7.87236 8.54538 7.97737 8.97707 7.97737C9.40875 7.97737 9.80282 7.87236 10.1593 7.66235C10.5157 7.45233 10.8002 7.17123 11.0128 6.81905C11.2254 6.46687 11.3317 6.07753 11.3317 5.65104C11.3317 5.22455 11.2254 4.83521 11.0128 4.48303C10.8002 4.13085 10.5157 3.84975 10.1593 3.63973C9.80282 3.42972 9.40875 3.32471 8.97707 3.32471C8.54538 3.32471 8.15131 3.42972 7.79484 3.63973C7.43837 3.84975 7.15222 4.13085 6.93638 4.48303C6.72053 4.83521 6.61261 5.22455 6.61261 5.65104ZM7.82918 5.65104C7.82918 5.3344 7.94037 5.06622 8.16275 4.84652C8.38513 4.62681 8.65657 4.51695 8.97707 4.51695C9.3041 4.51695 9.57717 4.62681 9.79629 4.84652C10.0154 5.06622 10.1249 5.3344 10.1249 5.65104C10.1249 5.97414 10.0154 6.24393 9.79629 6.46041C9.57717 6.67689 9.3041 6.78513 8.97707 6.78513C8.65657 6.78513 8.38513 6.67689 8.16275 6.46041C7.94037 6.24393 7.82918 5.97414 7.82918 5.65104ZM8.97707 0C8.75468 0 8.56828 0.0743131 8.41784 0.222939C8.2674 0.371566 8.19219 0.546041 8.19219 0.746364V3.98384H9.77175V0.746364C9.77175 0.546041 9.6949 0.371566 9.5412 0.222939C9.38749 0.0743131 9.19945 0 8.97707 0ZM8.97707 17.0597C9.19945 17.0597 9.38749 16.9838 9.5412 16.8319C9.6949 16.6801 9.77175 16.4943 9.77175 16.2746V7.19223H8.19219V16.2746C8.19219 16.4943 8.2674 16.6801 8.41784 16.8319C8.56828 16.9838 8.75468 17.0597 8.97707 17.0597ZM13.2449 11.2536C13.2449 11.6801 13.3511 12.0694 13.5637 12.4216C13.7763 12.7738 14.0608 13.0549 14.4173 13.265C14.7737 13.4749 15.1678 13.5799 15.5994 13.5799C16.0312 13.5799 16.4253 13.4749 16.7817 13.265C17.1382 13.0549 17.4227 12.7738 17.6353 12.4216C17.8478 12.0694 17.9541 11.6801 17.9541 11.2536C17.9541 10.8272 17.8478 10.4378 17.6353 10.0856C17.4227 9.73341 17.1382 9.45233 16.7817 9.24231C16.4253 9.03229 16.0312 8.92728 15.5994 8.92728C15.1678 8.92728 14.7737 9.03229 14.4173 9.24231C14.0608 9.45233 13.7763 9.73341 13.5637 10.0856C13.3511 10.4378 13.2449 10.8272 13.2449 11.2536ZM14.4516 11.2536C14.4516 10.937 14.5628 10.6688 14.7852 10.449C15.0075 10.2294 15.279 10.1195 15.5994 10.1195C15.9265 10.1195 16.1996 10.2294 16.4187 10.449C16.6378 10.6688 16.7474 10.937 16.7474 11.2536C16.7474 11.5767 16.6378 11.8465 16.4187 12.063C16.1996 12.2795 15.9265 12.3877 15.5994 12.3877C15.279 12.3877 15.0075 12.2795 14.7852 12.063C14.5628 11.8465 14.4516 11.5767 14.4516 11.2536ZM15.5994 0C15.3771 0 15.189 0.0759287 15.0353 0.227786C14.8816 0.379644 14.8048 0.565427 14.8048 0.785136V9.76088H16.3844V0.785136C16.3844 0.565427 16.3075 0.379644 16.1538 0.227786C16.0001 0.0759287 15.8153 0 15.5994 0ZM15.5994 17.0597C15.8153 17.0597 16.0001 16.9854 16.1538 16.8368C16.3075 16.6882 16.3844 16.5137 16.3844 16.3133V12.8045H14.8048V16.3133C14.8048 16.5137 14.8816 16.6882 15.0353 16.8368C15.189 16.9854 15.3771 17.0597 15.5994 17.0597Z" fill="#E83D45"/>
</g>
<defs>
<clipPath id="clip0_61728_31960">
<rect width="17.9541" height="18" fill="white"/>
</clipPath>
</defs>
</svg>