<svg width="17" height="17" viewBox="0 0 17 17" fill="none" xmlns="http://www.w3.org/2000/svg">
<g clip-path="url(#clip0_61827_8223)">
<path fill-rule="evenodd" clip-rule="evenodd" d="M13.326 5.38561C13.3745 5.37039 13.4381 5.40083 13.5018 5.48453C13.5018 5.48453 13.5018 5.48453 16.3807 8.28985C16.5488 8.45726 16.5488 8.71091 16.3807 8.83519C16.3807 8.83519 16.3807 8.83519 13.5018 11.6836C13.4381 11.7673 13.3745 11.7876 13.326 11.7623C13.2776 11.7369 13.2471 11.6633 13.2471 11.5568V5.56823C13.2471 5.46424 13.2776 5.40082 13.326 5.38561Z" fill="#ED1C24"/>
<path fill-rule="evenodd" clip-rule="evenodd" d="M8.4014 0.710938H8.60522L8.80139 0.792105C8.80139 0.792105 8.80139 0.792104 11.7643 3.72425C11.8917 3.89166 11.8484 4.01848 11.6369 4.01848C11.6369 4.01848 11.6369 4.01848 10.4089 4.01848C10.1975 4.01848 10.0293 4.18589 10.0293 4.39642C10.0293 4.39642 10.0293 4.39642 10.0293 6.5727C10.0293 6.78323 9.85866 6.95063 9.60389 6.95063C9.60389 6.95063 9.60389 6.95063 7.44604 6.95063C7.23458 6.95063 7.06389 6.78323 7.06389 6.5727C7.06389 6.5727 7.06389 6.5727 7.06389 4.39642C7.06389 4.18589 6.89575 4.01848 6.68175 4.01848H5.36971C5.15826 4.01848 5.11495 3.89166 5.24233 3.72425C5.24233 3.72425 5.24233 3.72425 8.20778 0.792105L8.4014 0.710938Z" fill="#ED1C24"/>
<path fill-rule="evenodd" clip-rule="evenodd" d="M3.75971 5.32174C3.81321 5.3471 3.84633 5.42066 3.84633 5.52719V11.6401C3.84633 11.7466 3.81321 11.81 3.75971 11.8303C3.70876 11.8506 3.63488 11.8303 3.54826 11.7669C3.54826 11.7669 3.54826 11.7669 0.626108 8.83474C0.457964 8.71045 0.457964 8.45681 0.626108 8.2894C0.626108 8.2894 0.626109 8.2894 3.54826 5.40037C3.63488 5.31667 3.70876 5.29637 3.75971 5.32174Z" fill="#ED1C24"/>
<path fill-rule="evenodd" clip-rule="evenodd" d="M7.44617 10.1338C7.44617 10.1338 7.44617 10.1338 9.60403 10.1338C9.85879 10.1338 10.0295 10.3012 10.0295 10.5117C10.0295 10.5117 10.0295 10.5117 10.0295 12.8148C10.0295 13.0659 10.1976 13.2333 10.4091 13.2333H11.553C11.7644 13.2333 11.8485 13.3576 11.6804 13.4845C11.6804 13.4845 11.6804 13.4845 8.80152 16.3735C8.7149 16.4572 8.61045 16.5003 8.50344 16.5003C8.39899 16.5003 8.29199 16.4572 8.20792 16.3735C8.20792 16.3735 8.20792 16.3735 5.32908 13.4845C5.15839 13.3576 5.24246 13.2333 5.45392 13.2333C5.45392 13.2333 5.45392 13.2333 6.68188 13.2333C6.89588 13.2333 7.06403 13.0659 7.06403 12.8148C7.06403 12.8148 7.06403 12.8148 7.06403 10.5117C7.06403 10.3012 7.23472 10.1338 7.44617 10.1338Z" fill="#ED1C24"/>
</g>
<defs>
<clipPath id="clip0_61827_8223">
<rect width="16" height="16" fill="white" transform="translate(0.5 0.5)"/>
</clipPath>
</defs>
</svg>