<svg width="15" height="24" viewBox="0 0 15 24" fill="none" xmlns="http://www.w3.org/2000/svg">
<g clip-path="url(#clip0_1206_29)">
<path d="M3.41666 0.178502L0.179487 3.19177C0.0598291 3.30489 0 3.43361 0 3.57793C0 3.73396 0.0523504 3.85975 0.157051 3.95532C0.261752 4.05089 0.397435 4.09867 0.564102 4.09867C0.72222 4.09867 0.856835 4.04796 0.967947 3.94654L2.30128 2.68858L3.33332 1.6003L3.26923 2.95188L3.26923 10.4704C3.26923 10.6225 3.32264 10.7483 3.42948 10.8478C3.53632 10.9473 3.67521 10.997 3.84615 10.997C4.01281 10.997 4.14956 10.9473 4.25641 10.8478C4.36324 10.7483 4.41666 10.6225 4.41666 10.4704V2.95188L4.35896 1.6003L5.3846 2.68858L6.72432 3.94654C6.83118 4.04796 6.96367 4.09867 7.12178 4.09867C7.28846 4.09867 7.42414 4.05089 7.52882 3.95532C7.63353 3.85975 7.68589 3.73396 7.68589 3.57793C7.68589 3.43361 7.62605 3.30489 7.50637 3.19177L4.27563 0.178502C4.15597 0.061482 4.01281 0.00199677 3.84615 4.64365e-05C3.67948 -0.0019039 3.53632 0.0575814 3.41666 0.178502ZM11.5897 10.8273L14.8205 7.80233C14.9402 7.69313 15 7.56441 15 7.41618C15 7.26017 14.9476 7.13534 14.8429 7.04172C14.7382 6.94809 14.6025 6.90128 14.4359 6.90128C14.2778 6.90128 14.1453 6.95005 14.0384 7.04759L12.7051 8.30555L11.6731 9.3997L11.7308 8.0481V0.529562C11.7308 0.377436 11.6773 0.251639 11.5705 0.152172C11.4637 0.0527054 11.3269 0.00297194 11.1603 0.00297194C10.9936 0.00297194 10.8558 0.0527054 10.7468 0.152172C10.6378 0.251639 10.5833 0.377436 10.5833 0.529562V8.0481L10.6474 9.3997L9.61534 8.30555L8.28205 7.04759C8.17094 6.95005 8.03845 6.90128 7.88459 6.90128C7.71795 6.90128 7.5812 6.94809 7.47433 7.04172C7.36751 7.13534 7.3141 7.26017 7.3141 7.41618C7.3141 7.56441 7.37607 7.69313 7.5 7.80233L10.7308 10.8273C10.8504 10.9405 10.9925 10.998 11.1571 11C11.3215 11.0019 11.4658 10.9443 11.5897 10.8273Z" fill="#ACADBC"/>
<path d="M3.41666 12.1947L0.179487 15.4819C0.0598291 15.6053 0 15.7458 0 15.9032C0 16.0734 0.0523504 16.2106 0.157051 16.3149C0.261752 16.4192 0.397435 16.4713 0.564102 16.4713C0.72222 16.4713 0.856835 16.416 0.967947 16.3053L2.30128 14.933L3.33332 13.7458L3.26923 15.2202V23.4223C3.26923 23.5882 3.32264 23.7254 3.42948 23.8339C3.53632 23.9425 3.67521 23.9967 3.84615 23.9967C4.01281 23.9967 4.14956 23.9425 4.25641 23.8339C4.36324 23.7254 4.41666 23.5882 4.41666 23.4223V15.2202L4.35896 13.7458L5.3846 14.933L6.72432 16.3053C6.83118 16.416 6.96367 16.4713 7.12178 16.4713C7.28846 16.4713 7.42414 16.4192 7.52882 16.3149C7.63353 16.2106 7.68589 16.0734 7.68589 15.9032C7.68589 15.7458 7.62605 15.6053 7.50637 15.4819L4.27563 12.1947C4.15597 12.0671 4.01281 12.0022 3.84615 12.0001C3.67948 11.9979 3.53632 12.0628 3.41666 12.1947ZM11.5897 23.8116L14.8205 20.5116C14.9402 20.3925 15 20.2521 15 20.0904C15 19.9202 14.9476 19.784 14.8429 19.6819C14.7382 19.5797 14.6025 19.5287 14.4359 19.5287C14.2778 19.5287 14.1453 19.5819 14.0384 19.6883L12.7051 21.0606L11.6731 22.2542L11.7308 20.7797V12.5777C11.7308 12.4117 11.6773 12.2745 11.5705 12.166C11.4637 12.0575 11.3269 12.0032 11.1603 12.0032C10.9936 12.0032 10.8558 12.0575 10.7468 12.166C10.6378 12.2745 10.5833 12.4117 10.5833 12.5777V20.7797L10.6474 22.2542L9.61534 21.0606L8.28205 19.6883C8.17094 19.5819 8.03845 19.5287 7.88459 19.5287C7.71795 19.5287 7.5812 19.5797 7.47433 19.6819C7.36751 19.784 7.3141 19.9202 7.3141 20.0904C7.3141 20.2521 7.37607 20.3925 7.5 20.5116L10.7308 23.8116C10.8504 23.935 10.9925 23.9978 11.1571 23.9999C11.3215 24.002 11.4658 23.9393 11.5897 23.8116Z" fill="#E83D45"/>
</g>
<defs>
<clipPath id="clip0_1206_29">
<rect width="15" height="24" fill="white"/>
</clipPath>
</defs>
</svg>