<svg width="16" height="13" viewBox="0 0 16 13" fill="none" xmlns="http://www.w3.org/2000/svg">
<g clip-path="url(#clip0_60991_24740)">
<path d="M4.76105 0.688166L1.64633 3.86456C1.5312 3.98381 1.47363 4.1195 1.47363 4.27164C1.47363 4.43611 1.524 4.56871 1.62474 4.66946C1.72548 4.7702 1.85603 4.82057 2.0164 4.82057C2.16853 4.82057 2.29806 4.76711 2.40497 4.6602L3.68786 3.33413L4.68087 2.18693L4.61919 3.61169V11.5373C4.61919 11.6976 4.67059 11.8302 4.77339 11.9351C4.87618 12.0399 5.00982 12.0924 5.17429 12.0924C5.33465 12.0924 5.46623 12.0399 5.56903 11.9351C5.67183 11.8302 5.72322 11.6976 5.72322 11.5373V3.61169L5.66771 2.18693L6.65455 3.33413L7.94359 4.6602C8.04641 4.76711 8.17388 4.82057 8.32601 4.82057C8.48639 4.82057 8.61694 4.7702 8.71765 4.66946C8.81841 4.56871 8.86879 4.43611 8.86879 4.27164C8.86879 4.1195 8.81121 3.98381 8.69605 3.86456L5.58753 0.688166C5.4724 0.564811 5.33465 0.502105 5.17429 0.500049C5.01393 0.497993 4.87618 0.560699 4.76105 0.688166ZM12.6249 11.9135L15.7335 8.72473C15.8486 8.60962 15.9062 8.47393 15.9062 8.31768C15.9062 8.15322 15.8558 8.02164 15.7551 7.92295C15.6543 7.82425 15.5238 7.7749 15.3634 7.7749C15.2113 7.7749 15.0838 7.82631 14.981 7.92913L13.6982 9.2552L12.7051 10.4086L12.7606 8.98381V1.05823C12.7606 0.89787 12.7093 0.765263 12.6065 0.660411C12.5037 0.555559 12.3721 0.503133 12.2117 0.503133C12.0514 0.503133 11.9187 0.555559 11.8139 0.660411C11.709 0.765263 11.6566 0.89787 11.6566 1.05823V8.98381L11.7183 10.4086L10.7253 9.2552L9.44239 7.92913C9.33548 7.82631 9.20801 7.7749 9.05997 7.7749C8.89963 7.7749 8.76805 7.82425 8.66523 7.92295C8.56245 8.02164 8.51106 8.15322 8.51106 8.31768C8.51106 8.47393 8.57069 8.60962 8.68993 8.72473L11.7985 11.9135C11.9136 12.0328 12.0503 12.0934 12.2086 12.0955C12.3669 12.0975 12.5057 12.0368 12.6249 11.9135Z" fill="#E83D45"/>
</g>
<defs>
<clipPath id="clip0_60991_24740">
<rect width="15.1579" height="12" fill="white" transform="translate(0.842285 0.5)"/>
</clipPath>
</defs>
</svg>