<svg width="17" height="17" viewBox="0 0 17 17" fill="none" xmlns="http://www.w3.org/2000/svg">
<path d="M4.81901 9.17674H8.21745C8.34764 9.17674 8.45616 9.13334 8.543 9.04654C8.6298 8.95974 8.6732 8.85123 8.6732 8.72101V4.33301C8.6732 4.20714 8.6298 4.1008 8.543 4.014C8.45616 3.92719 8.34764 3.88379 8.21745 3.88379C8.09158 3.88379 7.98525 3.92719 7.89844 4.014C7.81163 4.1008 7.76823 4.20714 7.76823 4.33301V8.27181H4.81901C4.68881 8.27181 4.5803 8.31521 4.49349 8.40202C4.40668 8.48881 4.36328 8.59514 4.36328 8.72101C4.36328 8.85123 4.40668 8.95974 4.49349 9.04654C4.5803 9.13334 4.68881 9.17674 4.81901 9.17674Z" fill="#FF9500"/>
<path d="M8.22388 15.1143C9.13102 15.1143 9.98496 14.9407 10.7857 14.5934C11.5865 14.2462 12.2929 13.7666 12.9049 13.1546C13.5169 12.5427 13.9965 11.8363 14.3437 11.0355C14.6909 10.2347 14.8645 9.38077 14.8645 8.47363C14.8645 7.56651 14.6909 6.71256 14.3437 5.91178C13.9965 5.111 13.5169 4.40462 12.9049 3.79264C12.2929 3.18066 11.5854 2.70106 10.7825 2.35384C9.97952 2.00662 9.12449 1.83301 8.21737 1.83301C7.31025 1.83301 6.4563 2.00662 5.65552 2.35384C4.85474 2.70106 4.14944 3.18066 3.53963 3.79264C2.92982 4.40462 2.45131 5.111 2.10409 5.91178C1.75686 6.71256 1.58325 7.56651 1.58325 8.47363C1.58325 9.38077 1.75686 10.2347 2.10409 11.0355C2.45131 11.8363 2.93091 12.5427 3.54289 13.1546C4.15487 13.7666 4.86125 14.2462 5.66203 14.5934C6.46281 14.9407 7.31676 15.1143 8.22388 15.1143ZM8.22388 14.0075C7.45565 14.0075 6.73733 13.8643 6.06893 13.5778C5.40053 13.2914 4.8135 12.8953 4.30786 12.3897C3.80222 11.884 3.40725 11.297 3.12297 10.6286C2.83868 9.96021 2.69653 9.24188 2.69653 8.47363C2.69653 7.7054 2.83868 6.98709 3.12297 6.31869C3.40725 5.65028 3.80113 5.06217 4.30461 4.55436C4.80808 4.04655 5.39401 3.6505 6.06242 3.36621C6.73082 3.08192 7.44914 2.93978 8.21737 2.93978C8.9856 2.93978 9.70392 3.08192 10.3723 3.36621C11.0407 3.6505 11.6288 4.04655 12.1367 4.55436C12.6445 5.06217 13.0416 5.65028 13.3281 6.31869C13.6145 6.98709 13.7577 7.7054 13.7577 8.47363C13.7577 9.24188 13.6156 9.96021 13.3313 10.6286C13.047 11.297 12.652 11.884 12.1464 12.3897C11.6407 12.8953 11.0526 13.2914 10.3821 13.5778C9.71152 13.8643 8.99213 14.0075 8.22388 14.0075Z" fill="#FF9500"/>
</svg>