<?xml version="1.0" ?><!DOCTYPE svg  PUBLIC '-//W3C//DTD SVG 1.1//EN'  'http://www.w3.org/Graphics/SVG/1.1/DTD/svg11.dtd'><svg xmlns="http://www.w3.org/2000/svg" xmlns:xlink="http://www.w3.org/1999/xlink" xmlns:serif="http://www.serif.com/" width="100%" height="100%" viewBox="0 0 512 512" version="1.1" xml:space="preserve" style="fill-rule:evenodd;clip-rule:evenodd;stroke-linejoin:round;stroke-miterlimit:2;"><g transform="matrix(1,0,0,1,-562,0)"><g id="Icons"><path d="M941.113,376.466L1058,376.466C1060.76,376.466 1063,374.228 1063,371.466L1063,296.944C1063,276.81 1046.65,260.464 1026.52,260.464L918.934,260.464C911.857,260.464 905.248,262.484 899.651,265.978C897.318,265.634 894.935,265.456 892.51,265.456C892.51,265.456 743.49,265.456 743.49,265.456C741.065,265.456 738.682,265.634 736.349,265.978C730.752,262.484 724.143,260.464 717.066,260.464L609.48,260.464C589.346,260.464 573,276.81 573,296.944L573,371.466C573,374.228 575.239,376.466 578,376.466L694.887,376.466L694.887,417.282C694.887,420.043 697.126,422.282 699.887,422.282L936.113,422.282C938.874,422.282 941.113,420.043 941.113,417.282L941.113,376.466ZM899.544,276.097C897.265,275.676 894.913,275.456 892.51,275.456L743.49,275.456C741.087,275.456 738.735,275.676 736.456,276.097C736.278,276.141 736.097,276.176 735.916,276.2C718.231,279.726 704.887,295.347 704.887,314.06L704.887,371.465L704.887,412.282L748.139,412.282L748.139,371.466C748.139,368.707 750.379,366.466 753.139,366.466C755.898,366.466 758.139,368.707 758.139,371.466L758.139,412.282L877.861,412.282L877.861,371.466C877.861,368.707 880.102,366.466 882.861,366.466C885.621,366.466 887.861,368.707 887.861,371.466L887.861,412.282L931.113,412.282L931.113,314.06C931.113,295.347 917.769,279.726 900.084,276.2C899.903,276.176 899.722,276.141 899.544,276.097ZM1024.55,366.466L1053,366.466L1053,296.944C1053,282.329 1041.13,270.464 1026.52,270.464C1026.52,270.464 918.934,270.464 918.934,270.464C917.487,270.464 916.066,270.58 914.682,270.804C930.371,278.87 941.113,295.22 941.113,314.06L941.113,366.466L1014.55,366.466L1014.55,338.389C1014.55,335.63 1016.8,333.389 1019.55,333.389C1022.31,333.389 1024.55,335.63 1024.55,338.389L1024.55,366.466ZM721.318,270.804C719.934,270.58 718.513,270.464 717.066,270.464C717.066,270.464 609.48,270.464 609.48,270.464C594.865,270.464 583,282.329 583,296.944C583,296.944 583,366.466 583,366.466L611.446,366.466L611.446,338.389C611.446,335.63 613.686,333.389 616.446,333.389C619.205,333.389 621.446,335.63 621.446,338.389L621.446,366.466L694.887,366.466L694.887,314.06C694.887,295.22 705.629,278.87 721.318,270.804ZM663.273,133.588C630.627,133.588 604.123,160.092 604.123,192.738C604.123,225.383 630.627,251.888 663.273,251.888C695.919,251.888 722.423,225.383 722.423,192.738C722.423,160.092 695.919,133.588 663.273,133.588ZM972.727,133.588C940.081,133.588 913.577,160.092 913.577,192.738C913.577,225.383 940.081,251.888 972.727,251.888C1005.37,251.888 1031.88,225.383 1031.88,192.738C1031.88,160.092 1005.37,133.588 972.727,133.588ZM818,89.718C773.845,89.718 737.996,125.567 737.996,169.722C737.996,213.877 773.845,249.726 818,249.726C862.155,249.726 898.004,213.877 898.004,169.722C898.004,125.567 862.155,89.718 818,89.718ZM663.273,143.588C690.399,143.588 712.423,165.611 712.423,192.738C712.423,219.864 690.399,241.888 663.273,241.888C636.146,241.888 614.123,219.864 614.123,192.738C614.123,165.611 636.146,143.588 663.273,143.588ZM972.727,143.588C999.854,143.588 1021.88,165.611 1021.88,192.738C1021.88,219.864 999.854,241.888 972.727,241.888C945.601,241.888 923.577,219.864 923.577,192.738C923.577,165.611 945.601,143.588 972.727,143.588ZM818,99.718C856.636,99.718 888.004,131.086 888.004,169.722C888.004,208.358 856.636,239.726 818,239.726C779.364,239.726 747.996,208.358 747.996,169.722C747.996,131.086 779.364,99.718 818,99.718Z"/></g></g></svg>