<?xml version="1.0" ?><!DOCTYPE svg  PUBLIC '-//W3C//DTD SVG 1.1//EN'  'http://www.w3.org/Graphics/SVG/1.1/DTD/svg11.dtd'><svg xmlns="http://www.w3.org/2000/svg" xmlns:xlink="http://www.w3.org/1999/xlink" xmlns:serif="http://www.serif.com/" width="100%" height="100%" viewBox="0 0 512 512" version="1.1" xml:space="preserve" style="fill-rule:evenodd;clip-rule:evenodd;stroke-linejoin:round;stroke-miterlimit:2;"><g transform="matrix(1,0,0,1,-562,-1686)"><g id="Icons"><path d="M967.081,2075.8C1003.32,2067.69 1030.44,2035.3 1030.44,1996.62C1030.44,1951.85 994.087,1915.49 949.309,1915.49C918.3,1915.49 891.331,1932.92 877.68,1958.51L675.444,1958.51C636.873,1958.51 605.558,1989.83 605.558,2028.4L605.558,2182C605.558,2184.76 607.797,2187 610.558,2187L962.081,2187C964.843,2187 967.081,2184.76 967.081,2182L967.081,2075.8ZM873.186,1968.51L675.444,1968.51C642.392,1968.51 615.558,1995.35 615.558,2028.4C615.558,2028.4 615.558,2177 615.558,2177L684.801,2177L684.801,2113.82C684.801,2111.06 687.041,2108.82 689.801,2108.82C692.561,2108.82 694.801,2111.06 694.801,2113.82L694.801,2177L877.839,2177L877.839,2113.82C877.839,2111.06 880.079,2108.82 882.839,2108.82C885.598,2108.82 887.839,2111.06 887.839,2113.82L887.839,2177L957.081,2177L957.081,2077.39C954.519,2077.63 951.928,2077.76 949.309,2077.76C904.531,2077.76 868.176,2041.4 868.176,1996.62C868.176,1986.74 869.947,1977.27 873.186,1968.51ZM949.309,1925.49C988.568,1925.49 1020.44,1957.36 1020.44,1996.62C1020.44,2035.88 988.568,2067.76 949.309,2067.76C910.05,2067.76 878.176,2035.88 878.176,1996.62C878.176,1957.36 910.05,1925.49 949.309,1925.49ZM908.308,1998.09L937.838,2034.37C938.848,2035.61 940.391,2036.3 941.989,2036.21C943.587,2036.12 945.046,2035.27 945.915,2033.93L990.631,1964.75C992.129,1962.43 991.464,1959.33 989.146,1957.83C986.828,1956.33 983.731,1957 982.233,1959.32L941.251,2022.72C941.251,2022.72 916.064,1991.78 916.064,1991.78C914.322,1989.64 911.17,1989.32 909.03,1991.06C906.889,1992.8 906.566,1995.95 908.308,1998.09ZM786.32,1697C721.96,1697 669.708,1749.25 669.708,1813.61C669.708,1877.97 721.96,1930.22 786.32,1930.22C850.68,1930.22 902.931,1877.97 902.931,1813.61C902.931,1749.25 850.68,1697 786.32,1697ZM786.32,1707C845.16,1707 892.931,1754.77 892.931,1813.61C892.931,1872.45 845.16,1920.22 786.32,1920.22C727.479,1920.22 679.708,1872.45 679.708,1813.61C679.708,1754.77 727.479,1707 786.32,1707Z"/></g></g></svg>