<?xml version="1.0" ?><svg viewBox="0 0 18.108 20.606" xmlns="http://www.w3.org/2000/svg"><defs><style>.cls-1{fill:#1a171b;}</style></defs><g data-name="Layer 2" id="Layer_2"><g data-name="Layer 1" id="Layer_1-2"><path class="cls-1" d="M16.547,0H1.561A1.562,1.562,0,0,0,0,1.561V19.045a1.562,1.562,0,0,0,1.561,1.561H16.547a1.562,1.562,0,0,0,1.561-1.561V1.561A1.562,1.562,0,0,0,16.547,0ZM4.787.625h8.534v.936a.938.938,0,0,1-.937.937H5.724a.938.938,0,0,1-.937-.937Zm12.7,18.42a.937.937,0,0,1-.937.936H1.561a.938.938,0,0,1-.937-.936V1.561A.938.938,0,0,1,1.561.625h2.6v.936A1.563,1.563,0,0,0,5.724,3.122h6.66a1.563,1.563,0,0,0,1.561-1.561V.625h2.6a.937.937,0,0,1,.937.936ZM15.611,2.394V17.8a.313.313,0,0,1-.313.312H2.81A.312.312,0,0,1,2.5,17.8V2.394a.312.312,0,0,1,.624,0V17.483H14.986V2.394a.313.313,0,1,1,.625,0ZM4.891,14.986h6.244a.312.312,0,0,1,0,.624H4.891A.312.312,0,0,1,4.891,14.986Zm8.326-1.873H9a.313.313,0,0,1,0-.625h4.215A.313.313,0,0,1,13.217,13.113Zm-8.326-.625H7.337a.313.313,0,0,1,0,.625H4.891A.313.313,0,0,1,4.891,12.488Zm8.326-1.874H11.448a.312.312,0,0,1,0-.624h1.769A.312.312,0,0,1,13.217,10.614ZM4.891,9.99H9.782a.312.312,0,0,1,0,.624H4.891A.312.312,0,0,1,4.891,9.99Zm8.326-1.874H9a.312.312,0,0,1,0-.624h4.215A.312.312,0,0,1,13.217,8.116ZM4.891,7.492H7.337a.312.312,0,0,1,0,.624H4.891A.312.312,0,0,1,4.891,7.492Zm6.557-2.5h1.769a.312.312,0,0,1,0,.624H11.448A.312.312,0,0,1,11.448,4.994Zm-6.557,0H9.782a.312.312,0,0,1,0,.624H4.891A.312.312,0,0,1,4.891,4.994Z" id="document"/></g></g></svg>