<?xml version="1.0" ?><!DOCTYPE svg  PUBLIC '-//W3C//DTD SVG 1.1//EN'  'http://www.w3.org/Graphics/SVG/1.1/DTD/svg11.dtd'><svg xmlns="http://www.w3.org/2000/svg" xmlns:xlink="http://www.w3.org/1999/xlink" xmlns:serif="http://www.serif.com/" width="100%" height="100%" viewBox="0 0 512 512" version="1.1" xml:space="preserve" style="fill-rule:evenodd;clip-rule:evenodd;stroke-linejoin:round;stroke-miterlimit:2;"><g transform="matrix(1,0,0,1,-562,-2248)"><g id="Icons"><path d="M790.728,2734.37C793.489,2734.37 795.728,2732.13 795.728,2729.37L795.728,2659.26C795.728,2656.5 793.489,2654.26 790.728,2654.26L720.624,2654.26C717.863,2654.26 715.624,2656.5 715.624,2659.26L715.624,2729.37C715.624,2732.13 717.863,2734.37 720.624,2734.37L790.728,2734.37ZM648.104,2734.37C650.865,2734.37 653.104,2732.13 653.104,2729.37L653.104,2659.26C653.104,2656.5 650.865,2654.26 648.104,2654.26L578,2654.26C575.239,2654.26 573,2656.5 573,2659.26L573,2729.37C573,2732.13 575.239,2734.37 578,2734.37L648.104,2734.37ZM915.376,2734.37C918.137,2734.37 920.376,2732.13 920.376,2729.37L920.376,2659.26C920.376,2656.5 918.137,2654.26 915.376,2654.26L845.272,2654.26C842.511,2654.26 840.272,2656.5 840.272,2659.26L840.272,2729.37C840.272,2732.13 842.511,2734.37 845.272,2734.37L915.376,2734.37ZM1058,2734.37C1060.76,2734.37 1063,2732.13 1063,2729.37L1063,2659.26C1063,2656.5 1060.76,2654.26 1058,2654.26L987.896,2654.26C985.135,2654.26 982.896,2656.5 982.896,2659.26L982.896,2729.37C982.896,2732.13 985.135,2734.37 987.896,2734.37L1058,2734.37ZM785.728,2724.37L725.624,2724.37C725.624,2724.37 725.624,2664.26 725.624,2664.26C725.624,2664.26 785.728,2664.26 785.728,2664.26L785.728,2724.37ZM643.104,2724.37L583,2724.37C583,2724.37 583,2664.26 583,2664.26C583,2664.26 643.104,2664.26 643.104,2664.26L643.104,2724.37ZM910.376,2724.37L850.272,2724.37C850.272,2724.37 850.272,2664.26 850.272,2664.26C850.272,2664.26 910.376,2664.26 910.376,2664.26L910.376,2724.37ZM1053,2724.37L992.896,2724.37C992.896,2724.37 992.896,2664.26 992.896,2664.26C992.896,2664.26 1053,2664.26 1053,2664.26L1053,2724.37ZM679.364,2587.78L613.052,2587.78L613.019,2587.78C610.856,2587.8 609.016,2589.19 608.335,2591.12L608.325,2591.15L608.315,2591.18L608.305,2591.21L608.295,2591.24L608.286,2591.27L608.277,2591.3L608.268,2591.33L608.259,2591.36L608.25,2591.39L608.242,2591.42L608.233,2591.45L608.225,2591.48L608.217,2591.51L608.209,2591.54L608.202,2591.57L608.194,2591.6L608.187,2591.63L608.18,2591.66L608.173,2591.69L608.166,2591.72L608.16,2591.75L608.153,2591.78L608.147,2591.81L608.141,2591.84L608.136,2591.87L608.13,2591.9L608.124,2591.93L608.119,2591.96L608.114,2591.99L608.109,2592.02L608.105,2592.05L608.1,2592.09L608.096,2592.12L608.092,2592.15L608.088,2592.18L608.084,2592.21L608.081,2592.24L608.078,2592.27L608.074,2592.31L608.072,2592.34L608.069,2592.37L608.066,2592.4L608.064,2592.43L608.062,2592.46L608.06,2592.5L608.058,2592.53L608.057,2592.56L608.055,2592.59L608.054,2592.62L608.053,2592.66L608.053,2592.69L608.052,2592.72L608.052,2592.75L608.052,2592.78L608.052,2626.63C608.052,2629.39 610.292,2631.63 613.052,2631.63C615.811,2631.63 618.052,2629.39 618.052,2626.63L618.052,2597.78L750.676,2597.78L750.676,2626.63C750.676,2629.39 752.917,2631.63 755.676,2631.63C758.436,2631.63 760.676,2629.39 760.676,2626.63L760.676,2592.78C760.676,2590.34 758.915,2588.3 756.591,2587.87L756.558,2587.86L756.527,2587.86L756.494,2587.85L756.46,2587.85L756.427,2587.84L756.397,2587.84L756.363,2587.83L756.331,2587.83L756.281,2587.82L756.25,2587.82L756.219,2587.81L756.187,2587.81L756.156,2587.81L756.124,2587.8L756.092,2587.8L756.061,2587.8L756.029,2587.8L755.997,2587.8L755.965,2587.79L755.933,2587.79L755.901,2587.79L755.869,2587.79L755.837,2587.79L755.805,2587.79L755.773,2587.79L755.741,2587.79L755.708,2587.78L755.676,2587.78L689.364,2587.78L689.364,2558.94C689.364,2556.18 687.124,2553.94 684.364,2553.94C681.604,2553.94 679.364,2556.18 679.364,2558.94L679.364,2587.78ZM946.636,2587.78L880.324,2587.78L880.292,2587.78C877.945,2587.8 875.98,2589.43 875.459,2591.63L875.452,2591.66L875.445,2591.69L875.438,2591.72L875.432,2591.75L875.426,2591.78L875.419,2591.81L875.413,2591.84L875.408,2591.87L875.402,2591.9L875.397,2591.93L875.391,2591.96L875.386,2591.99L875.382,2592.02L875.377,2592.05L875.372,2592.09L875.368,2592.12L875.364,2592.15L875.36,2592.18L875.357,2592.21L875.353,2592.24L875.35,2592.27L875.347,2592.31L875.344,2592.34L875.341,2592.37L875.338,2592.4L875.336,2592.43L875.334,2592.46L875.332,2592.5L875.33,2592.53L875.329,2592.56L875.328,2592.59L875.326,2592.62L875.326,2592.66L875.325,2592.69L875.324,2592.72L875.324,2592.75L875.324,2592.78L875.324,2626.63C875.324,2629.39 877.564,2631.63 880.324,2631.63C883.083,2631.63 885.324,2629.39 885.324,2626.63L885.324,2597.78L1017.95,2597.78L1017.95,2626.63C1017.95,2629.39 1020.19,2631.63 1022.95,2631.63C1025.71,2631.63 1027.95,2629.39 1027.95,2626.63L1027.95,2592.78C1027.95,2592.78 1027.95,2592.78 1027.95,2592.78C1027.94,2590.55 1026.48,2588.66 1024.46,2588.02L1024.43,2588.01L1024.4,2588L1024.37,2587.99L1024.34,2587.98L1024.31,2587.97L1024.28,2587.97L1024.25,2587.96L1024.22,2587.95L1024.19,2587.94L1024.16,2587.93L1024.13,2587.93L1024.1,2587.92L1024.06,2587.91L1024.02,2587.9L1023.99,2587.89L1023.96,2587.89L1023.93,2587.88L1023.89,2587.88L1023.86,2587.87L1023.83,2587.86L1023.8,2587.86L1023.77,2587.85L1023.74,2587.85L1023.71,2587.84L1023.68,2587.84L1023.65,2587.83L1023.62,2587.83L1023.59,2587.83L1023.55,2587.82L1023.52,2587.82L1023.49,2587.81L1023.46,2587.81L1023.43,2587.81L1023.4,2587.8L1023.36,2587.8L1023.33,2587.8L1023.3,2587.8L1023.27,2587.8L1023.24,2587.79L1023.21,2587.79L1023.17,2587.79L1023.14,2587.79L1023.11,2587.79L1023.08,2587.79L1023.05,2587.79L1023.01,2587.79L1022.98,2587.78L1022.95,2587.78L956.636,2587.78L956.636,2558.94C956.636,2556.18 954.396,2553.94 951.636,2553.94C948.876,2553.94 946.636,2556.18 946.636,2558.94L946.636,2587.78ZM719.416,2539.89C722.177,2539.89 724.416,2537.65 724.416,2534.89L724.416,2464.79C724.416,2462.03 722.177,2459.79 719.416,2459.79L649.312,2459.79C646.551,2459.79 644.312,2462.03 644.312,2464.79L644.312,2534.89C644.312,2537.65 646.551,2539.89 649.312,2539.89L719.416,2539.89ZM985.479,2539.89C988.241,2539.89 990.479,2537.65 990.479,2534.89L990.479,2464.79C990.479,2462.03 988.241,2459.79 985.479,2459.79L915.376,2459.79C912.614,2459.79 910.376,2462.03 910.376,2464.79L910.376,2534.89C910.376,2537.65 912.614,2539.89 915.376,2539.89L985.479,2539.89ZM714.416,2529.89L654.312,2529.89C654.312,2529.89 654.312,2469.79 654.312,2469.79C654.312,2469.79 714.416,2469.79 714.416,2469.79L714.416,2529.89ZM980.479,2529.89L920.376,2529.89C920.376,2529.89 920.376,2469.79 920.376,2469.79C920.376,2469.79 980.479,2469.79 980.479,2469.79L980.479,2529.89ZM689.364,2410.59L946.636,2410.59L946.636,2439.43C946.636,2442.19 948.876,2444.43 951.636,2444.43C954.396,2444.43 956.636,2442.19 956.636,2439.43L956.636,2405.59C956.636,2403.12 954.844,2401.07 952.491,2400.66L952.459,2400.66L952.428,2400.65L952.397,2400.65L952.366,2400.64L952.335,2400.64L952.304,2400.64L952.273,2400.63L952.241,2400.63L952.21,2400.62L952.178,2400.62L952.147,2400.62L952.115,2400.61L952.084,2400.61L952.052,2400.61L952.021,2400.61L951.989,2400.6L951.957,2400.6L951.925,2400.6L951.893,2400.6L951.861,2400.6L951.829,2400.59L951.797,2400.59L951.765,2400.59L951.733,2400.59L951.701,2400.59L951.668,2400.59L951.636,2400.59L823,2400.59L823,2371.75C823,2368.99 820.76,2366.75 818,2366.75C815.24,2366.75 813,2368.99 813,2371.75L813,2400.59L684.364,2400.59C684.364,2400.59 684.358,2400.59 684.358,2400.59C682.075,2400.59 680.149,2402.13 679.554,2404.22L679.545,2404.25L679.536,2404.29L679.528,2404.32L679.52,2404.35L679.512,2404.38L679.504,2404.41L679.497,2404.44L679.49,2404.47L679.483,2404.5L679.476,2404.53L679.469,2404.57L679.463,2404.6L679.453,2404.64L679.448,2404.68L679.442,2404.71L679.437,2404.74L679.431,2404.77L679.426,2404.8L679.422,2404.83L679.417,2404.86L679.412,2404.89L679.408,2404.92L679.404,2404.95L679.4,2404.99L679.397,2405.02L679.393,2405.05L679.39,2405.08L679.387,2405.11L679.384,2405.14L679.381,2405.18L679.379,2405.21L679.376,2405.24L679.374,2405.27L679.372,2405.3L679.37,2405.33L679.369,2405.37L679.368,2405.4L679.366,2405.43L679.366,2405.46L679.365,2405.49L679.364,2405.53L679.364,2405.56L679.364,2405.59L679.364,2439.43C679.364,2442.19 681.604,2444.43 684.364,2444.43C687.124,2444.43 689.364,2442.19 689.364,2439.43L689.364,2410.59ZM853.052,2353.74C855.813,2353.74 858.052,2351.5 858.052,2348.74L858.052,2278.63C858.052,2275.87 855.813,2273.63 853.052,2273.63L782.948,2273.63C780.187,2273.63 777.948,2275.87 777.948,2278.63L777.948,2348.74C777.948,2351.5 780.187,2353.74 782.948,2353.74L853.052,2353.74ZM848.052,2343.74L787.948,2343.74C787.948,2343.74 787.948,2283.63 787.948,2283.63C787.948,2283.63 848.052,2283.63 848.052,2283.63L848.052,2343.74Z"/></g></g></svg>