<?xml version="1.0" ?><!DOCTYPE svg  PUBLIC '-//W3C//DTD SVG 1.1//EN'  'http://www.w3.org/Graphics/SVG/1.1/DTD/svg11.dtd'><svg xmlns="http://www.w3.org/2000/svg" xmlns:xlink="http://www.w3.org/1999/xlink" xmlns:serif="http://www.serif.com/" width="100%" height="100%" viewBox="0 0 512 512" version="1.1" xml:space="preserve" style="fill-rule:evenodd;clip-rule:evenodd;stroke-linejoin:round;stroke-miterlimit:2;"><g transform="matrix(1,0,0,1,-1124,-2810)"><g id="Icons"><path d="M1408.11,2826.12C1407.67,2823.97 1405.88,2822.36 1403.69,2822.15C1387.93,2820.62 1372.07,2820.62 1356.31,2822.15C1354.12,2822.36 1352.33,2823.97 1351.89,2826.12L1344.94,2859.96C1332.12,2862.14 1319.54,2865.51 1307.34,2870.03C1307.34,2870.03 1284.4,2844.2 1284.4,2844.2C1282.95,2842.56 1280.59,2842.06 1278.6,2842.97C1264.18,2849.53 1250.44,2857.46 1237.55,2866.67C1235.77,2867.94 1235.02,2870.23 1235.72,2872.31L1246.62,2905.1C1236.61,2913.39 1227.39,2922.61 1219.1,2932.62C1219.1,2932.62 1186.31,2921.72 1186.31,2921.72C1184.23,2921.02 1181.94,2921.77 1180.67,2923.55C1171.46,2936.44 1163.53,2950.18 1156.97,2964.6C1156.06,2966.59 1156.56,2968.95 1158.2,2970.4L1184.04,2993.34C1179.52,3005.53 1176.14,3018.12 1173.96,3030.94C1173.96,3030.94 1140.12,3037.89 1140.12,3037.89C1137.97,3038.33 1136.36,3040.12 1136.15,3042.3C1134.62,3058.07 1134.62,3073.93 1136.15,3089.7C1136.36,3091.88 1137.97,3093.67 1140.12,3094.11L1173.96,3101.06C1176.14,3113.88 1179.52,3126.47 1184.04,3138.66C1184.04,3138.66 1158.2,3161.6 1158.2,3161.6C1156.56,3163.05 1156.06,3165.41 1156.97,3167.41C1163.53,3181.82 1171.46,3195.56 1180.67,3208.45C1181.94,3210.23 1184.23,3210.98 1186.31,3210.28L1219.1,3199.38C1227.39,3209.39 1236.61,3218.61 1246.62,3226.9C1246.62,3226.9 1235.72,3259.69 1235.72,3259.69C1235.02,3261.77 1235.77,3264.06 1237.55,3265.33C1250.44,3274.54 1264.18,3282.47 1278.6,3289.03C1280.59,3289.94 1282.95,3289.44 1284.4,3287.8L1307.34,3261.97C1319.54,3266.49 1332.12,3269.86 1344.94,3272.04C1344.94,3272.04 1351.89,3305.88 1351.89,3305.88C1352.33,3308.03 1354.12,3309.64 1356.31,3309.85C1372.07,3311.38 1387.93,3311.38 1403.69,3309.85C1405.88,3309.64 1407.67,3308.03 1408.11,3305.88L1415.06,3272.04C1427.88,3269.86 1440.46,3266.49 1452.66,3261.97C1452.66,3261.97 1475.6,3287.8 1475.6,3287.8C1477.05,3289.44 1479.41,3289.94 1481.4,3289.03C1495.82,3282.47 1509.56,3274.54 1522.45,3265.33C1524.23,3264.06 1524.98,3261.77 1524.28,3259.69L1513.38,3226.9C1523.39,3218.61 1532.61,3209.39 1540.9,3199.38C1540.9,3199.38 1573.69,3210.28 1573.69,3210.28C1575.77,3210.98 1578.06,3210.23 1579.33,3208.45C1588.54,3195.56 1596.48,3181.82 1603.03,3167.41C1603.94,3165.41 1603.44,3163.05 1601.8,3161.6L1575.97,3138.66C1580.49,3126.47 1583.86,3113.88 1586.04,3101.06C1586.04,3101.06 1619.88,3094.11 1619.88,3094.11C1622.03,3093.67 1623.64,3091.88 1623.85,3089.7C1625.38,3073.93 1625.38,3058.07 1623.85,3042.3C1623.64,3040.12 1622.03,3038.33 1619.88,3037.89L1586.04,3030.94C1583.86,3018.12 1580.49,3005.53 1575.97,2993.34C1575.97,2993.34 1601.8,2970.4 1601.8,2970.4C1603.44,2968.95 1603.94,2966.59 1603.03,2964.6C1596.48,2950.18 1588.54,2936.44 1579.33,2923.55C1578.06,2921.77 1575.77,2921.02 1573.69,2921.72L1540.9,2932.62C1532.61,2922.61 1523.39,2913.39 1513.38,2905.1C1513.38,2905.1 1524.28,2872.31 1524.28,2872.31C1524.98,2870.23 1524.23,2867.94 1522.45,2866.67C1509.56,2857.46 1495.82,2849.53 1481.4,2842.97C1479.41,2842.06 1477.05,2842.56 1475.6,2844.2L1452.66,2870.03C1440.46,2865.51 1427.88,2862.14 1415.06,2859.96C1415.06,2859.96 1408.11,2826.12 1408.11,2826.12ZM1399.06,2831.77L1405.96,2865.35C1406.38,2867.4 1408.03,2868.97 1410.1,2869.29C1424.54,2871.5 1438.68,2875.29 1452.29,2880.59C1454.24,2881.35 1456.45,2880.82 1457.84,2879.26L1480.61,2853.62C1492.11,2859.07 1503.15,2865.45 1513.62,2872.69C1513.62,2872.69 1502.81,2905.22 1502.81,2905.22C1502.14,2907.2 1502.79,2909.39 1504.42,2910.69C1515.82,2919.82 1526.18,2930.18 1535.31,2941.58C1536.61,2943.21 1538.8,2943.86 1540.79,2943.2L1573.31,2932.38C1580.55,2942.85 1586.93,2953.89 1592.38,2965.39C1592.38,2965.39 1566.75,2988.16 1566.75,2988.16C1565.18,2989.55 1564.65,2991.76 1565.41,2993.71C1570.71,3007.32 1574.5,3021.47 1576.71,3035.9C1577.03,3037.97 1578.6,3039.62 1580.65,3040.04L1614.23,3046.94C1615.26,3059.62 1615.26,3072.38 1614.23,3085.06C1614.23,3085.06 1580.65,3091.96 1580.65,3091.96C1578.6,3092.38 1577.03,3094.03 1576.71,3096.1C1574.5,3110.53 1570.71,3124.68 1565.41,3138.29C1564.65,3140.24 1565.18,3142.45 1566.75,3143.84L1592.38,3166.61C1586.93,3178.11 1580.55,3189.15 1573.31,3199.62C1573.31,3199.62 1540.79,3188.81 1540.79,3188.81C1538.8,3188.14 1536.61,3188.79 1535.31,3190.42C1526.18,3201.82 1515.82,3212.18 1504.42,3221.31C1502.79,3222.61 1502.14,3224.8 1502.81,3226.78L1513.62,3259.31C1503.15,3266.55 1492.11,3272.93 1480.61,3278.38C1480.61,3278.38 1457.84,3252.74 1457.84,3252.74C1456.45,3251.18 1454.24,3250.65 1452.29,3251.41C1438.68,3256.71 1424.54,3260.5 1410.1,3262.71C1408.03,3263.03 1406.38,3264.6 1405.96,3266.65L1399.06,3300.23C1386.38,3301.26 1373.62,3301.26 1360.94,3300.23C1360.94,3300.23 1354.04,3266.65 1354.04,3266.65C1353.62,3264.6 1351.97,3263.03 1349.9,3262.71C1335.46,3260.5 1321.32,3256.71 1307.71,3251.41C1305.76,3250.65 1303.55,3251.18 1302.16,3252.74L1279.39,3278.38C1267.89,3272.93 1256.85,3266.55 1246.38,3259.31C1246.38,3259.31 1257.19,3226.78 1257.19,3226.78C1257.86,3224.8 1257.21,3222.61 1255.58,3221.31C1244.18,3212.18 1233.82,3201.82 1224.69,3190.42C1223.39,3188.79 1221.2,3188.14 1219.21,3188.81L1186.69,3199.62C1179.45,3189.15 1173.07,3178.11 1167.62,3166.61C1167.62,3166.61 1193.26,3143.84 1193.26,3143.84C1194.82,3142.45 1195.35,3140.24 1194.59,3138.29C1189.29,3124.68 1185.5,3110.53 1183.29,3096.1C1182.97,3094.03 1181.4,3092.38 1179.35,3091.96L1145.77,3085.06C1144.74,3072.38 1144.74,3059.62 1145.77,3046.94C1145.77,3046.94 1179.35,3040.04 1179.35,3040.04C1181.4,3039.62 1182.97,3037.97 1183.29,3035.9C1185.5,3021.47 1189.29,3007.32 1194.59,2993.71C1195.35,2991.76 1194.82,2989.55 1193.26,2988.16L1167.62,2965.39C1173.07,2953.89 1179.45,2942.85 1186.69,2932.38C1186.69,2932.38 1219.21,2943.2 1219.21,2943.2C1221.2,2943.86 1223.39,2943.21 1224.69,2941.58C1233.82,2930.18 1244.18,2919.82 1255.58,2910.69C1257.21,2909.39 1257.86,2907.2 1257.19,2905.22L1246.38,2872.69C1256.85,2865.45 1267.89,2859.07 1279.39,2853.62C1279.39,2853.62 1302.16,2879.26 1302.16,2879.26C1303.55,2880.82 1305.76,2881.35 1307.71,2880.59C1321.32,2875.29 1335.46,2871.5 1349.9,2869.29C1351.97,2868.97 1353.62,2867.4 1354.04,2865.35L1360.94,2831.77C1373.62,2830.74 1386.38,2830.74 1399.06,2831.77L1399.06,2831.77ZM1380,2923C1301.08,2923 1237,2987.08 1237,3066C1237,3144.92 1301.08,3209 1380,3209C1458.92,3209 1523,3144.92 1523,3066C1523,2987.08 1458.92,2923 1380,2923ZM1380,2933C1453.4,2933 1513,2992.6 1513,3066C1513,3139.41 1453.4,3199 1380,3199C1306.6,3199 1247,3139.41 1247,3066C1247,2992.6 1306.6,2933 1380,2933ZM1380,2946.18C1313.87,2946.18 1260.18,2999.87 1260.18,3066C1260.18,3132.13 1313.87,3185.82 1380,3185.82C1446.13,3185.82 1499.82,3132.13 1499.82,3066C1499.82,2999.87 1446.13,2946.18 1380,2946.18ZM1380,2956.18C1440.61,2956.18 1489.82,3005.39 1489.82,3066C1489.82,3126.61 1440.61,3175.82 1380,3175.82C1319.39,3175.82 1270.18,3126.61 1270.18,3066C1270.18,3005.39 1319.39,2956.18 1380,2956.18ZM1439.14,3092.61C1439.14,3078.82 1427.94,3067.63 1414.15,3067.63L1345.85,3067.63C1332.06,3067.63 1320.86,3078.82 1320.86,3092.61C1320.86,3092.61 1320.86,3139.92 1320.86,3139.92C1320.86,3142.69 1323.1,3144.92 1325.86,3144.92L1434.14,3144.92C1436.9,3144.92 1439.14,3142.69 1439.14,3139.92L1439.14,3092.61ZM1414.73,3134.92L1429.14,3134.92L1429.14,3092.61C1429.14,3084.34 1422.42,3077.63 1414.15,3077.63C1414.15,3077.63 1345.85,3077.63 1345.85,3077.63C1337.58,3077.63 1330.86,3084.34 1330.86,3092.61C1330.86,3092.61 1330.86,3134.92 1330.86,3134.92L1345.27,3134.92L1345.27,3118.92C1345.27,3116.16 1347.51,3113.92 1350.27,3113.92C1353.03,3113.92 1355.27,3116.16 1355.27,3118.92L1355.27,3134.92L1404.73,3134.92L1404.73,3118.92C1404.73,3116.16 1406.97,3113.92 1409.73,3113.92C1412.49,3113.92 1414.73,3116.16 1414.73,3118.92L1414.73,3134.92ZM1380,2987.08C1358.27,2987.08 1340.62,3004.72 1340.62,3026.45C1340.62,3048.19 1358.27,3065.83 1380,3065.83C1401.73,3065.83 1419.38,3048.19 1419.38,3026.45C1419.38,3004.72 1401.73,2987.08 1380,2987.08ZM1380,2997.08C1396.21,2997.08 1409.38,3010.24 1409.38,3026.45C1409.38,3042.67 1396.21,3055.83 1380,3055.83C1363.79,3055.83 1350.62,3042.67 1350.62,3026.45C1350.62,3010.24 1363.79,2997.08 1380,2997.08Z"/></g></g></svg>