<?xml version="1.0" ?><svg enable-background="new 0 0 512 512" id="Layer_1" version="1.1" viewBox="0 0 512 512" xml:space="preserve" xmlns="http://www.w3.org/2000/svg" xmlns:xlink="http://www.w3.org/1999/xlink"><g><g><linearGradient gradientUnits="userSpaceOnUse" id="SVGID_1_" x1="-0.0000027" x2="512" y1="256" y2="256"><stop offset="0" style="stop-color:#8DC63F"/><stop offset="1" style="stop-color:#76B83F"/></linearGradient><circle cx="256" cy="256" fill="url(#SVGID_1_)" r="256"/><linearGradient gradientUnits="userSpaceOnUse" id="SVGID_2_" x1="42.6666641" x2="469.3333435" y1="256.0005188" y2="256.0005188"><stop offset="0" style="stop-color:#76B83F"/><stop offset="1" style="stop-color:#8DC63F"/></linearGradient><path d="M256,469.3338623c-117.6314697,0-213.3333435-95.7023926-213.3333435-213.3333435    c0-117.6314545,95.7018661-213.333313,213.3333435-213.333313c117.6357422,0,213.3333435,95.7018661,213.3333435,213.333313    C469.3333435,373.6314697,373.6357422,469.3338623,256,469.3338623z" fill="url(#SVGID_2_)"/></g><g><path d="M144,301.7520142V384h120h120v-82.2479858v-81.3093414H144V301.7520142z M237.8101349,314.8128052    l21.1893463,22.8538513v-85.5301208h10v85.5301208l21.1887817-22.8538513l7.3338623,6.7967834l-33.522644,36.1573486    l-33.5232086-36.1573486L237.8101349,314.8128052z" opacity="0.3"/><polygon opacity="0.3" points="259.8346558,176.3594666 229,144 144,144 144,210.4426727 384,210.4426727 384,176.3594666   "/></g><g><path d="M136,293.7520142V376h120h120v-82.2479858v-81.3093414H136V293.7520142z M229.8101349,306.8128052    l21.1893311,22.8538513v-85.5301208h10.0000153v85.5301208l21.1887817-22.8538513l7.3338623,6.7967834l-33.5226593,36.1573486    l-33.5231934-36.1573486L229.8101349,306.8128052z" fill="#FFFFFF"/><polygon fill="#FFFFFF" points="251.834671,168.3594666 221,136 136,136 136,202.4426727 376,202.4426727 376,168.3594666   "/></g></g></svg>