<?xml version="1.0" standalone="no"?>
<!DOCTYPE svg PUBLIC "-//W3C//DTD SVG 20010904//EN"
 "http://www.w3.org/TR/2001/REC-SVG-20010904/DTD/svg10.dtd">
<svg version="1.0" xmlns="http://www.w3.org/2000/svg"
 width="512.000000pt" height="512.000000pt" viewBox="0 0 512.000000 512.000000"
 preserveAspectRatio="xMidYMid meet">

<g transform="translate(0.000000,512.000000) scale(0.100000,-0.100000)"
fill="#000000" stroke="none">
<path d="M1046 4464 c-136 -33 -283 -149 -345 -272 -65 -128 -62 -32 -59
-1769 l3 -1578 22 -57 c65 -171 194 -293 362 -342 49 -14 217 -16 1631 -16
1738 0 1628 -4 1754 63 126 67 236 214 266 357 8 40 10 478 8 1635 l-3 1580
-22 58 c-59 156 -178 274 -333 329 l-65 23 -1580 2 c-1339 1 -1589 -1 -1639
-13z m3176 -205 c103 -21 198 -100 234 -195 18 -47 19 -99 19 -1619 l0 -1570
-27 -51 c-40 -76 -70 -107 -140 -145 l-63 -34 -1580 0 -1580 0 -50 27 c-68 35
-122 92 -154 158 l-26 55 0 1565 0 1565 28 60 c15 33 42 75 60 93 36 38 108
78 164 91 58 14 3050 14 3115 0z"/>
<path d="M2625 3616 c-16 -8 -229 -214 -472 -458 -423 -424 -443 -445 -443
-480 0 -51 17 -83 55 -103 67 -37 70 -35 445 340 l345 345 5 -959 5 -959 24
-26 c48 -51 142 -40 170 20 8 18 11 297 11 977 l0 952 343 -342 c188 -187 352
-346 364 -352 76 -39 170 41 144 122 -13 40 -882 911 -924 927 -35 12 -35 12
-72 -4z"/>
</g>
</svg>
