<?xml version="1.0" standalone="no"?>
<!DOCTYPE svg PUBLIC "-//W3C//DTD SVG 20010904//EN"
 "http://www.w3.org/TR/2001/REC-SVG-20010904/DTD/svg10.dtd">
<svg version="1.0" xmlns="http://www.w3.org/2000/svg"
 width="512.000000pt" height="512.000000pt" viewBox="0 0 512.000000 512.000000"
 preserveAspectRatio="xMidYMid meet">

<g transform="translate(0.000000,512.000000) scale(0.100000,-0.100000)"
fill="#000000" stroke="none">
<path d="M1053 4466 c-174 -43 -313 -168 -382 -344 l-26 -67 -3 -1570 c-2
-1402 -1 -1577 13 -1640 45 -196 192 -349 386 -400 46 -13 295 -15 1624 -15
1732 0 1623 -4 1749 63 78 41 172 135 213 213 67 126 63 17 63 1749 0 1378 -2
1578 -15 1630 -49 187 -215 345 -403 384 -82 17 -3149 14 -3219 -3z m3238
-227 c66 -31 121 -85 158 -154 l26 -50 0 -1580 0 -1580 -27 -51 c-40 -76 -70
-107 -140 -145 l-63 -34 -1570 0 c-1520 0 -1572 1 -1619 19 -58 22 -128 83
-161 140 -13 23 -28 68 -35 101 -8 43 -10 485 -8 1585 l3 1525 26 55 c47 99
116 159 218 186 36 10 388 12 1591 11 l1545 -2 56 -26z"/>
<path d="M2623 3615 c-66 -29 -63 26 -63 -1022 l0 -948 -342 342 c-191 190
-356 347 -372 353 -65 24 -136 -30 -136 -104 0 -40 3 -44 452 -493 491 -492
484 -486 553 -449 18 10 228 214 468 454 340 342 436 444 442 469 15 71 -57
143 -128 128 -25 -6 -111 -85 -379 -353 l-348 -346 0 955 c0 1059 5 985 -66
1015 -40 17 -41 17 -81 -1z"/>
</g>
</svg>
