<?xml version="1.0" encoding="UTF-8" standalone="no"?>
<!DOCTYPE svg PUBLIC "-//W3C//DTD SVG 20010904//EN" "http://www.w3.org/TR/2001/REC-SVG-20010904/DTD/svg10.dtd">
<svg version="1.0" xmlns="http://www.w3.org/2000/svg" width="50.000000pt" height="50.000000pt" viewBox="0 0 50.000000 50.000000" preserveAspectRatio="xMidYMid meet">

<g transform="translate(0.000000,50.000000) scale(0.100000,-0.100000)" fill="#000000" stroke="none">
<path d="M10 270 c0 -269 -18 -250 240 -250 189 0 191 0 215 25 24 23 25 28 25 178 0 106 -4 157 -12 165 -7 7 -38 12 -70 12 l-58 0 0 35 0 35 -170 0 -170 0 0 -200z m320 -6 c0 -109 4 -193 10 -205 10 -18 6 -19 -134 -19 -188 0 -176 -15 -176 227 l0 183 150 0 150 0 0 -186z m62 -15 c-2 -84 1 -136 7 -142 8 -8 11 27 11 118 0 72 4 136 9 143 5 8 17 12 27 10 17 -3 19 -16 22 -152 2 -128 0 -151 -14 -167 -21 -23 -61 -24 -86 -2 -16 14 -18 34 -18 170 0 152 0 153 23 153 22 0 22 -1 19 -131z"/>
<path d="M60 380 c0 -6 43 -10 110 -10 67 0 110 4 110 10 0 6 -43 10 -110 10 -67 0 -110 -4 -110 -10z"/>
<path d="M60 340 c0 -6 43 -10 110 -10 67 0 110 4 110 10 0 6 -43 10 -110 10 -67 0 -110 -4 -110 -10z"/>
<path d="M70 260 c0 -5 18 -10 40 -10 22 0 40 5 40 10 0 6 -18 10 -40 10 -22 0 -40 -4 -40 -10z"/>
<path d="M180 260 c0 -5 23 -10 50 -10 28 0 50 5 50 10 0 6 -22 10 -50 10 -27 0 -50 -4 -50 -10z"/>
<path d="M70 220 c0 -5 18 -10 40 -10 22 0 40 5 40 10 0 6 -18 10 -40 10 -22 0 -40 -4 -40 -10z"/>
<path d="M180 220 c0 -5 23 -10 50 -10 28 0 50 5 50 10 0 6 -22 10 -50 10 -27 0 -50 -4 -50 -10z"/>
<path d="M70 180 c0 -5 18 -10 40 -10 22 0 40 5 40 10 0 6 -18 10 -40 10 -22 0 -40 -4 -40 -10z"/>
<path d="M185 180 c3 -5 24 -10 45 -10 21 0 42 5 45 10 4 6 -13 10 -45 10 -32 0 -49 -4 -45 -10z"/>
<path d="M70 140 c0 -5 18 -10 40 -10 22 0 40 5 40 10 0 6 -18 10 -40 10 -22 0 -40 -4 -40 -10z"/>
<path d="M185 140 c3 -5 24 -10 45 -10 21 0 42 5 45 10 4 6 -13 10 -45 10 -32 0 -49 -4 -45 -10z"/>
<path d="M70 100 c0 -5 18 -10 40 -10 22 0 40 5 40 10 0 6 -18 10 -40 10 -22 0 -40 -4 -40 -10z"/>
<path d="M185 100 c3 -5 24 -10 45 -10 21 0 42 5 45 10 4 6 -13 10 -45 10 -32 0 -49 -4 -45 -10z"/>
</g>
</svg>