<?xml version="1.0" standalone="no"?>
<!DOCTYPE svg PUBLIC "-//W3C//DTD SVG 20010904//EN"
 "http://www.w3.org/TR/2001/REC-SVG-20010904/DTD/svg10.dtd">
<svg version="1.0" xmlns="http://www.w3.org/2000/svg"
 width="100.000000pt" height="100.000000pt" viewBox="0 0 100.000000 100.000000"
 preserveAspectRatio="xMidYMid meet">

<g transform="translate(0.000000,100.000000) scale(0.100000,-0.100000)"
fill="#000000" stroke="none">
<path d="M147 823 c-13 -12 -7 -153 7 -181 25 -49 29 -165 10 -277 -20 -117
-12 -155 37 -180 41 -22 527 -22 568 0 45 23 58 66 38 129 -15 47 -15 63 -2
173 8 67 21 136 30 153 13 25 15 46 9 98 -3 37 -11 73 -16 80 -8 9 -89 12
-343 12 -182 0 -335 -3 -338 -7z m666 -20 c3 -5 8 -38 12 -75 7 -66 7 -68 -23
-98 l-30 -30 -277 0 -277 0 -29 29 c-27 27 -29 35 -29 105 l0 76 324 0 c179 0
327 -3 329 -7z m-450 -223 l127 0 0 -35 0 -34 -57 -3 c-57 -3 -58 -3 -58 -33
0 -30 1 -30 58 -33 l57 -3 0 -99 0 -100 -130 0 c-108 0 -132 3 -137 15 -3 9 2
56 11 104 9 49 15 111 14 137 -1 46 -2 46 -5 9 -1 -22 -10 -86 -19 -142 -14
-83 -15 -105 -4 -118 11 -13 50 -15 265 -15 293 0 287 -2 260 81 -11 32 -15
67 -12 92 l5 42 -11 -34 c-8 -25 -7 -45 3 -80 25 -90 31 -86 -107 -89 l-123
-3 0 100 0 100 58 3 c56 3 57 3 57 33 0 30 -1 30 -57 33 l-58 3 0 34 0 35 80
0 80 0 -6 -41 c-6 -39 -6 -41 12 -31 11 6 25 7 35 1 15 -7 18 -2 24 31 4 22
12 40 18 40 7 0 21 3 33 6 20 5 20 5 7 -112 -12 -104 -12 -123 2 -156 21 -53
19 -75 -10 -103 l-24 -25 -266 0 -266 0 -24 25 c-29 28 -30 45 -9 156 11 56
14 107 10 153 -6 68 -6 68 16 62 13 -3 80 -6 151 -6z m357 -7 c-1 -32 -14 -50
-36 -50 -18 0 -24 4 -20 14 3 8 6 21 6 29 0 8 10 14 25 14 14 0 25 -3 25 -7z
m-110 -98 l0 -25 -115 0 c-105 0 -115 2 -115 18 0 10 3 22 7 25 3 4 55 7 115
7 l108 0 0 -25z"/>
<path d="M308 783 c67 -2 177 -2 245 0 67 1 12 3 -123 3 -135 0 -190 -2 -122
-3z"/>
<path d="M703 783 c9 -2 23 -2 30 0 6 3 -1 5 -18 5 -16 0 -22 -2 -12 -5z"/>
<path d="M768 783 c6 -2 18 -2 25 0 6 3 1 5 -13 5 -14 0 -19 -2 -12 -5z"/>
<path d="M742 520 c0 -19 2 -27 5 -17 2 9 2 25 0 35 -3 9 -5 1 -5 -18z"/>
<path d="M299 373 c-8 -10 -9 -14 -2 -10 8 5 13 -3 16 -25 l4 -33 1 33 c2 24
6 31 15 26 8 -5 8 -2 -2 9 -7 9 -15 17 -16 17 -1 0 -9 -8 -16 -17z"/>
<path d="M369 373 c-8 -10 -9 -14 -2 -10 8 5 13 -3 16 -25 l4 -33 1 33 c2 24
6 31 15 26 8 -5 8 -2 -2 9 -7 9 -15 17 -16 17 -1 0 -9 -8 -16 -17z"/>
<path d="M313 293 c20 -2 54 -2 75 0 20 2 3 4 -38 4 -41 0 -58 -2 -37 -4z"/>
</g>
</svg>
