<?xml version="1.0" encoding="UTF-8" standalone="no"?>
<!DOCTYPE svg PUBLIC "-//W3C//DTD SVG 20010904//EN" "http://www.w3.org/TR/2001/REC-SVG-20010904/DTD/svg10.dtd">
<svg version="1.0" xmlns="http://www.w3.org/2000/svg" width="80.000000pt" height="80.000000pt" viewBox="0 0 80.000000 80.000000" preserveAspectRatio="xMidYMid meet">

<g transform="translate(0.000000,80.000000) scale(0.100000,-0.100000)" fill="#000000" stroke="none">
<path d="M276 663 l-198 -3 7 -58 c4 -31 11 -59 16 -62 5 -3 16 -40 24 -82 15 -71 15 -82 -5 -195 -11 -66 -20 -130 -20 -142 0 -21 0 -21 300 -21 l300 0 0 23 c0 12 -9 76 -20 142 l-20 120 22 98 c15 68 26 97 36 97 11 0 12 7 7 28 -4 15 -7 35 -7 45 1 15 -11 17 -121 15 -67 -2 -211 -4 -321 -5z m426 -37 c5 -23 2 -25 -61 -30 -134 -12 -523 -37 -526 -34 -2 2 -6 20 -10 40 l-7 38 193 3 c107 1 242 3 300 5 106 2 107 2 111 -22z m-22 -58 c-1 -7 -13 -66 -29 -131 -16 -64 -24 -120 -20 -123 5 -3 9 0 9 7 0 7 2 10 5 7 5 -5 34 -170 35 -195 0 -10 -63 -13 -280 -13 -260 0 -280 1 -279 18 0 32 26 162 33 169 3 3 6 -8 6 -25 0 -17 5 -34 10 -37 15 -10 12 29 -15 165 -13 68 -23 126 -21 127 1 2 117 11 257 22 140 10 262 19 272 20 9 0 17 -5 17 -11z"/>
<path d="M333 513 c-25 -5 -38 -32 -23 -47 13 -13 167 -8 193 5 10 6 17 18 15 27 -3 14 -17 17 -83 18 -44 1 -90 0 -102 -3z m161 -22 c-5 -5 -43 -10 -84 -11 -91 -3 -101 -1 -75 10 28 12 172 13 159 1z"/>
<path d="M475 280 c-16 -18 -16 -20 -2 -20 13 0 17 -9 17 -35 0 -19 5 -35 10 -35 6 0 10 16 10 36 0 33 2 35 27 32 21 -2 29 -10 35 -35 5 -18 13 -33 18 -33 12 0 12 -2 1 38 -8 27 -7 32 7 32 14 0 13 4 -5 22 -21 21 -23 21 -41 5 -17 -16 -20 -16 -32 -2 -16 20 -23 19 -45 -5z"/>
<path d="M170 160 c0 -5 5 -10 10 -10 6 0 10 5 10 10 0 6 -4 10 -10 10 -5 0 -10 -4 -10 -10z"/>
<path d="M210 160 c0 -5 5 -10 10 -10 6 0 10 5 10 10 0 6 -4 10 -10 10 -5 0 -10 -4 -10 -10z"/>
<path d="M250 160 c0 -5 5 -10 10 -10 6 0 10 5 10 10 0 6 -4 10 -10 10 -5 0 -10 -4 -10 -10z"/>
<path d="M290 160 c0 -5 5 -10 10 -10 6 0 10 5 10 10 0 6 -4 10 -10 10 -5 0 -10 -4 -10 -10z"/>
<path d="M330 160 c0 -5 5 -10 10 -10 6 0 10 5 10 10 0 6 -4 10 -10 10 -5 0 -10 -4 -10 -10z"/>
<path d="M370 160 c0 -5 5 -10 10 -10 6 0 10 5 10 10 0 6 -4 10 -10 10 -5 0 -10 -4 -10 -10z"/>
<path d="M410 160 c0 -5 5 -10 10 -10 6 0 10 5 10 10 0 6 -4 10 -10 10 -5 0 -10 -4 -10 -10z"/>
<path d="M450 160 c0 -6 37 -10 90 -10 53 0 90 4 90 10 0 6 -37 10 -90 10 -53 0 -90 -4 -90 -10z"/>
</g>
</svg>