<svg width="13" height="14" viewBox="0 0 13 14" fill="none" xmlns="http://www.w3.org/2000/svg">
<path fill-rule="evenodd" clip-rule="evenodd" d="M2 0.5C0.895431 0.5 0 1.39543 0 2.5V8.5C0 9.60457 0.89543 10.5 2 10.5H3V11.5C3 12.6046 3.89543 13.5 5 13.5H11C12.1046 13.5 13 12.6046 13 11.5V5.5C13 4.39543 12.1046 3.5 11 3.5H10V2.5C10 1.39543 9.10457 0.5 8 0.5H2ZM4 10.5H8C9.10457 10.5 10 9.60457 10 8.5V4.5H11C11.5523 4.5 12 4.94772 12 5.5V11.5C12 12.0523 11.5523 12.5 11 12.5H5C4.44772 12.5 4 12.0523 4 11.5V10.5Z" fill="white"/>
</svg>
