<svg width="24" height="48" viewBox="0 0 24 48" fill="none" xmlns="http://www.w3.org/2000/svg">
<g clip-path="url(#clip0_1503_83)">
<path d="M21 5.97998C17.67 5.64998 14.32 5.47998 10.98 5.47998C9 5.47998 7.02 5.57998 5.04 5.77998L3 5.97998" stroke="#ACADBC" stroke-width="1.5" stroke-linecap="round" stroke-linejoin="round"/>
<path d="M8.5 4.97L8.72 3.66C8.88 2.71 9 2 10.69 2H13.31C15 2 15.13 2.75 15.28 3.67L15.5 4.97" stroke="#ACADBC" stroke-width="1.5" stroke-linecap="round" stroke-linejoin="round"/>
<path d="M18.8504 9.14001L18.2004 19.21C18.0904 20.78 18.0004 22 15.2104 22H8.79039C6.00039 22 5.91039 20.78 5.80039 19.21L5.15039 9.14001" stroke="#ACADBC" stroke-width="1.5" stroke-linecap="round" stroke-linejoin="round"/>
<path d="M10.3301 16.5H13.6601" stroke="#ACADBC" stroke-width="1.5" stroke-linecap="round" stroke-linejoin="round"/>
<path d="M9.5 12.5H14.5" stroke="#ACADBC" stroke-width="1.5" stroke-linecap="round" stroke-linejoin="round"/>
<path d="M21 29.98C17.67 29.65 14.32 29.48 10.98 29.48C9 29.48 7.02 29.58 5.04 29.78L3 29.98" stroke="#EE6A5F" stroke-width="1.5" stroke-linecap="round" stroke-linejoin="round"/>
<path d="M8.5 28.97L8.72 27.66C8.88 26.71 9 26 10.69 26H13.31C15 26 15.13 26.75 15.28 27.67L15.5 28.97" stroke="#EE6A5F" stroke-width="1.5" stroke-linecap="round" stroke-linejoin="round"/>
<path d="M18.8504 33.14L18.2004 43.21C18.0904 44.78 18.0004 46 15.2104 46H8.79039C6.00039 46 5.91039 44.78 5.80039 43.21L5.15039 33.14" stroke="#EE6A5F" stroke-width="1.5" stroke-linecap="round" stroke-linejoin="round"/>
<path d="M10.3301 40.5H13.6601" stroke="#EE6A5F" stroke-width="1.5" stroke-linecap="round" stroke-linejoin="round"/>
<path d="M9.5 36.5H14.5" stroke="#EE6A5F" stroke-width="1.5" stroke-linecap="round" stroke-linejoin="round"/>
</g>
<defs>
<clipPath id="clip0_1503_83">
<rect width="24" height="48" fill="white"/>
</clipPath>
</defs>
</svg>