<?xml version="1.0" ?><svg enable-background="new 0 0 512 512" id="Layer_1" version="1.1" viewBox="0 0 512 512" xml:space="preserve" xmlns="http://www.w3.org/2000/svg" xmlns:xlink="http://www.w3.org/1999/xlink"><g><g><linearGradient gradientUnits="userSpaceOnUse" id="SVGID_1_" x1="0.0000083" x2="512" y1="256" y2="256"><stop offset="0" style="stop-color:#F35CB5"/><stop offset="1" style="stop-color:#EC008C"/></linearGradient><circle cx="256" cy="256" fill="url(#SVGID_1_)" r="256"/><linearGradient gradientUnits="userSpaceOnUse" id="SVGID_2_" x1="42.6666756" x2="469.333313" y1="256.0005188" y2="256.0005188"><stop offset="0" style="stop-color:#EC008C"/><stop offset="1" style="stop-color:#F35CB5"/></linearGradient><path d="M256,469.3338623c-117.6309204,0-213.3333282-95.7018738-213.3333282-213.3333435    c0-117.6309204,95.7024078-213.333313,213.3333282-213.333313c117.636261,0,213.333313,95.7024002,213.333313,213.333313    C469.333313,373.6319885,373.636261,469.3338623,256,469.3338623z" fill="url(#SVGID_2_)"/></g><path d="M259.8352051,182.7503967l-30.8352051-30h-84.9999847V299v76.2501221H264h120V299V182.7503967H259.8352051z    M264.7749329,344.6794739l-49.633606-49.6309509l7.0704041-7.0704041l37.5632019,37.5610962V220.5002594h10v105.0389557   l37.5637207-37.5610962l7.0704041,7.0704041L264.7749329,344.6794739z" opacity="0.3"/><path d="M251.8352051,174.7503967l-30.8352051-30h-84.9999847V291v76.2501221H256h120V291V174.7503967H251.8352051z    M256.7749329,336.6794739l-49.633606-49.6309509l7.0704041-7.0704041l37.5632019,37.5610962V212.5002594h10v105.0389557   l37.5637207-37.5610962l7.0704041,7.0704041L256.7749329,336.6794739z" fill="#FFFFFF"/></g></svg>