<?xml version="1.0" encoding="UTF-8" standalone="no"?>
<!DOCTYPE svg PUBLIC "-//W3C//DTD SVG 20010904//EN" "http://www.w3.org/TR/2001/REC-SVG-20010904/DTD/svg10.dtd">
<svg version="1.0" xmlns="http://www.w3.org/2000/svg" width="512.000000pt" height="512.000000pt" viewBox="0 0 512.000000 512.000000" preserveAspectRatio="xMidYMid meet">

<g transform="translate(0.000000,512.000000) scale(0.100000,-0.100000)" fill="#000000" stroke="none">
<path d="M1650 3989 c-30 -12 -705 -683 -726 -721 -8 -15 -14 -47 -14 -71 0 -109 125 -190 221 -142 19 9 121 103 227 208 l192 192 0 -1111 0 -1111 23 -33 c32 -48 69 -72 119 -77 58 -7 118 23 149 74 l24 38 5 1108 5 1107 190 -191 c105 -105 204 -197 222 -205 45 -19 87 -18 133 6 68 35 100 107 80 183 -10 37 -55 85 -348 380 -185 186 -354 347 -374 358 -40 20 -88 24 -128 8z"/>
<path d="M3336 3978 c-22 -13 -49 -39 -60 -58 -21 -35 -21 -48 -26 -1143 l-5 -1107 -190 191 c-104 105 -204 197 -222 205 -45 19 -87 18 -133 -6 -68 -35 -100 -107 -80 -182 10 -38 55 -86 348 -381 185 -186 354 -347 374 -358 42 -21 83 -24 125 -9 32 12 707 680 729 722 8 15 14 47 14 71 0 109 -125 190 -221 142 -19 -9 -121 -103 -226 -208 l-193 -192 0 1111 0 1111 -22 33 c-53 77 -139 100 -212 58z"/>
</g>
</svg>