<?xml version="1.0" encoding="UTF-8" standalone="no"?>
<!DOCTYPE svg PUBLIC "-//W3C//DTD SVG 20010904//EN" "http://www.w3.org/TR/2001/REC-SVG-20010904/DTD/svg10.dtd">
<svg version="1.0" xmlns="http://www.w3.org/2000/svg" width="100.000000pt" height="100.000000pt" viewBox="0 0 100.000000 100.000000" preserveAspectRatio="xMidYMid meet">

<g transform="translate(0.000000,100.000000) scale(0.100000,-0.100000)" fill="#000000" stroke="none">
<path d="M140 500 l0 -460 263 0 262 0 98 98 97 97 0 363 0 362 -360 0 -360 0 0 -460z m680 90 l0 -330 -90 0 -90 0 0 -90 0 -90 -230 0 -230 0 0 420 0 420 320 0 320 0 0 -330z m-30 -373 c0 -1 -25 -27 -55 -57 l-55 -54 0 57 0 57 55 0 c30 0 55 -1 55 -3z"/>
<path d="M300 720 c0 -16 7 -20 30 -20 23 0 30 4 30 20 0 16 -7 20 -30 20 -23 0 -30 -4 -30 -20z"/>
<path d="M420 720 c0 -19 7 -20 140 -20 133 0 140 1 140 20 0 19 -7 20 -140 20 -133 0 -140 -1 -140 -20z"/>
<path d="M300 600 c0 -16 7 -20 30 -20 23 0 30 4 30 20 0 16 -7 20 -30 20 -23 0 -30 -4 -30 -20z"/>
<path d="M420 600 c0 -19 7 -20 140 -20 133 0 140 1 140 20 0 19 -7 20 -140 20 -133 0 -140 -1 -140 -20z"/>
<path d="M300 480 c0 -16 7 -20 30 -20 23 0 30 4 30 20 0 16 -7 20 -30 20 -23 0 -30 -4 -30 -20z"/>
<path d="M420 480 c0 -19 7 -20 140 -20 133 0 140 1 140 20 0 19 -7 20 -140 20 -133 0 -140 -1 -140 -20z"/>
<path d="M300 360 c0 -16 7 -20 30 -20 23 0 30 4 30 20 0 16 -7 20 -30 20 -23 0 -30 -4 -30 -20z"/>
<path d="M420 360 c0 -19 7 -20 140 -20 133 0 140 1 140 20 0 19 -7 20 -140 20 -133 0 -140 -1 -140 -20z"/>
</g>
</svg>