<?xml version="1.0" encoding="UTF-8" standalone="no"?>
<!DOCTYPE svg PUBLIC "-//W3C//DTD SVG 20010904//EN" "http://www.w3.org/TR/2001/REC-SVG-20010904/DTD/svg10.dtd">
<svg version="1.0" xmlns="http://www.w3.org/2000/svg" width="128.000000pt" height="128.000000pt" viewBox="0 0 128.000000 128.000000" preserveAspectRatio="xMidYMid meet">

<g transform="translate(0.000000,128.000000) scale(0.100000,-0.100000)" fill="#000000" stroke="none">
<path d="M393 1200 c-21 -12 -36 -32 -43 -57 -16 -54 -10 -447 8 -465 6 -6 12 -16 12 -20 0 -4 -67 -8 -149 -8 -142 0 -149 -1 -174 -24 -38 -35 -51 -143 -19 -154 8 -2 12 11 12 46 0 35 6 57 21 76 l20 26 228 0 c219 0 229 -1 247 -21 17 -19 19 -41 22 -218 4 -222 -3 -262 -47 -280 -19 -8 -93 -11 -239 -9 -187 3 -213 5 -229 21 -15 15 -19 39 -21 138 -3 86 -7 119 -15 116 -20 -6 -21 -210 -2 -247 29 -55 52 -60 287 -60 310 0 302 -9 296 326 -2 145 -7 207 -15 216 -23 22 -14 28 47 28 61 0 70 -6 48 -28 -18 -18 -24 -403 -8 -461 8 -30 20 -48 43 -61 29 -18 51 -20 245 -20 312 0 302 -10 302 293 0 301 3 297 -215 297 -80 0 -145 4 -145 8 0 4 6 14 13 20 17 18 23 411 7 465 -7 25 -22 45 -43 57 -29 18 -51 20 -247 20 -196 0 -218 -2 -247 -20z m470 -19 c43 -16 48 -51 45 -273 -3 -186 -5 -208 -22 -227 -18 -20 -28 -21 -246 -21 -218 0 -228 1 -246 21 -17 19 -19 41 -22 227 -3 218 3 256 42 272 29 12 419 12 449 1z m357 -588 c20 -26 21 -36 18 -245 -3 -193 -5 -219 -21 -235 -16 -16 -42 -18 -229 -21 -146 -2 -220 1 -239 9 -44 18 -51 58 -47 280 3 177 5 199 22 218 18 20 28 21 247 21 l228 0 21 -27z"/>
<path d="M540 1101 c-6 -11 -10 -90 -10 -184 0 -152 1 -165 20 -182 16 -15 26 -17 48 -9 26 9 27 13 30 87 l3 77 44 0 c47 0 75 19 75 50 0 27 -38 50 -82 50 -27 0 -38 4 -38 15 0 10 10 15 29 15 68 0 104 36 81 80 -10 18 -20 20 -100 20 -78 0 -91 -2 -100 -19z m175 -22 c11 -17 -2 -23 -58 -29 -55 -5 -65 -17 -53 -65 5 -21 13 -24 59 -27 38 -2 52 -7 52 -18 0 -11 -13 -16 -45 -18 -64 -5 -70 -13 -70 -99 0 -66 -2 -74 -17 -71 -16 3 -18 20 -21 158 -1 85 0 160 2 167 7 16 142 18 151 2z"/>
<path d="M895 542 c-101 -48 -142 -160 -94 -259 38 -78 127 -123 208 -104 31 7 43 6 52 -6 7 -8 25 -13 43 -11 26 2 32 8 34 32 2 16 -1 33 -6 38 -7 7 -3 26 10 55 40 90 12 182 -75 246 -38 29 -121 33 -172 9z m163 -39 c71 -53 90 -132 52 -214 -18 -38 -21 -52 -12 -61 15 -15 15 -38 1 -38 -7 0 -17 7 -24 17 -10 14 -18 15 -59 4 -187 -47 -286 208 -116 301 44 24 120 20 158 -9z"/>
<path d="M924 486 c-50 -22 -74 -61 -74 -120 0 -31 6 -61 16 -74 48 -69 189 -70 146 -1 -7 10 -12 21 -12 24 0 11 24 4 42 -12 16 -14 20 -15 33 -2 24 24 28 80 8 118 -34 65 -101 93 -159 67z m113 -47 c12 -12 25 -34 28 -50 7 -31 -8 -69 -19 -50 -10 16 -51 14 -66 -4 -7 -8 -10 -25 -6 -40 5 -21 3 -25 -17 -25 -13 0 -36 11 -51 25 -46 43 -30 141 28 165 30 13 76 3 103 -21z"/>
<path d="M266 541 c-20 -22 -136 -312 -136 -339 0 -26 20 -42 52 -42 23 0 32 7 45 35 17 35 17 35 83 35 65 0 67 -1 81 -32 11 -26 21 -34 46 -36 27 -3 35 1 44 21 9 20 1 48 -51 182 -33 88 -68 167 -77 177 -21 24 -65 23 -87 -1z m131 -171 c34 -85 62 -161 63 -167 1 -27 -37 -12 -51 20 l-14 32 -85 0 -85 0 -15 -32 c-14 -30 -50 -46 -50 -23 0 16 111 303 123 318 6 7 20 12 31 10 17 -2 33 -33 83 -158z"/>
<path d="M271 389 c-25 -62 -26 -75 -5 -83 39 -15 104 -3 104 19 0 31 -44 115 -60 115 -11 0 -25 -18 -39 -51z m53 -15 c12 -31 6 -44 -18 -44 -23 0 -24 2 -15 30 12 33 24 38 33 14z"/>
<path d="M14 435 c-8 -20 3 -48 16 -40 13 8 13 55 0 55 -6 0 -13 -7 -16 -15z"/>
</g>
</svg>