<?xml version="1.0" encoding="UTF-8" standalone="no"?>
<!DOCTYPE svg PUBLIC "-//W3C//DTD SVG 20010904//EN" "http://www.w3.org/TR/2001/REC-SVG-20010904/DTD/svg10.dtd">
<svg version="1.0" xmlns="http://www.w3.org/2000/svg" width="100.000000pt" height="100.000000pt" viewBox="0 0 100.000000 100.000000" preserveAspectRatio="xMidYMid meet">

<g transform="translate(0.000000,100.000000) scale(0.100000,-0.100000)" fill="#000000" stroke="none">
<path d="M385 975 c-25 -24 -25 -26 -25 -215 0 -255 -14 -240 221 -240 l171 0 81 -70 c44 -39 86 -69 91 -67 6 2 12 36 14 75 2 40 7 72 12 72 6 0 19 9 30 20 19 19 20 33 20 210 0 189 0 191 -25 215 l-24 25 -271 0 -271 0 -24 -25z m564 -29 c8 -9 11 -69 9 -192 l-3 -178 -25 -13 c-20 -10 -26 -21 -30 -62 l-5 -50 -65 54 -64 55 -171 0 c-120 0 -175 4 -183 12 -17 17 -17 359 0 376 19 19 521 17 537 -2z"/>
<path d="M657 863 c-3 -10 -13 -54 -22 -98 -9 -44 -19 -88 -21 -97 -4 -13 0 -18 14 -18 14 0 21 9 26 30 4 22 11 30 26 30 15 0 22 -8 27 -30 4 -21 11 -30 25 -30 14 0 18 5 14 18 -2 9 -10 44 -16 77 -22 114 -30 135 -50 135 -10 0 -21 -8 -23 -17z m36 -85 c5 -32 3 -38 -12 -38 -14 0 -17 6 -14 28 11 64 17 67 26 10z"/>
<path d="M25 595 c-25 -24 -25 -26 -25 -215 0 -177 1 -191 20 -210 11 -11 24 -20 30 -20 5 0 10 -32 12 -72 2 -39 8 -73 14 -75 6 -2 47 28 92 67 l81 70 171 0 c168 0 171 0 195 25 24 24 25 28 25 180 0 148 -1 155 -20 155 -19 0 -20 -7 -20 -148 0 -102 -4 -152 -12 -160 -8 -8 -63 -12 -183 -12 l-171 0 -65 -56 -64 -55 -5 51 c-4 42 -9 53 -30 63 l-25 13 -3 178 c-2 123 1 183 9 192 9 11 44 14 150 14 132 0 139 1 139 20 0 19 -7 20 -145 20 -142 0 -147 -1 -170 -25z"/>
<path d="M277 488 c-36 -28 -49 -128 -24 -178 12 -23 86 -68 115 -69 6 -1 12 6 12 14 0 8 -7 15 -15 15 -8 0 -15 2 -15 4 0 2 7 20 15 39 44 105 -18 227 -88 175z m53 -37 c15 -29 12 -114 -5 -137 -15 -19 -15 -19 -30 0 -27 35 -15 156 15 156 5 0 14 -9 20 -19z"/>
</g>
</svg>