<svg width="24" height="23" viewBox="0 0 24 23" fill="none" xmlns="http://www.w3.org/2000/svg">
<path d="M16.6467 14.7219V16.1444H15.2256H15.2242H14.4117C14.8522 15.8507 15.2637 15.5136 15.6398 15.1375C16.0159 14.7613 16.353 14.3498 16.6467 13.9094V14.7205V14.7219ZM16.6918 16.1885L16.7519 16.1444H16.7242L17.2147 15.475L22.2454 20.5058C22.2455 20.5058 22.2455 20.5059 22.2456 20.5059C22.4096 20.6701 22.5017 20.8928 22.5016 21.1249C22.5015 21.3571 22.4092 21.5797 22.245 21.7438C22.0808 21.9079 21.8581 22.0001 21.6259 22C21.3937 21.9999 21.1711 21.9076 21.007 21.7434L21.0068 21.7433L15.9768 16.7132L16.6467 16.2216V16.2501L16.6918 16.1885ZM14.5125 16.5287C12.8767 17.5844 10.9207 18.0448 8.97617 17.822C6.86335 17.5798 4.91987 16.5489 3.53454 14.9353C2.14921 13.3218 1.42421 11.2447 1.50457 9.11956C1.58493 6.99443 2.46473 4.978 3.96796 3.4737C5.47119 1.96939 7.48699 1.08815 9.61206 1.00626C11.7371 0.92438 13.8148 1.6479 15.4293 3.03207C17.0438 4.41624 18.0762 6.35899 18.3198 8.47163C18.5441 10.4165 18.0848 12.3733 17.0297 14.0101L16.7278 13.7853C16.984 13.3853 17.205 12.9625 17.3877 12.5216C17.7929 11.5433 18.0015 10.4948 18.0015 9.43587C18.0015 7.29736 17.1519 5.24643 15.6398 3.73427C14.1276 2.22212 12.0767 1.37259 9.93819 1.37259C7.79968 1.37259 5.74875 2.22212 4.23659 3.73427C2.72443 5.24643 1.87491 7.29736 1.87491 9.43587C1.87491 10.4948 2.08347 11.5433 2.48869 12.5216C2.89391 13.4998 3.48785 14.3887 4.23659 15.1375C4.98534 15.8862 5.87423 16.4802 6.85251 16.8854C7.83079 17.2906 8.87931 17.4992 9.93819 17.4992C10.9971 17.4992 12.0456 17.2906 13.0239 16.8854C13.4642 16.703 13.8864 16.4824 14.2859 16.2266L14.5125 16.5287Z" fill="#ACADBC" stroke="#605DEC"/>
</svg>