<?xml version="1.0" standalone="no"?>
<!DOCTYPE svg PUBLIC "-//W3C//DTD SVG 20010904//EN"
 "http://www.w3.org/TR/2001/REC-SVG-20010904/DTD/svg10.dtd">
<svg version="1.0" xmlns="http://www.w3.org/2000/svg"
 width="512.000000pt" height="512.000000pt" viewBox="0 0 512.000000 512.000000"
 preserveAspectRatio="xMidYMid meet">

<g transform="translate(0.000000,512.000000) scale(0.100000,-0.100000)"
fill="#000000" stroke="none">
<path d="M1283 5105 c-75 -21 -121 -47 -181 -100 -131 -118 -217 -333 -238
-595 l-6 -89 -317 -3 c-297 -3 -319 -4 -362 -24 -66 -31 -114 -78 -146 -142
l-28 -57 -3 -444 c-2 -325 0 -453 9 -473 16 -40 57 -58 128 -58 l61 0 2 -1447
3 -1448 21 -46 c31 -66 78 -114 142 -146 l57 -28 2090 -3 c2272 -2 2140 -5
2235 50 52 31 119 98 143 143 l22 40 3 1443 2 1442 61 0 c71 0 112 18 128 58
9 20 11 148 9 473 l-3 444 -28 57 c-32 64 -80 111 -146 142 -41 19 -68 21
-247 24 l-201 3 -6 107 c-13 242 -118 491 -252 595 -137 108 -328 125 -490 46
-33 -16 -194 -133 -357 -259 l-297 -230 -62 40 c-196 127 -531 131 -723 10
-26 -17 -51 -30 -57 -30 -6 0 -128 91 -271 203 -293 227 -339 258 -418 288
-73 27 -207 34 -277 14z m243 -216 c24 -13 168 -120 319 -237 l274 -212 -19
-43 c-11 -23 -20 -50 -20 -59 0 -16 -15 -18 -170 -18 -184 0 -212 -6 -236 -51
-18 -35 -18 -63 0 -98 24 -45 52 -51 236 -51 l170 0 0 -23 c0 -19 -39 -46
-257 -174 -322 -188 -334 -194 -402 -200 -80 -7 -135 11 -191 63 -155 145
-213 512 -129 822 44 163 123 269 227 303 47 15 149 3 198 -22z m2506 19 c96
-28 183 -151 230 -323 19 -69 22 -107 22 -270 1 -217 -9 -274 -75 -411 -74
-156 -187 -214 -332 -170 -59 18 -637 357 -637 374 0 9 41 12 170 12 187 0
216 7 238 55 16 34 15 60 -2 94 -24 45 -52 51 -234 51 l-167 0 -16 51 -16 50
293 227 c183 142 312 235 346 249 59 25 121 29 180 11z m-1262 -398 c219 -42
337 -221 260 -397 -62 -145 -269 -223 -480 -183 -220 42 -337 221 -260 397 62
145 269 223 480 183z m-1896 -402 c2 -7 13 -51 24 -98 29 -123 57 -191 114
-276 58 -87 137 -154 218 -186 45 -18 75 -22 165 -22 128 0 173 15 333 110 52
31 95 54 97 52 2 -1 -58 -85 -132 -185 l-135 -183 -679 0 -679 0 0 363 c1 387
2 396 51 423 34 19 618 20 623 2z m3991 0 c53 -24 55 -36 55 -428 l0 -360
-574 0 -574 0 -140 193 c-77 105 -139 194 -137 195 2 2 57 -28 122 -66 141
-83 215 -112 305 -119 260 -22 457 157 537 487 l26 110 177 0 c116 0 186 -4
203 -12z m-1359 -763 c214 -294 390 -539 392 -544 1 -4 -62 9 -140 30 -84 23
-154 37 -169 34 -49 -11 -68 -45 -110 -201 -22 -81 -41 -150 -43 -152 -7 -6
-616 1197 -616 1216 0 5 22 14 49 21 67 17 159 63 201 100 19 16 38 30 41 31
4 0 181 -241 395 -535z m-1222 480 c39 -26 99 -55 142 -67 40 -13 74 -26 74
-31 0 -18 -609 -1221 -616 -1215 -2 2 -21 71 -43 152 -42 156 -61 190 -110
201 -15 3 -83 -10 -166 -33 -77 -22 -141 -38 -143 -37 -3 2 790 1075 794 1075
1 0 32 -20 68 -45z m479 -440 l97 -195 0 -1495 0 -1495 -200 0 -200 0 0 1495
0 1495 97 195 c54 107 100 195 103 195 3 0 49 -88 103 -195z m-1525 -497
c-152 -203 -173 -236 -173 -269 0 -45 33 -85 76 -94 19 -4 103 14 259 55 127
35 234 60 237 56 3 -3 32 -104 64 -223 32 -120 63 -228 68 -240 25 -54 116
-66 158 -20 12 12 91 162 176 332 l156 310 0 -1297 1 -1298 -890 0 c-668 0
-896 3 -915 12 -58 26 -55 -57 -55 1488 l0 1420 505 0 505 0 -172 -232z m3482
-1186 l0 -1418 -27 -27 c-63 -59 -32 -57 -868 -57 l-765 0 1 1298 0 1297 156
-310 c85 -170 164 -320 176 -332 42 -46 133 -34 158 20 5 12 36 120 68 240 32
119 61 220 64 223 3 4 110 -21 237 -56 156 -41 240 -59 259 -55 43 9 73 47 75
93 0 34 -16 61 -158 258 -88 120 -164 225 -169 232 -7 9 72 12 392 12 l401 0
0 -1418z"/>
<path d="M651 1646 c-87 -48 -50 -186 49 -186 51 0 100 49 100 99 0 75 -83
124 -149 87z"/>
<path d="M651 1246 c-49 -27 -50 -37 -51 -414 0 -383 2 -396 55 -420 51 -23
107 -7 131 39 19 37 21 713 2 754 -22 48 -88 68 -137 41z"/>
</g>
</svg>
