<svg fill="#000000" xmlns="http://www.w3.org/2000/svg" viewBox="0 0 64 64" width="256px" height="256px"><path d="M 17 6 C 10.935 6 6 10.935 6 17 L 6 47 C 6 53.065 10.935 58 17 58 L 47 58 C 53.065 58 58 53.065 58 47 L 58 17 C 58 10.935 53.065 6 47 6 L 17 6 z M 17 8 L 47 8 C 47.68793 8 48.355938 8.0855491 49 8.2324219 L 49 55.767578 C 48.355938 55.914451 47.68793 56 47 56 L 17 56 C 12.037 56 8 51.962 8 47 L 8 17 C 8 12.038 12.037 8 17 8 z M 51 8.9492188 C 53.958752 10.425386 56 13.475432 56 17 L 56 19 L 51 19 L 51 8.9492188 z M 28.021484 16 C 19.187484 16 12 23.187484 12 32.021484 C 12 40.855484 19.187484 48.042969 28.021484 48.042969 C 36.854484 48.042969 44.042016 40.855484 44.041016 32.021484 C 44.041016 29.225484 43.310781 26.470594 41.925781 24.058594 C 41.651781 23.578594 41.039547 23.414453 40.560547 23.689453 C 40.082547 23.964453 39.916406 24.575688 40.191406 25.054688 C 41.402406 27.164687 42.042969 29.573484 42.042969 32.021484 C 42.042969 35.589341 40.690983 38.838979 38.488281 41.316406 C 35.937472 38.619078 32.207284 37.029297 28.25 37.029297 C 24.161521 37.029297 20.339144 38.718518 17.785156 41.570312 C 15.444975 39.06384 14 35.712848 14 32.021484 C 14 24.290484 20.290484 18 28.021484 18 C 29.955484 18 31.829844 18.386437 33.589844 19.148438 C 34.098844 19.368437 34.683297 19.134906 34.904297 18.628906 C 35.122297 18.121906 34.889812 17.5315 34.382812 17.3125 C 32.371813 16.4415 30.231484 16 28.021484 16 z M 37.214844 19.238281 C 36.960844 19.268156 36.718375 19.395328 36.546875 19.611328 C 36.203875 20.044328 36.276938 20.672625 36.710938 21.015625 C 37.222938 21.421625 37.710156 21.865891 38.160156 22.337891 C 38.358156 22.543891 38.620766 22.648438 38.884766 22.648438 C 39.132766 22.648437 39.381219 22.555141 39.574219 22.369141 C 39.973219 21.987141 39.988422 21.354078 39.607422 20.955078 C 39.093422 20.417078 38.537172 19.910266 37.951172 19.447266 C 37.734672 19.275766 37.468844 19.208406 37.214844 19.238281 z M 51 21 L 56 21 L 56 31 L 51 31 L 51 21 z M 28.021484 23.054688 C 24.712484 23.054688 22.021484 25.745688 22.021484 29.054688 C 22.021484 32.363687 24.712484 35.054688 28.021484 35.054688 C 31.329484 35.054688 34.021484 32.363687 34.021484 29.054688 C 34.021484 25.745687 31.330484 23.054688 28.021484 23.054688 z M 28.021484 25.054688 C 30.227484 25.054687 32.021484 26.848688 32.021484 29.054688 C 32.021484 31.260687 30.227484 33.054688 28.021484 33.054688 C 25.815484 33.054687 24.021484 31.260687 24.021484 29.054688 C 24.021484 26.848687 25.815484 25.054688 28.021484 25.054688 z M 51 33 L 56 33 L 56 44 L 51 44 L 51 33 z M 28.25 39.03125 C 31.673356 39.03125 34.884923 40.399763 37.060547 42.71875 C 34.617077 44.786917 31.465786 46.042969 28.021484 46.042969 C 24.699605 46.042969 21.647293 44.875436 19.242188 42.9375 C 21.417864 40.48475 24.712705 39.03033 28.25 39.03125 z M 51 46 L 56 46 L 56 47 C 56 50.524568 53.958752 53.574614 51 55.050781 L 51 46 z M 13.386719 49.564453 C 12.833719 49.564453 12.386719 50.012453 12.386719 50.564453 L 12.386719 52.564453 C 12.386719 53.116453 12.833719 53.564453 13.386719 53.564453 C 13.938719 53.564453 14.386719 53.117453 14.386719 52.564453 L 14.386719 50.564453 C 14.386719 50.012453 13.939719 49.564453 13.386719 49.564453 z M 18.642578 49.564453 C 18.089578 49.564453 17.642578 50.012453 17.642578 50.564453 L 17.642578 52.564453 C 17.642578 53.116453 18.089578 53.564453 18.642578 53.564453 C 19.194578 53.564453 19.642578 53.117453 19.642578 52.564453 L 19.642578 50.564453 C 19.642578 50.012453 19.195578 49.564453 18.642578 49.564453 z M 23.898438 49.564453 C 23.345438 49.564453 22.898438 50.012453 22.898438 50.564453 L 22.898438 52.564453 C 22.898438 53.116453 23.345437 53.564453 23.898438 53.564453 C 24.451437 53.564453 24.898438 53.117453 24.898438 52.564453 L 24.898438 50.564453 C 24.898437 50.012453 24.451438 49.564453 23.898438 49.564453 z M 29.154297 49.564453 C 28.601297 49.564453 28.154297 50.012453 28.154297 50.564453 L 28.154297 52.564453 C 28.154297 53.116453 28.601297 53.564453 29.154297 53.564453 C 29.707297 53.564453 30.154297 53.117453 30.154297 52.564453 L 30.154297 50.564453 C 30.154297 50.012453 29.707297 49.564453 29.154297 49.564453 z M 34.410156 49.564453 C 33.857156 49.564453 33.410156 50.012453 33.410156 50.564453 L 33.410156 52.564453 C 33.410156 53.116453 33.857156 53.564453 34.410156 53.564453 C 34.963156 53.564453 35.410156 53.117453 35.410156 52.564453 L 35.410156 50.564453 C 35.410156 50.012453 34.963156 49.564453 34.410156 49.564453 z M 39.667969 49.564453 C 39.114969 49.564453 38.667969 50.012453 38.667969 50.564453 L 38.667969 52.564453 C 38.667969 53.116453 39.114969 53.564453 39.667969 53.564453 C 40.220969 53.564453 40.667969 53.117453 40.667969 52.564453 L 40.667969 50.564453 C 40.667969 50.012453 40.220969 49.564453 39.667969 49.564453 z M 44.923828 49.564453 C 44.370828 49.564453 43.923828 50.012453 43.923828 50.564453 L 43.923828 52.564453 C 43.923828 53.116453 44.370828 53.564453 44.923828 53.564453 C 45.476828 53.564453 45.923828 53.117453 45.923828 52.564453 L 45.923828 50.564453 C 45.923828 50.012453 45.476828 49.564453 44.923828 49.564453 z"/></svg>