<?xml version="1.0" encoding="UTF-8" standalone="no"?>
<!DOCTYPE svg PUBLIC "-//W3C//DTD SVG 20010904//EN" "http://www.w3.org/TR/2001/REC-SVG-20010904/DTD/svg10.dtd">
<svg version="1.0" xmlns="http://www.w3.org/2000/svg" width="100.000000pt" height="100.000000pt" viewBox="0 0 100.000000 100.000000" preserveAspectRatio="xMidYMid meet">

<g transform="translate(0.000000,100.000000) scale(0.100000,-0.100000)" fill="#000000" stroke="none">
<path d="M81 946 c-49 -27 -50 -34 -51 -444 0 -416 1 -426 55 -450 41 -19 797 -17 834 2 50 26 51 38 51 446 0 408 -1 420 -51 446 -39 20 -802 20 -838 0z m831 -43 c12 -11 18 -30 18 -60 l0 -43 -430 0 -430 0 0 42 c0 81 -19 78 428 78 354 0 397 -2 414 -17z m18 -465 c0 -285 -2 -323 -17 -340 -15 -17 -41 -18 -411 -18 -354 0 -397 2 -414 17 -17 15 -18 39 -18 340 l0 323 430 0 430 0 0 -322z"/>
<path d="M130 860 c0 -13 7 -20 20 -20 13 0 20 7 20 20 0 13 -7 20 -20 20 -13 0 -20 -7 -20 -20z"/>
<path d="M190 860 c0 -13 7 -20 20 -20 13 0 20 7 20 20 0 13 -7 20 -20 20 -13 0 -20 -7 -20 -20z"/>
<path d="M250 859 c0 -25 33 -22 38 4 2 12 -3 17 -17 17 -15 0 -21 -6 -21 -21z"/>
<path d="M384 869 c-15 -25 20 -29 217 -27 185 3 204 5 207 21 3 16 -12 17 -207 17 -140 0 -212 -4 -217 -11z"/>
<path d="M834 869 c-10 -17 13 -36 27 -22 12 12 4 33 -11 33 -5 0 -12 -5 -16 -11z"/>
<path d="M110 705 c0 -8 9 -15 20 -15 11 0 20 7 20 15 0 8 -9 15 -20 15 -11 0 -20 -7 -20 -15z"/>
<path d="M170 705 c0 -12 15 -15 75 -15 60 0 75 3 75 15 0 12 -15 15 -75 15 -60 0 -75 -3 -75 -15z"/>
<path d="M150 650 c0 -19 7 -20 135 -20 128 0 135 1 135 20 0 19 -7 20 -135 20 -128 0 -135 -1 -135 -20z"/>
<path d="M380 537 c-141 -64 -140 -63 -140 -91 0 -27 18 -46 42 -46 16 0 18 -13 20 -127 l3 -128 195 0 195 0 3 128 c2 114 4 127 20 127 37 0 58 55 30 77 -12 9 -245 114 -251 112 -1 0 -54 -23 -117 -52z m216 -33 c44 -20 90 -40 103 -45 13 -5 22 -12 19 -14 -3 -3 -53 11 -111 31 l-106 37 -106 -38 c-109 -39 -154 -42 -68 -5 26 11 71 31 98 44 28 14 60 25 71 25 12 1 57 -15 100 -35z m-14 -60 l78 -26 0 -119 0 -119 -40 0 -39 0 -3 63 -3 62 -75 0 -75 0 -3 -62 -3 -63 -39 0 -40 0 0 118 0 117 73 27 c39 14 76 27 82 27 5 1 45 -11 87 -25z m-44 -216 l3 -48 -40 0 -41 0 0 43 c0 52 5 59 45 55 28 -3 30 -6 33 -50z"/>
<path d="M778 393 c-24 -28 -29 -53 -16 -76 15 -30 27 -37 65 -37 56 0 84 69 43 110 -25 25 -72 26 -92 3z m67 -48 c0 -21 -31 -33 -46 -18 -5 5 -7 17 -3 27 9 24 49 17 49 -9z"/>
<path d="M126 294 c-37 -37 -3 -98 50 -92 18 2 34 13 43 29 13 24 13 29 -2 53 -20 30 -66 35 -91 10z m57 -39 c1 -5 -6 -11 -15 -13 -11 -2 -18 3 -18 13 0 17 30 18 33 0z"/>
</g>
</svg>