<?xml version="1.0" encoding="UTF-8" standalone="no"?>
<!DOCTYPE svg PUBLIC "-//W3C//DTD SVG 20010904//EN" "http://www.w3.org/TR/2001/REC-SVG-20010904/DTD/svg10.dtd">
<svg version="1.0" xmlns="http://www.w3.org/2000/svg" width="100.000000pt" height="100.000000pt" viewBox="0 0 100.000000 100.000000" preserveAspectRatio="xMidYMid meet">

<g transform="translate(0.000000,100.000000) scale(0.100000,-0.100000)" fill="#000000" stroke="none">
<path d="M144 817 c-2 -8 -4 -52 -2 -98 l3 -84 95 0 95 0 0 95 0 95 -93 3 c-71 2 -94 0 -98 -11z m176 -87 l0 -80 -80 0 -80 0 0 80 0 80 80 0 80 0 0 -80z"/>
<path d="M207 735 c-15 -25 -27 -48 -27 -50 0 -3 27 -5 60 -5 33 0 60 2 60 5 0 8 -55 95 -60 95 -3 0 -17 -20 -33 -45z m61 -10 l22 -35 -50 0 -50 0 22 35 c13 19 25 35 28 35 3 0 15 -16 28 -35z"/>
<path d="M400 730 l0 -50 230 0 230 0 0 50 0 50 -230 0 -230 0 0 -50z m440 15 c0 -13 -28 -15 -182 -17 l-183 -3 183 -2 c110 -2 182 -7 182 -13 0 -6 -80 -10 -210 -10 -133 0 -210 4 -210 10 0 6 12 11 28 11 l27 2 -27 4 c-16 2 -28 11 -28 19 0 12 34 14 210 14 180 0 210 -2 210 -15z"/>
<path d="M144 587 c-2 -8 -4 -52 -2 -98 l3 -84 95 0 95 0 0 95 0 95 -93 3 c-71 2 -94 0 -98 -11z m176 -87 l0 -80 -80 0 -80 0 0 80 0 80 80 0 80 0 0 -80z"/>
<path d="M208 537 c-28 -23 -37 -47 -17 -47 5 0 8 -4 5 -9 -14 -21 6 -38 45 -38 37 0 44 5 40 35 -1 6 3 12 9 12 20 0 9 27 -20 48 -16 12 -30 22 -32 22 -2 -1 -15 -11 -30 -23z m42 -2 c0 -8 9 -15 20 -15 24 0 27 -18 5 -26 -11 -5 -13 -10 -5 -19 8 -10 8 -15 -1 -20 -6 -4 -15 -1 -20 6 -8 12 -10 12 -18 0 -11 -17 -32 -6 -25 13 3 8 1 17 -5 21 -18 10 -12 25 9 25 11 0 20 7 20 15 0 8 5 15 10 15 6 0 10 -7 10 -15z"/>
<path d="M400 500 l0 -50 230 0 230 0 0 50 0 50 -230 0 -230 0 0 -50z m440 20 c0 -5 -12 -11 -27 -11 l-28 -2 28 -4 c15 -2 27 -11 27 -19 0 -12 -34 -14 -210 -14 -180 0 -210 2 -210 15 0 13 26 15 163 17 l162 2 -162 3 c-245 5 -207 23 47 23 133 0 210 -4 210 -10z"/>
<path d="M758 503 c7 -3 16 -2 19 1 4 3 -2 6 -13 5 -11 0 -14 -3 -6 -6z"/>
<path d="M144 357 c-2 -8 -4 -52 -2 -98 l3 -84 95 0 95 0 0 95 0 95 -93 3 c-71 2 -94 0 -98 -11z m176 -87 l0 -80 -80 0 -80 0 0 80 0 80 80 0 80 0 0 -80z"/>
<path d="M222 310 c-7 -11 -20 -20 -30 -20 -13 0 -14 -2 -4 -9 8 -5 15 -19 15 -32 2 -20 7 -24 37 -24 30 0 35 4 37 24 0 13 7 27 15 32 10 7 9 9 -4 9 -10 0 -23 9 -30 20 -7 11 -15 20 -18 20 -3 0 -11 -9 -18 -20z m43 -40 c0 -18 -6 -26 -23 -28 -13 -2 -25 3 -28 12 -10 26 4 48 28 44 17 -2 23 -10 23 -28z"/>
<path d="M400 270 l0 -50 230 0 230 0 0 50 0 50 -230 0 -230 0 0 -50z m440 0 l0 -30 -210 0 -210 0 0 30 0 30 210 0 210 0 0 -30z"/>
</g>
</svg>