<?xml version="1.0" encoding="UTF-8" standalone="no"?>
<!DOCTYPE svg PUBLIC "-//W3C//DTD SVG 20010904//EN" "http://www.w3.org/TR/2001/REC-SVG-20010904/DTD/svg10.dtd">
<svg version="1.0" xmlns="http://www.w3.org/2000/svg" width="100.000000pt" height="100.000000pt" viewBox="0 0 100.000000 100.000000" preserveAspectRatio="xMidYMid meet">

<g transform="translate(0.000000,100.000000) scale(0.100000,-0.100000)" fill="#000000" stroke="none">
<path d="M47 952 c-14 -15 -17 -40 -17 -121 0 -145 -4 -141 138 -141 79 0 122 4 130 12 7 7 12 34 12 60 0 47 1 48 30 48 l30 0 0 -145 0 -145 -30 0 c-29 0 -30 1 -30 48 0 26 -5 53 -12 60 -19 19 -232 16 -252 -4 -23 -23 -23 -225 0 -248 20 -20 233 -23 252 -4 7 7 12 34 12 60 0 47 1 48 30 48 l30 0 0 -145 0 -145 -30 0 c-29 0 -30 1 -30 48 0 26 -5 53 -12 60 -8 8 -51 12 -130 12 -142 0 -138 4 -138 -143 0 -136 1 -137 141 -137 126 0 137 6 141 75 3 46 5 50 29 53 25 3 27 0 31 -47 8 -85 -5 -81 298 -81 246 0 268 1 283 18 15 17 17 63 17 454 0 409 -1 436 -18 451 -16 15 -51 17 -284 17 -301 0 -288 4 -296 -81 -4 -47 -6 -50 -31 -47 -24 3 -26 7 -29 53 -4 69 -15 75 -142 75 -91 0 -109 -3 -123 -18z m73 -64 c0 -65 12 -87 34 -69 10 9 20 10 34 2 27 -15 32 -6 32 61 0 59 0 59 28 56 l27 -3 3 -108 3 -108 -108 3 -108 3 -3 94 c-1 52 -1 100 2 108 3 7 17 13 31 13 24 0 25 -3 25 -52z m70 17 c0 -24 -5 -35 -15 -35 -10 0 -15 11 -15 35 0 24 5 35 15 35 10 0 15 -11 15 -35z m745 -405 l0 -435 -262 -3 -263 -2 0 440 0 440 263 -2 262 -3 0 -435z m-815 55 c0 -58 16 -79 44 -56 10 8 16 8 26 -4 20 -25 30 -7 30 56 0 59 0 59 30 59 l30 0 0 -110 0 -111 -107 3 -108 3 -3 94 c-1 52 -1 100 2 108 3 7 17 13 31 13 24 0 25 -3 25 -55z m70 22 c0 -23 -5 -34 -15 -34 -10 0 -15 11 -15 34 0 23 5 33 15 33 10 0 15 -10 15 -33z m-70 -344 c0 -63 12 -82 39 -66 13 8 22 9 26 3 3 -6 13 -10 21 -10 11 0 14 14 14 60 l0 60 30 0 31 0 -3 -107 -3 -108 -105 0 -105 0 -3 94 c-1 52 -1 100 2 108 3 7 17 13 31 13 23 0 25 -3 25 -47z m70 12 c0 -26 -3 -33 -15 -29 -20 8 -20 64 0 64 10 0 15 -11 15 -35z"/>
<path d="M542 858 c-8 -8 -12 -50 -12 -124 0 -143 1 -144 147 -144 134 0 133 -1 133 144 0 74 -4 116 -12 124 -17 17 -239 17 -256 0z m78 -65 c0 -61 12 -82 34 -64 13 11 19 11 31 1 24 -20 35 -2 35 56 0 53 0 54 30 54 l30 0 0 -104 c0 -121 5 -116 -110 -116 -115 0 -110 -5 -110 116 l0 104 30 0 c29 0 30 -1 30 -47z m70 17 c0 -20 -5 -30 -15 -30 -10 0 -15 10 -15 30 0 20 5 30 15 30 10 0 15 -10 15 -30z"/>
<path d="M440 470 l0 -60 125 0 126 0 -3 58 -3 57 -122 3 -123 3 0 -61z m220 0 l0 -30 -95 0 -95 0 0 30 0 30 95 0 95 0 0 -30z"/>
<path d="M720 500 c0 -20 5 -21 93 -18 74 2 92 6 92 18 0 12 -18 16 -92 18 -88 3 -93 2 -93 -18z"/>
<path d="M720 435 c0 -12 17 -15 95 -15 78 0 95 3 95 15 0 12 -17 15 -95 15 -78 0 -95 -3 -95 -15z"/>
<path d="M440 310 l0 -61 123 3 122 3 3 58 3 57 -126 0 -125 0 0 -60z m220 0 l0 -30 -95 0 -95 0 0 30 0 30 95 0 95 0 0 -30z"/>
<path d="M720 345 c0 -12 17 -15 95 -15 78 0 95 3 95 15 0 12 -17 15 -95 15 -78 0 -95 -3 -95 -15z"/>
<path d="M720 285 c0 -12 16 -15 96 -15 72 0 95 3 92 13 -3 8 -34 13 -96 15 -77 2 -92 0 -92 -13z"/>
<path d="M442 158 l3 -63 120 0 120 0 0 60 0 60 -123 3 -123 3 3 -63z m213 -3 l0 -30 -92 -3 -93 -3 0 36 0 36 93 -3 92 -3 0 -30z"/>
<path d="M720 185 c0 -12 17 -15 95 -15 78 0 95 3 95 15 0 12 -17 15 -95 15 -78 0 -95 -3 -95 -15z"/>
<path d="M720 125 c0 -12 17 -15 95 -15 78 0 95 3 95 15 0 12 -17 15 -95 15 -78 0 -95 -3 -95 -15z"/>
</g>
</svg>