<?xml version="1.0" encoding="UTF-8" standalone="no"?>
<!DOCTYPE svg PUBLIC "-//W3C//DTD SVG 20010904//EN" "http://www.w3.org/TR/2001/REC-SVG-20010904/DTD/svg10.dtd">
<svg version="1.0" xmlns="http://www.w3.org/2000/svg" width="128.000000pt" height="128.000000pt" viewBox="0 0 128.000000 128.000000" preserveAspectRatio="xMidYMid meet">

<g transform="translate(0.000000,128.000000) scale(0.100000,-0.100000)" fill="#000000" stroke="none">
<path d="M60 1100 c-19 -19 -20 -33 -20 -460 0 -427 1 -441 20 -460 20 -20 33 -20 580 -20 547 0 560 0 580 20 19 19 20 33 20 460 0 427 -1 441 -20 460 -20 20 -33 20 -580 20 -547 0 -560 0 -580 -20z m700 -460 l0 -440 -337 2 -338 3 -3 425 c-1 234 0 431 3 438 3 9 81 12 340 12 l335 0 0 -440z m435 0 l0 -435 -197 -3 -198 -2 0 440 0 440 198 -2 197 -3 0 -435z"/>
<path d="M164 307 c-9 -25 0 -62 16 -62 10 0 15 10 15 34 0 36 -21 54 -31 28z"/>
<path d="M264 307 c-9 -25 0 -62 16 -62 10 0 15 10 15 34 0 36 -21 54 -31 28z"/>
<path d="M364 307 c-9 -25 0 -62 16 -62 10 0 15 10 15 34 0 36 -21 54 -31 28z"/>
<path d="M464 307 c-9 -25 0 -62 16 -62 10 0 15 10 15 34 0 36 -21 54 -31 28z"/>
<path d="M564 307 c-9 -25 0 -62 16 -62 10 0 15 10 15 34 0 36 -21 54 -31 28z"/>
<path d="M664 307 c-9 -25 0 -62 16 -62 10 0 15 10 15 34 0 36 -21 54 -31 28z"/>
<path d="M850 1005 c-26 -32 13 -81 48 -59 34 22 22 74 -18 74 -10 0 -23 -7 -30 -15z"/>
<path d="M970 1005 c-26 -32 13 -81 48 -59 34 22 22 74 -18 74 -10 0 -23 -7 -30 -15z"/>
<path d="M1090 1005 c-26 -32 13 -81 48 -59 34 22 22 74 -18 74 -10 0 -23 -7 -30 -15z"/>
<path d="M852 868 c-7 -7 -12 -28 -12 -48 0 -20 5 -41 12 -48 17 -17 279 -17 296 0 16 16 16 80 0 96 -17 17 -279 17 -296 0z m268 -48 c0 -19 -7 -20 -120 -20 -113 0 -120 1 -120 20 0 19 7 20 120 20 113 0 120 -1 120 -20z"/>
</g>
</svg>