<?xml version="1.0" encoding="UTF-8" standalone="no"?>
<!DOCTYPE svg PUBLIC "-//W3C//DTD SVG 20010904//EN" "http://www.w3.org/TR/2001/REC-SVG-20010904/DTD/svg10.dtd">
<svg version="1.0" xmlns="http://www.w3.org/2000/svg" width="100.000000pt" height="100.000000pt" viewBox="0 0 100.000000 100.000000" preserveAspectRatio="xMidYMid meet">

<g transform="translate(0.000000,100.000000) scale(0.100000,-0.100000)" fill="#000000" stroke="none">
<path d="M76 882 c-15 -17 -16 -56 -14 -398 l3 -379 314 -3 314 -2 -18 20 c-17 19 -30 20 -297 20 l-278 0 0 290 0 290 400 0 400 0 0 -150 c0 -143 1 -150 20 -150 19 0 20 7 20 223 0 204 -2 225 -18 240 -17 15 -61 17 -424 17 -381 0 -406 -1 -422 -18z m822 -74 l3 -48 -400 0 -401 0 0 50 0 50 398 -2 397 -3 3 -47z"/>
<path d="M184 589 c-10 -17 13 -36 27 -22 12 12 4 33 -11 33 -5 0 -12 -5 -16 -11z"/>
<path d="M300 580 c0 -19 7 -20 250 -20 243 0 250 1 250 20 0 19 -7 20 -250 20 -243 0 -250 -1 -250 -20z"/>
<path d="M184 449 c-10 -17 13 -36 27 -22 12 12 4 33 -11 33 -5 0 -12 -5 -16 -11z"/>
<path d="M300 440 c0 -19 7 -20 200 -20 193 0 200 1 200 20 0 19 -7 20 -200 20 -193 0 -200 -1 -200 -20z"/>
<path d="M760 291 l0 -90 -50 -3 -49 -3 80 -92 c44 -51 84 -93 89 -93 5 0 45 42 89 93 l80 92 -49 3 -50 3 0 90 0 89 -70 0 -70 0 0 -89z m100 -40 c0 -89 0 -90 26 -93 l26 -3 -41 -45 -41 -45 -41 45 -41 45 26 3 c26 3 26 4 26 93 l0 89 30 0 30 0 0 -89z"/>
<path d="M184 309 c-10 -17 13 -36 27 -22 12 12 4 33 -11 33 -5 0 -12 -5 -16 -11z"/>
<path d="M300 300 c0 -19 7 -20 200 -20 193 0 200 1 200 20 0 19 -7 20 -200 20 -193 0 -200 -1 -200 -20z"/>
</g>
</svg>