<svg width="16" height="17" viewBox="0 0 16 17" fill="none" xmlns="http://www.w3.org/2000/svg">
<g clip-path="url(#clip0_67122_4774)">
<path fill-rule="evenodd" clip-rule="evenodd" d="M12.826 5.38512C12.8745 5.3699 12.9381 5.40034 13.0018 5.48404C13.0018 5.48404 13.0018 5.48404 15.8807 8.28937C16.0488 8.45677 16.0488 8.71042 15.8807 8.83471C15.8807 8.83471 15.8807 8.83471 13.0018 11.6832C12.9381 11.7669 12.8745 11.7871 12.826 11.7618C12.7776 11.7364 12.7471 11.6629 12.7471 11.5563V5.56774C12.7471 5.46375 12.7776 5.40034 12.826 5.38512Z" fill="#ED1C24"/>
<path fill-rule="evenodd" clip-rule="evenodd" d="M7.9014 0.710449H8.10522L8.30139 0.791616C8.30139 0.791616 8.30139 0.791616 11.2643 3.72377C11.3917 3.89117 11.3484 4.01799 11.1369 4.01799C11.1369 4.01799 11.1369 4.01799 9.90895 4.01799C9.69749 4.01799 9.52935 4.1854 9.52935 4.39593C9.52935 4.39593 9.52935 4.39593 9.52935 6.57221C9.52935 6.78274 9.35866 6.95014 9.10389 6.95014C9.10389 6.95014 9.10389 6.95014 6.94604 6.95014C6.73458 6.95014 6.56389 6.78274 6.56389 6.57221C6.56389 6.57221 6.56389 6.57221 6.56389 4.39593C6.56389 4.1854 6.39575 4.01799 6.18175 4.01799H4.86971C4.65826 4.01799 4.61495 3.89117 4.74233 3.72377C4.74233 3.72377 4.74233 3.72377 7.70778 0.791616L7.9014 0.710449Z" fill="#ED1C24"/>
<path fill-rule="evenodd" clip-rule="evenodd" d="M3.25971 5.32174C3.31321 5.3471 3.34633 5.42066 3.34633 5.52719V11.6401C3.34633 11.7466 3.31321 11.81 3.25971 11.8303C3.20876 11.8506 3.13488 11.8303 3.04826 11.7669C3.04826 11.7669 3.04826 11.7669 0.126108 8.83474C-0.0420361 8.71045 -0.0420361 8.45681 0.126108 8.2894C0.126108 8.2894 0.126109 8.2894 3.04826 5.40037C3.13488 5.31667 3.20876 5.29637 3.25971 5.32174Z" fill="#ED1C24"/>
<path fill-rule="evenodd" clip-rule="evenodd" d="M6.94617 10.1333C6.94617 10.1333 6.94617 10.1333 9.10403 10.1333C9.35879 10.1333 9.52948 10.3007 9.52948 10.5112C9.52948 10.5112 9.52948 10.5112 9.52948 12.8143C9.52948 13.0655 9.69763 13.2329 9.90908 13.2329H11.053C11.2644 13.2329 11.3485 13.3571 11.1804 13.484C11.1804 13.484 11.1804 13.484 8.30152 16.373C8.2149 16.4567 8.11045 16.4998 8.00344 16.4998C7.89899 16.4998 7.79199 16.4567 7.70792 16.373C7.70792 16.373 7.70792 16.373 4.82908 13.484C4.65839 13.3571 4.74246 13.2329 4.95392 13.2329C4.95392 13.2329 4.95392 13.2329 6.18188 13.2329C6.39588 13.2329 6.56403 13.0655 6.56403 12.8143C6.56403 12.8143 6.56403 12.8143 6.56403 10.5112C6.56403 10.3007 6.73472 10.1333 6.94617 10.1333Z" fill="#ED1C24"/>
</g>
<defs>
<clipPath id="clip0_67122_4774">
<rect width="16" height="16" fill="white" transform="translate(0 0.5)"/>
</clipPath>
</defs>
</svg>