<?xml version="1.0" standalone="no"?>
<!DOCTYPE svg PUBLIC "-//W3C//DTD SVG 20010904//EN"
 "http://www.w3.org/TR/2001/REC-SVG-20010904/DTD/svg10.dtd">
<svg version="1.0" xmlns="http://www.w3.org/2000/svg"
 width="512.000000pt" height="512.000000pt" viewBox="0 0 512.000000 512.000000"
 preserveAspectRatio="xMidYMid meet">

<g transform="translate(0.000000,512.000000) scale(0.100000,-0.100000)"
fill="#000000" stroke="none">
<path d="M1015 4838 c-32 -18 -35 -28 -35 -135 l0 -101 -207 -4 c-204 -3 -209
-4 -265 -31 -73 -36 -139 -101 -175 -175 l-28 -57 0 -1895 0 -1895 27 -57 c37
-80 105 -149 181 -184 l62 -29 1435 0 1435 0 57 27 c79 37 142 98 181 177 l32
66 5 351 5 352 490 322 c315 206 503 336 528 363 137 154 82 402 -108 489 -68
31 -181 32 -245 2 -25 -12 -183 -112 -352 -222 -168 -111 -309 -202 -312 -202
-3 0 -7 525 -8 1167 l-3 1168 -22 47 c-26 55 -92 131 -144 164 -73 46 -127 54
-356 54 l-213 0 0 103 c0 109 -3 118 -37 136 -18 9 -28 9 -45 0 -35 -18 -38
-27 -38 -136 l0 -103 -255 0 -255 0 0 103 c0 109 -3 118 -37 136 -18 9 -28 9
-45 0 -35 -18 -38 -27 -38 -136 l0 -103 -250 0 -250 0 0 103 c0 109 -3 118
-37 136 -18 9 -28 9 -45 0 -35 -18 -38 -27 -38 -136 l0 -103 -255 0 -255 0 0
103 c0 109 -3 118 -37 136 -26 13 -23 13 -48 -1z m-35 -432 c0 -68 -2 -74 -22
-80 -38 -9 -95 -63 -119 -112 -60 -125 5 -271 138 -310 216 -63 380 191 232
360 -22 25 -55 51 -74 58 l-35 12 0 73 0 73 255 0 255 0 0 -74 c0 -71 -1 -74
-26 -80 -14 -4 -45 -25 -69 -47 -108 -99 -92 -271 32 -349 116 -74 263 -31
327 97 23 46 21 137 -5 190 -22 46 -80 100 -116 109 -21 6 -23 12 -23 80 l0
74 250 0 250 0 0 -72 -1 -73 -42 -21 c-114 -56 -155 -214 -83 -320 107 -159
348 -121 402 62 14 48 15 66 5 110 -14 63 -74 137 -126 156 l-35 12 0 73 0 73
255 0 255 0 0 -73 0 -73 -33 -12 c-53 -19 -105 -78 -123 -140 -20 -68 -12
-125 26 -185 93 -148 310 -134 391 25 26 51 25 139 -2 195 -22 46 -80 100
-116 109 -21 6 -23 12 -23 80 l0 74 206 0 c135 0 221 -4 248 -12 56 -17 141
-100 155 -153 8 -28 11 -400 11 -1221 l0 -1182 -112 -72 c-62 -40 -119 -80
-125 -88 -31 -38 -4 -92 44 -92 18 0 178 100 476 295 247 163 450 295 452 293
26 -37 65 -99 65 -105 -1 -7 -1346 -895 -1470 -971 l-37 -22 -36 54 -36 54
150 99 c156 102 172 121 150 169 -22 48 -60 34 -250 -91 l-174 -115 -468 0
c-456 0 -470 -1 -489 -20 -11 -11 -20 -29 -20 -40 0 -11 9 -29 20 -40 19 -19
33 -20 455 -20 l435 0 -20 -40 -20 -40 -415 0 c-402 0 -416 -1 -435 -20 -11
-11 -20 -29 -20 -40 0 -11 9 -29 20 -40 19 -19 33 -20 400 -20 209 0 380 -3
380 -6 0 -3 -16 -34 -35 -68 -41 -74 -44 -109 -11 -131 20 -13 58 -14 292 -8
l270 8 277 182 c152 101 279 183 282 183 3 0 5 -134 3 -297 -3 -283 -4 -300
-25 -338 -25 -47 -64 -85 -113 -111 -34 -18 -91 -19 -1438 -22 l-1403 -2 -49
21 c-59 26 -111 80 -134 140 -15 41 -16 189 -14 1904 l3 1860 28 47 c15 26 41
57 58 69 60 42 95 48 287 49 l182 0 0 -74z m128 -211 c60 -50 47 -142 -24
-171 -73 -31 -144 15 -144 93 0 91 98 137 168 78z m633 -4 c87 -87 -29 -228
-131 -159 -88 60 -50 188 57 188 36 0 50 -6 74 -29z m617 4 c38 -32 48 -72 28
-118 -43 -105 -196 -73 -196 40 0 91 98 137 168 78z m633 -4 c81 -81 -18 -219
-120 -167 -101 53 -67 195 47 196 35 0 49 -6 73 -29z m1599 -1883 c24 -13 57
-40 73 -60 49 -61 48 -162 -2 -227 l-18 -23 -97 148 c-54 81 -100 153 -103
160 -11 29 90 30 147 2z m-84 -323 c21 -30 35 -57 33 -59 -2 -2 -341 -224
-754 -495 l-750 -492 -20 25 c-11 14 -28 39 -38 55 l-17 29 753 495 c413 273
753 496 754 496 2 1 19 -24 39 -54z m-1681 -951 c42 -64 75 -117 73 -119 -2
-1 -67 -5 -145 -7 l-141 -4 40 80 c43 87 88 166 93 166 2 0 38 -52 80 -116z"/>
<path d="M550 4160 c-15 -15 -20 -33 -20 -73 0 -60 19 -87 62 -87 39 0 58 29
58 88 0 57 -23 92 -60 92 -11 0 -29 -9 -40 -20z"/>
<path d="M565 3918 c-11 -6 -23 -16 -27 -22 -4 -6 -8 -151 -8 -322 0 -289 1
-312 18 -327 24 -22 65 -21 85 1 15 16 17 54 17 328 0 170 -4 314 -8 320 -6
10 -46 34 -54 34 -2 0 -12 -6 -23 -12z"/>
<path d="M959 3531 c-235 -75 -349 -344 -240 -565 38 -77 120 -157 198 -194
52 -24 70 -27 164 -27 101 0 108 1 181 38 328 162 289 639 -61 748 -77 24
-168 24 -242 0z m260 -137 c179 -97 199 -353 37 -475 -58 -44 -104 -59 -182
-59 -253 1 -372 324 -182 495 64 58 115 75 204 71 55 -2 82 -9 123 -32z"/>
<path d="M1125 3220 c-41 -38 -77 -70 -82 -70 -4 0 -22 14 -39 31 -53 51 -114
38 -114 -26 0 -26 11 -43 64 -93 42 -40 73 -62 88 -62 31 0 238 196 238 226 0
25 -39 64 -64 64 -9 0 -50 -31 -91 -70z"/>
<path d="M1740 3300 c-11 -11 -20 -29 -20 -40 0 -11 9 -29 20 -40 20 -20 33
-20 793 -20 737 0 775 1 790 18 22 24 21 65 -1 85 -17 16 -86 17 -790 17 -759
0 -772 0 -792 -20z"/>
<path d="M1740 3100 c-11 -11 -20 -29 -20 -40 0 -11 9 -29 20 -40 19 -19 33
-20 443 -20 398 0 425 1 440 18 22 24 21 65 -1 85 -17 15 -62 17 -440 17 -409
0 -423 -1 -442 -20z"/>
<path d="M959 2531 c-235 -75 -349 -344 -240 -565 38 -77 120 -157 198 -194
52 -24 70 -27 164 -27 101 0 108 1 181 38 328 162 289 639 -61 748 -77 24
-168 24 -242 0z m260 -137 c179 -97 199 -353 37 -475 -58 -44 -104 -59 -182
-59 -253 1 -372 324 -182 495 64 58 115 75 204 71 55 -2 82 -9 123 -32z"/>
<path d="M1125 2220 c-41 -38 -77 -70 -82 -70 -4 0 -22 14 -39 31 -53 51 -114
38 -114 -26 0 -26 11 -43 64 -93 42 -40 73 -62 88 -62 31 0 238 196 238 226 0
25 -39 64 -64 64 -9 0 -50 -31 -91 -70z"/>
<path d="M1740 2300 c-11 -11 -20 -29 -20 -40 0 -11 9 -29 20 -40 20 -20 33
-20 793 -20 737 0 775 1 790 18 22 24 21 65 -1 85 -17 16 -86 17 -790 17 -759
0 -772 0 -792 -20z"/>
<path d="M1740 2100 c-11 -11 -20 -29 -20 -40 0 -11 9 -29 20 -40 19 -19 33
-20 443 -20 398 0 425 1 440 18 22 24 21 65 -1 85 -17 15 -62 17 -440 17 -409
0 -423 -1 -442 -20z"/>
<path d="M959 1531 c-235 -75 -349 -344 -240 -565 38 -77 120 -157 198 -194
52 -24 70 -27 164 -27 101 0 108 1 181 38 328 162 289 639 -61 748 -77 24
-168 24 -242 0z m260 -137 c179 -97 199 -353 37 -475 -58 -44 -104 -59 -182
-59 -253 1 -372 324 -182 495 64 58 115 75 204 71 55 -2 82 -9 123 -32z"/>
<path d="M1125 1220 c-41 -38 -77 -70 -82 -70 -4 0 -22 14 -39 31 -53 51 -114
38 -114 -26 0 -26 11 -43 64 -93 42 -40 73 -62 88 -62 31 0 238 196 238 226 0
25 -39 64 -64 64 -9 0 -50 -31 -91 -70z"/>
</g>
</svg>
