<?xml version="1.0" encoding="UTF-8" standalone="no"?>
<!DOCTYPE svg PUBLIC "-//W3C//DTD SVG 20010904//EN" "http://www.w3.org/TR/2001/REC-SVG-20010904/DTD/svg10.dtd">
<svg version="1.0" xmlns="http://www.w3.org/2000/svg" width="100.000000pt" height="100.000000pt" viewBox="0 0 100.000000 100.000000" preserveAspectRatio="xMidYMid meet">

<g transform="translate(0.000000,100.000000) scale(0.100000,-0.100000)" fill="#000000" stroke="none">
<path d="M91 906 c-48 -26 -50 -43 -51 -324 0 -286 3 -307 55 -330 14 -7 48 -12 75 -12 l50 0 0 -35 c0 -24 -9 -45 -31 -69 -39 -45 -30 -60 27 -52 80 11 155 64 187 133 9 20 18 23 62 23 44 0 54 3 58 20 5 19 0 20 -64 20 -67 0 -69 -1 -85 -33 -21 -41 -62 -85 -96 -103 -36 -19 -41 -18 -28 6 6 11 10 44 8 73 l-3 52 -73 5 c-58 4 -77 9 -88 24 -11 16 -14 71 -14 278 0 245 1 259 20 278 19 19 33 20 400 20 367 0 381 -1 400 -20 19 -19 20 -33 20 -218 0 -186 1 -200 20 -217 20 -18 20 -17 20 198 0 234 -4 258 -51 283 -39 20 -782 20 -818 0z"/>
<path d="M735 411 c-9 -41 -19 -46 -55 -24 -30 17 -30 17 -57 -10 -27 -27 -27 -27 -9 -58 20 -34 14 -46 -24 -51 -22 -3 -25 -9 -28 -45 -3 -39 -1 -42 27 -48 40 -8 46 -20 27 -47 -23 -32 -20 -44 14 -68 28 -20 32 -20 52 -6 34 24 45 20 52 -19 7 -33 9 -35 47 -35 36 0 40 3 46 30 8 40 17 45 53 24 29 -18 30 -18 59 10 l30 29 -20 28 c-24 34 -19 45 22 54 28 6 30 9 27 48 -3 36 -6 42 -28 45 -38 5 -44 17 -24 51 18 31 18 31 -9 58 -27 27 -27 27 -58 9 -34 -20 -46 -14 -51 24 -3 22 -9 25 -45 28 -39 3 -42 1 -48 -27z m60 -39 c8 -37 54 -56 85 -35 27 19 38 9 17 -15 -25 -27 -4 -78 35 -86 35 -7 37 -26 3 -26 -36 0 -59 -55 -37 -88 19 -29 10 -38 -18 -19 -32 23 -79 4 -87 -34 -7 -36 -23 -38 -23 -4 0 36 -54 59 -88 38 -30 -19 -39 -10 -20 19 22 33 -1 88 -37 88 -35 0 -31 17 5 25 20 4 30 13 30 25 0 10 4 22 10 25 6 4 3 16 -6 31 -21 31 -12 41 19 21 34 -22 87 1 87 38 0 34 17 32 25 -3z"/>
<path d="M725 275 c-40 -39 -27 -104 26 -125 33 -14 62 -6 89 23 44 46 5 127 -60 127 -19 0 -40 -9 -55 -25z m85 -30 c15 -18 10 -45 -12 -59 -35 -22 -74 27 -48 59 16 19 44 19 60 0z"/>
</g>
</svg>