<svg width="20" height="20" viewBox="0 0 20 20" fill="none" xmlns="http://www.w3.org/2000/svg">
<g clip-path="url(#clip0_68608_2877)">
<path d="M14.2888 12.6851C15.3984 11.1709 15.8954 9.29364 15.6804 7.42879C15.4653 5.56393 14.554 3.84905 13.1288 2.62723C11.7037 1.4054 9.86974 0.766745 7.99392 0.839024C6.1181 0.911303 4.33874 1.68919 3.01182 3.01706C1.6849 4.34492 0.908292 6.12484 0.837356 8.00071C0.766419 9.87659 1.40639 11.7101 2.62923 13.1344C3.85208 14.5586 5.56761 15.4687 7.43262 15.6824C9.29762 15.8962 11.1746 15.3978 12.6879 14.2871H12.6868C12.7212 14.333 12.7578 14.3765 12.7991 14.4189L17.211 18.8308C17.4259 19.0459 17.7174 19.1667 18.0214 19.1668C18.3253 19.1669 18.6169 19.0463 18.8319 18.8314C19.047 18.6165 19.1678 18.325 19.1679 18.0211C19.168 17.7171 19.0474 17.4255 18.8325 17.2105L14.4206 12.7985C14.3796 12.7571 14.3356 12.7188 14.2888 12.6839V12.6851ZM14.5845 8.28006C14.5845 9.10775 14.4215 9.92733 14.1047 10.692C13.788 11.4567 13.3237 12.1515 12.7384 12.7368C12.1532 13.322 11.4584 13.7863 10.6937 14.103C9.92901 14.4198 9.10943 14.5828 8.28174 14.5828C7.45406 14.5828 6.63448 14.4198 5.86979 14.103C5.10511 13.7863 4.4103 13.322 3.82504 12.7368C3.23978 12.1515 2.77552 11.4567 2.45878 10.692C2.14204 9.92733 1.97901 9.10775 1.97901 8.28006C1.97901 6.60847 2.64305 5.00534 3.82504 3.82335C5.00703 2.64136 6.61016 1.97732 8.28174 1.97732C9.95333 1.97732 11.5565 2.64136 12.7384 3.82335C13.9204 5.00534 14.5845 6.60847 14.5845 8.28006Z" fill="#ACADBC"/>
</g>
<defs>
<clipPath id="clip0_68608_2877">
<rect width="20" height="20" fill="white"/>
</clipPath>
</defs>
</svg>
