<?xml version="1.0" encoding="UTF-8" standalone="no"?>
<!DOCTYPE svg PUBLIC "-//W3C//DTD SVG 20010904//EN" "http://www.w3.org/TR/2001/REC-SVG-20010904/DTD/svg10.dtd">
<svg version="1.0" xmlns="http://www.w3.org/2000/svg" width="48.000000pt" height="48.000000pt" viewBox="0 0 48.000000 48.000000" preserveAspectRatio="xMidYMid meet">

<g transform="translate(0.000000,48.000000) scale(0.100000,-0.100000)" fill="#000000" stroke="none">
<path d="M12 468 c-16 -16 -16 -120 0 -136 16 -16 180 -16 196 0 16 16 16 120 0 136 -16 16 -180 16 -196 0z m178 -68 l0 -50 -80 0 -80 0 0 50 0 50 80 0 80 0 0 -50z"/>
<path d="M272 468 c-17 -17 -17 -239 0 -256 16 -16 180 -16 196 0 17 17 17 239 0 256 -7 7 -44 12 -98 12 -54 0 -91 -5 -98 -12z m178 -128 l0 -110 -80 0 -80 0 0 110 0 110 80 0 80 0 0 -110z"/>
<path d="M12 268 c-17 -17 -17 -239 0 -256 16 -16 180 -16 196 0 17 17 17 239 0 256 -16 16 -180 16 -196 0z m178 -128 l0 -110 -80 0 -80 0 0 110 0 110 80 0 80 0 0 -110z"/>
<path d="M272 148 c-16 -16 -16 -120 0 -136 16 -16 180 -16 196 0 7 7 12 37 12 68 0 31 -5 61 -12 68 -16 16 -180 16 -196 0z m178 -68 l0 -50 -80 0 -80 0 0 50 0 50 80 0 80 0 0 -50z"/>
</g>
</svg>