<?xml version="1.0" encoding="UTF-8" standalone="no"?>
<!DOCTYPE svg PUBLIC "-//W3C//DTD SVG 20010904//EN" "http://www.w3.org/TR/2001/REC-SVG-20010904/DTD/svg10.dtd">
<svg version="1.0" xmlns="http://www.w3.org/2000/svg" width="64.000000pt" height="64.000000pt" viewBox="0 0 64.000000 64.000000" preserveAspectRatio="xMidYMid meet">

<g transform="translate(0.000000,64.000000) scale(0.100000,-0.100000)" fill="#000000" stroke="none">
<path d="M407 599 c-5 -17 -11 -20 -34 -15 -22 5 -34 2 -48 -14 -10 -11 -14 -21 -9 -22 5 -1 -54 -5 -131 -8 l-140 -5 -3 -40 c-3 -38 2 -45 88 -137 l90 -96 0 -121 c0 -67 2 -121 5 -121 2 0 29 12 60 27 l55 27 0 101 0 101 35 34 c26 25 35 30 35 17 0 -13 9 -17 35 -17 23 0 35 5 35 14 0 18 23 27 41 16 19 -12 63 28 49 45 -13 16 -2 45 16 45 9 0 14 12 14 35 0 23 -5 35 -14 35 -18 0 -29 29 -16 45 16 20 -22 47 -54 39 -22 -5 -28 -3 -33 15 -8 30 -68 30 -76 0z m58 -26 c7 -9 26 -16 44 -16 24 0 30 -4 26 -15 -3 -8 4 -31 15 -50 12 -19 17 -38 12 -41 -17 -12 -32 -50 -25 -67 5 -14 3 -16 -11 -11 -19 8 -55 -8 -72 -31 -10 -14 -12 -14 -20 0 -13 22 -50 39 -70 31 -14 -5 -16 -3 -11 11 8 19 -8 57 -30 69 -11 7 -9 12 8 26 14 11 22 29 22 48 0 26 4 30 29 30 16 0 36 7 46 16 9 10 18 17 21 17 2 0 9 -7 16 -17z m-157 -70 c-10 -2 -18 -9 -18 -14 0 -5 -49 -9 -110 -9 -91 0 -110 3 -110 15 0 13 20 15 128 14 70 -1 119 -3 110 -6z m-18 -63 c0 -5 6 -10 14 -10 18 0 30 -30 16 -44 -7 -7 -2 -18 15 -36 l25 -26 -25 -24 c-23 -22 -25 -30 -25 -116 0 -86 -1 -93 -25 -108 -13 -9 -29 -16 -35 -16 -6 0 -10 42 -10 112 l0 113 -82 82 -83 83 108 0 c65 0 107 -4 107 -10z"/>
<path d="M405 505 c-30 -29 -32 -58 -5 -85 39 -39 110 -11 110 44 0 25 -41 66 -67 66 -8 0 -25 -11 -38 -25z m70 -40 c0 -27 -3 -30 -30 -30 -24 0 -31 5 -33 24 -4 27 13 42 43 39 15 -2 20 -11 20 -33z"/>
</g>
</svg>