<?xml version="1.0" encoding="UTF-8" standalone="no"?>
<!DOCTYPE svg PUBLIC "-//W3C//DTD SVG 20010904//EN" "http://www.w3.org/TR/2001/REC-SVG-20010904/DTD/svg10.dtd">
<svg version="1.0" xmlns="http://www.w3.org/2000/svg" width="64.000000pt" height="64.000000pt" viewBox="0 0 64.000000 64.000000" preserveAspectRatio="xMidYMid meet">

<g transform="translate(0.000000,64.000000) scale(0.100000,-0.100000)" fill="#000000" stroke="none">
<path d="M207 620 c-46 -14 -93 -56 -116 -103 -33 -67 -28 -111 24 -213 37 -73 45 -97 45 -144 0 -53 2 -57 43 -91 59 -50 64 -51 89 -38 29 16 80 12 91 -7 11 -19 66 -18 73 1 4 8 19 15 35 15 32 0 59 31 52 59 -3 11 2 21 11 24 22 9 22 73 0 81 -10 4 -14 14 -11 25 6 24 -35 66 -56 58 -8 -3 -21 3 -31 14 -15 18 -15 23 -1 55 65 157 -83 314 -248 264z m131 -25 c71 -30 112 -86 112 -154 0 -52 -27 -119 -50 -126 -10 -3 -21 -13 -24 -21 -4 -9 -13 -13 -24 -10 -27 9 -56 -17 -57 -50 0 -28 -2 -29 -55 -31 l-55 -3 -48 103 c-52 112 -57 148 -28 205 45 87 140 124 229 87z m106 -316 c10 -13 25 -19 36 -16 19 5 43 -13 38 -29 -4 -15 13 -54 23 -54 15 0 10 -37 -5 -43 -8 -3 -16 -21 -18 -39 -3 -29 -7 -33 -32 -33 -15 -1 -34 -9 -41 -18 -15 -21 -34 -22 -49 -2 -6 9 -23 16 -36 17 -34 2 -49 15 -43 37 2 10 -3 25 -11 34 -20 20 -20 32 0 62 9 14 14 31 11 40 -7 17 8 28 42 30 13 0 29 8 35 18 14 23 28 21 50 -4z m-176 -116 c2 -9 -10 -13 -42 -13 -43 0 -55 7 -39 24 12 11 76 2 81 -11z m16 -39 c35 -13 13 -25 -41 -22 -70 4 -88 28 -20 28 25 0 52 -3 61 -6z m10 -53 c3 -5 -1 -14 -10 -22 -13 -10 -19 -9 -37 9 l-21 22 31 0 c18 0 34 -4 37 -9z"/>
<path d="M260 530 c0 -11 5 -20 10 -20 6 0 10 9 10 20 0 11 -4 20 -10 20 -5 0 -10 -9 -10 -20z"/>
<path d="M192 519 c2 -7 10 -15 17 -17 8 -3 12 1 9 9 -2 7 -10 15 -17 17 -8 3 -12 -1 -9 -9z"/>
<path d="M325 519 c-12 -19 5 -23 22 -6 16 16 16 17 1 17 -9 0 -20 -5 -23 -11z"/>
<path d="M157 453 c-14 -14 -6 -45 13 -50 26 -7 25 -19 -2 -28 -22 -7 -21 -8 6 -12 17 -3 32 1 37 8 10 17 -7 49 -26 49 -8 0 -15 5 -15 10 0 6 9 10 20 10 11 0 20 5 20 10 0 11 -43 14 -53 3z"/>
<path d="M247 453 c-4 -3 -7 -26 -7 -50 0 -41 1 -43 30 -43 17 0 30 5 30 10 0 6 -9 10 -20 10 -11 0 -20 5 -20 10 0 6 7 10 15 10 8 0 15 5 15 10 0 6 -7 10 -15 10 -8 0 -15 5 -15 10 0 6 9 10 20 10 11 0 20 5 20 10 0 11 -43 14 -53 3z"/>
<path d="M334 447 c-3 -8 -4 -30 -2 -49 3 -29 6 -33 33 -33 29 0 30 2 30 45 0 42 -2 45 -28 48 -17 2 -29 -2 -33 -11z m46 -37 c0 -20 -5 -30 -15 -30 -10 0 -15 10 -15 30 0 20 5 30 15 30 10 0 15 -10 15 -30z"/>
<path d="M377 220 c-20 -16 -27 -30 -27 -56 0 -67 73 -99 118 -51 60 64 -22 161 -91 107z m71 -16 c41 -28 19 -94 -32 -94 -30 0 -46 18 -46 51 0 24 30 59 50 59 3 0 16 -7 28 -16z"/>
</g>
</svg>