<svg width="24" height="24" viewBox="0 0 24 24" fill="none" xmlns="http://www.w3.org/2000/svg">
<path d="M12 15C13.6569 15 15 13.6569 15 12C15 10.3431 13.6569 9 12 9C10.3431 9 9 10.3431 9 12C9 13.6569 10.3431 15 12 15Z" stroke="black" stroke-width="1.5" stroke-miterlimit="10" stroke-linecap="round" stroke-linejoin="round"/>
<path d="M11.1255 1.99492L12.8855 1.99492C13.9255 1.99492 14.7854 2.84492 14.7854 3.89492C14.7854 5.70492 16.0654 6.44492 17.6354 5.53492C18.5354 5.01492 19.7054 5.32492 20.2254 6.23492L21.2154 7.96492C21.6854 8.75492 21.4054 9.77492 20.6154 10.2449L20.4254 10.3549C18.8554 11.2549 18.8554 12.7349 20.4254 13.6449L20.6154 13.7549C21.4054 14.2249 21.6854 15.2449 21.2154 16.0349L20.2254 17.7649C19.7054 18.6749 18.5354 18.9849 17.6354 18.4649C16.0654 17.5549 14.7854 18.2949 14.7854 20.1049C14.7854 21.1449 13.9355 22.0049 12.8855 22.0049L11.1255 22.0049C10.0855 22.0049 9.22547 21.1549 9.22547 20.1049C9.22547 18.2949 7.94547 17.5549 6.37547 18.4649C5.46547 18.9849 4.30547 18.6749 3.78547 17.7649L2.79547 16.0349C2.32547 15.2449 2.60547 14.2249 3.39547 13.7549L3.58547 13.6449C5.15547 12.7449 5.15547 11.2649 3.58547 10.3549L3.39548 10.2449C2.60548 9.77492 2.32547 8.75492 2.79547 7.96492L3.78547 6.23492C4.30547 5.32492 5.47547 5.01492 6.37547 5.53492C7.94547 6.44492 9.22548 5.70492 9.22548 3.89492C9.22548 2.84492 10.0855 1.99492 11.1255 1.99492Z" stroke="black" stroke-width="1.5" stroke-miterlimit="10" stroke-linecap="round" stroke-linejoin="round"/>
</svg>
