<?xml version="1.0" encoding="UTF-8" standalone="no"?>
<!DOCTYPE svg PUBLIC "-//W3C//DTD SVG 20010904//EN" "http://www.w3.org/TR/2001/REC-SVG-20010904/DTD/svg10.dtd">
<svg version="1.0" xmlns="http://www.w3.org/2000/svg" width="100.000000pt" height="100.000000pt" viewBox="0 0 100.000000 100.000000" preserveAspectRatio="xMidYMid meet">

<g transform="translate(0.000000,100.000000) scale(0.100000,-0.100000)" fill="#000000" stroke="none">
<path d="M20 880 c-19 -19 -20 -33 -20 -380 0 -347 1 -361 20 -380 19 -19 33 -20 480 -20 447 0 461 1 480 20 19 19 20 33 20 380 0 347 -1 361 -20 380 -19 19 -33 20 -480 20 -447 0 -461 -1 -480 -20z m938 -122 l3 -98 -461 0 -460 0 0 93 c0 52 3 97 7 100 3 4 209 6 457 5 l451 -3 3 -97z m0 -375 l-3 -238 -455 0 -455 0 -3 238 -2 237 460 0 460 0 -2 -237z"/>
<path d="M100 800 c-11 -11 -20 -29 -20 -40 0 -26 34 -60 60 -60 26 0 60 34 60 60 0 11 -9 29 -20 40 -11 11 -29 20 -40 20 -11 0 -29 -9 -40 -20z m56 -31 c10 -17 -13 -36 -27 -22 -12 12 -4 33 11 33 5 0 12 -5 16 -11z"/>
<path d="M240 800 c-11 -11 -20 -29 -20 -40 0 -26 34 -60 60 -60 26 0 60 34 60 60 0 11 -9 29 -20 40 -11 11 -29 20 -40 20 -11 0 -29 -9 -40 -20z m56 -31 c10 -17 -13 -36 -27 -22 -12 12 -4 33 11 33 5 0 12 -5 16 -11z"/>
<path d="M384 806 c-3 -7 -4 -33 -2 -57 l3 -44 265 0 265 0 0 55 0 55 -263 3 c-218 2 -263 0 -268 -12z m496 -46 c0 -19 -7 -20 -230 -20 -223 0 -230 1 -230 20 0 19 7 20 230 20 223 0 230 -1 230 -20z"/>
</g>
</svg>