<?xml version="1.0" encoding="UTF-8" standalone="no"?>
<!DOCTYPE svg PUBLIC "-//W3C//DTD SVG 20010904//EN" "http://www.w3.org/TR/2001/REC-SVG-20010904/DTD/svg10.dtd">
<svg version="1.0" xmlns="http://www.w3.org/2000/svg" width="120.000000pt" height="120.000000pt" viewBox="0 0 120.000000 120.000000" preserveAspectRatio="xMidYMid meet">

<g transform="translate(0.000000,120.000000) scale(0.100000,-0.100000)" fill="#000000" stroke="none">
<path d="M897 1182 c-10 -10 -17 -24 -17 -30 0 -9 -56 -12 -208 -12 -148 0 -211 -3 -220 -12 -7 -7 -12 -34 -12 -60 l0 -48 -60 0 c-44 0 -60 4 -60 13 0 8 -9 22 -20 32 -16 14 -26 17 -45 9 -37 -14 -175 -152 -175 -175 0 -24 144 -166 178 -175 25 -7 62 19 62 43 0 10 40 13 208 13 148 0 211 3 220 12 7 7 12 34 12 60 l0 48 60 0 c44 0 60 -4 60 -13 0 -19 33 -47 53 -47 19 0 167 132 181 161 13 28 0 49 -86 128 -81 74 -104 83 -131 53z m113 -92 l75 -70 -75 -70 c-41 -38 -78 -70 -82 -70 -4 0 -8 12 -10 28 -3 27 -4 27 -80 30 -78 3 -78 3 -78 30 0 47 -14 52 -152 52 l-128 0 0 40 0 40 218 2 217 3 3 28 c2 15 6 27 10 27 4 0 41 -32 82 -70z m-728 -77 l3 -28 218 -3 217 -2 0 -80 0 -80 -217 -2 -218 -3 -3 -27 c-2 -16 -6 -28 -10 -28 -4 1 -41 32 -82 70 l-75 70 75 70 c41 38 78 69 82 70 4 0 8 -12 10 -27z"/>
<path d="M590 669 c-14 -6 -59 -11 -100 -13 -59 -1 -86 -8 -127 -29 -28 -15 -54 -31 -58 -37 -3 -5 -41 -10 -83 -10 -66 0 -79 3 -90 20 -9 15 -23 20 -60 20 -26 0 -53 -5 -60 -12 -17 -17 -17 -299 0 -316 18 -18 98 -15 120 5 15 14 24 14 56 5 62 -19 77 -35 74 -80 -3 -32 1 -43 20 -56 12 -9 30 -16 38 -16 9 0 26 -11 38 -25 12 -14 31 -25 43 -25 12 0 30 -11 41 -25 11 -14 28 -25 38 -25 11 0 30 -11 44 -25 32 -32 61 -32 92 2 l24 26 28 -19 c15 -11 35 -23 45 -27 24 -9 64 8 71 30 3 10 19 24 36 30 18 7 32 20 36 37 4 16 13 26 24 26 23 0 54 36 55 64 1 13 11 36 23 51 12 15 22 36 22 45 0 12 11 20 36 25 30 5 39 3 51 -14 11 -16 25 -21 62 -21 26 0 52 5 59 12 17 17 17 319 0 336 -7 7 -34 12 -60 12 -37 0 -51 -5 -60 -20 -12 -18 -24 -20 -131 -20 -117 0 -118 0 -197 40 -82 41 -107 46 -150 29z m141 -69 l83 -40 123 0 123 0 0 -99 0 -98 -31 -7 c-65 -13 -81 -6 -224 94 -79 55 -152 100 -163 100 -10 0 -46 -25 -80 -56 -64 -58 -97 -67 -97 -27 0 27 140 173 166 173 9 0 55 -18 100 -40z m-255 -41 c-65 -70 -73 -104 -30 -138 42 -33 67 -26 133 35 33 31 64 54 69 52 32 -13 292 -203 292 -213 0 -7 -7 -18 -15 -25 -12 -10 -22 -8 -55 14 -76 50 -99 21 -25 -33 52 -37 57 -44 49 -65 -10 -25 -37 -19 -88 20 -43 33 -76 39 -76 15 0 -5 20 -24 45 -42 71 -51 53 -104 -20 -59 -28 18 -39 20 -48 11 -9 -10 -6 -18 16 -36 50 -44 25 -71 -28 -31 -26 20 -33 33 -33 57 1 31 -21 59 -48 59 -6 0 -14 9 -17 20 -3 11 -19 28 -36 37 -16 10 -35 28 -40 41 -12 25 -53 45 -75 36 -8 -3 -24 4 -35 15 -28 28 -66 26 -97 -4 -24 -24 -26 -25 -57 -8 -18 9 -50 22 -72 28 l-40 12 -3 92 -3 91 79 0 c69 0 83 3 123 28 59 38 95 50 148 51 l43 1 -56 -61z m684 -99 l0 -140 -30 0 -30 0 0 140 0 140 30 0 30 0 0 -140z m-1060 -10 l0 -130 -30 0 -30 0 0 130 0 130 30 0 30 0 0 -130z m288 -163 c5 -23 -43 -97 -63 -97 -33 0 -31 47 6 94 23 30 52 31 57 3z m96 -29 c13 -22 -48 -118 -75 -118 -30 0 -33 26 -8 67 44 75 61 85 83 51z m74 -74 c5 -34 -37 -96 -62 -92 -30 4 -31 31 -1 78 28 44 58 51 63 14z m66 -52 c6 -11 -42 -92 -55 -92 -20 0 -19 28 1 64 21 34 43 46 54 28z"/>
</g>
</svg>