<?xml version="1.0" encoding="UTF-8" standalone="no"?>
<!DOCTYPE svg PUBLIC "-//W3C//DTD SVG 20010904//EN" "http://www.w3.org/TR/2001/REC-SVG-20010904/DTD/svg10.dtd">
<svg version="1.0" xmlns="http://www.w3.org/2000/svg" width="64.000000pt" height="64.000000pt" viewBox="0 0 64.000000 64.000000" preserveAspectRatio="xMidYMid meet">

<g transform="translate(0.000000,64.000000) scale(0.100000,-0.100000)" fill="#000000" stroke="none">
<path d="M230 545 l-85 -85 32 -32 33 -32 30 29 29 28 3 -154 3 -154 45 0 45 0 5 153 5 154 24 -26 c14 -14 30 -26 36 -26 16 0 55 43 55 61 0 16 -150 169 -165 169 -6 0 -48 -38 -95 -85z"/>
<path d="M77 194 c-13 -13 -7 -95 9 -129 26 -55 61 -65 234 -65 118 0 159 4 185 16 43 20 67 70 63 132 l-3 47 -45 0 -45 0 -3 -47 -3 -48 -149 0 -149 0 -3 48 -3 47 -40 3 c-23 2 -44 0 -48 -4z"/>
</g>
</svg>