<svg xmlns="http://www.w3.org/2000/svg" width="54.64mm" height="20mm" viewBox="0 0 154.88 56.69"><defs><style>.cls-1{fill:#0f2446;}</style></defs><g id="Layer_2" data-name="Layer 2"><path class="cls-1" d="M123.49,72.79h-1.75v.51h-1.36v-.51h-1.76c-1.59,0-2.05-.52-2.05-1.94v-.78c0-1.6.64-2,2.05-2h1.76v-.45h1.36v.45h1.75c1.4,0,2.06.41,2.06,2v.78C125.55,72.25,125.07,72.79,123.49,72.79Zm-3.11-3.6H119c-.82,0-1.1.19-1.1,1v.5c0,.77.2,1,1.07,1h1.39Zm3.82,1c0-.82-.27-1-1.08-1h-1.38v2.47h1.4c.87,0,1.06-.19,1.06-1Z" transform="translate(-49.66 -42.65)"/><path class="cls-1" d="M127.07,73.3V67.62h5.8v1.07h-4.44v1.24h4.31v1h-4.31v1.31h4.44V73.3Z" transform="translate(-49.66 -42.65)"/><path class="cls-1" d="M140.25,74.66V73.3h-4.9v1.36h-1.24V72.17h.38a2.26,2.26,0,0,0,.68-1.84V67.62h5.69v4.55h.63v2.49Zm-.75-5.91h-3v1.86a2.59,2.59,0,0,1-.46,1.56h3.48Z" transform="translate(-49.66 -42.65)"/><path class="cls-1" d="M142.79,73.3V67.62h5.81v1.07h-4.45v1.24h4.31v1h-4.31v1.31h4.45V73.3Z" transform="translate(-49.66 -42.65)"/><path class="cls-1" d="M153.92,71.62h-2.53V73.3H150V67.62h3.88c1.43,0,2,.55,2,2S155.32,71.62,153.92,71.62Zm-.26-2.87h-2.27v1.74h2.27c.69,0,.88-.27.88-.88S154.37,68.75,153.66,68.75Z" transform="translate(-49.66 -42.65)"/><path class="cls-1" d="M163.12,73.3l-.74-1.43H159l-.74,1.43H156.7l3-5.68h2l3,5.68Zm-2.36-4.62h-.07l-1.12,2.11h2.27Z" transform="translate(-49.66 -42.65)"/><path class="cls-1" d="M171.24,74.67V73.3h-5.62V67.62H167v4.55h3.51V67.62h1.36v4.55h.64v2.5Z" transform="translate(-49.66 -42.65)"/><path class="cls-1" d="M174.12,73.3V67.62h1.36V73.3Z" transform="translate(-49.66 -42.65)"/><path class="cls-1" d="M182.16,73.3V71.5H179.9l-1.36,1.8h-1.77l1.66-2a1.75,1.75,0,0,1-1.25-1.71c0-1.61.84-2,2-2h4.31V73.3Zm0-4.61h-2.84c-.61,0-.78.27-.78.87s.24.87.82.87h2.8Z" transform="translate(-49.66 -42.65)"/><path class="cls-1" d="M120.45,84.64h-2.53v1.68h-1.36V80.64h3.87c1.43,0,2,.56,2,2S121.85,84.64,120.45,84.64Zm-.26-2.87h-2.27v1.75h2.27c.68,0,.88-.28.88-.89S120.9,81.77,120.19,81.77Z" transform="translate(-49.66 -42.65)"/><path class="cls-1" d="M128.21,86.32h-2.5c-1.52,0-2.09-.56-2.09-1.94V82.6c0-1.56.54-2,2.09-2h2.5c1.41,0,2,.43,2,2v1.78C130.26,85.8,129.79,86.32,128.21,86.32Zm.7-3.6c0-.83-.29-1-1.09-1h-1.76c-.85,0-1.09.22-1.09,1v1.51c0,.75.24,1,1.07,1h1.8c.87,0,1.07-.19,1.07-1Z" transform="translate(-49.66 -42.65)"/><path class="cls-1" d="M135.57,86.32h-3.88V80.64H137v1.07h-4v1.05h2.48c1.35,0,2.06.34,2.06,1.78S136.92,86.32,135.57,86.32Zm-.12-2.43h-2.4v1.3h2.35c.74,0,.83-.16.83-.66S136.16,83.89,135.45,83.89Z" transform="translate(-49.66 -42.65)"/><path class="cls-1" d="M143.63,86.32h-2.5c-1.52,0-2.09-.56-2.09-1.94V82.6c0-1.56.55-2,2.09-2h2.5c1.41,0,2.06.43,2.06,2v1.78C145.69,85.8,145.22,86.32,143.63,86.32Zm.7-3.6c0-.83-.28-1-1.09-1h-1.75c-.85,0-1.09.22-1.09,1v1.51c0,.75.24,1,1.06,1h1.8c.87,0,1.07-.19,1.07-1Z" transform="translate(-49.66 -42.65)"/><path class="cls-1" d="M150.61,81.77v4.55h-1.35V81.77h-2.38V80.64H153v1.13Z" transform="translate(-49.66 -42.65)"/><path class="cls-1" d="M158.69,86.32h-2.5c-1.51,0-2.09-.56-2.09-1.94V82.6c0-1.56.55-2,2.09-2h2.5c1.41,0,2.06.43,2.06,2v1.78C160.75,85.8,160.28,86.32,158.69,86.32Zm.7-3.6c0-.83-.28-1-1.09-1h-1.75c-.85,0-1.09.22-1.09,1v1.51c0,.75.24,1,1.07,1h1.79c.87,0,1.07-.19,1.07-1Z" transform="translate(-49.66 -42.65)"/><path class="cls-1" d="M168.05,87.68V86.32h-4.89v1.36h-1.25V85.19h.39a2.28,2.28,0,0,0,.68-1.83V80.64h5.68v4.55h.63v2.49Zm-.75-5.91h-3v1.87a2.5,2.5,0,0,1-.47,1.55h3.48Z" transform="translate(-49.66 -42.65)"/><path class="cls-1" d="M176.52,86.32l-.72-1.43h-3.37l-.74,1.43h-1.58l3-5.68h2l3,5.68Zm-2.36-4.62h-.06L173,83.82h2.27Z" transform="translate(-49.66 -42.65)"/><path class="cls-1" d="M183.47,86.32H179.1V80.64h4.1c1.26,0,2,.38,2,1.43s-.24,1.11-.7,1.26a1.16,1.16,0,0,1,.93,1.32C185.38,85.87,184.76,86.32,183.47,86.32Zm-.24-4.61h-2.77v1.23h2.78c.37,0,.55-.29.55-.66A.51.51,0,0,0,183.23,81.71Zm0,2.24h-2.78v1.3h2.73c.73,0,.82-.16.82-.66S183.94,84,183.24,84Z" transform="translate(-49.66 -42.65)"/><path class="cls-1" d="M192.42,87.69V86.32H186.8V80.64h1.36v4.55h3.51V80.64H193v4.55h.64v2.5Z" transform="translate(-49.66 -42.65)"/><path class="cls-1" d="M195.29,86.32V80.64h1.37v5.68Z" transform="translate(-49.66 -42.65)"/><path class="cls-1" d="M202.65,86.32h-4.37V80.64h4.09c1.26,0,2,.38,2,1.43s-.25,1.11-.71,1.26a1.16,1.16,0,0,1,.93,1.32C204.55,85.87,203.93,86.32,202.65,86.32Zm-.25-4.61h-2.76v1.23h2.77c.37,0,.56-.29.56-.66A.52.52,0,0,0,202.4,81.71Zm0,2.24h-2.77v1.3h2.72c.73,0,.83-.16.83-.66S203.11,84,202.41,84Z" transform="translate(-49.66 -42.65)"/><path class="cls-1" d="M120.45,97.94c-.78,1.26-1.09,1.41-2.07,1.41h-.53V98.27h.27c.59,0,.79-.15.79-.34a.53.53,0,0,0-.1-.26l-2.63-4h1.61l1.89,3.21,1.8-3.21h1.61Z" transform="translate(-49.66 -42.65)"/><path class="cls-1" d="M129.13,99.35l-2.63-2.44h-.83v2.44h-1.36V93.66h1.36v2.12h.8L129,93.66h2l-3.35,2.67,3.48,3Z" transform="translate(-49.66 -42.65)"/><path class="cls-1" d="M136.1,97.67h-2.53v1.68h-1.36V93.66h3.87c1.44,0,2,.56,2,2S137.5,97.67,136.1,97.67Zm-.26-2.88h-2.27v1.75h2.27c.69,0,.88-.27.88-.89S136.55,94.79,135.84,94.79Z" transform="translate(-49.66 -42.65)"/><path class="cls-1" d="M145.29,99.35l-.73-1.44H141.2l-.74,1.44h-1.59l3-5.69h2l3,5.69Zm-2.36-4.62h-.06l-1.12,2.11H144Z" transform="translate(-49.66 -42.65)"/><path class="cls-1" d="M147.14,93.32V92.19h1.36v1.13Zm.93,6V93.66h1.36v5.69Zm1-6V92.19h1.36v1.13Z" transform="translate(-49.66 -42.65)"/><path class="cls-1" d="M156,99.35V97h-3.52v2.38h-1.36V93.66h1.36v2.18H156V93.66h1.35v5.69Z" transform="translate(-49.66 -42.65)"/><path class="cls-1" d="M164.69,99.35V94.79h-.18l-3.42,4.56h-2.33V93.66h1.36v4.56h.18l3.47-4.56h2.29v5.69Z" transform="translate(-49.66 -42.65)"/><path class="cls-1" d="M85.23,42.65H74.66L91.92,67.31V99h10.57V67.31Zm-8.94.85h8.5l16.08,23H92.36Z" transform="translate(-49.66 -42.65)"/><path class="cls-1" d="M63.74,42.65H53.18L77.84,77.87V99H88.4V77.87Zm-8.94.85h8.5L86.78,77h-8.5Z" transform="translate(-49.66 -42.65)"/><path class="cls-1" d="M49.66,53.23V68.32L63.75,88.44V99H74.32V88.44Zm.85,14.82V55.91L72.69,87.59h-8.5Z" transform="translate(-49.66 -42.65)"/><path class="cls-1" d="M49.66,83.92V99H60.23Zm.85,2.68L58.6,98.16H50.51Z" transform="translate(-49.66 -42.65)"/><path class="cls-1" d="M96.15,42.65,106,56.74h0V42.65Zm9,11.41L97.77,43.5h7.39Z" transform="translate(-49.66 -42.65)"/></g></svg>