<svg width="20" height="18" viewBox="0 0 20 18" fill="none" xmlns="http://www.w3.org/2000/svg">
<path fill-rule="evenodd" clip-rule="evenodd" d="M11.1742 1.85489L7.98429 6.86763L11.7827 6.32501L7.21191 15.9744C8.07641 16.5004 8.87954 16.8713 9.50213 17.0839C9.81285 17.1935 10.3246 17.1935 10.6354 17.0839C13.2857 16.1791 19.2077 12.4047 19.2077 6.00743C19.2077 3.18349 16.9321 0.89875 14.1264 0.89875C13.0284 0.89875 12.0069 1.2531 11.1742 1.85489Z" fill="#E83D45"/>
<path fill-rule="evenodd" clip-rule="evenodd" d="M11.187 1.85513L7.9972 6.86763L11.7956 6.32501L7.22486 15.9743C4.40929 14.261 0.942871 10.9018 0.942871 6.00743C0.942871 3.18349 3.21847 0.89875 6.02413 0.89875C7.68742 0.89875 9.1588 1.70298 10.0818 2.94588C10.3921 2.52811 10.7653 2.1599 11.187 1.85513Z" fill="#E83D45"/>
</svg>