<svg width="12" height="6" viewBox="0 0 12 6" fill="none" xmlns="http://www.w3.org/2000/svg">
<path fill-rule="evenodd" clip-rule="evenodd" d="M0.227439 0.125877C0.26724 0.0859754 0.314521 0.0543181 0.366575 0.0327181C0.418629 0.0111181 0.474433 0 0.53079 0C0.587148 0 0.642952 0.0111181 0.695006 0.0327181C0.74706 0.0543181 0.794341 0.0859754 0.834142 0.125877L5.67233 4.96493L10.5105 0.125877C10.5504 0.0860399 10.5977 0.0544397 10.6497 0.0328803C10.7018 0.0113209 10.7575 0.000224329 10.8139 0.000224329C10.8702 0.000224329 10.926 0.0113209 10.9781 0.0328803C11.0301 0.0544397 11.0774 0.0860399 11.1172 0.125877C11.1571 0.165713 11.1887 0.213006 11.2102 0.265055C11.2318 0.317104 11.2429 0.37289 11.2429 0.429228C11.2429 0.485565 11.2318 0.541351 11.2102 0.5934C11.1887 0.64545 11.1571 0.692742 11.1172 0.732579L5.97569 5.87412C5.93588 5.91402 5.8886 5.94568 5.83655 5.96728C5.78449 5.98888 5.72869 6 5.67233 6C5.61598 6 5.56017 5.98888 5.50812 5.96728C5.45606 5.94568 5.40878 5.91402 5.36898 5.87412L0.227439 0.732579C0.187538 0.692779 0.155881 0.645497 0.134281 0.593443C0.112681 0.541389 0.101562 0.485585 0.101562 0.429228C0.101562 0.37287 0.112681 0.317066 0.134281 0.265012C0.155881 0.212958 0.187538 0.165677 0.227439 0.125877Z" fill="white"/>
</svg>
