<svg width="19" height="18" viewBox="0 0 19 18" fill="none" xmlns="http://www.w3.org/2000/svg">
<path d="M13.8692 17.9999C14.6708 17.9999 15.3531 17.8852 15.9162 17.6557C16.4791 17.4262 16.9931 17.0484 17.4582 16.5221C17.4949 16.4853 17.5301 16.4471 17.5638 16.4074C17.5974 16.3676 17.6326 16.3293 17.6693 16.2926C17.9446 15.9867 18.1481 15.6822 18.2797 15.3793C18.4113 15.0764 18.4771 14.7811 18.4771 14.4935C18.4771 14.1631 18.3792 13.8434 18.1834 13.5343C17.9875 13.2253 17.6846 12.93 17.2746 12.6485L14.6035 10.7944C14.1935 10.5129 13.7606 10.3691 13.3047 10.363C12.8488 10.3569 12.4281 10.5435 12.0426 10.9229L11.3358 11.6296C11.2318 11.7337 11.1323 11.7919 11.0375 11.8041C10.9426 11.8163 10.8432 11.7888 10.7391 11.7215C10.5739 11.6175 10.3644 11.4614 10.1104 11.2534C9.85645 11.0453 9.59179 10.8173 9.31642 10.5695C9.04105 10.3217 8.79016 10.0846 8.56374 9.85816C8.32509 9.61948 8.09408 9.37776 7.87072 9.13301C7.64737 8.88823 7.44238 8.65111 7.25574 8.42163C7.06909 8.19216 6.91458 7.97951 6.79219 7.78369C6.73101 7.67966 6.70653 7.58022 6.71877 7.48538C6.73101 7.39053 6.78914 7.29109 6.89316 7.18706L7.59077 6.48028C7.97629 6.09476 8.16599 5.67406 8.15987 5.21817C8.15374 4.76228 8.00994 4.32934 7.72846 3.91934L5.8743 1.24825C5.58669 0.83826 5.2899 0.536885 4.98393 0.344126C4.67797 0.151368 4.35976 0.0519286 4.02932 0.0458092C3.44798 0.0335706 2.84829 0.302821 2.23024 0.85356C2.19352 0.890276 2.15528 0.925463 2.11551 0.95912C2.07573 0.992776 2.03748 1.0249 2.00077 1.0555C1.48063 1.52056 1.10429 2.03459 0.871751 2.59757C0.639216 3.16054 0.522949 3.83979 0.522949 4.6353C0.522949 5.51036 0.69888 6.43744 1.05074 7.41653C1.4026 8.39562 1.91969 9.3946 2.60199 10.4135C3.28429 11.4324 4.11805 12.4344 5.10327 13.4195C6.08847 14.3986 7.08898 15.2294 8.1048 15.9117C9.1206 16.594 10.1165 17.1126 11.0925 17.4675C12.0686 17.8225 12.9941 17.9999 13.8692 17.9999ZM13.8784 16.5864C13.1013 16.6047 12.266 16.4334 11.3725 16.0723C10.4791 15.7113 9.58568 15.2171 8.69225 14.5899C7.79882 13.9627 6.95435 13.2544 6.15884 12.465C5.36333 11.6695 4.64278 10.8143 3.9972 9.89942C3.35161 8.98461 2.84218 8.07283 2.46889 7.16411C2.09562 6.2554 1.9151 5.41246 1.92733 4.6353C1.93957 4.1274 2.03442 3.6608 2.21189 3.2355C2.38935 2.81021 2.65859 2.44152 3.01963 2.12943C3.05023 2.09884 3.0793 2.07284 3.10683 2.05142C3.13437 2.03 3.16344 2.00706 3.19404 1.98258C3.32866 1.86631 3.46787 1.77605 3.61168 1.7118C3.75548 1.64754 3.89469 1.61542 4.02932 1.61542C4.32305 1.61542 4.54946 1.74086 4.70856 1.99175L6.48929 4.66284C6.5872 4.8097 6.63463 4.95962 6.63156 5.11261C6.6285 5.26559 6.5566 5.41245 6.41586 5.5532L5.60811 6.36095C5.2899 6.67303 5.1308 7.01113 5.1308 7.37523C5.1308 7.73933 5.24707 8.07436 5.4796 8.38033C5.74273 8.73525 6.07624 9.14217 6.48011 9.60109C6.88399 10.0601 7.26338 10.464 7.61831 10.8128C7.85084 11.0453 8.11856 11.3008 8.42147 11.5792C8.72437 11.8576 9.02728 12.1269 9.33019 12.3869C9.6331 12.6471 9.90388 12.8658 10.1425 13.0433C10.4485 13.2697 10.782 13.3844 11.143 13.3875C11.5041 13.3905 11.8437 13.2329 12.1619 12.9147L12.9697 12.107C13.1104 11.9602 13.2573 11.8867 13.4102 11.8867C13.5632 11.8867 13.7132 11.9326 13.8601 12.0244L16.5311 13.8051C16.6657 13.8969 16.7621 14.0009 16.8203 14.1172C16.8784 14.2335 16.9074 14.3589 16.9074 14.4935C16.9074 14.7689 16.785 15.0473 16.5403 15.3288C16.5158 15.3594 16.4929 15.3885 16.4715 15.4161C16.45 15.4436 16.424 15.4726 16.3934 15.5032C16.0813 15.8642 15.7111 16.1335 15.2827 16.311C14.8544 16.4884 14.3863 16.5802 13.8784 16.5864Z" fill="#ACADBC"/>
</svg>
