<svg width="9" height="7" viewBox="0 0 9 7" fill="none" xmlns="http://www.w3.org/2000/svg">
<path d="M3.67749 1.94086C3.54622 1.94086 3.42032 1.99301 3.3275 2.08583C3.23467 2.17866 3.18253 2.30455 3.18253 2.43583C3.18253 2.5671 3.23467 2.69299 3.3275 2.78582L5.42745 4.88577C5.52028 4.9786 5.64617 5.03075 5.77745 5.03075C5.90872 5.03075 6.03462 4.9786 6.12744 4.88577C6.22026 4.79295 6.27241 4.66705 6.27241 4.53578C6.27241 4.40451 6.22026 4.27861 6.12744 4.18579L4.02748 2.08583C3.93466 1.99301 3.80876 1.94086 3.67749 1.94086Z" fill="white"/>
<path d="M7.25757 6.5108C7.38884 6.5108 7.51474 6.45865 7.60756 6.36583C7.70038 6.273 7.75253 6.14711 7.75253 6.01583C7.75253 5.88456 7.70038 5.75867 7.60756 5.66584L2.70766 0.765944C2.61484 0.67312 2.48894 0.620972 2.35767 0.620972C2.2264 0.620971 2.1005 0.67312 2.00768 0.765944C1.91485 0.858768 1.8627 0.984664 1.86271 1.11594C1.86271 1.24721 1.91485 1.37311 2.00768 1.46593L6.90758 6.36583C7.0004 6.45865 7.1263 6.5108 7.25757 6.5108Z" fill="white"/>
<path d="M1.86274 6.01587C1.86274 6.14714 1.91488 6.27304 2.00771 6.36586C2.10053 6.45869 2.22643 6.51083 2.3577 6.51083C2.48897 6.51083 2.61487 6.45869 2.70769 6.36586L7.60759 1.46596C7.70042 1.37314 7.75256 1.24724 7.75256 1.11597C7.75256 0.984698 7.70042 0.858802 7.60759 0.765978C7.51477 0.673154 7.38887 0.621006 7.2576 0.621006C7.12633 0.621006 7.00043 0.673154 6.90761 0.765978L2.00771 5.66588C1.91488 5.7587 1.86274 5.8846 1.86274 6.01587Z" fill="white"/>
</svg>
