<svg width="24" height="48" viewBox="0 0 24 48" fill="none" xmlns="http://www.w3.org/2000/svg">
<path d="M11.7663 25.5C12.5619 25.5 13.325 25.8161 13.8876 26.3787C14.4502 26.9413 14.7663 27.7044 14.7663 28.5V31.5H8.7663V28.5C8.7663 27.7044 9.08237 26.9413 9.64498 26.3787C10.2076 25.8161 10.9706 25.5 11.7663 25.5V25.5ZM16.2663 31.5V28.5C16.2663 27.3065 15.7922 26.1619 14.9483 25.318C14.1044 24.4741 12.9598 24 11.7663 24C10.5728 24 9.42823 24.4741 8.58432 25.318C7.7404 26.1619 7.2663 27.3065 7.2663 28.5V31.5H4.8063C4.26761 31.5001 3.74684 31.6935 3.33864 32.045C2.93043 32.3965 2.66188 32.8828 2.5818 33.4155L1.0413 43.695C0.961479 44.2284 0.997647 44.7727 1.14733 45.2908C1.29702 45.8089 1.5567 46.2887 1.90867 46.6973C2.26063 47.1059 2.69659 47.4338 3.18682 47.6587C3.67704 47.8835 4.20998 47.9999 4.7493 48H18.7818C19.3212 48.0001 19.8544 47.8838 20.3448 47.6591C20.8352 47.4344 21.2713 47.1065 21.6234 46.6979C21.9756 46.2892 22.2354 45.8094 22.3852 45.2912C22.5349 44.7729 22.5711 44.2285 22.4913 43.695L20.9493 33.4155C20.8693 32.8831 20.6009 32.397 20.193 32.0455C19.7851 31.694 19.2647 31.5005 18.7263 31.5H16.2663ZM14.7663 33V35.25C14.7663 35.4489 14.8453 35.6397 14.986 35.7803C15.1266 35.921 15.3174 36 15.5163 36C15.7152 36 15.906 35.921 16.0466 35.7803C16.1873 35.6397 16.2663 35.4489 16.2663 35.25V33H18.7248C18.9043 33.0002 19.0779 33.0648 19.2139 33.182C19.3498 33.2993 19.4392 33.4614 19.4658 33.639L21.0078 43.9155C21.0559 44.2356 21.0344 44.5623 20.9447 44.8734C20.855 45.1844 20.6993 45.4724 20.4881 45.7178C20.277 45.9631 20.0153 46.16 19.7211 46.295C19.4269 46.43 19.107 46.4999 18.7833 46.5H4.7493C4.42559 46.4999 4.10571 46.43 3.81149 46.295C3.51727 46.16 3.25565 45.9631 3.04447 45.7178C2.8333 45.4724 2.67756 45.1844 2.58787 44.8734C2.49819 44.5623 2.47667 44.2356 2.5248 43.9155L4.0668 33.639C4.09333 33.4617 4.18251 33.2997 4.31817 33.1825C4.45384 33.0653 4.627 33.0005 4.8063 33H7.2663V35.25C7.2663 35.4489 7.34532 35.6397 7.48597 35.7803C7.62662 35.921 7.81739 36 8.0163 36C8.21521 36 8.40598 35.921 8.54663 35.7803C8.68728 35.6397 8.7663 35.4489 8.7663 35.25V33H14.7663Z" fill="#2C2E3F"/>
<path d="M11.7663 1.5C12.5619 1.5 13.325 1.81607 13.8876 2.37868C14.4502 2.94129 14.7663 3.70435 14.7663 4.5V7.5H8.7663V4.5C8.7663 3.70435 9.08237 2.94129 9.64498 2.37868C10.2076 1.81607 10.9706 1.5 11.7663 1.5V1.5ZM16.2663 7.5V4.5C16.2663 3.30653 15.7922 2.16193 14.9483 1.31802C14.1044 0.474106 12.9598 0 11.7663 0C10.5728 0 9.42823 0.474106 8.58432 1.31802C7.7404 2.16193 7.2663 3.30653 7.2663 4.5V7.5H4.8063C4.26761 7.50012 3.74684 7.6935 3.33864 8.045C2.93043 8.39651 2.66188 8.8828 2.5818 9.4155L1.0413 19.695C0.961479 20.2284 0.997647 20.7727 1.14733 21.2908C1.29702 21.8089 1.5567 22.2887 1.90867 22.6973C2.26063 23.1059 2.69659 23.4338 3.18682 23.6587C3.67704 23.8835 4.20998 23.9999 4.7493 24H18.7818C19.3212 24.0001 19.8544 23.8838 20.3448 23.6591C20.8352 23.4344 21.2713 23.1065 21.6234 22.6979C21.9756 22.2892 22.2354 21.8094 22.3852 21.2912C22.5349 20.7729 22.5711 20.2285 22.4913 19.695L20.9493 9.4155C20.8693 8.88305 20.6009 8.39696 20.193 8.04549C19.7851 7.69402 19.2647 7.50048 18.7263 7.5H16.2663ZM14.7663 9V11.25C14.7663 11.4489 14.8453 11.6397 14.986 11.7803C15.1266 11.921 15.3174 12 15.5163 12C15.7152 12 15.906 11.921 16.0466 11.7803C16.1873 11.6397 16.2663 11.4489 16.2663 11.25V9H18.7248C18.9043 9.00018 19.0779 9.06476 19.2139 9.18202C19.3498 9.29928 19.4392 9.46143 19.4658 9.639L21.0078 19.9155C21.0559 20.2356 21.0344 20.5623 20.9447 20.8734C20.855 21.1844 20.6993 21.4724 20.4881 21.7178C20.277 21.9631 20.0153 22.16 19.7211 22.295C19.4269 22.43 19.107 22.4999 18.7833 22.5H4.7493C4.42559 22.4999 4.10571 22.43 3.81149 22.295C3.51727 22.16 3.25565 21.9631 3.04447 21.7178C2.8333 21.4724 2.67756 21.1844 2.58787 20.8734C2.49819 20.5623 2.47667 20.2356 2.5248 19.9155L4.0668 9.639C4.09333 9.46168 4.18251 9.29973 4.31817 9.18251C4.45384 9.06528 4.627 9.00054 4.8063 9H7.2663V11.25C7.2663 11.4489 7.34532 11.6397 7.48597 11.7803C7.62662 11.921 7.81739 12 8.0163 12C8.21521 12 8.40598 11.921 8.54663 11.7803C8.68728 11.6397 8.7663 11.4489 8.7663 11.25V9H14.7663Z" fill="#7B7D87"/>
</svg>
