<svg width="22" height="22" viewBox="0 0 22 22" fill="none" xmlns="http://www.w3.org/2000/svg">
<path d="M14.0357 7.75V8.25V10.3125C14.0357 10.3622 14.0555 10.4099 14.0906 10.4451L13.7371 10.7986L14.0907 10.4451C14.1258 10.4802 14.1735 10.5 14.2232 10.5C14.273 10.5 14.3207 10.4802 14.3558 10.4451C14.391 10.4099 14.4107 10.3622 14.4107 10.3125V8.25V7.75H14.9107H17.1644H17.1649C17.4491 7.75028 17.7239 7.85254 17.9392 8.0382C18.1544 8.22381 18.296 8.48047 18.3381 8.76156L14.0357 7.75ZM14.0357 7.75H13.5357M14.0357 7.75H13.5357M7.83437 10.7986L7.48081 10.4451C7.44565 10.4802 7.39796 10.5 7.34823 10.5C7.2985 10.5 7.25081 10.4802 7.21565 10.4451L6.8621 10.7986H7.83437ZM7.83437 10.7986L7.48081 10.4451C7.51598 10.4099 7.53573 10.3622 7.53573 10.3125V8.25V7.75H8.03573H13.5357M7.83437 10.7986L13.5357 7.75M14.0357 7.375V6.875V4.125C14.0357 3.26305 13.6933 2.4364 13.0838 1.8269C12.4743 1.21741 11.6477 0.875 10.7857 0.875C9.92378 0.875 9.09713 1.21741 8.48764 1.8269C7.87814 2.4364 7.53573 3.26305 7.53573 4.125V6.875V7.375H8.03573H13.5357H14.0357ZM14.4107 6.875V7.375H14.9107H17.1653C17.5392 7.37533 17.9006 7.50974 18.1839 7.75381C18.4671 7.99789 18.6535 8.33545 18.709 8.70521L20.1225 18.1278C20.185 18.5457 20.1567 18.9721 20.0393 19.3781C19.922 19.784 19.7185 20.1599 19.4427 20.48C19.1668 20.8001 18.8252 21.057 18.441 21.233C18.0569 21.409 17.6393 21.5001 17.2167 21.5H17.2166H4.35358C4.35355 21.5 4.35351 21.5 4.35348 21.5C3.93105 21.4999 3.51361 21.4087 3.12963 21.2326C2.74562 21.0565 2.40412 20.7997 2.12841 20.4796C1.85271 20.1595 1.64929 19.7837 1.53204 19.3778C1.41479 18.972 1.38646 18.5456 1.44896 18.1279C1.44897 18.1278 1.44897 18.1278 1.44898 18.1278L2.86105 8.70521C2.86106 8.70513 2.86107 8.70505 2.86109 8.70498C2.91674 8.33514 3.10322 7.99752 3.38663 7.75348C3.67008 7.5094 4.03168 7.37511 4.40573 7.375C4.40577 7.375 4.40581 7.375 4.40584 7.375H6.66073H7.16073V6.875V4.125C7.16073 3.16359 7.54265 2.24156 8.22247 1.56174C8.90229 0.881919 9.82432 0.5 10.7857 0.5C11.7471 0.5 12.6692 0.881919 13.349 1.56174C14.0288 2.24156 14.4107 3.16359 14.4107 4.125V6.875ZM19.7516 18.1815L18.3381 8.76175L3.72786 8.83575L3.23339 8.76156L3.23336 8.76175L1.81991 18.1815C1.81991 18.1816 1.8199 18.1816 1.81989 18.1817C1.76511 18.5462 1.78962 18.9183 1.89175 19.2725C1.99389 19.6267 2.17127 19.9547 2.41177 20.2341C2.65227 20.5136 2.95023 20.7378 3.28531 20.8915C3.62039 21.0453 3.9847 21.1249 4.35337 21.125H4.35348H17.218H17.2181C17.5868 21.1249 17.9511 21.0453 18.2862 20.8915C18.6212 20.7378 18.9192 20.5136 19.1597 20.2341C19.4002 19.9547 19.5776 19.6267 19.6797 19.2725C19.7818 18.9183 19.8064 18.5462 19.7516 18.1817C19.7516 18.1816 19.7516 18.1816 19.7516 18.1815Z" fill="white" stroke="white"/>
</svg>
