<?xml version="1.0" encoding="UTF-8"?><svg id="_лой_2" xmlns="http://www.w3.org/2000/svg" viewBox="0 0 21.53 24"><defs><style>.cls-1{fill:#fff;}</style></defs><g id="Cases"><path class="cls-1" d="M10.77,1.5c.8,0,1.56,.32,2.12,.88,.56,.56,.88,1.33,.88,2.12v3H7.77v-3c0-.8,.32-1.56,.88-2.12,.56-.56,1.33-.88,2.12-.88Zm4.5,6v-3c0-1.19-.47-2.34-1.32-3.18-.84-.84-1.99-1.32-3.18-1.32s-2.34,.47-3.18,1.32c-.84,.84-1.32,1.99-1.32,3.18v3H3.81c-.54,0-1.06,.19-1.47,.55-.41,.35-.68,.84-.76,1.37L.04,19.69c-.08,.53-.04,1.08,.11,1.6,.15,.52,.41,1,.76,1.41,.35,.41,.79,.74,1.28,.96,.49,.22,1.02,.34,1.56,.34h14.03c.54,0,1.07-.12,1.56-.34,.49-.22,.93-.55,1.28-.96,.35-.41,.61-.89,.76-1.41,.15-.52,.19-1.06,.11-1.6l-1.54-10.28c-.08-.53-.35-1.02-.76-1.37-.41-.35-.93-.55-1.47-.55h-2.46Zm-1.5,1.5v2.25c0,.2,.08,.39,.22,.53,.14,.14,.33,.22,.53,.22s.39-.08,.53-.22c.14-.14,.22-.33,.22-.53v-2.25h2.46c.18,0,.35,.06,.49,.18,.14,.12,.23,.28,.25,.46l1.54,10.28c.05,.32,.03,.65-.06,.96-.09,.31-.25,.6-.46,.84-.21,.25-.47,.44-.77,.58-.29,.14-.61,.2-.94,.2H3.75c-.32,0-.64-.07-.94-.2s-.56-.33-.77-.58c-.21-.25-.37-.53-.46-.84-.09-.31-.11-.64-.06-.96l1.54-10.28c.03-.18,.12-.34,.25-.46,.14-.12,.31-.18,.49-.18h2.46v2.25c0,.2,.08,.39,.22,.53,.14,.14,.33,.22,.53,.22s.39-.08,.53-.22c.14-.14,.22-.33,.22-.53v-2.25h6Z"/></g></svg>