<svg width="24" height="24" viewBox="0 0 24 24" fill="none" xmlns="http://www.w3.org/2000/svg">
<g clip-path="url(#clip0_57542_1996)">
<path d="M20.6897 5.08125C20.6897 4.69266 20.3747 4.37812 19.9866 4.37812H13.9411C13.6523 3.57562 12.8836 3 11.9826 3C11.0817 3 10.313 3.57562 10.0242 4.37812H4.01343C3.6253 4.37812 3.3103 4.69266 3.3103 5.08125C3.3103 5.43703 3.57515 5.73047 3.91827 5.77688L6.01827 5.78438H10.0242C10.313 6.58688 11.0817 7.16203 11.9826 7.16203C12.8836 7.16203 13.6523 6.58688 13.9411 5.78438H20.085L20.0817 5.77688C20.4248 5.73047 20.6897 5.43703 20.6897 5.08125ZM11.9826 5.75578C11.6105 5.75578 11.3076 5.45344 11.3076 5.08125C11.3076 4.70906 11.6105 4.40625 11.9826 4.40625C12.3548 4.40625 12.6576 4.70906 12.6576 5.08125C12.6576 5.45344 12.3548 5.75578 11.9826 5.75578Z" fill="#EBF2FA"/>
<path d="M23.2968 14.3751H22.5318L20.5875 9.67123L19.6392 7.36967C19.416 6.8278 18.6482 6.82826 18.4256 7.36967L17.362 9.9567L15.5353 14.3751H14.7703C14.3826 14.3751 14.0671 14.6887 14.0671 15.0764C14.0662 17.8158 16.2946 20.0447 19.034 20.0447C21.7734 20.0447 24.0014 17.8158 24.0004 15.0764C24.0004 14.6887 23.685 14.3751 23.2973 14.3751H23.2968ZM19.0335 9.59342L21.0103 14.3751H17.0564L19.0335 9.59342ZM19.0335 18.6384C17.3109 18.6384 15.87 17.4089 15.5428 15.7814H22.5239C22.1967 17.4089 20.7557 18.6384 19.0335 18.6384Z" fill="#EBF2FA"/>
<path d="M9.23016 14.3751H8.46516L6.52078 9.67123L5.5725 7.36967C5.34938 6.8278 4.58156 6.82826 4.35891 7.36967L3.29531 9.9567L1.46813 14.3751H0.703125C0.315469 14.3751 2.95695e-07 14.6887 2.95695e-07 15.0764C-0.000937204 17.8158 2.2275 20.0447 4.96688 20.0447C7.70625 20.0447 9.93422 17.8158 9.93328 15.0764C9.93328 14.6887 9.61781 14.3751 9.23016 14.3751ZM4.96688 9.59342L6.94359 14.3751H2.98969L4.96688 9.59342ZM4.96688 18.6384C3.24422 18.6384 1.80328 17.4089 1.47609 15.7814H8.45719C8.13 17.4089 6.68906 18.6384 4.96688 18.6384Z" fill="#EBF2FA"/>
</g>
<defs>
<clipPath id="clip0_57542_1996">
<rect width="24" height="24" fill="white"/>
</clipPath>
</defs>
</svg>
