<svg width="24" height="48" viewBox="0 0 24 48" fill="none" xmlns="http://www.w3.org/2000/svg">
<g clip-path="url(#clip0_1103_108)">
<g clip-path="url(#clip1_1103_108)">
<path d="M20.6899 5.08125C20.6899 4.69266 20.3749 4.37812 19.9868 4.37812H13.9413C13.6526 3.57562 12.8838 3 11.9829 3C11.082 3 10.3132 3.57562 10.0245 4.37812H4.01367C3.62555 4.37812 3.31055 4.69266 3.31055 5.08125C3.31055 5.43703 3.57539 5.73047 3.91852 5.77688L6.01852 5.78438H10.0245C10.3132 6.58688 11.082 7.16203 11.9829 7.16203C12.8838 7.16203 13.6526 6.58688 13.9413 5.78438H20.0852L20.082 5.77688C20.4251 5.73047 20.6899 5.43703 20.6899 5.08125V5.08125ZM11.9829 5.75578C11.6107 5.75578 11.3079 5.45344 11.3079 5.08125C11.3079 4.70906 11.6107 4.40625 11.9829 4.40625C12.3551 4.40625 12.6579 4.70906 12.6579 5.08125C12.6579 5.45344 12.3551 5.75578 11.9829 5.75578V5.75578Z" fill="#7B7D87"/>
<path d="M23.2971 14.3752H22.5321L20.5877 9.67125L19.6394 7.36969C19.4163 6.82781 18.6485 6.82828 18.4258 7.36969L17.3622 9.95672L15.5355 14.3752H14.7705C14.3829 14.3752 14.0674 14.6887 14.0674 15.0764C14.0664 17.8158 16.2949 20.0447 19.0343 20.0447C21.7736 20.0447 24.0016 17.8158 24.0007 15.0764C24.0007 14.6887 23.6852 14.3752 23.2975 14.3752H23.2971ZM19.0338 9.59344L21.0105 14.3752H17.0566L19.0338 9.59344ZM19.0338 18.6384C17.3111 18.6384 15.8702 17.4089 15.543 15.7814H22.5241C22.1969 17.4089 20.756 18.6384 19.0338 18.6384V18.6384Z" fill="#7B7D87"/>
<path d="M9.23016 14.3752H8.46516L6.52078 9.67125L5.5725 7.36969C5.34938 6.82781 4.58156 6.82828 4.35891 7.36969L3.29531 9.95672L1.46813 14.3752H0.703125C0.315469 14.3752 2.95695e-07 14.6887 2.95695e-07 15.0764C-0.000937204 17.8158 2.2275 20.0447 4.96688 20.0447C7.70625 20.0447 9.93422 17.8158 9.93328 15.0764C9.93328 14.6887 9.61781 14.3752 9.23016 14.3752ZM4.96688 9.59344L6.94359 14.3752H2.98969L4.96688 9.59344V9.59344ZM4.96688 18.6384C3.24422 18.6384 1.80328 17.4089 1.47609 15.7814H8.45719C8.13 17.4089 6.68906 18.6384 4.96688 18.6384Z" fill="#7B7D87"/>
</g>
<g clip-path="url(#clip2_1103_108)">
<path d="M20.6899 29.0813C20.6899 28.6927 20.3749 28.3781 19.9868 28.3781H13.9413C13.6526 27.5756 12.8838 27 11.9829 27C11.082 27 10.3132 27.5756 10.0245 28.3781H4.01367C3.62555 28.3781 3.31055 28.6927 3.31055 29.0813C3.31055 29.437 3.57539 29.7305 3.91852 29.7769L6.01852 29.7844H10.0245C10.3132 30.5869 11.082 31.162 11.9829 31.162C12.8838 31.162 13.6526 30.5869 13.9413 29.7844H20.0852L20.082 29.7769C20.4251 29.7305 20.6899 29.437 20.6899 29.0813V29.0813ZM11.9829 29.7558C11.6107 29.7558 11.3079 29.4534 11.3079 29.0813C11.3079 28.7091 11.6107 28.4062 11.9829 28.4062C12.3551 28.4062 12.6579 28.7091 12.6579 29.0813C12.6579 29.4534 12.3551 29.7558 11.9829 29.7558V29.7558Z" fill="black"/>
<path d="M23.2971 38.3752H22.5321L20.5877 33.6712L19.6394 31.3697C19.4163 30.8278 18.6485 30.8283 18.4258 31.3697L17.3622 33.9567L15.5355 38.3752H14.7705C14.3829 38.3752 14.0674 38.6887 14.0674 39.0764C14.0664 41.8158 16.2949 44.0447 19.0343 44.0447C21.7736 44.0447 24.0016 41.8158 24.0007 39.0764C24.0007 38.6887 23.6852 38.3752 23.2975 38.3752H23.2971ZM19.0338 33.5934L21.0105 38.3752H17.0566L19.0338 33.5934ZM19.0338 42.6384C17.3111 42.6384 15.8702 41.4089 15.543 39.7814H22.5241C22.1969 41.4089 20.756 42.6384 19.0338 42.6384V42.6384Z" fill="black"/>
<path d="M9.23016 38.3752H8.46516L6.52078 33.6712L5.5725 31.3697C5.34938 30.8278 4.58156 30.8283 4.35891 31.3697L3.29531 33.9567L1.46813 38.3752H0.703125C0.315469 38.3752 2.95695e-07 38.6887 2.95695e-07 39.0764C-0.000937204 41.8158 2.2275 44.0447 4.96688 44.0447C7.70625 44.0447 9.93422 41.8158 9.93328 39.0764C9.93328 38.6887 9.61781 38.3752 9.23016 38.3752ZM4.96688 33.5934L6.94359 38.3752H2.98969L4.96688 33.5934V33.5934ZM4.96688 42.6384C3.24422 42.6384 1.80328 41.4089 1.47609 39.7814H8.45719C8.13 41.4089 6.68906 42.6384 4.96688 42.6384Z" fill="black"/>
</g>
</g>
<defs>
<clipPath id="clip0_1103_108">
<rect width="24" height="48" fill="white"/>
</clipPath>
<clipPath id="clip1_1103_108">
<rect width="24" height="24" fill="white"/>
</clipPath>
<clipPath id="clip2_1103_108">
<rect width="24" height="24" fill="white" transform="translate(0 24)"/>
</clipPath>
</defs>
</svg>
