<svg width="12" height="7" viewBox="0 0 12 7" fill="none" xmlns="http://www.w3.org/2000/svg">
<g opacity="0.5">
<path d="M0 5.75C0 5.55109 0.0790178 5.36032 0.21967 5.21967C0.360322 5.07902 0.551088 5 0.75 5H5.25C5.44891 5 5.63968 5.07902 5.78033 5.21967C5.92098 5.36032 6 5.55109 6 5.75C6 5.94891 5.92098 6.13968 5.78033 6.28033C5.63968 6.42098 5.44891 6.5 5.25 6.5H0.75C0.551088 6.5 0.360322 6.42098 0.21967 6.28033C0.0790178 6.13968 0 5.94891 0 5.75ZM0 1.25C0 1.05109 0.0790178 0.860323 0.21967 0.71967C0.360322 0.579018 0.551088 0.5 0.75 0.5H11.25C11.4489 0.5 11.6397 0.579018 11.7803 0.71967C11.921 0.860323 12 1.05109 12 1.25C12 1.44891 11.921 1.63968 11.7803 1.78033C11.6397 1.92098 11.4489 2 11.25 2H0.75C0.551088 2 0.360322 1.92098 0.21967 1.78033C0.0790178 1.63968 0 1.44891 0 1.25Z" fill="#F53A42"/>
</g>
</svg>
