<svg width="20" height="20" viewBox="0 0 20 20" fill="none" xmlns="http://www.w3.org/2000/svg">
<rect width="20" height="20" rx="10" fill="#7C509A"/>
<path d="M13.127 4.77296C11.2212 4.40901 9.24215 4.40901 7.33639 4.77296C6.49345 4.95493 5.43063 5.97397 5.24738 6.77464C4.91754 8.33959 4.91754 9.94094 5.24738 11.5059C5.46728 12.3066 6.5301 13.3256 7.33639 13.5076C7.37304 13.5076 7.40968 13.544 7.40968 13.5804V15.8732C7.40968 15.9824 7.55628 16.0552 7.62958 15.946L8.72906 14.8178C8.72906 14.8178 9.60864 13.9079 9.75523 13.7623C9.75523 13.7623 9.79189 13.7259 9.82853 13.7259C10.928 13.7623 12.0641 13.6532 13.1636 13.4712C14.0065 13.2892 15.0694 12.2702 15.2526 11.4695C15.5825 9.90455 15.5825 8.3032 15.2526 6.73825C15.0327 5.97397 13.9699 4.95493 13.127 4.77296ZM13.1636 11.6151C12.9804 11.979 12.7605 12.2702 12.394 12.4521C12.284 12.4885 12.1741 12.5249 12.0641 12.5613C11.9175 12.5249 11.8076 12.4885 11.6976 12.4521C10.5249 11.979 9.42539 11.3239 8.54581 10.3777C8.06937 9.83176 7.66623 9.21305 7.33639 8.55796C7.18979 8.23041 7.04319 7.93926 6.93325 7.61171C6.8233 7.32055 7.00654 7.0294 7.18979 6.81103C7.37304 6.59267 7.59293 6.44709 7.84948 6.33791C8.03272 6.22873 8.21597 6.30152 8.36257 6.44709C8.65576 6.81103 8.94895 7.17498 9.16885 7.57531C9.31544 7.83007 9.27879 8.12123 9.02225 8.3032C8.94895 8.33959 8.9123 8.37599 8.839 8.44878C8.80236 8.48517 8.72906 8.52156 8.69241 8.59435C8.61911 8.70353 8.61911 8.81272 8.65576 8.9219C8.94895 9.75897 9.49869 10.4141 10.3416 10.778C10.4882 10.8508 10.5982 10.8872 10.7814 10.8872C11.038 10.8508 11.1479 10.5596 11.3312 10.4141C11.5144 10.2685 11.7343 10.2685 11.9542 10.3777C12.1374 10.4869 12.3207 10.6324 12.5406 10.778C12.7238 10.9236 12.9071 11.0328 13.0903 11.1783C13.2003 11.2511 13.2369 11.4331 13.1636 11.6151ZM11.6243 8.88551C11.551 8.88551 11.5877 8.88551 11.6243 8.88551C11.4777 8.88551 11.4411 8.81272 11.4044 8.70354C11.4044 8.63075 11.4045 8.52156 11.3678 8.44878C11.3312 8.3032 11.2579 8.15762 11.1113 8.04844C11.038 8.01204 10.9647 7.97565 10.8914 7.93926C10.7814 7.90286 10.7081 7.90286 10.5982 7.90286C10.4882 7.86647 10.4516 7.79368 10.4516 7.6845C10.4516 7.61171 10.5615 7.53892 10.6348 7.53892C11.2212 7.57531 11.661 7.90286 11.7343 8.59435C11.7343 8.63075 11.7343 8.70354 11.7343 8.73993C11.7343 8.81272 11.6976 8.88551 11.6243 8.88551ZM11.2579 7.28416C11.0746 7.21137 10.8914 7.13858 10.6715 7.10219C10.5982 7.10219 10.4882 7.06579 10.4149 7.06579C10.305 7.06579 10.2317 6.99301 10.2683 6.88382C10.2683 6.77464 10.3416 6.70185 10.4516 6.73825C10.8181 6.77464 11.1479 6.84743 11.4777 6.99301C12.1374 7.32055 12.5039 7.86647 12.6139 8.59435C12.6139 8.63075 12.6139 8.66714 12.6139 8.70354C12.6139 8.77632 12.6139 8.84911 12.6139 8.95829C12.6139 8.99469 12.6139 9.03108 12.6139 9.06748C12.5772 9.21306 12.3207 9.24945 12.284 9.06748C12.284 9.03108 12.2474 8.9583 12.2474 8.9219C12.2474 8.59435 12.1741 8.2668 12.0275 7.97565C11.8076 7.6481 11.551 7.42974 11.2579 7.28416ZM13.2369 9.46781C13.127 9.46781 13.0537 9.35863 13.0537 9.24945C13.0537 9.03108 13.017 8.81272 12.9804 8.59435C12.8338 7.42974 11.8809 6.48349 10.7448 6.30151C10.5615 6.26512 10.3783 6.26512 10.2317 6.22873C10.1217 6.22873 9.97513 6.22873 9.93848 6.08315C9.90183 5.97397 10.0118 5.86478 10.1217 5.86478C10.1584 5.86478 10.195 5.86478 10.195 5.86478C11.6976 5.90118 10.2683 5.86478 10.195 5.86478C11.7343 5.90118 13.017 6.92022 13.2736 8.44878C13.3102 8.70354 13.3469 8.9583 13.3469 9.24945C13.4202 9.35863 13.3469 9.46781 13.2369 9.46781Z" fill="white"/>
</svg>
