<svg width="23" height="22" viewBox="0 0 23 22" fill="none" xmlns="http://www.w3.org/2000/svg">
<path d="M16.6509 8.31934H11.8384C11.7387 8.31934 11.6509 8.23153 11.6509 8.13184C11.6509 8.03215 11.7387 7.94434 11.8384 7.94434H16.6509C16.7506 7.94434 16.8384 8.03214 16.8384 8.13184C16.8384 8.23588 16.7554 8.31934 16.6509 8.31934Z" fill="white" stroke="white"/>
<path d="M7.02713 9.51528C6.85296 9.51528 6.67879 9.45111 6.54129 9.31361L5.85379 8.62612C5.58796 8.36029 5.58796 7.92029 5.85379 7.65445C6.11963 7.38862 6.55963 7.38862 6.82546 7.65445L7.02713 7.85612L8.60379 6.27945C8.86963 6.01362 9.30963 6.01362 9.57546 6.27945C9.84125 6.54529 9.84125 6.98529 9.57546 7.25112L7.51296 9.31361C7.38463 9.44194 7.21046 9.51528 7.02713 9.51528Z" fill="white"/>
<path d="M16.6509 15.236H11.8384C11.4625 15.236 11.1509 14.9243 11.1509 14.5485C11.1509 14.1726 11.4625 13.861 11.8384 13.861H16.6509C17.0267 13.861 17.3384 14.1726 17.3384 14.5485C17.3384 14.9243 17.0359 15.236 16.6509 15.236Z" fill="white"/>
<path d="M7.02713 15.9319C6.85296 15.9319 6.67879 15.8677 6.54129 15.7302L5.85379 15.0427C5.58796 14.7769 5.58796 14.3369 5.85379 14.0711C6.11963 13.8052 6.55963 13.8052 6.82546 14.0711L7.02713 14.2727L8.60379 12.6961C8.86963 12.4302 9.30963 12.4302 9.57546 12.6961C9.84125 12.9619 9.84125 13.4019 9.57546 13.6677L7.51296 15.7302C7.38463 15.8586 7.21046 15.9319 7.02713 15.9319Z" fill="white"/>
<path d="M14.25 20.8542H8.75004C3.77254 20.8542 1.64587 18.7275 1.64587 13.75V8.25004C1.64587 3.27254 3.77254 1.14587 8.75004 1.14587H14.25C19.2275 1.14587 21.3542 3.27254 21.3542 8.25004V13.75C21.3542 18.7275 19.2275 20.8542 14.25 20.8542ZM8.75004 2.52087C4.52421 2.52087 3.02087 4.02421 3.02087 8.25004V13.75C3.02087 17.9759 4.52421 19.4792 8.75004 19.4792H14.25C18.4759 19.4792 19.9792 17.9759 19.9792 13.75V8.25004C19.9792 4.02421 18.4759 2.52087 14.25 2.52087H8.75004Z" fill="white"/>
</svg>
