<svg width="20" height="20" viewBox="0 0 20 20" fill="none" xmlns="http://www.w3.org/2000/svg">
<path d="M14.1992 19.575C15.0521 19.575 15.778 19.453 16.377 19.2088C16.9759 18.9647 17.5228 18.5627 18.0176 18.0027C18.0567 17.9637 18.0941 17.923 18.1299 17.8807C18.1657 17.8384 18.2031 17.7977 18.2422 17.7586C18.5351 17.4331 18.7516 17.1092 18.8916 16.7869C19.0316 16.4647 19.1016 16.1505 19.1016 15.8445C19.1016 15.493 18.9974 15.1528 18.7891 14.824C18.5808 14.4952 18.2585 14.1811 17.8223 13.8816L14.9805 11.909C14.5443 11.6096 14.0837 11.4566 13.5986 11.45C13.1136 11.4435 12.666 11.6421 12.2559 12.0457L11.5039 12.7976C11.3932 12.9084 11.2874 12.9702 11.1865 12.9832C11.0856 12.9962 10.9798 12.9669 10.8691 12.8953C10.6934 12.7847 10.4704 12.6187 10.2002 12.3973C9.93001 12.1759 9.64844 11.9334 9.35547 11.6697C9.0625 11.4061 8.79558 11.1538 8.55469 10.9129C8.30078 10.659 8.05501 10.4018 7.81738 10.1414C7.57975 9.881 7.36166 9.62872 7.16309 9.38458C6.96452 9.14044 6.80013 8.9142 6.66992 8.70587C6.60482 8.59519 6.57878 8.4894 6.5918 8.38849C6.60482 8.28758 6.66667 8.18178 6.77734 8.0711L7.51953 7.31915C7.92969 6.909 8.13151 6.46141 8.125 5.97638C8.11849 5.49135 7.96549 5.03074 7.66602 4.59454L5.69336 1.75274C5.38737 1.31654 5.07162 0.995908 4.74609 0.79083C4.42057 0.585752 4.08203 0.479958 3.73047 0.473447C3.11198 0.460426 2.47396 0.746885 1.81641 1.33282C1.77734 1.37188 1.73665 1.40932 1.69434 1.44513C1.65202 1.48094 1.61133 1.51512 1.57227 1.54767C1.01888 2.04246 0.61849 2.58933 0.371094 3.18829C0.123698 3.78725 0 4.50991 0 5.35626C0 6.28725 0.187174 7.27357 0.561523 8.31524C0.935874 9.35691 1.486 10.4197 2.21191 11.5037C2.93782 12.5877 3.82487 13.6538 4.87305 14.7019C5.92122 15.7436 6.98568 16.6274 8.06641 17.3533C9.14714 18.0793 10.2067 18.631 11.2451 19.0086C12.2835 19.3862 13.2682 19.575 14.1992 19.575ZM14.209 18.0711C13.3822 18.0907 12.4935 17.9084 11.543 17.5242C10.5925 17.1401 9.64194 16.6144 8.69141 15.9471C7.74088 15.2798 6.84244 14.5262 5.99609 13.6863C5.14974 12.84 4.38314 11.9302 3.69629 10.9568C3.00944 9.98353 2.46745 9.01349 2.07031 8.04669C1.67318 7.0799 1.48112 6.18309 1.49414 5.35626C1.50716 4.81589 1.60807 4.31947 1.79688 3.867C1.98568 3.41453 2.27214 3.02227 2.65625 2.69024C2.6888 2.65769 2.71973 2.63003 2.74902 2.60724C2.77832 2.58445 2.80925 2.56004 2.8418 2.534C2.98503 2.4103 3.13314 2.31427 3.28613 2.24591C3.43912 2.17755 3.58724 2.14337 3.73047 2.14337C4.04297 2.14337 4.28385 2.27683 4.45312 2.54376L6.34766 5.38556C6.45183 5.54181 6.50228 5.70131 6.49902 5.86407C6.49577 6.02683 6.41927 6.18308 6.26953 6.33282L5.41016 7.1922C5.07161 7.52423 4.90234 7.88393 4.90234 8.2713C4.90234 8.65867 5.02604 9.01511 5.27344 9.34064C5.55339 9.71824 5.9082 10.1512 6.33789 10.6394C6.76758 11.1278 7.17122 11.5575 7.54883 11.9285C7.79622 12.1759 8.08105 12.4477 8.40332 12.7439C8.72559 13.0402 9.04785 13.3267 9.37012 13.6033C9.69239 13.8801 9.98048 14.1128 10.2344 14.3016C10.5599 14.5425 10.9147 14.6646 11.2988 14.6678C11.6829 14.671 12.0443 14.5034 12.3828 14.1648L13.2422 13.3055C13.3919 13.1493 13.5482 13.0711 13.7109 13.0711C13.8737 13.0711 14.0332 13.12 14.1895 13.2176L17.0312 15.1121C17.1745 15.2098 17.277 15.3205 17.3389 15.4441C17.4007 15.5679 17.4316 15.7013 17.4316 15.8445C17.4316 16.1375 17.3014 16.4338 17.041 16.7332C17.015 16.7658 16.9906 16.7967 16.9678 16.826C16.945 16.8553 16.9173 16.8862 16.8848 16.9187C16.5527 17.3029 16.1588 17.5893 15.7031 17.7781C15.2474 17.9669 14.7493 18.0646 14.209 18.0711Z" fill="white"/>
</svg>
