<svg width="22" height="22" viewBox="0 0 22 22" fill="none" xmlns="http://www.w3.org/2000/svg">
<path d="M15.2178 13.9535V15.2158H13.9568H13.9555H13.3461C13.7099 14.9634 14.0513 14.6785 14.3659 14.3639C14.6805 14.0493 14.9654 13.7079 15.2178 13.3441V13.9522V13.9535ZM15.3306 15.3277L15.4831 15.2158H15.4126L15.785 14.7077L20.3621 19.2848C20.3622 19.2849 20.3622 19.2849 20.3623 19.285C20.5048 19.4277 20.5849 19.6212 20.5848 19.8229C20.5847 20.0247 20.5045 20.2181 20.3618 20.3608C20.219 20.5034 20.0255 20.5835 19.8237 20.5834C19.6219 20.5833 19.4285 20.5031 19.2858 20.3604L19.2857 20.3603L14.7092 15.7837L15.2178 15.4105V15.4817L15.3306 15.3277ZM13.2428 15.5988C11.7591 16.5442 9.99085 16.9553 8.23286 16.7538C6.30654 16.5331 4.53461 15.5931 3.27157 14.122C2.00852 12.6509 1.34751 10.7571 1.42078 8.81958C1.49405 6.88204 2.29619 5.04361 3.66673 3.67209C5.03727 2.30057 6.87513 1.49711 8.81261 1.42246C10.7501 1.3478 12.6443 2.00746 14.1163 3.26945C15.5884 4.53144 16.5296 6.30269 16.7517 8.22885C16.9545 9.98719 16.5444 11.7562 15.5996 13.2409L15.3897 13.0847C15.6171 12.7256 15.8138 12.3469 15.9772 11.9525C16.3507 11.0506 16.543 10.0841 16.543 9.10797C16.543 7.13661 15.7599 5.246 14.3659 3.85204C12.9719 2.45808 11.0813 1.67496 9.10997 1.67496C7.13861 1.67496 5.248 2.45808 3.85404 3.85204C2.46008 5.246 1.67696 7.13661 1.67696 9.10797C1.67696 10.0841 1.86922 11.0506 2.24277 11.9525C2.61631 12.8543 3.16382 13.6737 3.85404 14.3639C4.54426 15.0541 5.36367 15.6016 6.26548 15.9752C7.16729 16.3487 8.13385 16.541 9.10997 16.541C10.0861 16.541 11.0526 16.3487 11.9545 15.9752C12.3484 15.812 12.7266 15.6156 13.0852 15.3887L13.2428 15.5988Z" fill="white" stroke="white"/>
</svg>
