<svg width="12" height="6" viewBox="0 0 12 6" fill="none" xmlns="http://www.w3.org/2000/svg">
<path d="M0.21967 4.71967C0.0790178 4.86032 0 5.05109 0 5.25C0 5.44891 0.0790178 5.63968 0.21967 5.78033C0.360322 5.92098 0.551088 6 0.75 6H5.25C5.44891 6 5.63968 5.92098 5.78033 5.78033C5.92098 5.63968 6 5.44891 6 5.25C6 5.05109 5.92098 4.86032 5.78033 4.71967C5.63968 4.57902 5.44891 4.5 5.25 4.5H0.75C0.551088 4.5 0.360322 4.57902 0.21967 4.71967Z" fill="white"/>
<path d="M0 0.75C0 0.551088 0.0790178 0.360323 0.21967 0.21967C0.360322 0.079018 0.551088 0 0.75 0H11.25C11.4489 0 11.6397 0.079018 11.7803 0.21967C11.921 0.360323 12 0.551088 12 0.75C12 0.948912 11.921 1.13968 11.7803 1.28033C11.6397 1.42098 11.4489 1.5 11.25 1.5H0.75C0.551088 1.5 0.360322 1.42098 0.21967 1.28033C0.0790178 1.13968 0 0.948912 0 0.75Z" fill="white"/>
</svg>
