<svg width="22" height="22" viewBox="0 0 22 22" fill="none" xmlns="http://www.w3.org/2000/svg">
<path d="M11.1472 9.96421C11.0556 9.95504 10.9456 9.95504 10.8447 9.96421C8.66304 9.89087 6.93054 8.10337 6.93054 5.90337C6.93054 3.65754 8.74554 1.83337 11.0006 1.83337C13.2464 1.83337 15.0706 3.65754 15.0706 5.90337C15.0614 8.10337 13.3289 9.89087 11.1472 9.96421Z" stroke="white" stroke-width="1.5" stroke-linecap="round" stroke-linejoin="round"/>
<path d="M6.56304 13.3466C4.34471 14.8316 4.34471 17.2516 6.56304 18.7275C9.08388 20.4141 13.2181 20.4141 15.7389 18.7275C17.9572 17.2425 17.9572 14.8225 15.7389 13.3466C13.2272 11.6691 9.09304 11.6691 6.56304 13.3466Z" stroke="white" stroke-width="1.5" stroke-linecap="round" stroke-linejoin="round"/>
</svg>
