<svg width="28" height="28" viewBox="0 0 28 28" fill="none" xmlns="http://www.w3.org/2000/svg">
<path d="M10.136 16.3344C9.91451 16.5559 9.90999 16.9491 10.1405 17.1797C10.3755 17.4102 10.7688 17.4056 10.9857 17.1887L13.6615 14.5129L16.3327 17.1842C16.5587 17.4102 16.9474 17.4102 17.178 17.1797C17.4085 16.9446 17.4085 16.5604 17.1825 16.3344L14.5112 13.6632L17.1825 10.9874C17.4085 10.7614 17.413 10.3727 17.178 10.1422C16.9474 9.91169 16.5587 9.91169 16.3327 10.1377L13.6615 12.8089L10.9857 10.1377C10.7688 9.91621 10.371 9.90717 10.1405 10.1422C9.90999 10.3727 9.91451 10.7705 10.136 10.9874L12.8072 13.6632L10.136 16.3344Z" fill="white"/>
</svg>