<svg width="24" height="24" viewBox="0 0 24 24" fill="none" xmlns="http://www.w3.org/2000/svg">
<path d="M4.06641 20.8457H19.7891C20.668 20.8457 21.3499 20.5934 21.835 20.0889C22.32 19.5843 22.5625 18.8275 22.5625 17.8184V7.03711C22.5625 6.0345 22.307 5.28092 21.7959 4.77637C21.2848 4.27181 20.5182 4.01953 19.4961 4.01953H3.77344C2.89453 4.01953 2.21257 4.27181 1.72754 4.77637C1.24251 5.28092 1 6.0345 1 7.03711V17.8184C1 18.8275 1.25553 19.5843 1.7666 20.0889C2.27767 20.5934 3.04427 20.8457 4.06641 20.8457ZM4.00781 19.3516C3.51953 19.3516 3.14518 19.223 2.88477 18.9658C2.62435 18.7087 2.49414 18.3262 2.49414 17.8184V7.03711C2.49414 6.53581 2.62435 6.15658 2.88477 5.89941C3.14518 5.64225 3.51953 5.51367 4.00781 5.51367H19.5547C20.0364 5.51367 20.4092 5.64225 20.6729 5.89941C20.9366 6.15658 21.0684 6.53907 21.0684 7.04688V17.8281C21.0684 18.3294 20.9366 18.7087 20.6729 18.9658C20.4092 19.223 20.0364 19.3516 19.5547 19.3516H4.00781ZM11.8008 15.0352C12.1459 15.0352 12.4844 14.9603 12.8164 14.8105C13.1485 14.6608 13.487 14.4166 13.832 14.0781L21.7617 6.28516L20.7461 5.25977L12.9824 12.9258C12.7676 13.1341 12.5642 13.2871 12.3721 13.3848C12.18 13.4824 11.9896 13.5312 11.8008 13.5312C11.6055 13.5312 11.4118 13.4808 11.2197 13.3799C11.0277 13.279 10.8275 13.1276 10.6191 12.9258L2.81641 5.2207L1.79102 6.24609L9.76953 14.0781C10.1081 14.4166 10.445 14.6608 10.7803 14.8105C11.1156 14.9603 11.4557 15.0352 11.8008 15.0352ZM20.6484 19.5664L21.6641 18.541L15.3457 12.3008L14.3301 13.3164L20.6484 19.5664ZM1.92773 18.5508L2.94336 19.5762L9.27148 13.3164L8.24609 12.3008L1.92773 18.5508Z" fill="white"/>
</svg>