<svg width="43" height="43" viewBox="0 0 43 43" fill="none" xmlns="http://www.w3.org/2000/svg">
<path fill-rule="evenodd" clip-rule="evenodd" d="M21.5 0C9.38841 0 0 8.87176 0 20.855C0 27.123 2.56882 32.5393 6.7522 36.2804C7.10339 36.5947 7.31537 37.035 7.32978 37.5063L7.44687 41.3307C7.48428 42.5506 8.74435 43.3444 9.86063 42.8516L14.1281 40.9678C14.4898 40.8083 14.8952 40.7786 15.2764 40.8835C17.2374 41.4228 19.3245 41.71 21.5 41.71C33.6116 41.71 43 32.8382 43 20.855C43 8.87176 33.6116 0 21.5 0Z" fill="url(#paint0_radial_59963_18914)"/>
<path fill-rule="evenodd" clip-rule="evenodd" d="M8.58957 26.954L14.9052 16.9342C15.9098 15.3401 18.0611 14.9433 19.5685 16.0737L24.5916 19.8411C25.0525 20.1868 25.6866 20.185 26.1455 19.8367L32.9295 14.6881C33.835 14.0009 35.0169 15.0845 34.411 16.0461L28.0954 26.0661C27.0907 27.66 24.9394 28.057 23.4321 26.9264L18.4088 23.159C17.948 22.8133 17.3138 22.8152 16.8549 23.1635L10.0709 28.3121C9.16547 28.9992 7.98348 27.9156 8.58957 26.954Z" fill="white"/>
<defs>
<radialGradient id="paint0_radial_59963_18914" cx="0" cy="0" r="1" gradientUnits="userSpaceOnUse" gradientTransform="translate(8.2764 42.77) scale(46.8526 46.8525)">
<stop stop-color="#0099FF"/>
<stop offset="0.609754" stop-color="#A033FF"/>
<stop offset="0.934823" stop-color="#FF5280"/>
<stop offset="1" stop-color="#FF7061"/>
</radialGradient>
</defs>
</svg>
