<svg width="24" height="24" viewBox="0 0 24 24" fill="none" xmlns="http://www.w3.org/2000/svg">
<path d="M17.1579 3.45097C14.0724 2.84968 10.8682 2.84968 7.78272 3.45097C6.41797 3.75162 4.69721 5.43525 4.40052 6.7581C3.86649 9.34368 3.86649 11.9894 4.40052 14.575C4.75654 15.8978 6.47731 17.5814 7.78272 17.8821C7.84206 17.8821 7.90139 17.9422 7.90139 18.0023V21.7905C7.90139 21.9709 8.13874 22.0912 8.25742 21.9108L10.0375 20.0467C10.0375 20.0467 11.4616 18.5435 11.699 18.303C11.699 18.303 11.7583 18.2429 11.8176 18.2429C13.5977 18.303 15.4372 18.1226 17.2173 17.822C18.582 17.5213 20.3028 15.8377 20.5995 14.5148C21.1335 11.9292 21.1335 9.28355 20.5995 6.69797C20.2435 5.43525 18.5227 3.75162 17.1579 3.45097ZM17.2173 14.7553C16.9206 15.3566 16.5646 15.8377 15.9712 16.1383C15.7932 16.1985 15.6152 16.2586 15.4372 16.3187C15.1998 16.2586 15.0218 16.1985 14.8438 16.1383C12.945 15.3566 11.1649 14.2743 9.74084 12.7109C8.96946 11.809 8.31675 10.7868 7.78272 9.70445C7.54537 9.16329 7.30803 8.68225 7.13002 8.14108C6.95201 7.66005 7.24869 7.17901 7.54537 6.81823C7.84206 6.45745 8.19808 6.21693 8.61344 6.03655C8.91012 5.85616 9.20681 5.97642 9.44415 6.21694C9.91885 6.81823 10.3935 7.41953 10.7496 8.08095C10.9869 8.50186 10.9276 8.9829 10.5122 9.28355C10.3935 9.34367 10.3342 9.40381 10.2155 9.52406C10.1562 9.58419 10.0375 9.64432 9.97818 9.76458C9.85951 9.94497 9.85951 10.1254 9.91885 10.3057C10.3935 11.6887 11.2836 12.7711 12.6483 13.3724C12.8857 13.4926 13.0637 13.5527 13.3604 13.5527C13.7757 13.4926 13.9538 13.0116 14.2504 12.7711C14.5471 12.5305 14.9031 12.5305 15.2592 12.7109C15.5558 12.8913 15.8525 13.1318 16.2085 13.3724C16.5052 13.6129 16.8019 13.7933 17.0986 14.0338C17.2766 14.154 17.336 14.4547 17.2173 14.7553ZM14.7251 10.2456C14.6065 10.2456 14.6658 10.2456 14.7251 10.2456C14.4878 10.2456 14.4284 10.1254 14.3691 9.94497C14.3691 9.82471 14.3691 9.64432 14.3098 9.52406C14.2504 9.28355 14.1318 9.04303 13.8944 8.86264C13.7757 8.80251 13.6571 8.74238 13.5384 8.68225C13.3604 8.62212 13.2417 8.62212 13.0637 8.62212C12.8857 8.56199 12.8264 8.44173 12.8264 8.26134C12.8264 8.14108 13.0044 8.02082 13.123 8.02082C14.0724 8.08095 14.7845 8.62212 14.9031 9.76458C14.9031 9.82471 14.9031 9.94497 14.9031 10.0051C14.9031 10.1254 14.8438 10.2456 14.7251 10.2456ZM14.1318 7.59992C13.8351 7.47966 13.5384 7.3594 13.1824 7.29927C13.0637 7.29927 12.8857 7.23914 12.767 7.23914C12.589 7.23914 12.4703 7.11888 12.5297 6.93849C12.5297 6.7581 12.6483 6.63784 12.8264 6.69797C13.4197 6.7581 13.9538 6.87836 14.4878 7.11888C15.5558 7.66005 16.1492 8.56199 16.3272 9.76458C16.3272 9.82471 16.3272 9.88484 16.3272 9.94497C16.3272 10.0652 16.3272 10.1855 16.3272 10.3659C16.3272 10.426 16.3272 10.4861 16.3272 10.5463C16.2679 10.7868 15.8525 10.8469 15.7932 10.5463C15.7932 10.4861 15.7339 10.3659 15.7339 10.3057C15.7339 9.76458 15.6152 9.22342 15.3778 8.74238C15.0218 8.20121 14.6065 7.84043 14.1318 7.59992ZM17.336 11.2077C17.1579 11.2077 17.0393 11.0273 17.0393 10.8469C17.0393 10.4861 16.9799 10.1254 16.9206 9.76458C16.6832 7.84043 15.1405 6.27706 13.301 5.97642C13.0044 5.91629 12.7077 5.91629 12.4703 5.85616C12.2923 5.85616 12.055 5.85616 11.9956 5.61564C11.9363 5.43525 12.1143 5.25486 12.2923 5.25486C12.3517 5.25486 12.411 5.25486 12.411 5.25486C14.8438 5.31499 12.5297 5.25486 12.411 5.25486C14.9031 5.31499 16.9799 6.99862 17.3953 9.52406C17.4546 9.94497 17.514 10.3659 17.514 10.8469C17.6326 11.0273 17.514 11.2077 17.336 11.2077Z" fill="white"/>
</svg>