<svg width="43" height="43" viewBox="0 0 43 43" fill="none" xmlns="http://www.w3.org/2000/svg">
<path d="M21.5 0C4.3 0 0 4.3 0 21.5C0 38.7 4.3 43 21.5 43C38.7 43 43 38.7 43 21.5C43 4.3 38.7 0 21.5 0Z" fill="#2DBA66"/>
<path d="M20.9001 9.50015C14.4001 9.80015 9.30014 15.2002 9.30014 21.7002C9.30014 23.7002 9.80014 25.5002 10.6001 27.2002L9.30014 33.5002C9.20014 33.8002 9.50014 34.1002 9.90014 34.1002L16.1001 32.6002C17.7001 33.4002 19.5001 33.8002 21.3001 33.9002C27.9001 34.0002 33.5001 28.7002 33.7001 22.1002C33.9001 15.0002 28.0001 9.20015 20.9001 9.50015ZM28.2001 28.4002C26.4001 30.2002 24.0001 31.2002 21.4001 31.2002C19.9001 31.2002 18.5001 30.9002 17.2001 30.2002L16.3001 29.8002L12.5001 30.7002L13.3001 26.8002L13.0001 26.0002C12.3001 24.7002 12.0001 23.2002 12.0001 21.7002C12.0001 19.2002 13.0001 16.8002 14.8001 14.9002C16.6001 13.1002 19.0001 12.1002 21.6001 12.1002C24.1001 12.1002 26.5001 13.1002 28.4001 14.9002C30.2001 16.7002 31.2001 19.1002 31.2001 21.7002C31.0001 24.2002 30.0001 26.7002 28.2001 28.4002Z" fill="white"/>
<path d="M27.4001 24.3002L25.0001 23.7002C24.7001 23.6002 24.4001 23.7002 24.1001 23.9002L23.5001 24.5002C23.3001 24.7002 22.9001 24.8002 22.6001 24.7002C21.5001 24.2002 19.1001 22.2002 18.5001 21.1002C18.3001 20.8002 18.4001 20.4002 18.6001 20.1002L19.1001 19.4002C19.3001 19.1002 19.3001 18.8002 19.2001 18.5002L18.2001 16.3002C18.0001 15.8002 17.3001 15.6002 16.8001 16.0002C16.1001 16.6002 15.4001 17.4002 15.3001 18.3002C15.1001 20.0002 15.8001 22.0002 18.5001 24.5002C21.6001 27.4002 24.1001 27.8002 25.7001 27.4002C26.6001 27.2002 27.3001 26.3002 27.8001 25.6002C28.2001 25.2002 28.0001 24.5002 27.4001 24.3002Z" fill="white"/>
</svg>
