<svg width="50" height="51" viewBox="0 0 50 51" fill="none" xmlns="http://www.w3.org/2000/svg">
<path d="M31.2498 4.66669V25.5C31.2498 27.7917 29.3748 29.6667 27.0832 29.6667H4.1665V16.375C5.68734 18.1875 8.02073 19.3125 10.6041 19.25C12.7082 19.2084 14.604 18.3959 16.0207 17.0417C16.6665 16.5 17.2082 15.8125 17.6249 15.0625C18.3749 13.7917 18.7915 12.2916 18.7498 10.7291C18.6873 8.29162 17.604 6.14585 15.9165 4.66669H31.2498Z" stroke="#ACADBC" stroke-opacity="0.4" stroke-width="1.5" stroke-linecap="round" stroke-linejoin="round"/>
<path d="M45.8332 29.6667V35.9167C45.8332 39.375 43.0415 42.1667 39.5832 42.1667H37.4998C37.4998 39.875 35.6248 38 33.3332 38C31.0415 38 29.1665 39.875 29.1665 42.1667H20.8332C20.8332 39.875 18.9582 38 16.6665 38C14.3748 38 12.4998 39.875 12.4998 42.1667H10.4165C6.95817 42.1667 4.1665 39.375 4.1665 35.9167V29.6667H27.0832C29.3748 29.6667 31.2498 27.7917 31.2498 25.5V10.9167H35.0832C36.5832 10.9167 37.9582 11.7292 38.7082 13.0209L42.2707 19.25H39.5832C38.4373 19.25 37.4998 20.1875 37.4998 21.3334V27.5834C37.4998 28.7292 38.4373 29.6667 39.5832 29.6667H45.8332Z" stroke="#ACADBC" stroke-width="1.5" stroke-linecap="round" stroke-linejoin="round"/>
<path d="M16.6667 46.3333C18.9679 46.3333 20.8333 44.4679 20.8333 42.1667C20.8333 39.8654 18.9679 38 16.6667 38C14.3655 38 12.5 39.8654 12.5 42.1667C12.5 44.4679 14.3655 46.3333 16.6667 46.3333Z" stroke="#ACADBC" stroke-width="1.5" stroke-linecap="round" stroke-linejoin="round"/>
<path d="M33.3332 46.3333C35.6344 46.3333 37.4998 44.4679 37.4998 42.1667C37.4998 39.8654 35.6344 38 33.3332 38C31.0319 38 29.1665 39.8654 29.1665 42.1667C29.1665 44.4679 31.0319 46.3333 33.3332 46.3333Z" stroke="#ACADBC" stroke-width="1.5" stroke-linecap="round" stroke-linejoin="round"/>
<path d="M45.8333 25.5V29.6667H39.5833C38.4375 29.6667 37.5 28.7292 37.5 27.5833V21.3333C37.5 20.1875 38.4375 19.25 39.5833 19.25H42.2708L45.8333 25.5Z" stroke="#ACADBC" stroke-width="1.5" stroke-linecap="round" stroke-linejoin="round"/>
<path d="M18.7526 10.7307C18.7942 12.2932 18.3776 13.7932 17.6276 15.064C17.2109 15.814 16.6692 16.5015 16.0234 17.0432C14.6067 18.3974 12.711 19.2099 10.6068 19.2515C8.02345 19.314 5.69006 18.189 4.16922 16.3765C3.87756 16.064 3.62756 15.7099 3.39839 15.3557C2.58589 14.1266 2.12756 12.6683 2.08589 11.1058C2.02338 8.48078 3.19003 6.08486 5.06503 4.52236C6.4817 3.35569 8.27333 2.62655 10.2317 2.58488C12.4192 2.54322 14.4192 3.33488 15.9192 4.66821C17.6067 6.14738 18.6901 8.29317 18.7526 10.7307Z" stroke="#E84D40" stroke-width="1.5" stroke-miterlimit="10" stroke-linecap="round" stroke-linejoin="round"/>
<path d="M7.16943 10.9767L9.27362 12.9766L13.6277 8.76825" stroke="#E84D40" stroke-width="1.5" stroke-linecap="round" stroke-linejoin="round"/>
</svg>
