<svg width="28" height="28" viewBox="0 0 28 28" fill="none" xmlns="http://www.w3.org/2000/svg">
<g clip-path="url(#clip0)">
<path d="M28.0007 5.915C28.0046 5.88791 28.0046 5.86042 28.0007 5.83333C27.9812 5.74377 27.9413 5.65992 27.8841 5.58833L22.6107 0.175C22.5575 0.120676 22.494 0.0775181 22.4239 0.0480553C22.3538 0.0185925 22.2785 0.00341666 22.2024 0.00341666C22.1264 0.00341666 22.0511 0.0185925 21.981 0.0480553C21.9108 0.0775181 21.8473 0.120676 21.7941 0.175C21.7394 0.229228 21.696 0.293746 21.6664 0.36483C21.6368 0.435915 21.6215 0.51216 21.6215 0.589167C21.6215 0.666174 21.6368 0.742418 21.6664 0.813503C21.696 0.884588 21.7394 0.949105 21.7941 1.00333L26.0641 5.41333H2.25241L7.53741 1.16667H18.2241C18.3788 1.16667 18.5272 1.10521 18.6366 0.995812C18.746 0.886416 18.8074 0.738043 18.8074 0.583333C18.8074 0.428624 18.746 0.280251 18.6366 0.170854C18.5272 0.0614582 18.3788 0 18.2241 0L7.33908 0C7.21587 0.00736474 7.09784 0.0521345 7.00074 0.128333L0.222412 5.53C0.119392 5.60621 0.0420642 5.71203 0.000744955 5.83333C-0.00578217 5.87195 -0.00578217 5.91138 0.000744955 5.95L0.000744955 27.4167C0.000744955 27.5714 0.0622031 27.7197 0.171599 27.8291C0.280996 27.9385 0.429369 28 0.584078 28C0.738788 28 0.887161 27.9385 0.996557 27.8291C1.10595 27.7197 1.16741 27.5714 1.16741 27.4167V6.56833H26.8341V26.11C26.8341 26.3018 26.7579 26.4858 26.6222 26.6215C26.4866 26.7571 26.3026 26.8333 26.1107 26.8333H3.50074C3.34604 26.8333 3.19766 26.8948 3.08827 27.0042C2.97887 27.1136 2.91741 27.262 2.91741 27.4167C2.91741 27.5714 2.97887 27.7197 3.08827 27.8291C3.19766 27.9385 3.34604 28 3.50074 28H26.1341C26.6303 27.9909 27.1033 27.7881 27.4521 27.435C27.8009 27.0818 27.9978 26.6063 28.0007 26.11V5.985C28.0007 5.985 28.0007 5.93833 28.0007 5.915Z" fill="#2C2F40"/>
<path d="M3.11494 18.9233C3.18557 18.9956 3.26995 19.053 3.36312 19.0923C3.45628 19.1315 3.55635 19.1517 3.65744 19.1517C3.75853 19.1517 3.85859 19.1315 3.95176 19.0923C4.04492 19.053 4.1293 18.9956 4.19994 18.9233L4.43327 18.6666V21.4666C4.43327 21.6708 4.5144 21.8667 4.6588 22.0111C4.8032 22.1555 4.99905 22.2366 5.20327 22.2366C5.40749 22.2366 5.60334 22.1555 5.74774 22.0111C5.89215 21.8667 5.97327 21.6708 5.97327 21.4666V18.6666L6.19494 18.8883C6.27154 18.9587 6.36128 19.0134 6.45902 19.0492C6.55676 19.085 6.6606 19.1012 6.7646 19.0969C6.8686 19.0925 6.97073 19.0678 7.06516 19.024C7.15959 18.9802 7.24446 18.9182 7.31494 18.8416C7.38541 18.765 7.44011 18.6752 7.47591 18.5775C7.5117 18.4798 7.5279 18.3759 7.52356 18.2719C7.51923 18.1679 7.49445 18.0658 7.45065 17.9714C7.40685 17.8769 7.34487 17.7921 7.26827 17.7216L5.7516 16.3333C5.60457 16.1955 5.41061 16.1188 5.2091 16.1188C5.00759 16.1188 4.81363 16.1955 4.6666 16.3333L3.11494 17.8266C3.04262 17.8972 2.98515 17.9816 2.94592 18.0748C2.90669 18.1679 2.88647 18.268 2.88647 18.3691C2.88647 18.4702 2.90669 18.5702 2.94592 18.6634C2.98515 18.7566 3.04262 18.841 3.11494 18.9116V18.9233Z" fill="#41A15B"/>
<path d="M10.3717 18.9234L10.5933 18.6667V21.4667C10.5933 21.671 10.6745 21.8668 10.8189 22.0112C10.9633 22.1556 11.1591 22.2367 11.3633 22.2367C11.5676 22.2367 11.7634 22.1556 11.9078 22.0112C12.0522 21.8668 12.1333 21.671 12.1333 21.4667V18.6667L12.3667 18.8884C12.5121 19.0323 12.7087 19.1125 12.9133 19.1114C13.1179 19.1103 13.3136 19.028 13.4575 18.8826C13.6014 18.7372 13.6816 18.5405 13.6805 18.336C13.6794 18.1314 13.5971 17.9356 13.4517 17.7917L11.9117 16.3334C11.766 16.193 11.5715 16.1145 11.3692 16.1145C11.1668 16.1145 10.9724 16.193 10.8267 16.3334L9.33334 17.8267C9.18791 17.9706 9.1056 18.1664 9.1045 18.371C9.10396 18.4722 9.12338 18.5727 9.16164 18.6664C9.1999 18.7602 9.25626 18.8456 9.32751 18.9176C9.39875 18.9896 9.48348 19.0469 9.57685 19.0861C9.67023 19.1254 9.77042 19.1459 9.87172 19.1464C10.0763 19.1475 10.2729 19.0673 10.4183 18.9234H10.3717Z" fill="#41A15B"/>
<path d="M12.915 23.7766H3.66331C3.45909 23.7766 3.26324 23.8577 3.11884 24.0021C2.97444 24.1465 2.89331 24.3424 2.89331 24.5466C2.89331 24.7508 2.97444 24.9467 3.11884 25.0911C3.26324 25.2355 3.45909 25.3166 3.66331 25.3166H12.915C13.1192 25.3166 13.315 25.2355 13.4594 25.0911C13.6039 24.9467 13.685 24.7508 13.685 24.5466C13.685 24.3424 13.6039 24.1465 13.4594 24.0021C13.315 23.8577 13.1192 23.7766 12.915 23.7766Z" fill="#41A15B"/>
</g>
<defs>
<clipPath id="clip0">
<rect width="28" height="28" fill="white"/>
</clipPath>
</defs>
</svg>
