<svg width="28" height="28" viewBox="0 0 28 28" fill="none" xmlns="http://www.w3.org/2000/svg">
<g clip-path="url(#clip0)">
<path d="M27.4167 17.7217C27.264 17.7217 27.1173 17.6618 27.0083 17.555C26.8992 17.4481 26.8364 17.3027 26.8333 17.15V7.29167C26.8333 6.62224 26.5682 5.98007 26.096 5.50562C25.6237 5.03117 24.9827 4.76308 24.3133 4.76H20.4867V2.01833C20.4914 1.90915 20.4741 1.80014 20.4359 1.69776C20.3977 1.59537 20.3393 1.5017 20.2643 1.42228C20.1892 1.34286 20.0989 1.27932 19.9989 1.23541C19.8988 1.1915 19.7909 1.16813 19.6817 1.16667C19.4547 1.16665 19.2369 1.256 19.0753 1.41539C18.9137 1.57478 18.8214 1.79139 18.8183 2.01833V5.40167C18.8214 5.62861 18.9137 5.84522 19.0753 6.00461C19.2369 6.164 19.4547 6.25335 19.6817 6.25333H21.1167C21.2704 6.25632 21.4171 6.31874 21.5258 6.42749C21.6346 6.53625 21.697 6.68289 21.7 6.83667C21.7 6.99138 21.6385 7.13975 21.5291 7.24915C21.4198 7.35854 21.2714 7.42 21.1167 7.42H19.6817C19.4162 7.42155 19.153 7.3704 18.9075 7.26952C18.6619 7.16863 18.4388 7.02002 18.251 6.83229C18.0633 6.64457 17.9147 6.42145 17.8138 6.17588C17.7129 5.9303 17.6618 5.66715 17.6633 5.40167V2.01833C17.6633 1.48304 17.876 0.969667 18.2545 0.591156C18.633 0.212645 19.1464 0 19.6817 0C19.9441 0.00150286 20.2036 0.0550781 20.4452 0.157621C20.6868 0.260163 20.9056 0.409634 21.089 0.59737C21.2724 0.785106 21.4167 1.00737 21.5136 1.25129C21.6105 1.49521 21.658 1.75593 21.6533 2.01833V3.59333H24.3133C25.2922 3.59642 26.2299 3.98743 26.9209 4.68067C27.612 5.3739 28 6.31283 28 7.29167V17.15C28 17.2261 27.9848 17.3014 27.9554 17.3715C27.9259 17.4416 27.8828 17.5052 27.8285 17.5584C27.7741 17.6116 27.7097 17.6535 27.639 17.6815C27.5683 17.7096 27.4927 17.7232 27.4167 17.7217Z" fill="#2C2F40"/>
<path d="M10.7567 7.42H9.33333C8.80517 7.41694 8.29951 7.20577 7.92604 6.83229C7.55257 6.45882 7.34139 5.95316 7.33833 5.425V1.995C7.37687 1.49074 7.60438 1.01962 7.97537 0.675903C8.34635 0.332189 8.83343 0.141229 9.33917 0.141229C9.8449 0.141229 10.332 0.332189 10.703 0.675903C11.0739 1.01962 11.3015 1.49074 11.34 1.995V3.59333H15.75C15.9047 3.59333 16.0531 3.65479 16.1625 3.76419C16.2719 3.87358 16.3333 4.02196 16.3333 4.17667C16.3303 4.33044 16.2679 4.47709 16.1592 4.58584C16.0504 4.6946 15.9038 4.75701 15.75 4.76H10.1733V1.995C10.1491 1.79076 10.0509 1.60249 9.8971 1.46589C9.74336 1.32928 9.54484 1.25382 9.33917 1.25382C9.1335 1.25382 8.93498 1.32928 8.78123 1.46589C8.62748 1.60249 8.5292 1.79076 8.505 1.995V5.425C8.505 5.64469 8.59227 5.85538 8.74761 6.01072C8.90296 6.16606 9.11365 6.25333 9.33333 6.25333H10.7567C10.9104 6.25632 11.0571 6.31874 11.1658 6.42749C11.2746 6.53625 11.337 6.68289 11.34 6.83667C11.34 6.99138 11.2785 7.13975 11.1691 7.24915C11.0597 7.35854 10.9114 7.42 10.7567 7.42Z" fill="#2C2F40"/>
<path d="M23.8467 11.8417H0V7.29167C-4.87035e-06 6.31283 0.388038 5.3739 1.07909 4.68067C1.77014 3.98743 2.70783 3.59642 3.68667 3.59333H5.37833C5.53304 3.59333 5.68142 3.65479 5.79081 3.76419C5.90021 3.87358 5.96167 4.02196 5.96167 4.17667C5.95868 4.33044 5.89626 4.47709 5.78751 4.58584C5.67875 4.6946 5.53211 4.75701 5.37833 4.76H3.68667C3.01725 4.76308 2.3763 5.03117 1.90405 5.50562C1.43179 5.98007 1.16666 6.62224 1.16667 7.29167V10.675H23.8467C24.0014 10.675 24.1497 10.7365 24.2591 10.8459C24.3685 10.9553 24.43 11.1036 24.43 11.2583C24.43 11.413 24.3685 11.5614 24.2591 11.6708C24.1497 11.7802 24.0014 11.8417 23.8467 11.8417Z" fill="#2C2F40"/>
<path d="M16.695 28H3.68667C2.70783 27.9969 1.77014 27.6059 1.07909 26.9127C0.388038 26.2194 -4.87035e-06 25.2805 0 24.3017V14C0 13.8453 0.0614582 13.6969 0.170854 13.5875C0.280251 13.4781 0.428624 13.4167 0.583333 13.4167C0.738043 13.4167 0.886416 13.4781 0.995812 13.5875C1.10521 13.6969 1.16667 13.8453 1.16667 14V24.2783C1.16359 24.6118 1.22642 24.9425 1.35154 25.2516C1.47666 25.5607 1.66161 25.8421 1.89576 26.0795C2.12992 26.3169 2.40867 26.5057 2.71601 26.6351C3.02335 26.7644 3.35321 26.8318 3.68667 26.8333H16.695C16.8497 26.8333 16.9981 26.8948 17.1075 27.0042C17.2169 27.1136 17.2783 27.262 17.2783 27.4167C17.2783 27.5714 17.2169 27.7197 17.1075 27.8291C16.9981 27.9385 16.8497 28 16.695 28Z" fill="#2C2F40"/>
<path d="M22.5401 17.08C21.4602 17.08 20.4046 17.4002 19.5067 18.0001C18.6088 18.6001 17.909 19.4528 17.4957 20.4505C17.0824 21.4482 16.9743 22.546 17.185 23.6052C17.3957 24.6643 17.9157 25.6372 18.6793 26.4008C19.4429 27.1644 20.4158 27.6844 21.4749 27.8951C22.534 28.1057 23.6318 27.9976 24.6295 27.5844C25.6272 27.1711 26.4799 26.4713 27.0799 25.5734C27.6799 24.6755 28.0001 23.6199 28.0001 22.54C28.0016 21.8225 27.8614 21.1118 27.5876 20.4487C27.3137 19.7856 26.9116 19.1831 26.4043 18.6757C25.897 18.1684 25.2945 17.7663 24.6313 17.4925C23.9682 17.2186 23.2575 17.0784 22.5401 17.08Z" fill="#41A15B"/>
<path d="M24.7451 20.9184C24.6182 20.7916 24.4461 20.7203 24.2667 20.7203C24.0873 20.7203 23.9153 20.7916 23.7884 20.9184L22.4701 22.2484H20.8134C20.6339 22.2484 20.4618 22.3197 20.3349 22.4466C20.208 22.5735 20.1367 22.7456 20.1367 22.9251C20.1367 23.1045 20.208 23.2766 20.3349 23.4035C20.4618 23.5304 20.6339 23.6017 20.8134 23.6017H23.0301L24.7451 21.8751C24.8108 21.8139 24.8632 21.7399 24.899 21.6576C24.9349 21.5753 24.9534 21.4865 24.9534 21.3967C24.9534 21.307 24.9349 21.2182 24.899 21.1359C24.8632 21.0536 24.8108 20.9795 24.7451 20.9184Z" fill="white"/>
</g>
<defs>
<clipPath id="clip0">
<rect width="28" height="28" fill="white"/>
</clipPath>
</defs>
</svg>
