<svg width="50" height="51" viewBox="0 0 50 51" fill="none" xmlns="http://www.w3.org/2000/svg">
<path d="M7.16943 40.0823L9.23193 42.1448L13.6694 38.0406" stroke="#E84D40" stroke-width="1.5" stroke-linecap="round" stroke-linejoin="round"/>
<path opacity="0.4" d="M36.9822 15.1875C36.4822 15.1041 35.9614 15.0833 35.4197 15.0833H14.5864C14.0031 15.0833 13.4406 15.125 12.8989 15.2083C13.1906 14.625 13.6073 14.0834 14.1073 13.5834L20.8781 6.79169C23.7322 3.95835 28.3572 3.95835 31.2114 6.79169L34.8572 10.4791C36.1906 11.7916 36.8989 13.4583 36.9822 15.1875Z" stroke="#ACADBC" stroke-width="1.5" stroke-linecap="round" stroke-linejoin="round"/>
<path d="M45.8332 25.5V35.9166C45.8332 42.1666 41.6665 46.3333 35.4165 46.3333H15.8957C16.5415 45.7916 17.104 45.125 17.5415 44.375C18.3123 43.125 18.7498 41.6458 18.7498 40.0833C18.7498 35.4791 15.0207 31.75 10.4165 31.75C7.9165 31.75 5.68734 32.8541 4.1665 34.5833V25.5C4.1665 19.8333 7.58317 15.875 12.8957 15.2083C13.4373 15.125 13.9998 15.0833 14.5832 15.0833H35.4165C35.9582 15.0833 36.479 15.1041 36.979 15.1875C42.354 15.8125 45.8332 19.7916 45.8332 25.5Z" stroke="#ACADBC" stroke-width="1.5" stroke-linecap="round" stroke-linejoin="round"/>
<path d="M18.7502 40.0833C18.7502 41.6458 18.3127 43.125 17.5418 44.375C16.1043 46.7917 13.4585 48.4167 10.4168 48.4167C7.37516 48.4167 4.72933 46.7917 3.29183 44.375C2.521 43.125 2.0835 41.6458 2.0835 40.0833C2.0835 35.4792 5.81266 31.75 10.4168 31.75C15.021 31.75 18.7502 35.4792 18.7502 40.0833Z" stroke="#E84D40" stroke-width="1.5" stroke-miterlimit="10" stroke-linecap="round" stroke-linejoin="round"/>
<path opacity="0.4" d="M45.8332 26.5417H39.5832C37.2915 26.5417 35.4165 28.4167 35.4165 30.7084C35.4165 33 37.2915 34.875 39.5832 34.875H45.8332" stroke="#ACADBC" stroke-width="1.5" stroke-linecap="round" stroke-linejoin="round"/>
</svg>
