<svg width="50" height="51" viewBox="0 0 50 51" fill="none" xmlns="http://www.w3.org/2000/svg">
<path d="M24.9998 40.0834C29.6021 40.0834 33.3332 36.3523 33.3332 31.75C33.3332 27.1477 29.6021 23.4167 24.9998 23.4167C20.3975 23.4167 16.6665 27.1477 16.6665 31.75C16.6665 36.3523 20.3975 40.0834 24.9998 40.0834Z" stroke="#E84D40" stroke-width="1.5" stroke-miterlimit="10" stroke-linecap="round" stroke-linejoin="round"/>
<path d="M21.749 31.7489L23.1032 33.1031C23.499 33.4989 24.1449 33.5198 24.5407 33.1239L28.249 29.7073" stroke="#E84D40" stroke-width="1.5" stroke-linecap="round" stroke-linejoin="round"/>
<path d="M18.7518 46.3334H31.2518C39.6268 46.3334 41.1268 42.9792 41.5643 38.8959L43.1268 26.3959C43.6893 21.3125 42.231 17.1667 33.3352 17.1667H16.6685C7.77267 17.1667 6.31434 21.3125 6.87684 26.3959L8.43934 38.8959C8.87684 42.9792 10.3768 46.3334 18.7518 46.3334Z" stroke="#ACADBC" stroke-width="1.5" stroke-miterlimit="10" stroke-linecap="round" stroke-linejoin="round"/>
<path opacity="0.4" d="M15.625 16.4781V14.4573C15.625 9.76981 19.3958 5.16565 24.0833 4.72815C29.6667 4.18648 34.375 8.58231 34.375 14.0615V16.9365" stroke="#ACADBC" stroke-width="1.5" stroke-miterlimit="10" stroke-linecap="round" stroke-linejoin="round"/>
</svg>
