<svg width="28" height="28" viewBox="0 0 28 28" fill="none" xmlns="http://www.w3.org/2000/svg">
<g clip-path="url(#clip0)">
<path d="M19.1451 28H2.8818C2.49723 27.9939 2.11763 27.9121 1.76467 27.7593C1.41171 27.6065 1.09231 27.3857 0.824714 27.1094C0.557117 26.8332 0.346564 26.5069 0.205081 26.1492C0.0635978 25.7916 -0.0060438 25.4096 0.00013361 25.025V9.04167C0.00013361 8.88696 0.0615918 8.73858 0.170988 8.62919C0.280384 8.51979 0.428757 8.45833 0.583467 8.45833C0.738177 8.45833 0.88655 8.51979 0.995946 8.62919C1.10534 8.73858 1.1668 8.88696 1.1668 9.04167V25.025C1.16059 25.2564 1.20003 25.4867 1.28287 25.7028C1.36571 25.9189 1.49033 26.1166 1.6496 26.2845C1.80886 26.4525 1.99966 26.5874 2.21109 26.6815C2.42252 26.7757 2.65043 26.8273 2.8818 26.8333H19.1451C19.2998 26.8333 19.4482 26.8948 19.5576 27.0042C19.667 27.1136 19.7285 27.262 19.7285 27.4167C19.7285 27.5714 19.667 27.7197 19.5576 27.8291C19.4482 27.9385 19.2998 28 19.1451 28Z" fill="#2C2F40"/>
<path d="M23.4735 16.0883C23.3188 16.0883 23.1704 16.0269 23.061 15.9175C22.9516 15.8081 22.8901 15.6597 22.8901 15.505V3.01C22.9124 2.54648 22.751 2.09289 22.4408 1.74775C22.1306 1.4026 21.6967 1.19379 21.2335 1.16667H6.8718V0H21.2335C22.0061 0.0274071 22.7366 0.359248 23.2655 0.923134C23.7944 1.48702 24.0788 2.23719 24.0568 3.01V15.505C24.0538 15.6588 23.9914 15.8054 23.8826 15.9142C23.7739 16.0229 23.6272 16.0853 23.4735 16.0883Z" fill="#2C2F40"/>
<path d="M19.9851 10.6167H5.42513C5.27136 10.6137 5.12471 10.5513 5.01596 10.4425C4.9072 10.3338 4.84479 10.1871 4.8418 10.0333C4.8418 9.87862 4.90326 9.73025 5.01265 9.62085C5.12205 9.51146 5.27042 9.45 5.42513 9.45H19.9851C20.1398 9.45 20.2882 9.51146 20.3976 9.62085C20.507 9.73025 20.5685 9.87862 20.5685 10.0333C20.5685 10.188 20.507 10.3364 20.3976 10.4458C20.2882 10.5552 20.1398 10.6167 19.9851 10.6167Z" fill="#2C2F40"/>
<path d="M18.8185 14.5833H5.42513C5.27136 14.5803 5.12471 14.5179 5.01596 14.4092C4.9072 14.3004 4.84479 14.1538 4.8418 14C4.8418 13.8453 4.90326 13.6969 5.01265 13.5875C5.12205 13.4781 5.27042 13.4167 5.42513 13.4167H18.8185C18.9732 13.4167 19.1215 13.4781 19.2309 13.5875C19.3403 13.6969 19.4018 13.8453 19.4018 14C19.4018 14.1547 19.3403 14.3031 19.2309 14.4125C19.1215 14.5219 18.9732 14.5833 18.8185 14.5833Z" fill="#2C2F40"/>
<path d="M16.4968 18.55H5.42513C5.27136 18.547 5.12471 18.4846 5.01596 18.3758C4.9072 18.2671 4.84479 18.1204 4.8418 17.9667C4.8418 17.812 4.90326 17.6636 5.01265 17.5542C5.12205 17.4448 5.27042 17.3833 5.42513 17.3833H16.4968C16.6515 17.3833 16.7999 17.4448 16.9093 17.5542C17.0187 17.6636 17.0801 17.812 17.0801 17.9667C17.0771 18.1204 17.0147 18.2671 16.906 18.3758C16.7972 18.4846 16.6506 18.547 16.4968 18.55Z" fill="#2C2F40"/>
<path d="M23.2401 17.1033L19.3084 18.7367C19.1988 18.7807 19.1047 18.8563 19.0382 18.954C18.9717 19.0516 18.9358 19.1669 18.9351 19.285V23.1467C18.9351 25.9233 22.3184 27.545 23.2401 27.93C23.3862 27.9878 23.5489 27.9878 23.6951 27.93C24.6167 27.545 28.0351 25.9233 28.0001 23.1467V19.285C27.9993 19.1669 27.9634 19.0516 27.8969 18.954C27.8304 18.8563 27.7364 18.7807 27.6267 18.7367L23.6951 17.1033C23.6243 17.0684 23.5465 17.0502 23.4676 17.0502C23.3886 17.0502 23.3108 17.0684 23.2401 17.1033Z" fill="#41A15B"/>
<path d="M24.5001 20.7666L22.8551 22.6333L22.3067 22.0733C22.2353 22.001 22.1497 21.944 22.0555 21.9059C21.9612 21.8678 21.8601 21.8493 21.7584 21.8516C21.5568 21.8605 21.3657 21.9436 21.2217 22.085C21.0821 22.2287 21.0039 22.4212 21.0039 22.6216C21.0039 22.8221 21.0821 23.0146 21.2217 23.1583L22.3884 24.325C22.4584 24.4 22.5434 24.4595 22.6379 24.4997C22.7323 24.5399 22.8341 24.5599 22.9367 24.5583H23.0184C23.2086 24.5386 23.384 24.4468 23.5084 24.3016L25.6667 21.7816C25.7987 21.6259 25.8655 21.4254 25.8534 21.2216C25.8389 21.02 25.747 20.8319 25.5967 20.6966C25.5206 20.6284 25.4315 20.5759 25.3349 20.5424C25.2382 20.5089 25.1358 20.495 25.0337 20.5016C24.9316 20.5081 24.8318 20.5349 24.7402 20.5804C24.6486 20.6259 24.567 20.6892 24.5001 20.7666Z" fill="white"/>
<path d="M3.41824 3.40667L6.81324 0H6.92991V6.34667C6.92991 6.49828 6.86968 6.64369 6.76247 6.7509C6.65526 6.8581 6.50986 6.91833 6.35824 6.91833H0.0815751C0.0690856 6.91289 0.0584567 6.90392 0.0509918 6.89252C0.043527 6.88112 0.0395508 6.86779 0.0395508 6.85417C0.0395508 6.84054 0.043527 6.82721 0.0509918 6.81581C0.0584567 6.80442 0.0690856 6.79544 0.0815751 6.79L3.41824 3.40667Z" fill="#41A15B"/>
</g>
<defs>
<clipPath id="clip0">
<rect width="28" height="28" fill="white"/>
</clipPath>
</defs>
</svg>
