<svg width="28" height="28" viewBox="0 0 28 28" fill="none" xmlns="http://www.w3.org/2000/svg">
<g clip-path="url(#clip0)">
<path d="M26.6818 6.86H9.97509C9.9163 6.86 9.85991 6.83665 9.81834 6.79508C9.77677 6.7535 9.75342 6.69712 9.75342 6.63833C9.75342 6.57954 9.77677 6.52316 9.81834 6.48159C9.85991 6.44002 9.9163 6.41667 9.97509 6.41667L25.6318 1.75L26.6818 6.86Z" fill="#41A15B"/>
<path d="M24.325 27.9999H3.675C2.69926 27.9968 1.76453 27.607 1.07567 26.916C0.386809 26.2249 -4.88574e-06 25.289 0 24.3132L0 12.6466C0 12.4918 0.0614582 12.3435 0.170854 12.2341C0.280251 12.1247 0.428624 12.0632 0.583333 12.0632C0.738043 12.0632 0.886416 12.1247 0.995812 12.2341C1.10521 12.3435 1.16667 12.4918 1.16667 12.6466V24.3132C1.16666 24.9796 1.43056 25.6188 1.90063 26.091C2.3707 26.5633 3.00868 26.8301 3.675 26.8332H24.325C24.9913 26.8301 25.6293 26.5633 26.0994 26.091C26.5694 25.6188 26.8333 24.9796 26.8333 24.3132V12.7516C26.8333 12.0863 26.5691 11.4483 26.0987 10.9779C25.6283 10.5075 24.9903 10.2432 24.325 10.2432H2.96333C2.26432 10.1927 1.60557 9.89707 1.10322 9.40838C0.600874 8.91969 0.287181 8.26933 0.217445 7.57198C0.14771 6.87462 0.326408 6.17503 0.722037 5.59654C1.11767 5.01805 1.70482 4.5978 2.38 4.40989L22.085 0.0815531C22.5866 -0.023132 23.1042 -0.0259953 23.607 0.0731331C24.1097 0.172261 24.5875 0.371362 25.0118 0.658622C25.4362 0.945883 25.7985 1.31545 26.0774 1.7454C26.3562 2.17535 26.5458 2.65693 26.635 3.16155L27.195 6.17155C27.2244 6.32626 27.1911 6.48631 27.1025 6.61649C27.0139 6.74668 26.8772 6.83633 26.7225 6.86572C26.5678 6.89512 26.4077 6.86185 26.2776 6.77324C26.1474 6.68463 26.0577 6.54793 26.0283 6.39322L25.4683 3.37155C25.3581 2.72307 25.0135 2.13766 24.5 1.72655C24.1968 1.48967 23.8454 1.32201 23.4706 1.23534C23.0957 1.14868 22.7064 1.14511 22.33 1.22489L2.625 5.48322C2.21325 5.56671 1.84306 5.79008 1.57724 6.11543C1.31143 6.44079 1.16637 6.84809 1.16667 7.26822C1.16667 7.74473 1.35596 8.20172 1.6929 8.53866C2.02984 8.8756 2.48683 9.06489 2.96333 9.06489H24.325C25.3007 9.06798 26.2355 9.45775 26.9243 10.1488C27.6132 10.8399 28 11.7758 28 12.7516V24.3132C28 25.289 27.6132 26.2249 26.9243 26.916C26.2355 27.607 25.3007 27.9968 24.325 27.9999Z" fill="#2C2F40"/>
<path d="M22.085 20.86C23.3737 20.86 24.4184 19.8154 24.4184 18.5267C24.4184 17.238 23.3737 16.1934 22.085 16.1934C20.7964 16.1934 19.7517 17.238 19.7517 18.5267C19.7517 19.8154 20.7964 20.86 22.085 20.86Z" fill="#41A15B"/>
</g>
<defs>
<clipPath id="clip0">
<rect width="28" height="28" fill="white"/>
</clipPath>
</defs>
</svg>
