<?xml version="1.0" encoding="utf-8"?>
<!-- Generator: Adobe Illustrator 25.4.1, SVG Export Plug-In . SVG Version: 6.00 Build 0)  -->
<svg version="1.1" xmlns="http://www.w3.org/2000/svg" xmlns:xlink="http://www.w3.org/1999/xlink" x="0px" y="0px"
	 viewBox="0 0 2000 2000" style="enable-background:new 0 0 2000 2000;" xml:space="preserve">
<style type="text/css">
	.st0{fill:none;stroke:#FFFFFF;stroke-width:6.6964;stroke-miterlimit:10;}
	.st1{fill:none;stroke:#FFFFFF;stroke-width:1.6741;stroke-miterlimit:10;}
	.st2{fill:none;stroke:#FFFFFF;stroke-width:5.0223;stroke-miterlimit:10;}
	.st3{fill:none;stroke:#FFFFFF;stroke-width:5.2345;stroke-miterlimit:10;}
	.st4{fill:#DFC0FD;}
</style>
<g id="stroke">
	<g>
		<polygon class="st0" points="65.3,713.8 443,250.6 1000.2,34.5 1557.4,250.6 1935.1,713.8 1901.8,1310.5 1578,1812.8 
			1000.2,1965.5 422.4,1812.8 98.6,1310.5 		"/>
		<polygon class="st1" points="385.9,823.9 1000.2,376.4 1614.4,823.9 1380.9,1546.6 621,1546.6 		"/>
		<line class="st2" x1="1000.2" y1="34.5" x2="1000.2" y2="376.4"/>
		<line class="st2" x1="1557.4" y1="250.6" x2="1339" y2="558.7"/>
		<line class="st2" x1="1935.1" y1="713.8" x2="1614.4" y2="823.9"/>
		<line class="st2" x1="1901.8" y1="1310.5" x2="1549.2" y2="1204.7"/>
		<line class="st2" x1="1578" y1="1812.8" x2="1380.9" y2="1546.6"/>
		<line class="st2" x1="1000.2" y1="1965.5" x2="1000.2" y2="1604.7"/>
		<line class="st2" x1="422.4" y1="1812.8" x2="621" y2="1546.6"/>
		<line class="st2" x1="98.6" y1="1310.5" x2="451.1" y2="1204.7"/>
		<line class="st2" x1="65.3" y1="713.8" x2="385.9" y2="823.9"/>
		<line class="st2" x1="443" y1="250.6" x2="659.9" y2="558.7"/>
		<line class="st3" x1="720" y1="1860" x2="821.4" y2="1570.2"/>
		<polygon class="st0" points="1451.2,1352.6 827.3,1552.5 445.8,1019.9 832.7,491.7 1454.5,697.5 		"/>
		<line class="st3" x1="735.8" y1="180.4" x2="827" y2="470.2"/>
		<line class="st3" x1="1719.1" y1="510" x2="1471.8" y2="683.6"/>
		<line class="st3" x1="1710.1" y1="1548.9" x2="1468.4" y2="1362.9"/>
		<line class="st3" x1="118" y1="1014.9" x2="425.9" y2="1014.9"/>
		<line class="st3" x1="1271.4" y1="212" x2="1155.4" y2="558.7"/>
		<line class="st3" x1="1854.2" y1="1030" x2="1491.7" y2="1030"/>
		<line class="st3" x1="1256.7" y1="1836" x2="1148.7" y2="1496.4"/>
		<line class="st3" x1="304.3" y1="1518.9" x2="596.4" y2="1310.5"/>
		<line class="st3" x1="313.1" y1="514.2" x2="604.3" y2="730.6"/>
		<polygon class="st1" points="118,1014.9 313.1,514.2 735.5,180.4 1271.4,212 1719.1,510 1854.8,1030 1710.1,1548.9 1257.2,1837.7 
			720,1860 304.3,1518.9 		"/>
	</g>
</g>
<g id="fill">
	<path class="st4" d="M1000.2,69c19.1,0,34.5-15.4,34.5-34.5S1019.3,0,1000.2,0s-34.5,15.4-34.5,34.5S981.2,69,1000.2,69z
		 M1000.2,1931c-19.1,0-34.5,15.4-34.5,34.5c0,19.1,15.4,34.5,34.5,34.5s34.5-15.4,34.5-34.5C1034.7,1946.4,1019.3,1931,1000.2,1931
		z M1557.4,276.5c14.3,0,25.9-11.6,25.9-25.9c0-14.3-11.6-25.9-25.9-25.9c-14.3,0-25.9,11.6-25.9,25.9
		C1531.5,264.9,1543.1,276.5,1557.4,276.5z M1935.1,687.9c-14.3,0-25.9,11.6-25.9,25.9c0,14.3,11.6,25.9,25.9,25.9
		c14.3,0,25.9-11.6,25.9-25.9C1961,699.5,1949.4,687.9,1935.1,687.9z M1901.8,1284.6c-14.3,0-25.9,11.6-25.9,25.9
		c0,14.3,11.6,25.9,25.9,25.9s25.9-11.6,25.9-25.9C1927.7,1296.2,1916.1,1284.6,1901.8,1284.6z M1578,1786.9
		c-14.3,0-25.9,11.6-25.9,25.9c0,14.3,11.6,25.9,25.9,25.9c14.3,0,25.9-11.6,25.9-25.9C1603.9,1798.5,1592.3,1786.9,1578,1786.9z
		 M422.4,1786.9c-14.3,0-25.9,11.6-25.9,25.9c0,14.3,11.6,25.9,25.9,25.9c14.3,0,25.9-11.6,25.9-25.9
		C448.2,1798.5,436.7,1786.9,422.4,1786.9z M98.6,1284.6c-14.3,0-25.9,11.6-25.9,25.9c0,14.3,11.6,25.9,25.9,25.9
		c14.3,0,25.9-11.6,25.9-25.9C124.5,1296.2,112.9,1284.6,98.6,1284.6z M91.2,713.8c0-14.3-11.6-25.9-25.9-25.9
		c-14.3,0-25.9,11.6-25.9,25.9c0,14.3,11.6,25.9,25.9,25.9C79.6,739.6,91.2,728,91.2,713.8z M443,276.5c14.3,0,25.9-11.6,25.9-25.9
		c0-14.3-11.6-25.9-25.9-25.9s-25.9,11.6-25.9,25.9C417.1,264.9,428.7,276.5,443,276.5z M694.4,558.7c0-19.1-15.4-34.5-34.5-34.5
		s-34.5,15.4-34.5,34.5c0,19.1,15.4,34.5,34.5,34.5S694.4,577.8,694.4,558.7z M1373.5,558.7c0-19.1-15.4-34.5-34.5-34.5
		c-19.1,0-34.5,15.4-34.5,34.5c0,19.1,15.4,34.5,34.5,34.5C1358.1,593.2,1373.5,577.8,1373.5,558.7z M1583.7,1204.7
		c0-19.1-15.4-34.5-34.5-34.5c-19.1,0-34.5,15.4-34.5,34.5s15.4,34.5,34.5,34.5C1568.3,1239.2,1583.7,1223.7,1583.7,1204.7z
		 M1000.2,1570.2c-19.1,0-34.5,15.4-34.5,34.5c0,19.1,15.4,34.5,34.5,34.5s34.5-15.4,34.5-34.5
		C1034.7,1585.6,1019.3,1570.2,1000.2,1570.2z M451.1,1170.2c-19.1,0-34.5,15.4-34.5,34.5s15.4,34.5,34.5,34.5s34.5-15.4,34.5-34.5
		S470.2,1170.2,451.1,1170.2z M411.8,823.9c0-14.3-11.6-25.9-25.9-25.9c-14.3,0-25.9,11.6-25.9,25.9c0,14.3,11.6,25.9,25.9,25.9
		C400.2,849.8,411.8,838.2,411.8,823.9z M1000.2,350.5c-14.3,0-25.9,11.6-25.9,25.9c0,14.3,11.6,25.9,25.9,25.9
		c14.3,0,25.9-11.6,25.9-25.9C1026.1,362.1,1014.5,350.5,1000.2,350.5z M1614.4,798c-14.3,0-25.9,11.6-25.9,25.9
		c0,14.3,11.6,25.9,25.9,25.9c14.3,0,25.9-11.6,25.9-25.9C1640.3,809.6,1628.7,798,1614.4,798z M1380.9,1520.7
		c-14.3,0-25.9,11.6-25.9,25.9c0,14.3,11.6,25.9,25.9,25.9c14.3,0,25.9-11.6,25.9-25.9C1406.8,1532.3,1395.2,1520.7,1380.9,1520.7z
		 M620.3,1520.7c-14.3,0-25.9,11.6-25.9,25.9c0,14.3,11.6,25.9,25.9,25.9c14.3,0,25.9-11.6,25.9-25.9
		C646.2,1532.3,634.6,1520.7,620.3,1520.7z M721.5,1838.2c-12.1,0-21.8,9.8-21.8,21.8s9.8,21.8,21.8,21.8c12.1,0,21.8-9.8,21.8-21.8
		S733.5,1838.2,721.5,1838.2z M313.1,492.4c-12.1,0-21.8,9.8-21.8,21.8c0,12.1,9.8,21.8,21.8,21.8s21.8-9.8,21.8-21.8
		C334.9,502.2,325.1,492.4,313.1,492.4z M735.8,202.2c12.1,0,21.8-9.8,21.8-21.8c0-12.1-9.8-21.8-21.8-21.8s-21.8,9.8-21.8,21.8
		C714,192.5,723.7,202.2,735.8,202.2z M1155.4,596.2c20.7,0,37.5-16.8,37.5-37.5c0-20.7-16.8-37.5-37.5-37.5
		c-20.7,0-37.5,16.8-37.5,37.5C1117.8,579.4,1134.6,596.2,1155.4,596.2z M1454.1,1030c0,20.7,16.8,37.5,37.5,37.5
		c20.7,0,37.5-16.8,37.5-37.5c0-20.7-16.8-37.5-37.5-37.5C1470.9,992.5,1454.1,1009.3,1454.1,1030z M1148.7,1459.5
		c-20.7,0-37.5,16.8-37.5,37.5s16.8,37.5,37.5,37.5c20.7,0,37.5-16.8,37.5-37.5S1169.4,1459.5,1148.7,1459.5z M633.9,1310.5
		c0-20.7-16.8-37.5-37.5-37.5c-20.7,0-37.5,16.8-37.5,37.5c0,20.7,16.8,37.5,37.5,37.5C617.1,1348,633.9,1331.2,633.9,1310.5z
		 M604.3,768.1c20.7,0,37.5-16.8,37.5-37.5c0-20.7-16.8-37.5-37.5-37.5s-37.5,16.8-37.5,37.5C566.8,751.3,583.6,768.1,604.3,768.1z
		 M1272.5,190.5c-12.1,0-21.8,9.8-21.8,21.8s9.8,21.8,21.8,21.8s21.8-9.8,21.8-21.8S1284.6,190.5,1272.5,190.5z M1719.8,488.7
		c-12.1,0-21.8,9.8-21.8,21.8s9.8,21.8,21.8,21.8s21.8-9.8,21.8-21.8S1731.9,488.7,1719.8,488.7z M1854.8,1008.2
		c-12.1,0-21.8,9.8-21.8,21.8s9.8,21.8,21.8,21.8s21.8-9.8,21.8-21.8S1866.9,1008.2,1854.8,1008.2z M1709.9,1527.3
		c-12.1,0-21.8,9.8-21.8,21.8s9.8,21.8,21.8,21.8s21.8-9.8,21.8-21.8S1722,1527.3,1709.9,1527.3z M1257.9,1816.3
		c-12.1,0-21.8,9.8-21.8,21.8s9.8,21.8,21.8,21.8s21.8-9.8,21.8-21.8S1269.9,1816.3,1257.9,1816.3z M304.4,1497
		c-12.1,0-21.8,9.8-21.8,21.8s9.8,21.8,21.8,21.8s21.8-9.8,21.8-21.8S316.4,1497,304.4,1497z M118,993.4c-12.1,0-21.8,9.8-21.8,21.8
		S106,1037,118,1037s21.8-9.8,21.8-21.8S130.1,993.4,118,993.4z M834.3,542.4c27.6,0,50-22.4,50-50c0-27.6-22.4-50-50-50
		c-27.6,0-50,22.4-50,50C784.3,520,806.7,542.4,834.3,542.4z M1454.5,747.5c27.6,0,50-22.4,50-50c0-27.6-22.4-50-50-50
		c-27.6,0-50,22.4-50,50C1404.5,725.1,1426.9,747.5,1454.5,747.5z M1451.2,1302.8c-27.6,0-50,22.4-50,50c0,27.6,22.4,50,50,50
		c27.6,0,50-22.4,50-50C1501.2,1325.2,1478.8,1302.8,1451.2,1302.8z M827.1,1502.5c-27.6,0-50,22.4-50,50c0,27.6,22.4,50,50,50
		s50-22.4,50-50C877.1,1524.9,854.7,1502.5,827.1,1502.5z M445.8,964.8c-27.6,0-50,22.4-50,50c0,27.6,22.4,50,50,50
		c27.6,0,50-22.4,50-50C495.9,987.2,473.5,964.8,445.8,964.8z M1013.8,829.7c58.2,0,110.2,26.5,144.6,68.1
		c9.1,11,24.9,13.8,37.1,6.3l76.3-46.8c14.5-8.9,18-28.4,7.7-41.9c-61.8-81.2-159.9-133.2-270.2-131.7
		C828.4,686,681.3,834.1,680,1015c-1.3,185.5,148.6,336.2,333.8,336.2c105.7,0,200-49.2,261.2-125.9c10.4-13,7.4-32.1-6.3-41.5
		l-73.9-50.1c-12.1-8.2-28.4-5.9-37.9,5.3c-35.9,42.3-90.2,68.4-150.6,66c-96.3-3.8-174.8-81.2-179.9-177.4
		C820.6,919.3,906.7,829.7,1013.8,829.7z"/>
</g>
</svg>
