<?xml version="1.0" encoding="utf-8"?>
<!-- Generator: Adobe Illustrator 26.3.1, SVG Export Plug-In . SVG Version: 6.00 Build 0)  -->
<svg version="1.1" id="Слой_1" xmlns="http://www.w3.org/2000/svg" xmlns:xlink="http://www.w3.org/1999/xlink" x="0px" y="0px"
	 viewBox="0 0 834 745" style="enable-background:new 0 0 834 745;" xml:space="preserve">
<style type="text/css">
	.st0{fill:#F2F2F2;}
	.st1{fill:none;stroke:#000000;stroke-width:3;stroke-miterlimit:10;}
	.st2{fill:none;stroke:#000000;stroke-width:3;stroke-linecap:round;stroke-miterlimit:10;}
	.st3{fill:none;stroke:#000000;stroke-width:7;stroke-linecap:round;stroke-miterlimit:10;}
</style>
<g id="Layer_2">
	<g id="vector">
		<path class="st0" d="M730.8,333.2c8,9.3,16.3,19.9,24.6,31.6c0-0.5,0-1,0-1.5c-0.4-14.3-0.2-28.9,0.4-43.8
			C747.7,325.8,739.2,330.7,730.8,333.2z"/>
		<path class="st0" d="M562.6,299.4c80.8,0,107-9,116.1-9h0.2c14.3-6.7,41.6-27.6,41.6-63c0-5.4-4.2-39-48.4-39
			c-4.8,0-11.7,3.6-12.9,3.6s-3.2-6.7-3.2-11.5s13-55.8,64.2-55.8c8.8,0,24.4,4.1,40.1,13.4c-3-24.2-9.1-46.2-20.2-64.6
			c-41.5-69.3-154-88.3-244.9-62.3c-87.6,25.3-155,92.4-234,152.9C281,225.6,319,299.4,562.6,299.4z"/>
		<path class="st0" d="M742.3,662.7c0-2.6,12.4-11.8,19-18.3c1.4-2.4,2.7-4.9,3.9-7.4c-1.8-57.8-85.8-150.1-372.2-178.2l50.6,204
			h-94.7l22.7-15.3c0,0-158.8-247-173.7-271.2c-10.7-15.9-52.1-85.9-69.6-96.9c-4.5-2.7-9.1-5.1-13.9-7.1
			c-34.8,29.1-65.1,61.1-85.2,100c-45.1,86.9-39.2,207.9,28,265s195.4,50.3,297,64.7c101.5,14.6,176.4,50.1,250.9,41.7
			c56-6.3,111.7-37.3,144.4-81L742.3,662.7z"/>
		<path d="M246.8,450.7c-13.2-0.2-26.7-0.3-40.5-0.3c-10,0-19.6,1.1-19.6,3.7s15.2,40,17,41.8s20.4,4.2,20.4,14.8
			c0,5.2-1.9,26.6-25.5,26.6c-31.1,0-96.2-106.5-96.2-140.3c10.4-4.1,95.5-20.8,95.5-20.8"/>
		<path d="M187,123.2c10.1-3.2,67.2-5.6,94.1,7.3c0,54.2-14.1,128.4-59.8,123.5C181.7,249.8,161.1,186.2,187,123.2z"/>
		<path class="st1" d="M90.1,217.1c4.5,8.3,40.6,60.5,64.6,51.2c16.1-6.2-4.5-55.5-13.8-66.9C135.1,204.6,106.4,215.5,90.1,217.1z"
			/>
		<path class="st1" d="M119,210.6c2.4,4.3,6.2,11.1,12.4,20.2"/>
		<path class="st2" d="M14.8,188.7c17,29.2,70.6,42.9,131.2,10.1"/>
		<ellipse cx="31" cy="141.4" rx="20.8" ry="9.3"/>
		<ellipse cx="132.8" cy="135.2" rx="6.1" ry="11.6"/>
		<path class="st1" d="M730.8,333.2c39.7-11.8,79.8-74.8,79.8-107.3c0-74.1-67.5-101.2-90.3-101.2c-51.2,0-64.2,51-64.2,55.8
			s2.1,11.5,3.2,11.5s8.1-3.6,12.9-3.6c44.2,0,48.4,33.6,48.4,39c0,35.4-27.4,56.2-41.6,63h-0.2c-9,0-35.3,9-116.1,9
			c-417.8,0-230.8-217.1-384.5-217.1c-49.9,0-77.3,64.6-100.6,64.6c-5.9,0-45.9-7-49.6-7s-16.7,5.6-16.7,17.8
			c0,94.8,82.1,99.9,117,121.8c17.5,11,58.8,81,69.6,96.9c14.9,24.2,173.7,271.2,173.7,271.2l-22.7,15.3h94.7l-50.6-204
			c289.4,28.4,372.2,122.5,372.2,180.1c0,4.7-22.8,20.3-22.8,23.9h84.2c1.5-4.5,6-43.7,6-89C832.5,481.2,776.3,386.3,730.8,333.2z"
			/>
		<path class="st3" d="M166.5,327.5c17.2-5.6,94.6-41.4,133-95"/>
		<path d="M599.5,498.8c-0.1,7-19.2,147.6-19.2,147.6l-22,16.3h76.8c0,0,14.6-67.5,64.7-117.1C675.1,528.9,642.2,512.8,599.5,498.8z
			"/>
	</g>
</g>
</svg>
