<?xml version="1.0" encoding="utf-8"?>
<!-- Generator: Adobe Illustrator 25.4.1, SVG Export Plug-In . SVG Version: 6.00 Build 0)  -->
<svg version="1.1" id="Spilnota" xmlns="http://www.w3.org/2000/svg" xmlns:xlink="http://www.w3.org/1999/xlink" x="0px" y="0px"
	 viewBox="0 0 2000 2000" style="enable-background:new 0 0 2000 2000;" xml:space="preserve">
<style type="text/css">
	.st0{fill:#BA90E3;}
</style>
<path class="st0" d="M1935.1,687.9c-5,0-9.6,1.4-13.6,3.9l-345.3-423.4c4.4-4.6,7-10.9,7-17.7c0-14.3-11.6-25.9-25.9-25.9
	c-9.8,0-18.3,5.4-22.7,13.5L1033.4,43.8c0.8-3,1.3-6.1,1.3-9.3c0-19.1-15.4-34.5-34.5-34.5s-34.5,15.4-34.5,34.5
	c0,3.2,0.5,6.3,1.3,9.3L465.7,238.2c-4.4-8-12.9-13.5-22.7-13.5c-14.3,0-25.9,11.6-25.9,25.9c0,6.9,2.7,13.1,7.1,17.8L78.9,691.8
	c-4-2.5-8.6-3.9-13.6-3.9c-14.3,0-25.9,11.6-25.9,25.9c0,13.6,10.6,24.8,24,25.8L93.9,1285c-12,2.2-21.1,12.8-21.1,25.4
	c0,14.3,11.6,25.9,25.9,25.9c4,0,7.7-0.9,11.1-2.5L405.7,1793c-5.6,4.7-9.2,11.8-9.2,19.8c0,14.3,11.6,25.9,25.9,25.9
	c10.8,0,20.1-6.7,24-16.1L966.2,1960c-0.3,1.8-0.4,3.7-0.4,5.5c0,19.1,15.4,34.5,34.5,34.5s34.5-15.4,34.5-34.5
	c0-1.9-0.2-3.7-0.4-5.5l519.8-137.4c3.9,9.4,13.1,16.1,24,16.1c14.3,0,25.9-11.6,25.9-25.9c0-7.9-3.6-15-9.2-19.7l296-459.2
	c3.4,1.6,7.1,2.5,11.1,2.5c14.3,0,25.9-11.6,25.9-25.9c0-12.7-9.1-23.2-21.1-25.4l30.5-545.5c13.4-1,23.9-12.2,23.9-25.8
	C1961,699.5,1949.4,687.9,1935.1,687.9z M1557.4,276.5c5,0,9.7-1.4,13.7-3.9L1916.3,696c-4.4,4.6-7.1,10.9-7.1,17.8
	c0,2.1,0.2,4.1,0.7,6l-124,42.6l-60.2-230.8c9.2-2.5,16-11,16-21c0-12.1-9.8-21.8-21.8-21.8c-7.3,0-13.7,3.6-17.7,9l-215.3-143.3
	l57.7-81.4C1548.3,275.2,1552.7,276.5,1557.4,276.5z M1549.2,1170.2c-19.1,0-34.5,15.4-34.5,34.5s15.4,34.5,34.5,34.5
	c14.7,0,27.3-9.2,32.2-22.2l203.3,61l-69.7,249.9c-1.7-0.4-3.4-0.6-5.2-0.6c-6,0-11.4,2.4-15.4,6.3l-200.8-154.4
	c4.7-7.6,7.5-16.7,7.5-26.3c0-24.5-17.7-44.9-41-49.2l87.6-271h285.3c1,8.6,7,15.6,15,18.2l-62,222.3l-203.3-61
	c0.5-2.4,0.8-4.9,0.8-7.5C1583.7,1185.6,1568.3,1170.2,1549.2,1170.2z M1691,1560l-201.8,128.7l-91-122.9c5.2-4.7,8.5-11.6,8.5-19.2
	c0-11.2-7.1-20.8-17.1-24.4l40.1-124.2c6.5,3.1,13.8,4.8,21.4,4.8c16.1,0,30.4-7.6,39.6-19.4l200.5,154.2c-2,3.3-3.2,7.2-3.2,11.4
	C1688.1,1553.1,1689.1,1556.8,1691,1560z M1148.7,1459.5c-20.7,0-37.5,16.8-37.5,37.5s16.8,37.5,37.5,37.5c3.1,0,6.1-0.4,9-1.1
	l3.9,12.3h-285c-0.2-1.8-0.6-3.5-1-5.2l529-169.5c4.4,11.4,12.9,20.7,23.6,26.2l-40.2,124.4c-2.3-0.7-4.7-1-7.2-1
	c-14,0-25.4,11.1-25.9,25h-187.9l-4.4-13.9c13.8-5.5,23.5-19,23.5-34.8C1186.2,1476.3,1169.4,1459.5,1148.7,1459.5z M451.1,1170.2
	c-19.1,0-34.5,15.4-34.5,34.5c0,2.6,0.3,5.1,0.8,7.5l-203.1,61l-87.9-237.8c7.2-3,12.4-9.8,13.2-17.9h256.1
	c1.4,26.4,23.2,47.4,50,47.4c5.9,0,11.5-1,16.7-2.9l90,276.5l-232,165.6c-4-4.4-9.7-7.1-16.1-7.1c-2.4,0-4.7,0.4-6.8,1.1
	l-81.4-220.3l202.8-60.9c5,13,17.5,22.2,32.2,22.2c19.1,0,34.5-15.4,34.5-34.5S470.2,1170.2,451.1,1170.2z M659.9,593.2
	c19.1,0,34.5-15.4,34.5-34.5c0-19.1-15.4-34.5-34.5-34.5c-6.5,0-12.6,1.8-17.8,4.9l-123.9-176l200.8-158.7c4,4.8,10,7.8,16.7,7.8
	c1.4,0,2.7-0.1,4-0.4l76.7,243.8c-18.8,7.2-32.2,25.4-32.2,46.8c0,12.1,4.3,23.2,11.4,31.9l-234.7,171L332.1,525
	c1.8-3.2,2.8-6.9,2.8-10.8c0-4.8-1.6-9.3-4.2-12.9l183.6-145.1L638,532c-7.7,6.3-12.6,15.9-12.6,26.7
	C625.4,577.8,640.8,593.2,659.9,593.2z M978.8,390.9l-102.3,74.5c-8.9-13.9-24.4-23.1-42.1-23.1c-4.4,0-8.7,0.6-12.8,1.7
	l-76.7-243.7c6.9-3.1,11.9-9.8,12.7-17.7l240.2,14.2l0,153.9c-13.1,1.3-23.3,12.3-23.3,25.8C974.3,381.7,976,386.7,978.8,390.9z
	 M596.4,1272.9c-20.7,0-37.5,16.8-37.5,37.5c0,7.2,2,13.9,5.5,19.6l-10.5,7.5l-89.8-276.1c1.9-0.7,3.8-1.6,5.6-2.6l325.8,454.9
	c-9.6,7.8-16.2,19.1-17.9,32H646.2c-0.4-13.9-11.8-25-25.9-25c-2.3,0-4.5,0.3-6.6,0.8l-58.2-178.8l11.8-8.4
	c6.9,8.3,17.3,13.6,29,13.6c20.7,0,37.5-16.8,37.5-37.5C633.9,1289.7,617.1,1272.9,596.4,1272.9z M445.8,964.8
	c-4.4,0-8.6,0.6-12.6,1.6l-38.5-118.2c10-3.6,17.1-13.1,17.1-24.3c0-5.4-1.7-10.4-4.5-14.6l150.8-109.8l14.6,10.9
	c-3.7,5.8-5.9,12.8-5.9,20.2c0,20.7,16.8,37.5,37.5,37.5s37.5-16.8,37.5-37.5c0-20.7-16.8-37.5-37.5-37.5
	c-11.4,0-21.6,5.1-28.5,13.1l-13.3-9.9l234.4-170.7c1.2,1.4,2.6,2.7,4,4L475.1,974.3C466.8,968.3,456.7,964.8,445.8,964.8z
	 M556.7,698.5L406.3,808c-4.7-6.1-12.1-10-20.4-10c-10.5,0-19.5,6.2-23.5,15.1L217,763.2l89-228.3c2.2,0.8,4.6,1.2,7.1,1.2
	c6.3,0,11.9-2.6,15.9-6.8L556.7,698.5z M360.7,817.9c-0.5,1.9-0.7,3.9-0.7,6c0,14.3,11.6,25.9,25.9,25.9c2.5,0,4.9-0.4,7.2-1
	l38.4,118.2c-19.9,5.9-34.6,23.8-35.7,45.3H139.6c-1-7.7-6.1-14.1-13-17.1l88.5-227.3L360.7,817.9z M323.5,1508.4l230.6-164.6
	l58,178.2c-10.3,3.4-17.7,13.1-17.7,24.6c0,7.8,3.4,14.8,8.9,19.5l-91.2,122.3l-190.4-156.3c2.8-3.7,4.5-8.3,4.5-13.2
	C326.2,1515.1,325.2,1511.5,323.5,1508.4z M607.4,1569c3.8,2.2,8.2,3.4,12.9,3.4c14,0,25.4-11.1,25.9-25h131.1
	c-0.2,1.7-0.3,3.4-0.3,5.1c0,21.1,13.1,39.1,31.5,46.5l-83.8,239.4c-1.1-0.2-2.2-0.2-3.3-0.2c-6.8,0-13,3.2-17,8.1L516,1691.5
	L607.4,1569z M800.9,1509.9l-325.6-454.6c12.5-9.1,20.6-23.8,20.6-40.4c0-14.3-6-27.2-15.6-36.3l325.8-444.9
	c8,5.5,17.8,8.8,28.3,8.8c21,0,39-13,46.4-31.3L1406,685c-1,4-1.6,8.2-1.6,12.5c0,26.4,20.5,48,46.4,49.9l-2.8,555.5
	c-26.2,1.6-46.9,23.3-46.9,49.9c0,4.1,0.5,8,1.4,11.8l-529,169.5c-7.3-18.5-25.4-31.7-46.5-31.7
	C817.5,1502.5,808.5,1505.2,800.9,1509.9z M1169.7,524l6.2-18.6l233.6,170.2c-0.5,1-0.9,2-1.3,3l-249.5-82.6
	c19.2-1.7,34.2-17.8,34.2-37.4C1192.9,543.1,1183.3,529.7,1169.7,524z M1339,593.2c19.1,0,34.5-15.4,34.5-34.5
	c0-10.7-4.9-20.3-12.6-26.6l124.9-176.3l215.3,143.3c-2,3.3-3.2,7.2-3.2,11.4c0,3.4,0.8,6.7,2.2,9.6L1493,665.5
	c-9.2-11.1-23-18.1-38.5-18.1c-19.2,0-35.9,10.8-44.2,26.7l-233.8-170.3l90.5-270.4c1.8,0.5,3.6,0.7,5.6,0.7
	c7.1,0,13.5-3.4,17.4-8.7L1481.7,353l-124.8,176.1c-5.2-3.2-11.3-5-17.9-5c-19.1,0-34.5,15.4-34.5,34.5
	C1304.5,577.8,1320,593.2,1339,593.2z M1529.1,1027.4c-1.3-19.5-17.6-34.9-37.4-34.9c-16.4,0-30.3,10.5-35.4,25.1l1.4-270.2
	c12.2-0.7,23.2-5.9,31.5-13.8l103.9,75.7c-2.8,4.1-4.5,9.2-4.5,14.6c0,11.2,7.1,20.8,17.1,24.4l-57.9,179.2H1529.1z M1546.1,1032.6
	l-87.5,270.7c-1.3-0.2-2.5-0.3-3.8-0.4l1.3-260.9c5,14.8,19,25.5,35.6,25.5c19.8,0,36.1-15.4,37.4-34.9H1546.1z M1594,808
	l-103.7-75.6c8.8-9,14.2-21.3,14.2-34.9c0-10.3-3.1-19.8-8.4-27.7l206.9-145.2c4,4.8,10,7.8,16.8,7.8c1.4,0,2.8-0.1,4.2-0.4
	l60.3,231L1638,813.2c-4.1-8.9-13.1-15.1-23.5-15.1C1606.1,798,1598.7,801.9,1594,808z M1355,1547.4c0.4,13.9,11.8,25,25.9,25
	c4.9,0,9.4-1.3,13.3-3.7l90.8,122.6l-209.6,133.7c-4-5.3-10.3-8.8-17.5-8.8c-1.6,0-3.1,0.2-4.6,0.5l-85.6-269.4H1355z
	 M1833.2,1027.4h-283.6l57.7-178.6c2.3,0.7,4.7,1,7.2,1c14.3,0,25.9-11.6,25.9-25.9c0-2.1-0.2-4.1-0.7-6l145.9-50.1l63,241.3
	C1840.3,1011.6,1834.2,1018.7,1833.2,1027.4z M1002.7,68.9c12.4-0.9,23-8.3,28.3-18.9l501.2,194.4c-0.5,2-0.7,4-0.7,6.2
	c0,7.8,3.5,14.8,9,19.6l-57.8,81.5l-191.8-127.6c2.2-3.4,3.4-7.4,3.4-11.7c0-12.1-9.8-21.8-21.8-21.8c-11.3,0-20.5,8.5-21.7,19.5
	l-248.1-14.7L1002.7,68.9z M1002.7,197l248,14.6c0,0.2,0,0.4,0,0.7c0,8.3,4.6,15.5,11.4,19.2l-90,269.1l-150.5-109.6
	c2.8-4.2,4.5-9.2,4.5-14.6c0-13.5-10.3-24.5-23.4-25.8L1002.7,197z M1020.6,392.3l150.9,109.9l-6.7,20.1c-3-0.8-6.2-1.2-9.4-1.2
	c-20.7,0-37.5,16.8-37.5,37.5c0,11.1,4.9,21.1,12.6,28l-247.6-81.9c1-4,1.5-8.1,1.5-12.4c0-9.3-2.6-18.1-7-25.5l102.4-74.6
	c4.7,6.1,12.1,10,20.4,10C1008.5,402.2,1015.9,398.3,1020.6,392.3z M468.9,250.6c0-2.1-0.3-4.2-0.7-6.2L969.4,50
	c5.3,10.5,15.9,18,28.3,18.9l0,126.1l-240.1-14.2c0-0.2,0-0.3,0-0.5c0-12.1-9.8-21.8-21.8-21.8s-21.8,9.8-21.8,21.8
	c0,4.7,1.5,9.1,4.1,12.7L517.3,351.8l-57.4-81.5C465.4,265.5,468.9,258.5,468.9,250.6z M429.4,272.6c4,2.5,8.6,3.9,13.6,3.9
	c4.6,0,9-1.2,12.8-3.4l57.6,81.8L329.7,500c-4-4.7-9.9-7.6-16.6-7.6c-12.1,0-21.8,9.8-21.8,21.8c0,9,5.4,16.7,13.1,20l-89,228.4
	L90.5,719.7c0.5-1.9,0.7-3.9,0.7-6c0-6.9-2.7-13.1-7.1-17.8L429.4,272.6z M100.6,1284.7L70.1,739.2c8.4-1.6,15.3-7.2,18.8-14.7
	l124.7,42.8L125,994.5c-2.2-0.7-4.6-1.2-7-1.2c-12.1,0-21.8,9.8-21.8,21.8S106,1037,118,1037c2.4,0,4.7-0.4,6.9-1.1l87.9,237.7
	l-90.2,27.1C119,1291.8,110.5,1285.4,100.6,1284.7z M422.4,1786.9c-4,0-7.7,0.9-11.1,2.5l-296-459.2c5.6-4.7,9.2-11.8,9.2-19.8
	c0-1.7-0.2-3.4-0.5-5l90.5-27.2l81.5,220.4c-7.9,3.3-13.5,11.1-13.5,20.2c0,12.1,9.8,21.8,21.8,21.8c6.5,0,12.3-2.8,16.3-7.3
	l190.5,156.3l-75.4,101C431.9,1788.3,427.3,1786.9,422.4,1786.9z M967.9,1953.5L448,1816.1c0.1-1.1,0.2-2.2,0.2-3.3
	c0-7.6-3.3-14.4-8.4-19.1l75.2-100.8l188.5,154.7c-2.4,3.5-3.9,7.8-3.9,12.4c0,12.1,9.8,21.8,21.8,21.8c12.1,0,21.8-9.8,21.8-21.8
	c0,0,0-0.1,0-0.1l254.4-10.6l0,81.8C984,1932.1,972.5,1941.1,967.9,1953.5z M1002.7,1639.1c17.9-1.3,32-16.2,32-34.4
	c0-19.1-15.4-34.5-34.5-34.5s-34.5,15.4-34.5,34.5c0,18.2,14.1,33.1,32,34.4l0,208.5l-254.5,10.6c-0.7-8.3-6-15.3-13.4-18.4
	l83.7-239.1c4.3,1.2,8.8,1.9,13.5,1.9c27.6,0,50-22.4,50-50c0-1.7-0.1-3.4-0.3-5.1h285.3l86.2,271.1c-7.2,3.5-12.1,10.8-12.3,19.2
	l-233.4,9.7L1002.7,1639.1z M1552.1,1812.8c0,1.1,0.1,2.2,0.2,3.3l-519.8,137.4c-4.6-12.4-16.1-21.4-29.8-22.4l0-82l233.4-9.7
	c0.7,11.5,10.2,20.6,21.8,20.6c12.1,0,21.8-9.8,21.8-21.8c0-4.3-1.2-8.3-3.4-11.7l209.7-133.7l74.7,100.8
	C1555.4,1798.3,1552.1,1805.2,1552.1,1812.8z M1589.1,1789.4c-3.4-1.6-7.1-2.5-11.1-2.5c-4.9,0-9.4,1.3-13.3,3.7l-74.5-100.6
	l201.7-128.6c3.9,5.7,10.5,9.5,18,9.5c12.1,0,21.8-9.8,21.8-21.8c0-9.7-6.3-17.9-15-20.7l69.7-249.9l90,27c-0.3,1.6-0.5,3.3-0.5,5
	c0,7.9,3.6,15,9.2,19.8L1589.1,1789.4z M1899.9,1284.7c-10,0.7-18.4,7.1-22,16l-90.1-27l62-222.4c1.6,0.4,3.3,0.6,5,0.6
	c12.1,0,21.8-9.8,21.8-21.8s-9.8-21.8-21.8-21.8c-1.6,0-3.2,0.2-4.7,0.5l-63-241.5l124.4-42.7c3.5,7.5,10.4,13.1,18.8,14.7
	L1899.9,1284.7z M1275,1225.3c10.4-13,7.4-32.1-6.3-41.5l-73.9-50.1c-12.1-8.2-28.4-5.9-37.9,5.3c-35.9,42.3-90.2,68.4-150.6,66
	c-96.3-3.8-174.8-81.2-179.9-177.4c-5.7-108.3,80.4-197.9,187.5-197.9c58.2,0,110.2,26.5,144.6,68.1c9.1,11,24.9,13.8,37.1,6.3
	l76.3-46.8c14.5-8.9,18-28.4,7.7-41.9c-61.8-81.2-159.9-133.2-270.2-131.7C828.4,686,681.3,834.1,680,1015
	c-1.3,185.5,148.6,336.2,333.8,336.2C1119.6,1351.2,1213.8,1302.1,1275,1225.3z"/>
</svg>
