<svg width="15" height="15" viewBox="0 0 15 15" fill="none" xmlns="http://www.w3.org/2000/svg">
<path d="M6.4094 14.0416C6.4094 14.4815 6.79541 14.8765 7.25323 14.8765C7.71555 14.872 8.10156 14.477 8.10156 14.0461V8.73175H13.4069C13.8558 8.73175 14.2418 8.34574 14.2418 7.88792C14.2373 7.42561 13.8558 7.04409 13.4069 7.04409H8.10156L8.09707 1.73422C8.09707 1.28538 7.71555 0.89488 7.25323 0.899369C6.79541 0.899369 6.4094 1.28538 6.4094 1.73422L6.4094 7.0396L1.09954 7.04409C0.66416 7.0396 0.260198 7.42561 0.264686 7.88792C0.264686 8.34574 0.66416 8.73624 1.09954 8.73175L6.4094 8.73624V14.0416Z" fill="white"/>
</svg>
