<svg width="9" height="17" viewBox="0 0 9 17" fill="none" xmlns="http://www.w3.org/2000/svg">
<path fill-rule="evenodd" clip-rule="evenodd" d="M8.81119 0.188815C8.87104 0.248516 8.91852 0.319438 8.95092 0.397519C8.98332 0.4756 9 0.559306 9 0.643842C9 0.728378 8.98332 0.812084 8.95092 0.890165C8.91852 0.968246 8.87104 1.03917 8.81119 1.09887L1.55261 8.35616L8.81118 15.6135C8.87094 15.6732 8.91834 15.7441 8.95068 15.8222C8.98302 15.9003 8.99966 15.984 8.99966 16.0685C8.99966 16.153 8.98302 16.2367 8.95068 16.3147C8.91834 16.3928 8.87094 16.4637 8.81118 16.5235C8.75143 16.5833 8.68049 16.6307 8.60242 16.663C8.52434 16.6953 8.44066 16.712 8.35616 16.712C8.27165 16.712 8.18797 16.6953 8.1099 16.663C8.03182 16.6307 7.96089 16.5833 7.90113 16.5235L0.188813 8.81119C0.128961 8.75149 0.0814758 8.68056 0.0490757 8.60248C0.0166756 8.5244 -2.2763e-06 8.44069 -2.27261e-06 8.35616C-2.26891e-06 8.27162 0.0166756 8.18792 0.0490757 8.10984C0.0814759 8.03176 0.128961 7.96083 0.188813 7.90113L7.90113 0.188815C7.96083 0.128964 8.03175 0.0814777 8.10983 0.0490777C8.18792 0.0166777 8.27162 -3.18384e-08 8.35616 -2.81432e-08C8.44069 -2.4448e-08 8.5244 0.0166777 8.60248 0.0490777C8.68056 0.0814777 8.75148 0.128964 8.81119 0.188815Z" fill="white"/>
</svg>