<svg width="12" height="8" viewBox="0 0 12 8" fill="none" xmlns="http://www.w3.org/2000/svg">
<path fill-rule="evenodd" clip-rule="evenodd" d="M0.125877 0.125877C0.165677 0.0859754 0.212959 0.0543181 0.265013 0.0327181C0.317066 0.0111181 0.37287 0 0.429228 0C0.485585 0 0.541389 0.0111181 0.593443 0.0327181C0.645497 0.0543181 0.692779 0.0859754 0.732579 0.125877L5.57077 4.96493L10.409 0.125877C10.4488 0.0860399 10.4961 0.0544397 10.5481 0.0328803C10.6002 0.0113209 10.656 0.000224329 10.7123 0.000224329C10.7687 0.000224329 10.8244 0.0113209 10.8765 0.0328803C10.9285 0.0544397 10.9758 0.0860399 11.0157 0.125877C11.0555 0.165713 11.0871 0.213006 11.1087 0.265055C11.1302 0.317104 11.1413 0.37289 11.1413 0.429228C11.1413 0.485565 11.1302 0.541351 11.1087 0.5934C11.0871 0.64545 11.0555 0.692742 11.0157 0.732579L5.87412 5.87412C5.83432 5.91402 5.78704 5.94568 5.73499 5.96728C5.68293 5.98888 5.62713 6 5.57077 6C5.51441 6 5.45861 5.98888 5.40656 5.96728C5.3545 5.94568 5.30722 5.91402 5.26742 5.87412L0.125877 0.732579C0.0859757 0.692779 0.0543185 0.645497 0.0327185 0.593443C0.0111185 0.541389 0 0.485585 0 0.429228C0 0.37287 0.0111185 0.317066 0.0327185 0.265012C0.0543185 0.212958 0.0859757 0.165677 0.125877 0.125877Z" fill="#ACADBC"/>
</svg>
