<svg width="20" height="40" viewBox="0 0 20 40" fill="none" xmlns="http://www.w3.org/2000/svg">
<path d="M5.24692 26.0837C4.94186 26.0837 4.69782 25.8555 4.63681 25.4753L4.0267 21.5209H0.610107C0.244043 21.5209 0 21.2167 0 20.7605C0 20.3042 0.244043 20 0.610107 20H4.51479C4.81984 20 5.06389 20.2281 5.1249 20.6084L5.85702 25.1711C5.91804 25.6274 5.735 26.0076 5.36894 26.0837C5.30793 26.0837 5.30793 26.0837 5.24692 26.0837Z" fill="white"/>
<path d="M7.68735 36.8061C6.95522 36.8061 6.40612 37.4905 6.40612 38.403C6.40612 39.3156 6.95522 40 7.68735 40C8.41947 40 8.96857 39.3156 8.96857 38.403C8.96857 37.4905 8.41947 36.8061 7.68735 36.8061Z" fill="white"/>
<path d="M13.9715 36.8061C13.2393 36.8061 12.6902 37.4905 12.6902 38.403C12.6902 39.3156 13.2393 40 13.9715 40C14.7036 40 15.2527 39.3156 15.2527 38.403C15.2527 37.4905 14.7036 36.8061 13.9715 36.8061Z" fill="white"/>
<path d="M19.8285 24.7148C19.6454 24.4106 19.3404 24.1825 19.0353 24.1825H5.61299C5.30793 24.1825 5.06389 24.3346 4.88086 24.6388C4.69783 24.8669 4.63682 25.2471 4.63682 25.5513L5.85703 34.0684C5.91804 34.6008 6.34512 35.057 6.77219 35.057H15.3137C15.6797 35.057 16.0458 34.7528 16.1678 34.3726L19.8285 25.9315C19.8285 25.9315 19.8285 25.8555 19.8895 25.8555C20.0725 25.3992 20.0115 25.019 19.8285 24.7148ZM15.1917 33.5361H7.01623L5.91804 25.7034H18.6083L15.1917 33.5361Z" fill="white"/>
<path d="M5.36165 6.11616C5.06881 6.11616 4.83453 5.89888 4.77595 5.53676L4.19025 1.77069H0.910318C0.558896 1.77069 0.324615 1.481 0.324615 1.04644C0.324615 0.611902 0.558896 0.322205 0.910318 0.322205H4.65881C4.95166 0.322205 5.18594 0.539478 5.24452 0.9016L5.94736 5.24706C6.00593 5.68161 5.83022 6.04373 5.4788 6.11616C5.42023 6.11616 5.42023 6.11616 5.36165 6.11616Z" fill="#2C2E3F"/>
<path d="M7.70428 16.328C7.00144 16.328 6.4743 16.9798 6.4743 17.8489C6.4743 18.718 7.00144 19.3698 7.70428 19.3698C8.40711 19.3698 8.93423 18.718 8.93423 17.8489C8.93423 16.9798 8.40711 16.328 7.70428 16.328Z" fill="#2C2E3F"/>
<path d="M13.737 16.328C13.0342 16.328 12.507 16.9798 12.507 17.8489C12.507 18.718 13.0342 19.3698 13.737 19.3698C14.4398 19.3698 14.967 18.718 14.967 17.8489C14.967 16.9798 14.4398 16.328 13.737 16.328Z" fill="#2C2E3F"/>
<path d="M19.3598 4.81251C19.1841 4.52282 18.8912 4.30554 18.5984 4.30554H5.71291C5.42006 4.30554 5.18578 4.45039 5.01007 4.74009C4.83436 4.95736 4.77579 5.31948 4.77579 5.60918L5.94719 13.7207C6.00576 14.2277 6.41576 14.6622 6.82575 14.6622H15.0256C15.377 14.6622 15.7284 14.3726 15.8456 14.0104L19.3598 5.9713C19.3598 5.9713 19.3598 5.89888 19.4183 5.89888C19.5941 5.46433 19.5355 5.10221 19.3598 4.81251ZM14.9084 13.2137H7.06003L6.00576 5.75404H18.1884L14.9084 13.2137Z" fill="#2C2E3F"/>
</svg>
