<svg width="24" height="20" viewBox="0 0 24 20" fill="none" xmlns="http://www.w3.org/2000/svg">
<path d="M6.2963 6.08365C5.93024 6.08365 5.63739 5.85551 5.56417 5.47528L4.83205 1.52091H0.732128C0.292851 1.52091 0 1.21673 0 0.760456C0 0.304182 0.292851 0 0.732128 0H5.41775C5.78381 0 6.07666 0.228137 6.14988 0.608365L7.02843 5.1711C7.10164 5.62738 6.882 6.0076 6.44273 6.08365C6.36951 6.08365 6.36951 6.08365 6.2963 6.08365Z" fill="white"/>
<path d="M9.22482 16.8061C8.34626 16.8061 7.68735 17.4905 7.68735 18.403C7.68735 19.3156 8.34626 20 9.22482 20C10.1034 20 10.7623 19.3156 10.7623 18.403C10.7623 17.4905 10.1034 16.8061 9.22482 16.8061Z" fill="white"/>
<path d="M16.7657 16.8061C15.8872 16.8061 15.2283 17.4905 15.2283 18.403C15.2283 19.3156 15.8872 20 16.7657 20C17.6443 20 18.3032 19.3156 18.3032 18.403C18.3032 17.4905 17.6443 16.8061 16.7657 16.8061Z" fill="white"/>
<path d="M23.7942 4.71481C23.5745 4.41063 23.2085 4.1825 22.8424 4.1825H6.73558C6.36952 4.1825 6.07667 4.33459 5.85703 4.63877C5.63739 4.86691 5.56418 5.24713 5.56418 5.55132L7.02844 14.0684C7.10165 14.6007 7.61414 15.057 8.12663 15.057H18.3764C18.8157 15.057 19.255 14.7528 19.4014 14.3726L23.7942 5.93154C23.7942 5.93154 23.7942 5.8555 23.8674 5.8555C24.087 5.39922 24.0138 5.019 23.7942 4.71481ZM18.23 13.5361H8.41948L7.10165 5.70341H22.3299L18.23 13.5361Z" fill="white"/>
</svg>
