<svg width="121" height="120" viewBox="0 0 121 120" fill="none" xmlns="http://www.w3.org/2000/svg">
<path d="M40.5 86H36.5C35.3955 86 34.5 86.8955 34.5 88C34.5 89.1045 35.3955 90 36.5 90H40.5C41.6045 90 42.5 89.1045 42.5 88C42.5 86.8955 41.6045 86 40.5 86Z" fill="#848484"/>
<path d="M96.5 86H48.5C47.3955 86 46.5 86.8955 46.5 88C46.5 89.1045 47.3955 90 48.5 90H96.5C97.6045 90 98.5 89.1045 98.5 88C98.5 86.8955 97.6045 86 96.5 86Z" fill="#848484"/>
<path d="M40.5 74H36.5C35.3955 74 34.5 74.8955 34.5 76C34.5 77.1045 35.3955 78 36.5 78H40.5C41.6045 78 42.5 77.1045 42.5 76C42.5 74.8955 41.6045 74 40.5 74Z" fill="#848484"/>
<path d="M96.5 74H48.5C47.3955 74 46.5 74.8955 46.5 76C46.5 77.1045 47.3955 78 48.5 78H96.5C97.6045 78 98.5 77.1045 98.5 76C98.5 74.8955 97.6045 74 96.5 74Z" fill="#848484"/>
<path d="M40.5 62H36.5C35.3955 62 34.5 62.8955 34.5 64C34.5 65.1045 35.3955 66 36.5 66H40.5C41.6045 66 42.5 65.1045 42.5 64C42.5 62.8955 41.6045 62 40.5 62Z" fill="#848484"/>
<path d="M96.5 62H48.5C47.3955 62 46.5 62.8955 46.5 64C46.5 65.1045 47.3955 66 48.5 66H96.5C97.6045 66 98.5 65.1045 98.5 64C98.5 62.8955 97.6045 62 96.5 62Z" fill="#848484"/>
<path d="M40.5 50H36.5C35.3955 50 34.5 50.8955 34.5 52C34.5 53.1045 35.3955 54 36.5 54H40.5C41.6045 54 42.5 53.1045 42.5 52C42.5 50.8955 41.6045 50 40.5 50Z" fill="#848484"/>
<path d="M96.5 50H48.5C47.3955 50 46.5 50.8955 46.5 52C46.5 53.1045 47.3955 54 48.5 54H96.5C97.6045 54 98.5 53.1045 98.5 52C98.5 50.8955 97.6045 50 96.5 50Z" fill="#848484"/>
<path d="M40.5 38H36.5C35.3955 38 34.5 38.8955 34.5 40C34.5 41.1045 35.3955 42 36.5 42H40.5C41.6045 42 42.5 41.1045 42.5 40C42.5 38.8955 41.6045 38 40.5 38Z" fill="#848484"/>
<path d="M96.5 38H48.5C47.3955 38 46.5 38.8955 46.5 40C46.5 41.1045 47.3955 42 48.5 42H96.5C97.6045 42 98.5 41.1045 98.5 40C98.5 38.8955 97.6045 38 96.5 38Z" fill="#848484"/>
<path d="M110.474 29.874C110.464 29.6988 110.43 29.5258 110.372 29.36C110.35 29.296 110.334 29.234 110.306 29.172C110.209 28.9545 110.073 28.756 109.906 28.586L81.906 0.586C81.736 0.41875 81.5375 0.28325 81.32 0.186C81.258 0.158 81.196 0.142 81.134 0.12C80.9668 0.0625 80.7925 0.0275 80.616 0.016C80.582 0.022 80.544 0 80.5 0H24.5C23.3955 0 22.5 0.8955 22.5 2V8H12.5C11.3955 8 10.5 8.8955 10.5 10V118C10.5 119.104 11.3955 120 12.5 120H96.5C97.6045 120 98.5 119.104 98.5 118V108H108.5C109.604 108 110.5 107.104 110.5 106V30C110.5 29.956 110.478 29.918 110.474 29.874ZM82.5 6.828L103.672 28H82.5V6.828ZM94.5 116H14.5V12H22.5V106C22.5 107.104 23.3955 108 24.5 108H94.5V116ZM106.5 104H26.5V4H78.5V30C78.5 31.1045 79.3955 32 80.5 32H106.5V104Z" fill="#DFC0FD"/>
<path d="M48.5 18H36.5C35.3955 18 34.5 18.8955 34.5 20V32C34.5 33.1045 35.3955 34 36.5 34H48.5C49.6045 34 50.5 33.1045 50.5 32V20C50.5 18.8955 49.6045 18 48.5 18ZM46.5 30H38.5V22H46.5V30Z" fill="#848484"/>
</svg>
