<svg width="16" height="16" viewBox="0 0 16 16" fill="none" xmlns="http://www.w3.org/2000/svg">
<path d="M6.03334 14.3134H9.88004V9.46002C9.88004 9.30888 9.83337 9.18666 9.74002 9.09336C9.64668 9.00002 9.52446 8.95335 9.37336 8.95335H6.54667C6.39112 8.95335 6.26667 9.00002 6.17334 9.09336C6.08 9.18666 6.03334 9.30888 6.03334 9.46002V14.3134ZM3.42667 15H12.4467C12.9222 15 13.2911 14.8711 13.5533 14.6133C13.8156 14.3556 13.9467 13.9933 13.9467 13.5267V6.16L12.8733 5.42667V13.2533C12.8733 13.4711 12.8178 13.6378 12.7067 13.7533C12.5956 13.8689 12.4333 13.9266 12.22 13.9266H3.65333C3.44 13.9266 3.27667 13.8689 3.16334 13.7533C3.05 13.6378 2.99334 13.4711 2.99334 13.2533V5.43334L1.92 6.16V13.5267C1.92 13.9933 2.05222 14.3556 2.31667 14.6133C2.58111 14.8711 2.95111 15 3.42667 15ZM0 7.58C0 7.71778 0.0511111 7.84113 0.153333 7.95003C0.255556 8.05889 0.395556 8.11332 0.573334 8.11332C0.666666 8.11332 0.752222 8.09111 0.83 8.04669C0.907779 8.00223 0.982224 7.95333 1.05333 7.89999L7.7267 2.3C7.80225 2.23333 7.88112 2.2 7.96331 2.2C8.04555 2.2 8.12444 2.23333 8.19999 2.3L14.8733 7.89999C14.94 7.95333 15.0122 8.00223 15.09 8.04669C15.1678 8.09111 15.2534 8.11332 15.3467 8.11332C15.5023 8.11332 15.6356 8.06777 15.7467 7.97665C15.8578 7.88554 15.9133 7.75999 15.9133 7.60001C15.9133 7.41334 15.8444 7.26223 15.7067 7.14667L8.76667 1.31333C8.51777 1.10444 8.24999 1 7.96331 1C7.67668 1 7.40892 1.10444 7.16002 1.31333L0.213333 7.14667C0.0711112 7.26223 0 7.40667 0 7.58ZM12.2733 4.57334L13.9467 5.98667V2.90667C13.9467 2.76 13.9034 2.64333 13.8167 2.55667C13.73 2.47 13.6133 2.42667 13.4667 2.42667H12.7533C12.6111 2.42667 12.4955 2.47 12.4067 2.55667C12.3178 2.64333 12.2733 2.76 12.2733 2.90667V4.57334Z" fill="#ACADBC"/>
</svg>