<svg width="60" height="60" viewBox="0 0 60 60" fill="none" xmlns="http://www.w3.org/2000/svg">
<g filter="url(#filter0_b_59444_13941)">
<circle cx="30" cy="30" r="26" fill="#2C2E3F" fill-opacity="0.2"/>
</g>
<path fill-rule="evenodd" clip-rule="evenodd" d="M27.2098 39.7902C27.1433 39.7239 27.0905 39.6451 27.0545 39.5583C27.0185 39.4716 27 39.3785 27 39.2846C27 39.1907 27.0185 39.0977 27.0545 39.0109C27.0905 38.9242 27.1433 38.8454 27.2098 38.779L35.2749 30.7154L27.2098 22.6517C27.1434 22.5853 27.0907 22.5065 27.0548 22.4198C27.0189 22.333 27.0004 22.24 27.0004 22.1461C27.0004 22.0522 27.0189 21.9593 27.0548 21.8725C27.0907 21.7858 27.1434 21.707 27.2098 21.6406C27.2762 21.5742 27.355 21.5215 27.4418 21.4856C27.5285 21.4496 27.6215 21.4311 27.7154 21.4311C27.8093 21.4311 27.9023 21.4496 27.989 21.4856C28.0757 21.5215 28.1546 21.5742 28.221 21.6406L36.7902 30.2098C36.8567 30.2761 36.9095 30.3549 36.9455 30.4417C36.9815 30.5284 37 30.6215 37 30.7154C37 30.8093 36.9815 30.9023 36.9455 30.9891C36.9095 31.0758 36.8567 31.1546 36.7902 31.221L28.221 39.7902C28.1546 39.8567 28.0758 39.9095 27.9891 39.9455C27.9023 39.9815 27.8093 40 27.7154 40C27.6215 40 27.5284 39.9815 27.4417 39.9455C27.3549 39.9095 27.2761 39.8567 27.2098 39.7902Z" fill="white"/>
<defs>
<filter id="filter0_b_59444_13941" x="-4.66667" y="-4.66667" width="69.3333" height="69.3333" filterUnits="userSpaceOnUse" color-interpolation-filters="sRGB">
<feFlood flood-opacity="0" result="BackgroundImageFix"/>
<feGaussianBlur in="BackgroundImage" stdDeviation="4.33333"/>
<feComposite in2="SourceAlpha" operator="in" result="effect1_backgroundBlur_59444_13941"/>
<feBlend mode="normal" in="SourceGraphic" in2="effect1_backgroundBlur_59444_13941" result="shape"/>
</filter>
</defs>
</svg>
