<svg width="60" height="60" viewBox="0 0 60 60" fill="none" xmlns="http://www.w3.org/2000/svg">
<g filter="url(#filter0_b_59444_13942)">
<circle r="26" transform="matrix(-1 0 0 1 30 30)" fill="#2C2E3F" fill-opacity="0.2"/>
</g>
<path fill-rule="evenodd" clip-rule="evenodd" d="M32.7902 39.7902C32.8567 39.7239 32.9095 39.6451 32.9455 39.5583C32.9815 39.4716 33 39.3785 33 39.2846C33 39.1907 32.9815 39.0977 32.9455 39.0109C32.9095 38.9242 32.8567 38.8454 32.7902 38.779L24.7251 30.7154L32.7902 22.6517C32.8566 22.5853 32.9093 22.5065 32.9452 22.4198C32.9811 22.333 32.9996 22.24 32.9996 22.1461C32.9996 22.0522 32.9811 21.9593 32.9452 21.8725C32.9093 21.7858 32.8566 21.707 32.7902 21.6406C32.7238 21.5742 32.645 21.5215 32.5582 21.4856C32.4715 21.4496 32.3785 21.4311 32.2846 21.4311C32.1907 21.4311 32.0977 21.4496 32.011 21.4856C31.9243 21.5215 31.8454 21.5742 31.779 21.6406L23.2098 30.2098C23.1433 30.2761 23.0905 30.3549 23.0545 30.4417C23.0185 30.5284 23 30.6215 23 30.7154C23 30.8093 23.0185 30.9023 23.0545 30.9891C23.0905 31.0758 23.1433 31.1546 23.2098 31.221L31.779 39.7902C31.8454 39.8567 31.9242 39.9095 32.0109 39.9455C32.0977 39.9815 32.1907 40 32.2846 40C32.3785 40 32.4716 39.9815 32.5583 39.9455C32.6451 39.9095 32.7239 39.8567 32.7902 39.7902Z" fill="white"/>
<defs>
<filter id="filter0_b_59444_13942" x="-4.66667" y="-4.66667" width="69.3333" height="69.3333" filterUnits="userSpaceOnUse" color-interpolation-filters="sRGB">
<feFlood flood-opacity="0" result="BackgroundImageFix"/>
<feGaussianBlur in="BackgroundImage" stdDeviation="4.33333"/>
<feComposite in2="SourceAlpha" operator="in" result="effect1_backgroundBlur_59444_13942"/>
<feBlend mode="normal" in="SourceGraphic" in2="effect1_backgroundBlur_59444_13942" result="shape"/>
</filter>
</defs>
</svg>
