<svg width="24" height="24" viewBox="0 0 24 24" fill="none" xmlns="http://www.w3.org/2000/svg">
<path d="M7.93945 17.8301H19.3359C19.5247 17.8301 19.6907 17.7601 19.834 17.6201C19.9772 17.4802 20.0488 17.306 20.0488 17.0977C20.0488 16.8894 19.9772 16.7152 19.834 16.5752C19.6907 16.4352 19.5247 16.3652 19.3359 16.3652H8.10547C7.83203 16.3652 7.60905 16.2757 7.43652 16.0967C7.26399 15.9176 7.1582 15.6784 7.11914 15.3789L5.51758 4.50977C5.46549 4.13217 5.34993 3.84896 5.1709 3.66016C4.99186 3.47136 4.65169 3.37695 4.15039 3.37695H0.722656C0.527344 3.37695 0.358073 3.4502 0.214844 3.59668C0.0716147 3.74317 0 3.91407 0 4.10938C0 4.3112 0.0716147 4.48536 0.214844 4.63184C0.358073 4.77832 0.527344 4.85156 0.722656 4.85156H4.02344L5.58594 15.5742C5.69011 16.2708 5.93099 16.8209 6.30859 17.2246C6.6862 17.6283 7.22982 17.8301 7.93945 17.8301ZM6.14258 14.3535H19.3555C20.0716 14.3535 20.6185 14.1501 20.9961 13.7432C21.3737 13.3363 21.6146 12.7812 21.7188 12.0781L22.5 6.91211C22.513 6.84701 22.5228 6.78027 22.5293 6.71191C22.5358 6.64356 22.5391 6.5866 22.5391 6.54102C22.5391 6.30664 22.4577 6.11621 22.2949 5.96973C22.1322 5.82325 21.9173 5.75 21.6504 5.75H5.29297L5.30273 7.22461H20.8789L20.1855 11.9023C20.1465 12.2018 20.0456 12.4395 19.8828 12.6152C19.7201 12.791 19.4955 12.8789 19.209 12.8789L6.12305 12.8887L6.14258 14.3535ZM8.71094 22.5762C9.14713 22.5762 9.51985 22.4232 9.8291 22.1172C10.1384 21.8112 10.293 21.4368 10.293 20.9941C10.293 20.5514 10.1384 20.1771 9.8291 19.8711C9.51985 19.5651 9.14713 19.4121 8.71094 19.4121C8.41146 19.4121 8.1429 19.4821 7.90527 19.6221C7.66764 19.762 7.47721 19.9525 7.33398 20.1934C7.19075 20.4343 7.11914 20.7012 7.11914 20.9941C7.11914 21.2871 7.19075 21.554 7.33398 21.7949C7.47721 22.0358 7.66764 22.2262 7.90527 22.3662C8.1429 22.5062 8.41146 22.5762 8.71094 22.5762ZM17.8418 22.5762C18.2845 22.5762 18.6605 22.4232 18.9697 22.1172C19.279 21.8112 19.4336 21.4368 19.4336 20.9941C19.4336 20.5514 19.279 20.1771 18.9697 19.8711C18.6605 19.5651 18.2845 19.4121 17.8418 19.4121C17.5488 19.4121 17.2819 19.4821 17.041 19.6221C16.8001 19.762 16.6081 19.9525 16.4648 20.1934C16.3216 20.4343 16.25 20.7012 16.25 20.9941C16.25 21.4368 16.4063 21.8112 16.7188 22.1172C17.0313 22.4232 17.4056 22.5762 17.8418 22.5762Z" fill="#E83D45"/>
</svg>
