<svg width="40" height="80" viewBox="0 0 40 80" fill="none" xmlns="http://www.w3.org/2000/svg">
<g clip-path="url(#clip0)">
<path d="M13.2963 15.0836C12.9302 15.0836 12.6374 14.8555 12.5642 14.4753L11.832 10.5209H7.73213C7.29285 10.5209 7 10.2167 7 9.76046C7 9.30418 7.29285 9 7.73213 9H12.4177C12.7838 9 13.0767 9.22814 13.1499 9.60836L14.0284 14.1711C14.1016 14.6274 13.882 15.0076 13.4427 15.0836C13.3695 15.0836 13.3695 15.0836 13.2963 15.0836Z" fill="#2C2E3F"/>
<path d="M16.2248 25.8061C15.3463 25.8061 14.6873 26.4905 14.6873 27.403C14.6873 28.3156 15.3463 29 16.2248 29C17.1034 29 17.7623 28.3156 17.7623 27.403C17.7623 26.4905 17.1034 25.8061 16.2248 25.8061Z" fill="#2C2E3F"/>
<path d="M23.7657 25.8061C22.8872 25.8061 22.2283 26.4905 22.2283 27.403C22.2283 28.3156 22.8872 29 23.7657 29C24.6443 29 25.3032 28.3156 25.3032 27.403C25.3032 26.4905 24.6443 25.8061 23.7657 25.8061Z" fill="#2C2E3F"/>
<path d="M30.7942 13.7148C30.5745 13.4106 30.2085 13.1825 29.8424 13.1825H13.7356C13.3695 13.1825 13.0767 13.3346 12.857 13.6388C12.6374 13.8669 12.5642 14.2471 12.5642 14.5513L14.0284 23.0684C14.1016 23.6008 14.6141 24.057 15.1266 24.057H25.3764C25.8157 24.057 26.255 23.7528 26.4014 23.3726L30.7942 14.9316C30.7942 14.9316 30.7942 14.8555 30.8674 14.8555C31.087 14.3992 31.0138 14.019 30.7942 13.7148ZM25.23 22.5361H15.4195L14.1016 14.7034H29.3299L25.23 22.5361Z" fill="#2C2E3F"/>
<path d="M13.2963 55.0836C12.9302 55.0836 12.6374 54.8555 12.5642 54.4753L11.832 50.5209H7.73213C7.29285 50.5209 7 50.2167 7 49.7605C7 49.3042 7.29285 49 7.73213 49H12.4177C12.7838 49 13.0767 49.2281 13.1499 49.6084L14.0284 54.1711C14.1016 54.6274 13.882 55.0076 13.4427 55.0836C13.3695 55.0836 13.3695 55.0836 13.2963 55.0836Z" fill="#F53A42"/>
<path d="M16.2248 65.8061C15.3463 65.8061 14.6873 66.4905 14.6873 67.403C14.6873 68.3156 15.3463 69 16.2248 69C17.1034 69 17.7623 68.3156 17.7623 67.403C17.7623 66.4905 17.1034 65.8061 16.2248 65.8061Z" fill="#2C2E3F"/>
<path d="M23.7657 65.8061C22.8872 65.8061 22.2283 66.4905 22.2283 67.403C22.2283 68.3156 22.8872 69 23.7657 69C24.6443 69 25.3032 68.3156 25.3032 67.403C25.3032 66.4905 24.6443 65.8061 23.7657 65.8061Z" fill="#2C2E3F"/>
<path d="M30.7942 53.7148C30.5745 53.4106 30.2085 53.1825 29.8424 53.1825H13.7356C13.3695 53.1825 13.0767 53.3346 12.857 53.6388C12.6374 53.8669 12.5642 54.2471 12.5642 54.5513L14.0284 63.0684C14.1016 63.6008 14.6141 64.057 15.1266 64.057H25.3764C25.8157 64.057 26.255 63.7528 26.4014 63.3726L30.7942 54.9316C30.7942 54.9316 30.7942 54.8555 30.8674 54.8555C31.087 54.3992 31.0138 54.019 30.7942 53.7148ZM25.23 62.5361H15.4195L14.1016 54.7034H29.3299L25.23 62.5361Z" fill="#2C2E3F"/>
</g>
<defs>
<clipPath id="clip0">
<rect width="40" height="80" fill="white"/>
</clipPath>
</defs>
</svg>
