<svg width="30" height="27" viewBox="0 0 30 27" fill="none" xmlns="http://www.w3.org/2000/svg">
<path d="M0 8.10938C0 8.3112 0.0716147 8.48536 0.214844 8.63184C0.358073 8.77832 0.527344 8.85156 0.722656 8.85156H4.02344L5.58594 19.5742C5.69011 20.2708 5.93099 20.8209 6.30859 21.2246C6.6862 21.6283 7.22982 21.8301 7.93945 21.8301H19.3359C19.5247 21.8301 19.6907 21.7601 19.834 21.6201C19.9772 21.4802 20.0488 21.306 20.0488 21.0977C20.0488 20.8894 19.9772 20.7152 19.834 20.5752C19.6907 20.4352 19.5247 20.3652 19.3359 20.3652H8.10547C7.83203 20.3652 7.60905 20.2757 7.43652 20.0967C7.26399 19.9176 7.1582 19.6784 7.11914 19.3789L6.96289 18.3535H19.3555C20.0716 18.3535 20.6185 18.1501 20.9961 17.7432C21.3737 17.3363 21.6146 16.7812 21.7188 16.0781L22.5 10.9121C22.513 10.847 22.5228 10.7803 22.5293 10.7119C22.5358 10.6436 22.5391 10.5866 22.5391 10.541C22.5391 10.3066 22.4577 10.1162 22.2949 9.96973C22.1322 9.82325 21.9173 9.75 21.6504 9.75H5.71289L5.51758 8.50977C5.46549 8.13217 5.34993 7.84896 5.1709 7.66016C4.99186 7.47136 4.65169 7.37695 4.15039 7.37695H0.722656C0.527344 7.37695 0.358073 7.4502 0.214844 7.59668C0.0716147 7.74317 0 7.91407 0 8.10938ZM7.11914 24.9941C7.11914 25.2871 7.19075 25.554 7.33398 25.7949C7.47721 26.0358 7.66764 26.2262 7.90527 26.3662C8.1429 26.5062 8.41146 26.5762 8.71094 26.5762C9.14713 26.5762 9.51985 26.4232 9.8291 26.1172C10.1384 25.8112 10.293 25.4368 10.293 24.9941C10.293 24.5514 10.1384 24.1771 9.8291 23.8711C9.51985 23.5651 9.14713 23.4121 8.71094 23.4121C8.41146 23.4121 8.1429 23.4821 7.90527 23.6221C7.66764 23.762 7.47721 23.9525 7.33398 24.1934C7.19075 24.4343 7.11914 24.7012 7.11914 24.9941ZM16.25 24.9941C16.25 25.4368 16.4063 25.8112 16.7188 26.1172C17.0313 26.4232 17.4056 26.5762 17.8418 26.5762C18.2845 26.5762 18.6605 26.4232 18.9697 26.1172C19.279 25.8112 19.4336 25.4368 19.4336 24.9941C19.4336 24.5514 19.279 24.1771 18.9697 23.8711C18.6605 23.5651 18.2845 23.4121 17.8418 23.4121C17.5488 23.4121 17.2819 23.4821 17.041 23.6221C16.8001 23.762 16.6081 23.9525 16.4648 24.1934C16.3216 24.4343 16.25 24.7012 16.25 24.9941Z" fill="#ACADBC"/>
<circle cx="20.5" cy="9.5" r="9.5" fill="white"/>
<path d="M17.1351 9.50007L19.3755 11.7405L23.8643 7.25968M20.4997 17.4168C24.8538 17.4168 28.4163 13.8543 28.4163 9.50016C28.4163 5.146 24.8538 1.5835 20.4997 1.5835C16.1455 1.5835 12.583 5.146 12.583 9.50016C12.583 13.8543 16.1455 17.4168 20.4997 17.4168Z" stroke="#E83D45" stroke-width="1.1875" stroke-linecap="round" stroke-linejoin="round"/>
</svg>
