<svg width="20" height="40" viewBox="0 0 20 40" fill="none" xmlns="http://www.w3.org/2000/svg">
<g clip-path="url(#clip0)">
<path fill-rule="evenodd" clip-rule="evenodd" d="M3 26C3 25.4477 3.41787 25 3.93333 25H16.0667C16.5821 25 17 25.4477 17 26C17 26.5523 16.5821 27 16.0667 27H3.93333C3.41787 27 3 26.5523 3 26Z" fill="white"/>
<path fill-rule="evenodd" clip-rule="evenodd" d="M3 30C3 29.4477 3.41787 29 3.93333 29H16.0667C16.5821 29 17 29.4477 17 30C17 30.5523 16.5821 31 16.0667 31H3.93333C3.41787 31 3 30.5523 3 30Z" fill="white"/>
<path fill-rule="evenodd" clip-rule="evenodd" d="M3 34C3 33.4477 3.41787 33 3.93333 33H16.0667C16.5821 33 17 33.4477 17 34C17 34.5523 16.5821 35 16.0667 35H3.93333C3.41787 35 3 34.5523 3 34Z" fill="white"/>
<path d="M15.7639 13.2399C15.9213 13.0665 16 12.8497 16 12.6113C16 12.3945 15.9213 12.1561 15.7639 11.9827L10.5705 6.26012C10.4131 6.08671 10.2164 6 10 6C9.78361 6 9.58689 6.08671 9.42951 6.26012L4.23607 11.9827C3.92131 12.3295 3.92131 12.8931 4.23607 13.2399C4.55082 13.5867 5.06229 13.5867 5.37705 13.2399L10 8.14595L14.623 13.2399C14.9377 13.5867 15.4492 13.5867 15.7639 13.2399Z" fill="white"/>
</g>
<defs>
<clipPath id="clip0">
<rect width="20" height="40" fill="white"/>
</clipPath>
</defs>
</svg>
