<svg width="24" height="24" viewBox="0 0 24 24" fill="none" xmlns="http://www.w3.org/2000/svg">
<path d="M7.60156 15.6368C7.31445 15.924 7.30859 16.4337 7.60742 16.7325C7.91211 17.0314 8.42187 17.0255 8.70312 16.7443L12.1719 13.2755L15.6348 16.7384C15.9277 17.0314 16.4316 17.0314 16.7305 16.7325C17.0293 16.4279 17.0293 15.9298 16.7363 15.6368L13.2734 12.174L16.7363 8.70521C17.0293 8.41224 17.0352 7.90833 16.7305 7.6095C16.4316 7.31067 15.9277 7.31067 15.6348 7.60364L12.1719 11.0665L8.70312 7.60364C8.42188 7.31653 7.90625 7.30481 7.60742 7.6095C7.30859 7.90833 7.31445 8.42396 7.60156 8.70521L11.0645 12.174L7.60156 15.6368Z" fill="#3C3C43" fill-opacity="0.6"/>
</svg>
