<svg width="38" height="38" viewBox="0 0 38 38" fill="none" xmlns="http://www.w3.org/2000/svg">
<rect width="38" height="38" rx="19" fill="black" fill-opacity="0.4"/>
<path d="M14.2349 22.9399C13.9238 23.2509 13.9175 23.8032 14.2412 24.1269C14.5713 24.4506 15.1235 24.4443 15.4282 24.1396L19.186 20.3818L22.9375 24.1332C23.2549 24.4506 23.8008 24.4506 24.1245 24.1269C24.4482 23.7968 24.4482 23.2573 24.1309 22.9399L20.3794 19.1884L24.1309 15.4306C24.4482 15.1132 24.4546 14.5673 24.1245 14.2436C23.8008 13.9199 23.2549 13.9199 22.9375 14.2372L19.186 17.9887L15.4282 14.2372C15.1235 13.9262 14.5649 13.9135 14.2412 14.2436C13.9175 14.5673 13.9238 15.1259 14.2349 15.4306L17.9863 19.1884L14.2349 22.9399Z" fill="white"/>
</svg>