<svg width="26" height="26" viewBox="0 0 26 26" fill="none" xmlns="http://www.w3.org/2000/svg">
<mask id="mask0_60044_11038" style="mask-type:alpha" maskUnits="userSpaceOnUse" x="0" y="0" width="13" height="26">
<path d="M13 26C11.2928 26 9.60235 25.6637 8.02511 25.0104C6.44788 24.3571 5.01477 23.3995 3.80761 22.1924C2.60045 20.9852 1.64288 19.5521 0.989566 17.9749C0.336253 16.3977 -6.42871e-07 14.7072 -5.68248e-07 13C-4.93625e-07 11.2928 0.336256 9.60235 0.989566 8.02511C1.64288 6.44788 2.60045 5.01477 3.80761 3.80761C5.01477 2.60045 6.44788 1.64288 8.02512 0.989565C9.60235 0.336254 11.2928 -7.92118e-07 13 -5.68248e-07L13 1.3C11.4635 1.3 9.94211 1.60263 8.5226 2.19061C7.1031 2.77859 5.8133 3.6404 4.72685 4.72685C3.64041 5.81329 2.77859 7.10309 2.19061 8.5226C1.60263 9.94211 1.3 11.4635 1.3 13C1.3 14.5365 1.60263 16.0579 2.19061 17.4774C2.77859 18.8969 3.6404 20.1867 4.72685 21.2731C5.81329 22.3596 7.10309 23.2214 8.5226 23.8094C9.94211 24.3974 11.4635 24.7 13 24.7L13 26Z" fill="#86868B"/>
</mask>
<g mask="url(#mask0_60044_11038)">
<path d="M13 26C11.2928 26 9.60235 25.6637 8.02511 25.0104C6.44788 24.3571 5.01477 23.3995 3.80761 22.1924C2.60045 20.9852 1.64288 19.5521 0.989566 17.9749C0.336253 16.3977 -6.42871e-07 14.7072 -5.68248e-07 13C-4.93625e-07 11.2928 0.336256 9.60235 0.989566 8.02511C1.64288 6.44788 2.60045 5.01477 3.80761 3.80761C5.01477 2.60045 6.44788 1.64288 8.02512 0.989565C9.60235 0.336254 11.2928 -7.92118e-07 13 -5.68248e-07L13 1.3C11.4635 1.3 9.94211 1.60263 8.5226 2.19061C7.1031 2.77859 5.8133 3.6404 4.72685 4.72685C3.64041 5.81329 2.77859 7.10309 2.19061 8.5226C1.60263 9.94211 1.3 11.4635 1.3 13C1.3 14.5365 1.60263 16.0579 2.19061 17.4774C2.77859 18.8969 3.6404 20.1867 4.72685 21.2731C5.81329 22.3596 7.10309 23.2214 8.5226 23.8094C9.94211 24.3974 11.4635 24.7 13 24.7L13 26Z" fill="#86868B"/>
</g>
<mask id="mask1_60044_11038" style="mask-type:alpha" maskUnits="userSpaceOnUse" x="13" y="0" width="13" height="26">
<path d="M13 26C14.7072 26 16.3977 25.6637 17.9749 25.0104C19.5521 24.3571 20.9852 23.3995 22.1924 22.1924C23.3996 20.9852 24.3571 19.5521 25.0104 17.9749C25.6637 16.3977 26 14.7072 26 13C26 11.2928 25.6637 9.60235 25.0104 8.02511C24.3571 6.44788 23.3995 5.01477 22.1924 3.80761C20.9852 2.60045 19.5521 1.64288 17.9749 0.989565C16.3977 0.336254 14.7072 -7.92118e-07 13 -5.68248e-07L13 1.3C14.5365 1.3 16.0579 1.60263 17.4774 2.19061C18.8969 2.77859 20.1867 3.6404 21.2731 4.72685C22.3596 5.81329 23.2214 7.10309 23.8094 8.5226C24.3974 9.94211 24.7 11.4635 24.7 13C24.7 14.5365 24.3974 16.0579 23.8094 17.4774C23.2214 18.8969 22.3596 20.1867 21.2732 21.2731C20.1867 22.3596 18.8969 23.2214 17.4774 23.8094C16.0579 24.3974 14.5365 24.7 13 24.7L13 26Z" fill="#86868B"/>
</mask>
<g mask="url(#mask1_60044_11038)">
<path d="M13 26C14.7072 26 16.3977 25.6637 17.9749 25.0104C19.5521 24.3571 20.9852 23.3995 22.1924 22.1924C23.3996 20.9852 24.3571 19.5521 25.0104 17.9749C25.6637 16.3977 26 14.7072 26 13C26 11.2928 25.6637 9.60235 25.0104 8.02511C24.3571 6.44788 23.3995 5.01477 22.1924 3.80761C20.9852 2.60045 19.5521 1.64288 17.9749 0.989565C16.3977 0.336254 14.7072 -7.92118e-07 13 -5.68248e-07L13 1.3C14.5365 1.3 16.0579 1.60263 17.4774 2.19061C18.8969 2.77859 20.1867 3.6404 21.2731 4.72685C22.3596 5.81329 23.2214 7.10309 23.8094 8.5226C24.3974 9.94211 24.7 11.4635 24.7 13C24.7 14.5365 24.3974 16.0579 23.8094 17.4774C23.2214 18.8969 22.3596 20.1867 21.2732 21.2731C20.1867 22.3596 18.8969 23.2214 17.4774 23.8094C16.0579 24.3974 14.5365 24.7 13 24.7L13 26Z" fill="#86868B"/>
</g>
<path d="M8.23486 16.9399C7.92383 17.2509 7.91748 17.8032 8.24121 18.1269C8.57129 18.4506 9.12354 18.4443 9.42822 18.1396L13.186 14.3818L16.9375 18.1332C17.2549 18.4506 17.8008 18.4506 18.1245 18.1269C18.4482 17.7968 18.4482 17.2573 18.1309 16.9399L14.3794 13.1884L18.1309 9.43061C18.4482 9.11323 18.4546 8.56733 18.1245 8.2436C17.8008 7.91987 17.2549 7.91987 16.9375 8.23725L13.186 11.9887L9.42822 8.23725C9.12354 7.92621 8.56494 7.91352 8.24121 8.2436C7.91748 8.56733 7.92383 9.12592 8.23486 9.43061L11.9863 13.1884L8.23486 16.9399Z" fill="white"/>
</svg>
