<svg width="22" height="22" viewBox="0 0 22 22" fill="none" xmlns="http://www.w3.org/2000/svg">
<path opacity="0.1" d="M11 22C4.92487 22 -7.46378e-07 17.0751 -4.80825e-07 11C-2.15273e-07 4.92487 4.92487 -7.46378e-07 11 -4.80825e-07C17.0751 -2.15273e-07 22 4.92487 22 11C22 17.0751 17.0751 22 11 22ZM11 1.1C5.53238 1.1 1.1 5.53238 1.1 11C1.1 16.4676 5.53238 20.9 11 20.9C16.4676 20.9 20.9 16.4676 20.9 11C20.9 5.53238 16.4676 1.1 11 1.1Z" fill="#86868B"/>
<path d="M6.96777 14.3338C6.70459 14.597 6.69922 15.0643 6.97314 15.3382C7.25244 15.6121 7.71973 15.6068 7.97754 15.3489L11.1572 12.1693L14.3315 15.3436C14.6001 15.6121 15.062 15.6121 15.3359 15.3382C15.6099 15.0589 15.6099 14.6024 15.3413 14.3338L12.167 11.1595L15.3413 7.9798C15.6099 7.71125 15.6152 7.24933 15.3359 6.97541C15.062 6.70148 14.6001 6.70148 14.3315 6.97004L11.1572 10.1444L7.97754 6.97004C7.71973 6.70685 7.24707 6.69611 6.97314 6.97541C6.69922 7.24933 6.70459 7.72199 6.96777 7.9798L10.1421 11.1595L6.96777 14.3338Z" fill="#86868B"/>
</svg>
