<svg width="40" height="80" viewBox="0 0 40 80" fill="none" xmlns="http://www.w3.org/2000/svg">
<g clip-path="url(#clip0)">
<path d="M22.1721 12.7294H17.7217C17.2691 12.7294 16.9674 13.0278 16.9674 13.4753V23.7685C16.9674 24.216 17.2691 24.5144 17.7217 24.5144C18.1743 24.5144 18.476 24.216 18.476 23.7685V14.2212H21.4178V23.8431C21.4178 24.2906 21.7195 24.589 22.1721 24.589C22.6247 24.589 22.9264 24.2906 22.9264 23.8431V13.4753C22.9264 13.1024 22.6247 12.7294 22.1721 12.7294Z" fill="#2C2E3F"/>
<path d="M30.0924 15.34H25.642C25.1894 15.34 24.8877 15.6384 24.8877 16.0859V24.5144C24.8877 24.9619 25.1894 25.2603 25.642 25.2603C26.0946 25.2603 26.3963 24.9619 26.3963 24.5144V16.8318H29.3381V26.4537C29.3381 26.9012 29.6398 27.1996 30.0924 27.1996C30.545 27.1996 30.8467 26.9012 30.8467 26.4537V16.0859C30.8467 15.6384 30.4696 15.34 30.0924 15.34Z" fill="#2C2E3F"/>
<path d="M14.3273 9H9.87681C9.42422 9 9.1225 9.29835 9.1225 9.74588V26.5283C9.1225 26.9758 9.42422 27.2742 9.87681 27.2742C10.3294 27.2742 10.6311 26.9758 10.6311 26.5283V10.4918H13.5729V24.589C13.5729 25.0365 13.8747 25.3349 14.3273 25.3349C14.7798 25.3349 15.0816 25.0365 15.0816 24.589V9.74588C15.0816 9.37294 14.7044 9 14.3273 9Z" fill="#2C2E3F"/>
<path d="M32.2045 28.9897C32.0536 28.9897 31.9028 28.9151 31.7519 28.8405C28.3575 26.1553 24.4351 24.8127 19.9846 24.8127C15.5342 24.8127 11.5363 26.1553 8.21734 28.8405C7.91562 29.0643 7.3876 29.0643 7.16131 28.7659C6.93501 28.4676 6.93501 27.9454 7.23674 27.7217C9.72597 25.7078 13.9501 23.321 19.9846 23.321C26.0191 23.321 30.2433 25.7078 32.7325 27.7217C33.0342 27.9454 33.1096 28.4676 32.8079 28.7659C32.6571 28.9151 32.4308 28.9897 32.2045 28.9897Z" fill="#2C2E3F"/>
<path d="M22.1721 52.7294H17.7217C17.2691 52.7294 16.9674 53.0278 16.9674 53.4753V63.7685C16.9674 64.216 17.2691 64.5144 17.7217 64.5144C18.1743 64.5144 18.476 64.216 18.476 63.7685V54.2212H21.4178V63.8431C21.4178 64.2906 21.7195 64.589 22.1721 64.589C22.6247 64.589 22.9264 64.2906 22.9264 63.8431V53.4753C22.9264 53.1024 22.6247 52.7294 22.1721 52.7294Z" fill="#2C2E3F"/>
<path d="M30.0924 55.34H25.642C25.1894 55.34 24.8877 55.6384 24.8877 56.0859V64.5144C24.8877 64.9619 25.1894 65.2603 25.642 65.2603C26.0946 65.2603 26.3963 64.9619 26.3963 64.5144V56.8318H29.3381V66.4537C29.3381 66.9012 29.6398 67.1996 30.0924 67.1996C30.545 67.1996 30.8467 66.9012 30.8467 66.4537V56.0859C30.8467 55.6384 30.4696 55.34 30.0924 55.34Z" fill="#2C2E3F"/>
<path d="M14.3273 49H9.87681C9.42422 49 9.1225 49.2984 9.1225 49.7459V66.5283C9.1225 66.9758 9.42422 67.2742 9.87681 67.2742C10.3294 67.2742 10.6311 66.9758 10.6311 66.5283V50.4918H13.5729V64.589C13.5729 65.0365 13.8747 65.3349 14.3273 65.3349C14.7798 65.3349 15.0816 65.0365 15.0816 64.589V49.7459C15.0816 49.3729 14.7044 49 14.3273 49Z" fill="#2C2E3F"/>
<path d="M32.2045 68.9897C32.0536 68.9897 31.9028 68.9151 31.7519 68.8405C28.3575 66.1553 24.4351 64.8127 19.9846 64.8127C15.5342 64.8127 11.5363 66.1553 8.21734 68.8405C7.91562 69.0643 7.3876 69.0643 7.16131 68.7659C6.93501 68.4676 6.93501 67.9454 7.23674 67.7217C9.72597 65.7078 13.9501 63.321 19.9846 63.321C26.0191 63.321 30.2433 65.7078 32.7325 67.7217C33.0342 67.9454 33.1096 68.4676 32.8079 68.7659C32.6571 68.9151 32.4308 68.9897 32.2045 68.9897Z" fill="#F53A42"/>
</g>
<defs>
<clipPath id="clip0">
<rect width="40" height="80" fill="white"/>
</clipPath>
</defs>
</svg>
