<svg width="120" height="120" viewBox="0 0 120 120" fill="none" xmlns="http://www.w3.org/2000/svg">
<circle cx="60" cy="60" r="60" fill="#FFEBD5"/>
<path d="M69.4942 60.9409C65.6222 56.7822 61.9415 52.48 58.8343 47.6998C56.6355 44.258 54.6756 40.3861 52.3333 37.996C50.23 35.7971 48.8915 33.4548 48.2223 31.0647C43.5377 32.4032 40.2872 33.5504 36.0806 37.9482C6.77798 68.159 49.2261 114.814 81.8271 84.1249C84.2172 81.8782 83.3568 79.1535 84.7908 76.7156C80.2496 71.4574 74.2744 66.0558 69.4942 60.9409Z" fill="#DE814B"/>
<path d="M81.8283 84.1253C51.6175 108.648 9.55171 69.6891 36.0818 37.9008C36.512 37.4228 36.99 36.897 37.4681 36.4189C43.5389 30.3959 50.279 27.5756 56.8757 27.1454C57.5449 27.0976 58.0707 27.6234 58.1185 28.2448C58.2141 32.1646 60.7476 34.7937 64.4762 35.3195C65.0498 35.4151 65.3844 35.9409 65.241 36.5145C64.8586 37.7574 64.7152 39.0959 64.7152 40.4821C64.8586 47.509 70.6905 53.293 77.7173 53.3408C79.1514 53.3408 80.5377 53.1496 81.8761 52.7194C82.4019 52.5282 82.9756 52.8628 83.0712 53.4365C83.9316 58.121 88.186 57.2606 90.1937 56.5914C90.7673 56.4002 91.3887 56.7348 91.5321 57.3084C95.4519 71.6012 81.8283 84.1253 81.8283 84.1253Z" fill="#F6B059"/>
<path d="M61.3192 53.9143C61.3192 57.4516 58.4511 59.8417 54.9138 59.8417C51.3764 59.8417 48.5083 57.4516 48.5083 53.9143C48.5083 50.3769 51.3764 47.5088 54.9138 47.5088C58.4511 47.5088 61.3192 50.3291 61.3192 53.9143Z" fill="#6D420D"/>
<path d="M81.4442 69.3542C81.4442 72.0789 79.2453 74.2778 76.5206 74.2778C73.7959 74.2778 71.9316 72.6526 71.9316 69.9278C71.9316 67.2031 73.7959 64.3828 76.5206 64.3828C79.2453 64.3828 81.4442 66.6295 81.4442 69.3542Z" fill="#6D420D"/>
<path d="M44.6382 63.3315C44.6382 65.4348 43.1085 66.6299 41.0052 66.6299C38.9019 66.6299 37.0854 65.4348 37.0854 63.3315C37.0854 61.2282 38.7585 59.5552 40.8618 59.5552C42.9651 59.5552 44.6382 61.2282 44.6382 63.3315Z" fill="#6D420D"/>
<path d="M56.2042 76.1418C56.2042 77.0978 55.4394 77.8626 54.4833 77.8626C53.5273 77.8626 52.7625 77.0978 52.7625 76.1418C52.7625 75.1857 53.5273 74.4209 54.4833 74.4209C55.4394 74.4209 56.2042 75.1857 56.2042 76.1418Z" fill="#6D420D"/>
<path d="M44.541 43.111C45.597 43.111 46.4531 42.255 46.4531 41.1989C46.4531 40.1429 45.597 39.2869 44.541 39.2869C43.485 39.2869 42.6289 40.1429 42.6289 41.1989C42.6289 42.255 43.485 43.111 44.541 43.111Z" fill="#6D420D"/>
<path d="M79.1012 29.7266C79.2924 32.0211 77.2847 33.8853 74.6078 33.8853C71.9309 33.8853 69.8754 31.8299 70.0188 29.2964C70.1622 26.7629 72.1699 24.8986 74.5122 25.1376C76.8545 25.3766 78.91 27.3843 79.1012 29.7266Z" fill="#F6B059"/>
<path d="M75.6605 32.9769C76.7121 32.9769 77.6681 32.6901 78.433 32.1643C77.6203 33.216 76.2819 33.8852 74.6566 33.8852C71.9797 33.8852 69.9242 31.8297 70.0676 29.344C70.1632 27.8143 70.9281 26.5237 72.0275 25.8066C71.5017 26.5237 71.1193 27.4319 71.0715 28.4358C70.9759 30.8737 73.0313 32.9291 75.6605 32.9769Z" fill="#DE814B"/>
<path d="M78.8624 42.7283C78.7668 44.258 77.4761 45.5486 75.9943 45.692C74.5124 45.7877 73.3174 44.5448 73.3652 42.9195C73.3652 41.2943 74.6558 39.9558 76.2333 39.9558C77.8107 39.9558 78.958 41.1987 78.8624 42.7283Z" fill="#F6B059"/>
<path d="M76.566 45.0229C77.1396 44.9751 77.7132 44.7361 78.1912 44.4015C77.6654 45.1185 76.8528 45.5966 75.9445 45.6922C74.4627 45.7878 73.3154 44.5449 73.3154 42.9196C73.3154 41.9636 73.7934 41.0554 74.5105 40.5295C74.1759 41.0076 73.9369 41.629 73.9369 42.2504C73.8891 43.8757 75.0841 45.1185 76.566 45.0229Z" fill="#DE814B"/>
<path d="M98.4132 43.9239C98.2698 45.7403 96.7879 47.27 95.0192 47.3656C93.2984 47.4612 91.9121 46.0272 91.9121 44.1151C91.9599 42.203 93.4418 40.6733 95.306 40.6733C97.1703 40.6733 98.5566 42.1552 98.4132 43.9239Z" fill="#F6B059"/>
<path d="M95.7358 46.6483C96.4528 46.6005 97.122 46.3136 97.6479 45.8834C97.0264 46.7439 96.0704 47.3175 95.0188 47.3653C93.2979 47.4609 91.9116 46.0268 91.9116 44.1148C91.9116 42.9675 92.4852 41.9637 93.2979 41.2944C92.8677 41.8681 92.6287 42.5851 92.6287 43.3499C92.6287 45.3098 94.0149 46.7439 95.7358 46.6483Z" fill="#DE814B"/>
</svg>
