<svg width="8" height="8" viewBox="0 0 8 8" fill="none" xmlns="http://www.w3.org/2000/svg">
<path d="M1.06763 6.42432C0.876221 6.61573 0.872314 6.95557 1.07153 7.15479C1.27466 7.35401 1.6145 7.3501 1.802 7.1626L4.1145 4.8501L6.4231 7.1587C6.61841 7.35401 6.95435 7.35401 7.15356 7.15479C7.35278 6.95166 7.35278 6.61963 7.15747 6.42432L4.84888 4.11573L7.15747 1.80323C7.35278 1.60791 7.35669 1.27198 7.15356 1.07276C6.95435 0.873539 6.61841 0.873539 6.4231 1.06885L4.1145 3.37745L1.802 1.06885C1.6145 0.877445 1.27075 0.869633 1.07153 1.07276C0.872314 1.27198 0.876221 1.61573 1.06763 1.80323L3.37622 4.11573L1.06763 6.42432Z" fill="#3C3C43" fill-opacity="0.6"/>
</svg>
