<svg width="8" height="8" viewBox="0 0 8 8" fill="none" xmlns="http://www.w3.org/2000/svg">
<path d="M1.06738 6.42456C0.875977 6.61597 0.87207 6.95581 1.07129 7.15503C1.27441 7.35425 1.61426 7.35035 1.80176 7.16285L4.11426 4.85035L6.42285 7.15894C6.61816 7.35425 6.9541 7.35425 7.15332 7.15503C7.35254 6.95191 7.35254 6.61988 7.15723 6.42456L4.84863 4.11597L7.15723 1.80347C7.35254 1.60816 7.35644 1.27222 7.15332 1.073C6.9541 0.873783 6.61816 0.873783 6.42285 1.0691L4.11426 3.37769L1.80176 1.0691C1.61426 0.877689 1.27051 0.869877 1.07129 1.073C0.87207 1.27222 0.875977 1.61597 1.06738 1.80347L3.37598 4.11597L1.06738 6.42456Z" fill="#EE6A5F"/>
</svg>
