<svg width="17" height="17" viewBox="0 0 17 17" fill="none" xmlns="http://www.w3.org/2000/svg">
<g clip-path="url(#clip0_69309_19246)">
<path d="M7.44227 7.83334C7.44227 7.5572 7.21898 7.33334 6.94354 7.33334C6.6681 7.33334 6.44481 7.5572 6.44481 7.83334V10.6262L5.96626 10.1465C5.77149 9.9512 5.45572 9.9512 5.26095 10.1465C5.06619 10.3417 5.06619 10.6583 5.26095 10.8536L6.5883 12.1843C6.59774 12.1939 6.60758 12.2031 6.6178 12.212C6.69396 12.278 6.78529 12.3171 6.87942 12.3292C6.912 12.3335 6.94476 12.3344 6.97721 12.3322C7.0934 12.3244 7.20738 12.2759 7.29619 12.1869L8.62613 10.8536C8.82089 10.6583 8.82089 10.3417 8.62613 10.1465C8.43136 9.9512 8.11559 9.9512 7.92082 10.1465L7.44227 10.6262V7.83334Z" fill="black"/>
<path fill-rule="evenodd" clip-rule="evenodd" d="M16.0868 7.17053V10.5C16.0868 12.216 15.7476 13.5473 14.8602 14.4369C13.9728 15.3265 12.645 15.6667 10.9333 15.6667H6.94354C5.23193 15.6667 3.90406 15.3265 3.01669 14.4369C2.12931 13.5473 1.79004 12.216 1.79004 10.5V6.50001C1.79004 4.78403 2.12931 3.45277 3.01669 2.56312C3.90406 1.67348 5.23193 1.33334 6.94354 1.33334H10.2684C10.276 1.33334 10.2836 1.33352 10.2912 1.33386M9.76965 2.33334H6.94354C5.33031 2.33334 4.33079 2.65988 3.72199 3.27023C3.11319 3.88058 2.78749 4.88266 2.78749 6.50001V10.5C2.78749 12.1174 3.11319 13.1194 3.72199 13.7298C4.33079 14.3401 5.33031 14.6667 6.94354 14.6667H10.9333C12.5466 14.6667 13.5461 14.3401 14.1549 13.7298C14.7637 13.1194 15.0894 12.1174 15.0894 10.5V7.66668H12.9283C11.9032 7.66668 11.0611 7.50184 10.4976 6.9369C9.93407 6.37195 9.76965 5.52771 9.76965 4.50001V2.33334ZM10.7671 4.50001V3.04045L14.3841 6.66668H12.9283C11.9584 6.66668 11.4706 6.49818 11.2029 6.22979C10.9352 5.9614 10.7671 5.47231 10.7671 4.50001Z" fill="black"/>
</g>
<defs>
<clipPath id="clip0_69309_19246">
<rect width="15.9592" height="16" fill="white" transform="translate(0.958984 0.5)"/>
</clipPath>
</defs>
</svg>
