<svg width="18" height="18" viewBox="0 0 18 18" fill="none" xmlns="http://www.w3.org/2000/svg">
<path d="M4.15499 14.6397C3.69749 14.6397 3.26999 14.4822 2.96249 14.1897C2.57249 13.8222 2.38499 13.2672 2.45249 12.6672L2.72999 10.2372C2.78249 9.7797 3.05999 9.1722 3.38249 8.8422L9.54 2.32467C11.0775 0.697171 12.6825 0.652171 14.31 2.18967C15.9375 3.72717 15.9825 5.33217 14.445 6.95967L8.2875 13.4772C7.9725 13.8147 7.38749 14.1297 6.92999 14.2047L4.51499 14.6172C4.38749 14.6247 4.27499 14.6397 4.15499 14.6397ZM11.9475 2.18217C11.37 2.18217 10.8675 2.54217 10.3575 3.08217L4.19999 9.6072C4.04999 9.7647 3.87749 10.1397 3.84749 10.3572L3.56999 12.7872C3.53999 13.0347 3.59999 13.2372 3.73499 13.3647C3.86999 13.4922 4.07249 13.5372 4.31999 13.4997L6.73499 13.0872C6.95249 13.0497 7.31249 12.8547 7.46249 12.6972L13.62 6.17967C14.55 5.18967 14.8875 4.27467 13.53 2.99967C12.93 2.42217 12.4125 2.18217 11.9475 2.18217Z" fill="#EE6A5F"/>
<path d="M13.0053 8.21168C12.9903 8.21168 12.9678 8.21168 12.9528 8.21168C10.6128 7.97918 8.73033 6.20165 8.37033 3.87665C8.32533 3.56915 8.53533 3.28415 8.84283 3.23165C9.15033 3.18665 9.43533 3.39665 9.48783 3.70415C9.77283 5.51916 11.2428 6.91416 13.0728 7.09415C13.3803 7.12415 13.6053 7.40166 13.5753 7.70918C13.5378 7.99418 13.2903 8.21168 13.0053 8.21168Z" fill="#EE6A5F"/>
<path d="M15.75 17.0625H2.25C1.9425 17.0625 1.6875 16.8075 1.6875 16.5C1.6875 16.1925 1.9425 15.9375 2.25 15.9375H15.75C16.0575 15.9375 16.3125 16.1925 16.3125 16.5C16.3125 16.8075 16.0575 17.0625 15.75 17.0625Z" fill="#EE6A5F"/>
</svg>
