<svg width="18" height="20" viewBox="0 0 18 20" fill="none" xmlns="http://www.w3.org/2000/svg">
<g clip-path="url(#clip0)">
<path d="M9 4.03906C5.56091 4.03906 2.44216 6.12968 0.140841 9.52541C-0.0469469 9.80361 -0.0469469 10.1923 0.140841 10.4705C2.44216 13.8703 5.56091 15.9609 9 15.9609C12.4391 15.9609 15.5578 13.8703 17.8592 10.4746C18.0469 10.1964 18.0469 9.8077 17.8592 9.5295C15.5578 6.12968 12.4391 4.03906 9 4.03906ZM9.2467 14.1976C6.96379 14.3572 5.07855 12.2665 5.22215 9.72588C5.33998 7.63117 6.86806 5.9333 8.7533 5.80238C11.0362 5.64283 12.9214 7.73345 12.7778 10.2741C12.6563 12.3647 11.1283 14.0626 9.2467 14.1976ZM9.13256 12.2584C7.90273 12.3443 6.88647 11.2192 6.96748 9.85271C7.03007 8.72353 7.85486 7.81118 8.87113 7.73754C10.101 7.65162 11.1172 8.77671 11.0362 10.1432C10.9699 11.2765 10.1451 12.1888 9.13256 12.2584Z" fill="#C5C3CA"/>
</g>
<defs>
<clipPath id="clip0">
<rect width="18" height="20" fill="white"/>
</clipPath>
</defs>
</svg>
