<svg width="20" height="40" viewBox="0 0 20 40" fill="none" xmlns="http://www.w3.org/2000/svg">
<path d="M17.0662 0H2.93375C1.32492 0 0 1.32492 0 2.93375V17.0662C0 18.6751 1.32492 20 2.93375 20H8.83281V12.9338H6.81388C6.62461 12.9338 6.49842 12.8076 6.49842 12.6183V9.74763C6.49842 9.55836 6.62461 9.43218 6.81388 9.43218H8.83281V7.0347C8.83281 5.07886 10.4101 3.53312 12.3344 3.53312H15.5836C15.7729 3.53312 15.8991 3.65931 15.8991 3.84858V6.71924C15.8991 6.90852 15.7729 7.0347 15.5836 7.0347H12.3344V9.43218H15.5205C15.7098 9.43218 15.8675 9.62145 15.836 9.81073L15.3628 12.6814C15.3312 12.8391 15.205 12.9338 15.0473 12.9338H12.3344V20H17.0662C18.6751 20 20 18.6751 20 17.0662V2.93375C20 1.32492 18.7066 0 17.0662 0Z" fill="#C4C4C4"/>
<path d="M17.0662 20H2.93375C1.32492 20 0 21.3249 0 22.9337V37.0662C0 38.6751 1.32492 40 2.93375 40H8.83281V32.9338H6.81388C6.62461 32.9338 6.49842 32.8076 6.49842 32.6183V29.7476C6.49842 29.5584 6.62461 29.4322 6.81388 29.4322H8.83281V27.0347C8.83281 25.0789 10.4101 23.5331 12.3344 23.5331H15.5836C15.7729 23.5331 15.8991 23.6593 15.8991 23.8486V26.7192C15.8991 26.9085 15.7729 27.0347 15.5836 27.0347H12.3344V29.4322H15.5205C15.7098 29.4322 15.8675 29.6214 15.836 29.8107L15.3628 32.6814C15.3312 32.8391 15.205 32.9338 15.0473 32.9338H12.3344V40H17.0662C18.6751 40 20 38.6751 20 37.0662V22.9337C20 21.3249 18.7066 20 17.0662 20Z" fill="white"/>
</svg>
