<?xml version="1.0" encoding="utf-8"?>
<!-- Generator: Adobe Illustrator 22.1.0, SVG Export Plug-In . SVG Version: 6.00 Build 0)  -->
<svg version="1.1" id="Layer_1" xmlns="http://www.w3.org/2000/svg" xmlns:xlink="http://www.w3.org/1999/xlink" x="0px" y="0px"
	 viewBox="0 0 547 604" style="enable-background:new 0 0 547 604;" xml:space="preserve">
<style type="text/css">
	.st0{enable-background:new    ;}
	.st1{fill:#D1D3D4;}
	.st2{fill:#EDE3FE;}
	.st3{fill:#A35CF6;}
	.st4{fill:#FFFFFF;}
	.st5{fill:#CEADF4;}
	.st6{fill:#D3B4FA;}
	.st7{fill:#D7C3F4;}
</style>
<g>
	<g>
		<g class="st0">
			<g>
				<polygon class="st1" points="136.7,336.8 136.7,336.8 136.7,336.8 136.7,336.8 136.7,336.8 136.7,336.8 136.7,336.8 
					136.7,336.8 136.7,336.8 				"/>
			</g>
			<g>
				<path class="st1" d="M134.8,334.7L134.8,334.7c0.2,0,0.4,0.1,0.6,0.2c0.2,0.1,0.4,0.3,0.6,0.5c0.2,0.2,0.3,0.4,0.5,0.7
					c0.1,0.3,0.2,0.5,0.3,0.8c-0.1-0.3-0.2-0.6-0.3-0.8c-0.1-0.3-0.3-0.5-0.5-0.7c-0.2-0.2-0.4-0.4-0.6-0.5
					C135.2,334.7,135,334.7,134.8,334.7z"/>
			</g>
			<g>
				<polygon class="st1" points="134.8,334.7 134.8,334.7 134.8,334.7 134.8,334.7 134.8,334.7 134.8,334.7 134.8,334.7 
					134.8,334.7 134.8,334.7 				"/>
			</g>
			<g>
				<path class="st1" d="M136.7,336.8L136.7,336.8c0.1,0.3,0.1,0.6,0,0.8c0,0.3-0.1,0.5-0.2,0.7c-0.1,0.2-0.2,0.4-0.4,0.5
					c-0.2,0.1-0.4,0.2-0.6,0.2c0.2,0,0.4-0.1,0.6-0.2c0.2-0.1,0.3-0.3,0.4-0.5c0.1-0.2,0.2-0.4,0.2-0.7
					C136.8,337.4,136.8,337.1,136.7,336.8z"/>
			</g>
			<g>
				<path class="st1" d="M134.8,334.7c0.2,0,0.4,0.1,0.6,0.2c0.2,0.1,0.4,0.3,0.6,0.5c0.2,0.2,0.3,0.4,0.5,0.7
					c0.1,0.3,0.2,0.5,0.3,0.8c0.1,0.3,0.1,0.6,0,0.8c0,0.3-0.1,0.5-0.2,0.7c-0.1,0.2-0.2,0.4-0.4,0.5c-0.2,0.1-0.4,0.2-0.6,0.2
					L91,339.1c-0.2,0-0.5-0.1-0.7-0.2c-0.2-0.1-0.4-0.3-0.6-0.5c-0.2-0.2-0.4-0.4-0.5-0.7c-0.1-0.3-0.2-0.6-0.3-0.9
					c-0.1-0.3-0.1-0.6,0-0.9c0-0.3,0.1-0.5,0.2-0.7c0.1-0.2,0.3-0.4,0.4-0.5c0.2-0.1,0.4-0.2,0.6-0.2L134.8,334.7z"/>
			</g>
			<g>
				<path class="st1" d="M134.8,334.7c0.2,0,0.4,0.1,0.6,0.2c0.2,0.1,0.4,0.3,0.6,0.5c0.2,0.2,0.3,0.4,0.5,0.7
					c0.1,0.3,0.2,0.5,0.3,0.8c0.1,0.3,0.1,0.6,0,0.8c0,0.3-0.1,0.5-0.2,0.7c-0.1,0.2-0.2,0.4-0.4,0.5c-0.2,0.1-0.4,0.2-0.6,0.2
					L91,339.1c-0.2,0-0.5-0.1-0.7-0.2c-0.2-0.1-0.4-0.3-0.6-0.5c-0.2-0.2-0.4-0.4-0.5-0.7c-0.1-0.3-0.2-0.6-0.3-0.9
					c-0.1-0.3-0.1-0.6,0-0.9c0-0.3,0.1-0.5,0.2-0.7c0.1-0.2,0.3-0.4,0.4-0.5c0.2-0.1,0.4-0.2,0.6-0.2L134.8,334.7z"/>
			</g>
			<g>
				<polygon class="st1" points="91,339.1 91,339.1 91,339.1 91,339.1 91,339.1 91,339.1 91,339.1 91,339.1 91,339.1 				"/>
			</g>
			<g>
				<path class="st1" d="M88.9,336.8L88.9,336.8c-0.1-0.3-0.1-0.6,0-0.9c0-0.3,0.1-0.5,0.2-0.7c0.1-0.2,0.3-0.4,0.4-0.5
					c0.2-0.1,0.4-0.2,0.6-0.2c-0.2,0-0.4,0.1-0.6,0.2c-0.2,0.1-0.3,0.3-0.4,0.5c-0.1,0.2-0.2,0.4-0.2,0.7
					C88.8,336.2,88.8,336.5,88.9,336.8z"/>
			</g>
			<g>
				<polygon class="st1" points="88.9,336.8 88.9,336.8 88.9,336.8 88.9,336.8 88.9,336.8 88.9,336.8 88.9,336.8 88.9,336.8 
					88.9,336.8 				"/>
			</g>
			<g>
				<path class="st1" d="M91,339.1L91,339.1c-0.2,0-0.5-0.1-0.7-0.2c-0.2-0.1-0.4-0.3-0.6-0.5c-0.2-0.2-0.4-0.4-0.5-0.7
					c-0.1-0.3-0.2-0.6-0.3-0.9c0.1,0.3,0.2,0.6,0.3,0.9c0.1,0.3,0.3,0.5,0.5,0.7c0.2,0.2,0.4,0.4,0.6,0.5
					C90.5,339,90.7,339.1,91,339.1z"/>
			</g>
		</g>
		<g class="st0">
			<g>
				<polygon class="st1" points="122.6,345.8 122.6,345.8 122.6,345.8 122.6,345.8 122.6,345.8 122.6,345.8 122.6,345.8 
					122.6,345.8 				"/>
			</g>
			<g>
				<path class="st1" d="M120.6,343.6L120.6,343.6c0.2,0,0.4,0.1,0.7,0.2c0.2,0.1,0.4,0.3,0.6,0.5c0.2,0.2,0.3,0.4,0.5,0.7
					c0.1,0.3,0.2,0.5,0.3,0.8c-0.1-0.3-0.2-0.6-0.3-0.8c-0.1-0.3-0.3-0.5-0.5-0.7c-0.2-0.2-0.4-0.4-0.6-0.5
					C121,343.7,120.8,343.6,120.6,343.6z"/>
			</g>
			<g>
				<polygon class="st1" points="120.6,343.6 120.6,343.6 120.6,343.6 120.6,343.6 120.6,343.6 120.6,343.6 120.6,343.6 
					120.6,343.6 120.6,343.6 				"/>
			</g>
			<g>
				<path class="st1" d="M122.6,345.8c0.1,0.3,0.1,0.6,0,0.9c0,0.3-0.1,0.5-0.2,0.7c-0.1,0.2-0.2,0.4-0.4,0.5
					c-0.2,0.1-0.4,0.2-0.6,0.2c0.2,0,0.4-0.1,0.6-0.2c0.2-0.1,0.3-0.3,0.4-0.5c0.1-0.2,0.2-0.4,0.2-0.7
					C122.6,346.4,122.6,346.1,122.6,345.8z"/>
			</g>
			<g>
				<path class="st1" d="M90.6,346.1c-0.1-0.3-0.1-0.6,0-0.9c0-0.3,0.1-0.5,0.2-0.7c0.1-0.2,0.3-0.4,0.4-0.5
					c0.2-0.1,0.4-0.2,0.6-0.2c-0.2,0-0.4,0.1-0.6,0.2c-0.2,0.1-0.3,0.3-0.4,0.5c-0.1,0.2-0.2,0.4-0.2,0.7
					C90.5,345.4,90.5,345.7,90.6,346.1z"/>
			</g>
			<g>
				<polygon class="st1" points="90.6,346.1 90.6,346.1 90.6,346.1 90.6,346.1 90.6,346.1 90.6,346.1 90.6,346.1 90.6,346.1 				"/>
			</g>
			<g>
				<path class="st1" d="M120.6,343.6c0.2,0,0.4,0.1,0.7,0.2c0.2,0.1,0.4,0.3,0.6,0.5c0.2,0.2,0.3,0.4,0.5,0.7
					c0.1,0.3,0.2,0.5,0.3,0.8c0.1,0.3,0.1,0.6,0,0.9c0,0.3-0.1,0.5-0.2,0.7c-0.1,0.2-0.2,0.4-0.4,0.5c-0.2,0.1-0.4,0.2-0.6,0.2
					l-28.7,0.3c-0.2,0-0.5-0.1-0.7-0.2c-0.2-0.1-0.4-0.3-0.6-0.5c-0.2-0.2-0.4-0.4-0.5-0.7c-0.1-0.3-0.2-0.6-0.3-0.9
					c-0.1-0.3-0.1-0.6,0-0.9c0-0.3,0.1-0.5,0.2-0.7c0.1-0.2,0.3-0.4,0.4-0.5c0.2-0.1,0.4-0.2,0.6-0.2L120.6,343.6z"/>
			</g>
			<g>
				<path class="st1" d="M120.6,343.6c0.2,0,0.4,0.1,0.7,0.2c0.2,0.1,0.4,0.3,0.6,0.5c0.2,0.2,0.3,0.4,0.5,0.7
					c0.1,0.3,0.2,0.5,0.3,0.8c0.1,0.3,0.1,0.6,0,0.9c0,0.3-0.1,0.5-0.2,0.7c-0.1,0.2-0.2,0.4-0.4,0.5c-0.2,0.1-0.4,0.2-0.6,0.2
					l-28.7,0.3c-0.2,0-0.5-0.1-0.7-0.2c-0.2-0.1-0.4-0.3-0.6-0.5c-0.2-0.2-0.4-0.4-0.5-0.7c-0.1-0.3-0.2-0.6-0.3-0.9
					c-0.1-0.3-0.1-0.6,0-0.9c0-0.3,0.1-0.5,0.2-0.7c0.1-0.2,0.3-0.4,0.4-0.5c0.2-0.1,0.4-0.2,0.6-0.2L120.6,343.6z"/>
			</g>
			<g>
				<polygon class="st1" points="92.7,348.3 92.7,348.3 92.7,348.3 92.7,348.3 92.7,348.3 92.7,348.3 92.7,348.3 92.7,348.3 
					92.7,348.3 				"/>
			</g>
			<g>
				<path class="st1" d="M92.7,348.3L92.7,348.3c-0.2,0-0.5-0.1-0.7-0.2c-0.2-0.1-0.4-0.3-0.6-0.5c-0.2-0.2-0.4-0.4-0.5-0.7
					c-0.1-0.3-0.2-0.6-0.3-0.9c0.1,0.3,0.2,0.6,0.3,0.9c0.1,0.3,0.3,0.5,0.5,0.7c0.2,0.2,0.4,0.4,0.6,0.5
					C92.2,348.2,92.4,348.3,92.7,348.3z"/>
			</g>
		</g>
		<g class="st0">
			<g>
				<polygon class="st1" points="135,328 135,328 135,328 135,328 135,328 135,328 135,328 135,328 				"/>
			</g>
			<g>
				<path class="st1" d="M133.1,325.9L133.1,325.9c0.2,0,0.4,0.1,0.6,0.2c0.2,0.1,0.4,0.3,0.6,0.5c0.2,0.2,0.3,0.4,0.5,0.7
					c0.1,0.3,0.2,0.5,0.3,0.8c-0.1-0.3-0.2-0.6-0.3-0.8c-0.1-0.3-0.3-0.5-0.5-0.7c-0.2-0.2-0.4-0.4-0.6-0.5
					C133.5,325.9,133.3,325.9,133.1,325.9z"/>
			</g>
			<g>
				<polygon class="st1" points="133.1,325.9 133.1,325.9 133.1,325.9 133.1,325.9 133.1,325.9 133.1,325.9 133.1,325.9 
					133.1,325.9 133.1,325.9 				"/>
			</g>
			<g>
				<path class="st1" d="M135,328c0.1,0.3,0.1,0.6,0,0.8c0,0.3-0.1,0.5-0.2,0.7c-0.1,0.2-0.2,0.3-0.4,0.5c-0.2,0.1-0.4,0.2-0.6,0.2
					c0.2,0,0.4-0.1,0.6-0.2c0.2-0.1,0.3-0.3,0.4-0.5c0.1-0.2,0.2-0.4,0.2-0.7C135.1,328.6,135.1,328.3,135,328z"/>
			</g>
			<g>
				<path class="st1" d="M87.2,327.6c-0.1-0.3-0.1-0.6,0-0.9c0-0.3,0.1-0.5,0.2-0.7c0.1-0.2,0.3-0.4,0.4-0.5
					c0.2-0.1,0.4-0.2,0.6-0.2c-0.2,0-0.4,0.1-0.6,0.2c-0.2,0.1-0.3,0.3-0.4,0.5c-0.1,0.2-0.2,0.4-0.2,0.7
					C87.1,327,87.1,327.3,87.2,327.6z"/>
			</g>
			<g>
				<polygon class="st1" points="87.2,327.6 87.2,327.6 87.2,327.6 87.2,327.6 87.2,327.6 87.2,327.6 87.2,327.6 87.2,327.6 				"/>
			</g>
			<g>
				<path class="st1" d="M133.1,325.9c0.2,0,0.4,0.1,0.6,0.2c0.2,0.1,0.4,0.3,0.6,0.5c0.2,0.2,0.3,0.4,0.5,0.7
					c0.1,0.3,0.2,0.5,0.3,0.8c0.1,0.3,0.1,0.6,0,0.8c0,0.3-0.1,0.5-0.2,0.7c-0.1,0.2-0.2,0.3-0.4,0.5c-0.2,0.1-0.4,0.2-0.6,0.2
					l-44.6-0.3c-0.2,0-0.5-0.1-0.7-0.2c-0.2-0.1-0.4-0.3-0.6-0.5c-0.2-0.2-0.4-0.4-0.5-0.7c-0.1-0.3-0.2-0.6-0.3-0.9
					c-0.1-0.3-0.1-0.6,0-0.9c0-0.3,0.1-0.5,0.2-0.7c0.1-0.2,0.3-0.4,0.4-0.5c0.2-0.1,0.4-0.2,0.6-0.2L133.1,325.9z"/>
			</g>
			<g>
				<path class="st1" d="M133.1,325.9c0.2,0,0.4,0.1,0.6,0.2c0.2,0.1,0.4,0.3,0.6,0.5c0.2,0.2,0.3,0.4,0.5,0.7
					c0.1,0.3,0.2,0.5,0.3,0.8c0.1,0.3,0.1,0.6,0,0.8c0,0.3-0.1,0.5-0.2,0.7c-0.1,0.2-0.2,0.3-0.4,0.5c-0.2,0.1-0.4,0.2-0.6,0.2
					l-44.6-0.3c-0.2,0-0.5-0.1-0.7-0.2c-0.2-0.1-0.4-0.3-0.6-0.5c-0.2-0.2-0.4-0.4-0.5-0.7c-0.1-0.3-0.2-0.6-0.3-0.9
					c-0.1-0.3-0.1-0.6,0-0.9c0-0.3,0.1-0.5,0.2-0.7c0.1-0.2,0.3-0.4,0.4-0.5c0.2-0.1,0.4-0.2,0.6-0.2L133.1,325.9z"/>
			</g>
			<g>
				<polygon class="st1" points="89.3,329.9 89.3,329.9 89.3,329.9 89.3,329.9 89.3,329.9 89.3,329.9 89.3,329.9 89.3,329.9 
					89.3,329.9 				"/>
			</g>
			<g>
				<path class="st1" d="M89.3,329.9L89.3,329.9c-0.2,0-0.5-0.1-0.7-0.2c-0.2-0.1-0.4-0.3-0.6-0.5c-0.2-0.2-0.4-0.4-0.5-0.7
					c-0.1-0.3-0.2-0.6-0.3-0.9c0.1,0.3,0.2,0.6,0.3,0.9c0.1,0.3,0.3,0.5,0.5,0.7c0.2,0.2,0.4,0.4,0.6,0.5
					C88.8,329.8,89,329.9,89.3,329.9z"/>
			</g>
		</g>
	</g>
	<g>
		<g class="st0">
			<g>
				<polygon class="st1" points="429.6,170.2 429.6,170.2 429.6,170.2 429.6,170.2 429.6,170.2 429.6,170.2 429.6,170.2 
					429.6,170.2 				"/>
			</g>
			<g>
				<path class="st1" d="M429.6,170.2c0.1-0.3,0.2-0.6,0.3-0.8c0.1-0.3,0.3-0.5,0.5-0.7c0.2-0.2,0.4-0.4,0.6-0.5
					c0.2-0.1,0.4-0.2,0.6-0.2c-0.2,0-0.4,0.1-0.6,0.2c-0.2,0.1-0.4,0.3-0.6,0.5c-0.2,0.2-0.3,0.4-0.5,0.7
					C429.8,169.6,429.7,169.9,429.6,170.2z"/>
			</g>
			<g>
				<path class="st1" d="M430.8,172.4L430.8,172.4c-0.2,0-0.4-0.1-0.6-0.2c-0.2-0.1-0.3-0.3-0.4-0.5c-0.1-0.2-0.2-0.4-0.2-0.7
					c0-0.3,0-0.5,0-0.8c-0.1,0.3-0.1,0.6,0,0.8c0,0.3,0.1,0.5,0.2,0.7c0.1,0.2,0.2,0.4,0.4,0.5C430.4,172.3,430.5,172.4,430.8,172.4
					z"/>
			</g>
			<g>
				<polygon class="st1" points="430.8,172.4 430.8,172.4 430.8,172.4 430.8,172.4 430.8,172.4 430.8,172.4 430.8,172.4 
					430.8,172.4 430.8,172.4 				"/>
			</g>
			<g>
				<polygon class="st1" points="454.1,168.1 454.1,168.1 454.1,168.1 454.1,168.1 454.1,168.1 454.1,168.1 454.1,168.1 
					454.1,168.1 454.1,168.1 				"/>
			</g>
			<g>
				<path class="st1" d="M454.1,168.1L454.1,168.1c0.2,0,0.4,0.1,0.6,0.2c0.2,0.1,0.3,0.3,0.4,0.5c0.1,0.2,0.2,0.4,0.2,0.7
					c0,0.3,0,0.6,0,0.9c0.1-0.3,0.1-0.6,0-0.9c0-0.3-0.1-0.5-0.2-0.7c-0.1-0.2-0.3-0.4-0.4-0.5C454.5,168.2,454.3,168.1,454.1,168.1
					z"/>
			</g>
			<g>
				<polygon class="st1" points="455.3,170.3 455.3,170.3 455.3,170.3 455.3,170.3 455.3,170.3 455.3,170.3 455.3,170.3 
					455.3,170.3 				"/>
			</g>
			<g>
				<path class="st1" d="M454.1,168.1c0.2,0,0.4,0.1,0.6,0.2c0.2,0.1,0.3,0.3,0.4,0.5c0.1,0.2,0.2,0.4,0.2,0.7c0,0.3,0,0.6,0,0.9
					c-0.1,0.3-0.2,0.6-0.3,0.9s-0.3,0.5-0.5,0.7c-0.2,0.2-0.4,0.4-0.6,0.5c-0.2,0.1-0.4,0.2-0.7,0.2l-22.5-0.1
					c-0.2,0-0.4-0.1-0.6-0.2c-0.2-0.1-0.3-0.3-0.4-0.5c-0.1-0.2-0.2-0.4-0.2-0.7c0-0.3,0-0.5,0-0.8c0.1-0.3,0.2-0.6,0.3-0.8
					s0.3-0.5,0.5-0.7c0.2-0.2,0.4-0.4,0.6-0.5c0.2-0.1,0.4-0.2,0.6-0.2L454.1,168.1z"/>
			</g>
			<g>
				<path class="st1" d="M455.3,170.3c-0.1,0.3-0.2,0.6-0.3,0.9c-0.1,0.3-0.3,0.5-0.5,0.7c-0.2,0.2-0.4,0.4-0.6,0.5
					c-0.2,0.1-0.4,0.2-0.7,0.2c0.2,0,0.4-0.1,0.7-0.2c0.2-0.1,0.4-0.3,0.6-0.5c0.2-0.2,0.3-0.4,0.5-0.7
					C455.1,170.9,455.2,170.6,455.3,170.3z"/>
			</g>
			<g>
				<path class="st1" d="M454.1,168.1c0.2,0,0.4,0.1,0.6,0.2c0.2,0.1,0.3,0.3,0.4,0.5c0.1,0.2,0.2,0.4,0.2,0.7c0,0.3,0,0.6,0,0.9
					c-0.1,0.3-0.2,0.6-0.3,0.9s-0.3,0.5-0.5,0.7c-0.2,0.2-0.4,0.4-0.6,0.5c-0.2,0.1-0.4,0.2-0.7,0.2l-22.5-0.1
					c-0.2,0-0.4-0.1-0.6-0.2c-0.2-0.1-0.3-0.3-0.4-0.5c-0.1-0.2-0.2-0.4-0.2-0.7c0-0.3,0-0.5,0-0.8c0.1-0.3,0.2-0.6,0.3-0.8
					s0.3-0.5,0.5-0.7c0.2-0.2,0.4-0.4,0.6-0.5c0.2-0.1,0.4-0.2,0.6-0.2L454.1,168.1z"/>
			</g>
		</g>
		<g class="st0">
			<g>
				<polygon class="st1" points="431.3,161.4 431.3,161.4 431.3,161.4 431.3,161.4 431.3,161.4 431.3,161.4 431.3,161.4 
					431.3,161.4 				"/>
			</g>
			<g>
				<path class="st1" d="M431.3,161.4c0.1-0.3,0.2-0.6,0.3-0.8c0.1-0.3,0.3-0.5,0.5-0.7c0.2-0.2,0.4-0.4,0.6-0.5
					c0.2-0.1,0.4-0.2,0.6-0.2c-0.2,0-0.4,0.1-0.6,0.2c-0.2,0.1-0.4,0.3-0.6,0.5c-0.2,0.2-0.3,0.4-0.5,0.7
					C431.5,160.8,431.4,161.1,431.3,161.4z"/>
			</g>
			<g>
				<path class="st1" d="M432.5,163.5L432.5,163.5c-0.2,0-0.4-0.1-0.6-0.2c-0.2-0.1-0.3-0.3-0.4-0.5c-0.1-0.2-0.2-0.4-0.2-0.7
					c0-0.3,0-0.5,0-0.8c-0.1,0.3-0.1,0.6,0,0.8c0,0.3,0.1,0.5,0.2,0.7c0.1,0.2,0.2,0.4,0.4,0.5C432.1,163.5,432.3,163.5,432.5,163.5
					z"/>
			</g>
			<g>
				<polygon class="st1" points="432.5,163.5 432.5,163.5 432.5,163.5 432.5,163.5 432.5,163.5 432.5,163.5 432.5,163.5 
					432.5,163.5 432.5,163.5 				"/>
			</g>
			<g>
				<polygon class="st1" points="472.5,159 472.5,159 472.5,159 472.5,159 472.5,159 472.5,159 472.5,159 472.5,159 472.5,159 				
					"/>
			</g>
			<g>
				<path class="st1" d="M472.5,159L472.5,159c0.2,0,0.4,0.1,0.6,0.2c0.2,0.1,0.3,0.3,0.4,0.5c0.1,0.2,0.2,0.4,0.2,0.7
					c0,0.3,0,0.6,0,0.9c0.1-0.3,0.1-0.6,0-0.9c0-0.3-0.1-0.5-0.2-0.7c-0.1-0.2-0.3-0.4-0.4-0.5C472.9,159,472.7,159,472.5,159z"/>
			</g>
			<g>
				<polygon class="st1" points="473.7,161.2 473.7,161.2 473.7,161.2 473.7,161.2 473.7,161.2 473.7,161.2 473.7,161.2 
					473.7,161.2 473.7,161.2 				"/>
			</g>
			<g>
				<path class="st1" d="M473.7,161.2L473.7,161.2c-0.1,0.3-0.2,0.6-0.3,0.9c-0.1,0.3-0.3,0.5-0.5,0.7c-0.2,0.2-0.4,0.4-0.6,0.5
					c-0.2,0.1-0.5,0.2-0.7,0.2c0.2,0,0.5-0.1,0.7-0.2c0.2-0.1,0.4-0.3,0.6-0.5c0.2-0.2,0.4-0.4,0.5-0.7
					C473.6,161.8,473.7,161.5,473.7,161.2z"/>
			</g>
			<g>
				<path class="st1" d="M472.5,159c0.2,0,0.4,0.1,0.6,0.2c0.2,0.1,0.3,0.3,0.4,0.5c0.1,0.2,0.2,0.4,0.2,0.7c0,0.3,0,0.6,0,0.9
					c-0.1,0.3-0.2,0.6-0.3,0.9c-0.1,0.3-0.3,0.5-0.5,0.7c-0.2,0.2-0.4,0.4-0.6,0.5c-0.2,0.1-0.5,0.2-0.7,0.2l-39.2,0.1
					c-0.2,0-0.4-0.1-0.6-0.2c-0.2-0.1-0.3-0.3-0.4-0.5c-0.1-0.2-0.2-0.4-0.2-0.7c0-0.3,0-0.5,0-0.8c0.1-0.3,0.2-0.6,0.3-0.8
					c0.1-0.3,0.3-0.5,0.5-0.7c0.2-0.2,0.4-0.4,0.6-0.5c0.2-0.1,0.4-0.2,0.6-0.2L472.5,159z"/>
			</g>
			<g>
				<path class="st1" d="M472.5,159c0.2,0,0.4,0.1,0.6,0.2c0.2,0.1,0.3,0.3,0.4,0.5c0.1,0.2,0.2,0.4,0.2,0.7c0,0.3,0,0.6,0,0.9
					c-0.1,0.3-0.2,0.6-0.3,0.9c-0.1,0.3-0.3,0.5-0.5,0.7c-0.2,0.2-0.4,0.4-0.6,0.5c-0.2,0.1-0.5,0.2-0.7,0.2l-39.2,0.1
					c-0.2,0-0.4-0.1-0.6-0.2c-0.2-0.1-0.3-0.3-0.4-0.5c-0.1-0.2-0.2-0.4-0.2-0.7c0-0.3,0-0.5,0-0.8c0.1-0.3,0.2-0.6,0.3-0.8
					c0.1-0.3,0.3-0.5,0.5-0.7c0.2-0.2,0.4-0.4,0.6-0.5c0.2-0.1,0.4-0.2,0.6-0.2L472.5,159z"/>
			</g>
		</g>
	</g>
	<g>
		<g class="st0">
			<g>
				<polygon class="st2" points="72.5,222 72.5,222 72.5,222 72.5,222 72.5,222 72.5,222 72.5,222 72.5,222 				"/>
			</g>
			<g>
				<path class="st2" d="M72.5,222c0.7-3.6,1.9-7,3.4-10.1c1.5-3.1,3.4-5.9,5.6-8.2c2.1-2.4,4.5-4.3,7-5.6c2.5-1.4,5.1-2.1,7.8-2.2
					c-2.6,0.1-5.3,0.8-7.8,2.2c-2.5,1.4-4.9,3.3-7,5.6c-2.1,2.4-4,5.2-5.6,8.2C74.4,215,73.2,218.4,72.5,222z"/>
			</g>
			<g>
				<polygon class="st2" points="96.3,195.8 96.3,195.8 96.3,195.8 96.3,195.8 96.3,195.8 96.3,195.8 96.3,195.8 96.3,195.8 
					96.3,195.8 				"/>
			</g>
			<g>
				<path class="st2" d="M96.3,195.8L96.3,195.8c0.9,0,1.7,0,2.5,0.2c0.8,0.1,1.6,0.3,2.3,0.6c0.7,0.3,1.5,0.6,2.1,1.1
					c0.7,0.4,1.3,0.9,1.9,1.4c-0.6-0.5-1.2-1-1.9-1.4c-0.7-0.4-1.4-0.8-2.1-1.1c-0.7-0.3-1.5-0.5-2.3-0.6
					C98,195.9,97.2,195.8,96.3,195.8z"/>
			</g>
			<g>
				<polygon class="st2" points="105.3,199.1 105.3,199.1 105.3,199.1 105.3,199.1 105.3,199.1 105.3,199.1 105.3,199.1 
					105.3,199.1 				"/>
			</g>
			<g>
				<path class="st2" d="M105.3,199.1c0.8-0.6,1.7-1.1,2.5-1.5c0.8-0.4,1.7-0.8,2.6-1.2c0.9-0.3,1.8-0.6,2.6-0.7
					c0.9-0.2,1.8-0.3,2.7-0.3c-0.9,0-1.8,0.1-2.7,0.3c-0.9,0.2-1.8,0.4-2.6,0.7c-0.9,0.3-1.7,0.7-2.6,1.2
					C106.9,198.1,106.1,198.6,105.3,199.1z"/>
			</g>
			<g>
				<polygon class="st2" points="115.7,195.4 115.7,195.4 115.7,195.4 115.7,195.4 115.7,195.4 115.6,195.4 115.7,195.4 
					115.7,195.4 115.7,195.4 				"/>
			</g>
			<g>
				<path class="st2" d="M93,263.6L93,263.6c-1.5,0-3.8-1-6.5-2.8c-2.6-1.8-5.5-4.5-8-8.1c-2.5-3.5-4.7-7.8-5.9-13
					c-1.2-5.1-1.5-11-0.2-17.7c-1.3,6.7-1,12.6,0.2,17.7c1.2,5.1,3.4,9.5,5.9,13c2.5,3.5,5.4,6.2,8,8.1
					C89.2,262.6,91.6,263.5,93,263.6z"/>
			</g>
			<g>
				<polygon class="st2" points="93,263.6 93,263.6 93,263.6 93,263.6 93,263.6 93.1,263.6 93,263.6 93,263.6 93,263.6 				"/>
			</g>
			<g>
				<path class="st2" d="M115.7,195.4L115.7,195.4c2.7-0.1,5.1,0.6,7.2,1.9c2.1,1.3,3.9,3.2,5.2,5.6c1.4,2.4,2.3,5.2,2.7,8.4
					c0.4,3.2,0.3,6.7-0.4,10.4c0.7-3.7,0.8-7.2,0.4-10.4c-0.4-3.2-1.3-6-2.7-8.4c-1.3-2.4-3.1-4.3-5.2-5.6
					C120.8,196.1,118.4,195.4,115.7,195.4z"/>
			</g>
			<g>
				<path class="st2" d="M130.5,221.8c-1.3,6.9-3.9,13-7.3,18.3c-3.3,5.2-7.3,9.6-11.3,13.1c-4,3.5-8,6.1-11.3,7.8
					c-3.3,1.7-6.1,2.6-7.5,2.5c1.5,0,4.2-0.8,7.5-2.5c3.4-1.7,7.3-4.3,11.3-7.8c4-3.5,8-7.9,11.3-13.1
					C126.5,234.8,129.2,228.7,130.5,221.8z"/>
			</g>
			<g>
				<path class="st2" d="M115.6,195.4c2.7-0.1,5.2,0.6,7.3,1.9c2.1,1.3,3.9,3.2,5.2,5.6c1.4,2.4,2.3,5.2,2.7,8.4
					c0.4,3.2,0.3,6.7-0.4,10.4c-1.3,6.9-3.9,13-7.2,18.3c-3.3,5.2-7.3,9.6-11.3,13.1c-4,3.5-8,6.1-11.3,7.8
					c-3.4,1.7-6.1,2.6-7.5,2.5c-1.5,0-3.8-1-6.5-2.8c-2.6-1.8-5.5-4.5-8-8.1c-2.5-3.5-4.7-7.8-5.9-13c-1.2-5.1-1.5-11-0.2-17.7
					c0.7-3.6,1.9-7,3.4-10.1c1.5-3.1,3.4-5.9,5.6-8.3c2.1-2.4,4.5-4.3,7-5.7c2.5-1.4,5.2-2.1,7.8-2.2c0.9,0,1.7,0,2.5,0.2
					c0.8,0.1,1.6,0.3,2.3,0.6c0.7,0.3,1.5,0.6,2.1,1.1c0.7,0.4,1.3,0.9,1.9,1.4c0.8-0.6,1.7-1.1,2.5-1.5c0.8-0.5,1.7-0.8,2.6-1.2
					c0.9-0.3,1.8-0.6,2.6-0.7C113.9,195.5,114.8,195.4,115.6,195.4z"/>
			</g>
			<g>
				<path class="st2" d="M115.6,195.4c2.7-0.1,5.2,0.6,7.3,1.9c2.1,1.3,3.9,3.2,5.2,5.6c1.4,2.4,2.3,5.2,2.7,8.4
					c0.4,3.2,0.3,6.7-0.4,10.4c-1.3,6.9-3.9,13-7.2,18.3c-3.3,5.2-7.3,9.6-11.3,13.1c-4,3.5-8,6.1-11.3,7.8
					c-3.4,1.7-6.1,2.6-7.5,2.5c-1.5,0-3.8-1-6.5-2.8c-2.6-1.8-5.5-4.5-8-8.1c-2.5-3.5-4.7-7.8-5.9-13c-1.2-5.1-1.5-11-0.2-17.7
					c0.7-3.6,1.9-7,3.4-10.1c1.5-3.1,3.4-5.9,5.6-8.3c2.1-2.4,4.5-4.3,7-5.7c2.5-1.4,5.2-2.1,7.8-2.2c0.9,0,1.7,0,2.5,0.2
					c0.8,0.1,1.6,0.3,2.3,0.6c0.7,0.3,1.5,0.6,2.1,1.1c0.7,0.4,1.3,0.9,1.9,1.4c0.8-0.6,1.7-1.1,2.5-1.5c0.8-0.5,1.7-0.8,2.6-1.2
					c0.9-0.3,1.8-0.6,2.6-0.7C113.9,195.5,114.8,195.4,115.6,195.4z"/>
			</g>
			<g>
				<path class="st2" d="M130.5,221.8C130.5,221.8,130.5,221.8,130.5,221.8C130.5,221.8,130.5,221.8,130.5,221.8
					C130.5,221.8,130.5,221.8,130.5,221.8C130.5,221.8,130.5,221.7,130.5,221.8C130.5,221.7,130.5,221.8,130.5,221.8
					C130.5,221.8,130.5,221.8,130.5,221.8C130.5,221.8,130.5,221.8,130.5,221.8C130.5,221.8,130.5,221.8,130.5,221.8z"/>
			</g>
		</g>
	</g>
	<g>
		<g>
			<polygon class="st3" points="208.3,530.8 322.2,221.6 332.1,228.7 220,535.1 			"/>
		</g>
		<g>
			<polygon class="st4" points="208.7,531 322.6,221.6 332.5,228.7 220.4,535.3 			"/>
		</g>
		<g>
			<path class="st3" d="M482,217.3c1.5,0,2.8,0.3,3.8,0.9c1.1,0.6,1.9,1.5,2.5,2.6c0.6,1.1,1,2.4,1,3.9c0.1,1.5-0.2,3.1-0.7,4.8
				L369.1,585c-0.6,1.9-1.6,3.7-2.6,5.2c-1.1,1.5-2.4,2.7-3.7,3.7c-1.4,0.9-2.8,1.6-4.3,1.9c-1.5,0.3-2.9,0.2-4.3-0.3l-130.8-45.6
				c-1.1-0.4-2-1.1-2.7-2c-0.7-0.9-1.2-2.1-1.5-3.4c-0.3-1.3-0.4-2.8-0.3-4.4c0.1-1.6,0.5-3.2,1.1-4.9l112.1-306.5
				c0.5-1.5,1.3-2.9,2.2-4.1c0.9-1.3,1.9-2.4,3-3.4c1.1-1,2.3-1.8,3.5-2.3c1.2-0.5,2.4-0.9,3.5-0.9L482,217.3z M368.6,584.8
				L488,229.5c0.5-1.6,0.8-3.1,0.7-4.5c-0.1-1.4-0.4-2.6-1-3.7c-0.6-1-1.4-1.9-2.4-2.5c-1-0.6-2.2-0.9-3.6-0.9L344,218.6
				c-1.1,0-2.2,0.3-3.4,0.8c-1.1,0.5-2.2,1.3-3.3,2.2c-1,0.9-2,2-2.8,3.2c-0.8,1.2-1.5,2.5-2,3.9L220.4,535.3
				c-0.6,1.6-0.9,3.1-1,4.6c-0.1,1.5,0,2.9,0.3,4.2c0.3,1.3,0.8,2.4,1.5,3.3c0.7,0.9,1.5,1.5,2.6,1.9l130.8,45.5
				c1.3,0.5,2.7,0.5,4.1,0.3c1.4-0.3,2.8-0.9,4.1-1.8c1.3-0.9,2.5-2.1,3.5-3.5C367.1,588.3,367.9,586.6,368.6,584.8"/>
		</g>
		<g>
			<path class="st3" d="M486.8,218.9c-0.3-0.3-0.6-0.5-1-0.7c-0.4-0.2-0.7-0.4-1.1-0.5c-0.4-0.1-0.8-0.2-1.3-0.3
				c-0.4-0.1-0.9-0.1-1.4-0.1l-9.6-8.2c0.5,0,1,0,1.4,0.1c0.5,0.1,0.9,0.2,1.3,0.3c0.4,0.1,0.8,0.3,1.1,0.5c0.4,0.2,0.7,0.4,1,0.7
				C480.4,213.5,483.6,216.2,486.8,218.9z"/>
		</g>
		<g>
			<path class="st4" d="M481.7,217.9l-9.6-8.2c0.5,0,0.9,0,1.3,0.1c0.4,0.1,0.8,0.2,1.2,0.3c0.4,0.1,0.7,0.3,1.1,0.5
				c0.3,0.2,0.7,0.4,0.9,0.7l9.6,8.2c-0.3-0.2-0.6-0.5-0.9-0.7c-0.3-0.2-0.7-0.4-1.1-0.5c-0.4-0.1-0.8-0.2-1.2-0.3
				C482.7,217.9,482.2,217.9,481.7,217.9z"/>
		</g>
		<g>
			<path class="st4" d="M322.6,221.6c0.5-1.4,1.2-2.7,2.1-4c0.8-1.2,1.8-2.3,2.9-3.3c1-0.9,2.2-1.7,3.3-2.2c1.1-0.5,2.3-0.8,3.4-0.8
				l9.9,7.2c-1.1,0-2.2,0.3-3.4,0.8c-1.1,0.5-2.2,1.3-3.3,2.2c-1,0.9-2,2-2.8,3.2c-0.8,1.2-1.5,2.5-2,3.9L322.6,221.6z"/>
		</g>
		<g>
			<path class="st3" d="M334.2,211.3l9.9,7.2c-1.1,0-2.2,0.3-3.4,0.8c-1.1,0.5-2.2,1.3-3.3,2.2c-1,0.9-2,2-2.8,3.2
				c-0.8,1.2-1.5,2.5-2,3.9l-9.9-7.1c0.5-1.4,1.2-2.7,2.1-4c0.8-1.2,1.8-2.3,2.9-3.2c1-0.9,2.2-1.7,3.3-2.2
				C331.9,211.6,333.1,211.3,334.2,211.3z"/>
		</g>
		<g>
			<path class="st3" d="M211.6,545.6c-1.1-0.4-2-1.1-2.7-2c-0.7-0.9-1.2-2.1-1.5-3.5c-0.3-1.3-0.4-2.8-0.2-4.4
				c0.1-1.6,0.5-3.2,1.1-4.9l11.7,4.3c-0.6,1.6-1,3.3-1.1,4.9c-0.1,1.6,0,3,0.3,4.4c0.3,1.3,0.8,2.5,1.5,3.4c0.7,0.9,1.6,1.6,2.7,2
				C219.8,548.5,215.1,546.9,211.6,545.6z"/>
		</g>
		<g>
			<path class="st4" d="M211.8,545c-1-0.4-1.9-1-2.5-1.9c-0.7-0.9-1.1-2-1.4-3.3c-0.3-1.3-0.4-2.7-0.2-4.2c0.1-1.5,0.5-3.1,1.1-4.6
				l11.7,4.3c-0.6,1.6-0.9,3.1-1,4.6c-0.1,1.5,0,2.9,0.3,4.2c0.3,1.3,0.8,2.4,1.5,3.3c0.7,0.9,1.5,1.5,2.6,1.9
				C220.1,547.9,215.3,546.2,211.8,545z"/>
		</g>
		<g>
			<path class="st3" d="M208.7,531l11.7,4.3c-0.6,1.6-0.9,3.1-1,4.6c-0.1,1.5,0,2.9,0.3,4.2c0.3,1.3,0.8,2.4,1.5,3.3
				c0.7,0.9,1.5,1.5,2.6,1.9l-11.8-4.2c-1-0.4-1.9-1-2.5-1.9c-0.7-0.9-1.1-2-1.4-3.3c-0.3-1.3-0.4-2.7-0.2-4.2
				C207.7,534.1,208.1,532.5,208.7,531z"/>
		</g>
		<g>
			<polygon class="st3" points="472.1,209.7 481.7,217.9 344,218.6 334.2,211.3 			"/>
		</g>
		<g>
			<path class="st3" d="M476.7,211.3l9.6,8.2c-0.3-0.3-0.6-0.5-0.9-0.7c-0.3-0.2-0.7-0.4-1.1-0.5c-0.4-0.1-0.8-0.2-1.2-0.3
				c-0.4-0.1-0.9-0.1-1.3-0.1l-9.6-8.2c0.5,0,0.9,0,1.3,0.1c0.4,0.1,0.8,0.2,1.2,0.3c0.4,0.1,0.7,0.3,1.1,0.5
				C476.1,210.8,476.4,211,476.7,211.3z"/>
		</g>
		<g>
			<polygon class="st3" points="356.8,580.4 478.4,221.3 488,229.5 368.6,584.8 			"/>
		</g>
		<g>
			<path class="st4" d="M481.7,217.9c1.4,0,2.6,0.3,3.6,0.9c1,0.6,1.8,1.4,2.4,2.5c0.6,1,0.9,2.3,1,3.7c0.1,1.4-0.2,2.9-0.7,4.5
				L368.6,584.8c-0.6,1.8-1.5,3.5-2.5,4.9c-1,1.4-2.2,2.6-3.5,3.5c-1.3,0.9-2.7,1.5-4.1,1.8c-1.4,0.3-2.8,0.2-4.1-0.3l-130.8-45.5
				c-1-0.4-1.9-1-2.6-1.9c-0.7-0.9-1.2-2-1.5-3.3c-0.3-1.3-0.4-2.7-0.3-4.2c0.1-1.5,0.5-3,1-4.6l112.2-306.6c0.5-1.4,1.2-2.7,2-3.9
				c0.8-1.2,1.8-2.3,2.8-3.2c1-0.9,2.2-1.7,3.3-2.2c1.1-0.5,2.3-0.8,3.4-0.8L481.7,217.9z"/>
		</g>
		<g>
			<path class="st5" d="M472.1,209.7c1.4,0,2.6,0.3,3.6,0.9c1,0.6,1.8,1.4,2.4,2.5c0.6,1,0.9,2.3,0.9,3.7c0,1.4-0.2,2.9-0.7,4.6
				L356.8,580.4c-0.6,1.8-1.5,3.5-2.5,4.9c-1,1.4-2.3,2.6-3.6,3.5c-1.3,0.9-2.7,1.5-4.1,1.8c-1.4,0.3-2.8,0.2-4.1-0.3L211.8,545
				c-1-0.4-1.9-1-2.5-1.9c-0.7-0.9-1.1-2-1.4-3.3c-0.3-1.3-0.4-2.7-0.2-4.2c0.1-1.5,0.5-3.1,1.1-4.6l113.9-309.4
				c0.5-1.4,1.2-2.7,2.1-4c0.8-1.2,1.8-2.3,2.9-3.3c1-0.9,2.2-1.7,3.3-2.2c1.1-0.5,2.3-0.8,3.4-0.8L472.1,209.7z"/>
		</g>
		<g>
			<path class="st3" d="M472.1,209.7c0.3,0,0.7,0,1,0l-0.8-0.7l-138,1.7l0.7,0.5L472.1,209.7z"/>
		</g>
		<g>
			<path class="st4" d="M479,215.6c0.1,0.4,0.1,0.8,0.1,1.2c0,0.4,0,0.8,0,1.2l2.7,0L479,215.6z"/>
		</g>
		<g>
			<path class="st3" d="M322.6,221.6c0.3-0.7,0.6-1.4,0.9-2.1c0.3-0.7,0.7-1.3,1.2-1.9c0.8-1.2,1.8-2.3,2.9-3.3
				c0.3-0.2,0.5-0.5,0.8-0.7c0.8-0.6,1.6-1.2,2.5-1.5c0.3-0.1,0.6-0.2,0.8-0.4c0.6-0.2,1.1-0.3,1.7-0.4c0.3,0,0.6-0.1,0.8-0.1l0.9,0
				l-0.7-0.5c-1.1,0-2.3,0.3-3.5,0.9c-1.2,0.6-2.4,1.4-3.5,2.3c-1.1,1-2.1,2.1-3,3.4c-0.9,1.3-1.6,2.7-2.2,4.2l0.3,0.2L322.6,221.6z
				"/>
		</g>
		<g>
			<path class="st3" d="M486.3,219.5c0.6,0.5,1.1,1.1,1.4,1.8c0.4,0.7,0.7,1.5,0.8,2.3c0.2,0.9,0.2,1.8,0.1,2.8
				c-0.1,1-0.3,2-0.7,3.1l-9.7-8.2c0.4-1.1,0.6-2.1,0.7-3.1c0.1-1,0.1-1.9-0.1-2.8c-0.2-0.9-0.4-1.7-0.8-2.3
				c-0.4-0.7-0.9-1.3-1.4-1.8C479.6,213.7,483.4,217,486.3,219.5z"/>
		</g>
		<g>
			<path class="st4" d="M486.3,219.5c0.4,0.3,0.7,0.7,1,1.1c0.3,0.4,0.5,0.8,0.7,1.3c0.2,0.5,0.4,1,0.5,1.5c0.1,0.5,0.2,1.1,0.2,1.7
				c-3.2-2.7-6.4-5.5-9.6-8.2c0-0.6-0.1-1.1-0.2-1.7c-0.1-0.5-0.3-1-0.5-1.5c-0.2-0.5-0.4-0.9-0.7-1.3c-0.3-0.4-0.6-0.7-1-1.1
				C479.6,213.7,483.4,217,486.3,219.5z"/>
		</g>
		<g>
			<path class="st4" d="M488.7,226.3c-3.2-2.7-6.4-5.5-9.6-8.2c0,0,0,0,0,0c0-0.1,0-0.2,0-0.4c0-0.1,0-0.2,0-0.3c0-0.1,0-0.2,0-0.3
				c0-0.1,0-0.2,0-0.3c3.2,2.7,6.4,5.5,9.6,8.2c0,0.1,0,0.2,0,0.3c0,0.1,0,0.2,0,0.3c0,0.1,0,0.2,0,0.3S488.7,226.2,488.7,226.3z"/>
		</g>
		<g>
			<path class="st4" d="M488.7,226.3c0,0.1,0,0.1,0,0.2c0,0.1,0,0.1,0,0.2c0,0.1,0,0.1,0,0.2s0,0.1,0,0.2c-3.2-2.7-6.4-5.5-9.6-8.2
				c0-0.1,0-0.1,0-0.2s0-0.1,0-0.2s0-0.1,0-0.2c0-0.1,0-0.1,0-0.2C482.3,220.8,485.5,223.6,488.7,226.3z"/>
		</g>
		<g>
			<polygon class="st4" points="478.4,221.3 488,229.5 368.6,584.8 356.8,580.4 			"/>
		</g>
		<g>
			<polygon class="st3" points="478.9,221.3 488.6,229.5 369.1,585 357.3,580.6 			"/>
		</g>
		<g>
			<path class="st4" d="M488.6,227.1c0,0.2-0.1,0.4-0.1,0.6c0,0.2-0.1,0.4-0.1,0.6c0,0.2-0.1,0.4-0.2,0.6s-0.1,0.4-0.2,0.6l-9.7-8.2
				c0.1-0.2,0.1-0.4,0.2-0.6c0.1-0.2,0.1-0.4,0.2-0.6c0-0.2,0.1-0.4,0.1-0.6c0-0.2,0.1-0.4,0.1-0.6
				C482.2,221.7,485.4,224.4,488.6,227.1z"/>
		</g>
		<g>
			<polygon class="st3" points="211.8,545 342.5,590.4 354.4,594.7 223.6,549.2 			"/>
		</g>
		<g>
			<polygon class="st4" points="342.5,590.4 354.4,594.7 223.6,549.2 211.8,545 			"/>
		</g>
		<g>
			<path class="st3" d="M342.5,590.4c1.3,0.5,2.7,0.5,4.1,0.3c1.4-0.3,2.8-0.9,4.1-1.8c1.3-0.9,2.5-2.1,3.6-3.5
				c1-1.4,1.9-3.1,2.5-4.9l11.8,4.4c-0.6,1.8-1.5,3.5-2.5,4.9c-1,1.4-2.2,2.6-3.5,3.5c-1.3,0.9-2.7,1.5-4.1,1.8
				c-1.4,0.3-2.8,0.2-4.1-0.3L342.5,590.4z"/>
		</g>
		<g>
			<path class="st4" d="M367.9,586.4c-3.9-1.5-7.8-2.9-11.8-4.4c0.1-0.1,0.1-0.3,0.2-0.4c0.1-0.1,0.1-0.3,0.2-0.4
				c0.1-0.1,0.1-0.3,0.2-0.4s0.1-0.3,0.1-0.4l11.8,4.4c0,0.1-0.1,0.3-0.1,0.4s-0.1,0.3-0.2,0.4s-0.1,0.3-0.2,0.4
				C368.1,586.1,368,586.3,367.9,586.4z"/>
		</g>
		<g>
			<path class="st4" d="M367.9,586.5c0,0.1-0.1,0.2-0.1,0.2c0,0.1-0.1,0.2-0.1,0.2c0,0.1-0.1,0.2-0.1,0.2c0,0.1-0.1,0.2-0.1,0.2
				c-3.9-1.5-7.9-2.9-11.8-4.4c0-0.1,0.1-0.2,0.1-0.2c0-0.1,0.1-0.2,0.1-0.2c0-0.1,0.1-0.2,0.1-0.2c0-0.1,0.1-0.2,0.1-0.2
				C360.1,583.5,364,585,367.9,586.5z"/>
		</g>
		<g>
			<path class="st4" d="M367.5,587.4c-0.7,1.4-1.6,2.7-2.6,3.8c-1,1.1-2.1,2-3.3,2.6c-1.2,0.7-2.4,1.1-3.6,1.2
				c-1.2,0.2-2.4,0.1-3.6-0.4l-11.9-4.3c1.2,0.4,2.4,0.5,3.6,0.3c1.2-0.2,2.4-0.6,3.6-1.3c1.2-0.7,2.3-1.6,3.3-2.7
				c1-1.1,1.9-2.4,2.7-3.8C359.6,584.5,363.5,585.9,367.5,587.4z"/>
		</g>
		<g>
			<path class="st3" d="M356.8,580.4l121.6-359.1L356.8,580.4c-0.6,1.8-1.5,3.5-2.5,4.9c-1,1.4-2.3,2.6-3.6,3.5
				c-1.3,0.9-2.7,1.5-4.1,1.8c-1.4,0.3-2.8,0.2-4.1-0.3L211.8,545c-1-0.4-1.9-1-2.5-1.9c-0.7-0.9-1.1-2-1.4-3.3
				c-0.3-1.3-0.4-2.7-0.2-4.2c0.1-1.5,0.5-3.1,1.1-4.6l113.9-309.4c0.5-1.4,1.2-2.7,2.1-4s1.8-2.3,2.9-3.3c1-0.9,2.2-1.7,3.3-2.2
				c1.1-0.5,2.3-0.8,3.4-0.8l138-1.6c1.4,0,2.6,0.3,3.6,0.9c1,0.6,1.8,1.4,2.4,2.5c0.6,1,0.9,2.3,0.9,3.7c0,1.4-0.2,2.9-0.7,4.6
				l0.4,0.4l0.1-0.4c0.6-1.7,0.8-3.3,0.8-4.8c0-1.5-0.4-2.8-1-3.9c-0.6-1.1-1.5-2-2.5-2.6c-1.1-0.6-2.4-0.9-3.8-0.9l-138,1.7
				c-1.1,0-2.3,0.3-3.5,0.9c-1.2,0.6-2.4,1.4-3.5,2.3c-1.1,1-2.1,2.1-3,3.4c-0.9,1.3-1.6,2.7-2.2,4.2L208.3,530.8
				c-0.6,1.7-1,3.3-1.1,4.9c-0.1,1.6-0.1,3.1,0.2,4.4c0.3,1.3,0.8,2.5,1.5,3.5c0.7,0.9,1.6,1.6,2.7,2l130.7,45.5
				c1.4,0.5,2.9,0.6,4.4,0.3c1.5-0.3,2.9-0.9,4.3-1.9c1.4-1,2.6-2.2,3.7-3.7c1.1-1.5,2-3.3,2.7-5.2L356.8,580.4z"/>
		</g>
		<g>
			<polygon class="st3" points="322.6,221.6 332.5,228.7 220.4,535.3 208.7,531 			"/>
		</g>
		<g>
			<path class="st3" d="M477.2,210.7c3.2,2.7,6.4,5.5,9.6,8.2c0.6,0.5,1.1,1.2,1.5,1.9c0.4,0.7,0.7,1.6,0.9,2.5
				c0.2,0.9,0.2,1.9,0.1,2.9c-0.1,1-0.3,2.1-0.7,3.2l-9.6-8.2c0.4-1.1,0.6-2.2,0.7-3.3c0.1-1,0.1-2-0.1-2.9
				c-0.2-0.9-0.4-1.7-0.8-2.5C478.3,211.9,477.8,211.2,477.2,210.7z"/>
		</g>
		<g>
			<polygon class="st3" points="342.3,591.1 354.1,595.4 223.4,549.8 211.6,545.6 			"/>
		</g>
		<g>
			<path class="st4" d="M367.9,586.4C367.9,586.4,367.9,586.4,367.9,586.4C367.9,586.4,367.9,586.4,367.9,586.4
				C367.9,586.4,367.9,586.4,367.9,586.4C367.9,586.5,367.9,586.5,367.9,586.4c-4-1.4-7.9-2.9-11.8-4.3c0,0,0,0,0,0c0,0,0,0,0,0
				s0,0,0,0c0,0,0,0,0,0C360.1,583.5,364,584.9,367.9,586.4z"/>
		</g>
		<g>
			<path class="st3" d="M357.3,580.6l11.8,4.4c-0.6,1.9-1.6,3.7-2.6,5.2c-1.1,1.5-2.4,2.7-3.7,3.7c-1.4,0.9-2.8,1.6-4.3,1.9
				c-1.5,0.3-2.9,0.2-4.3-0.3l-11.9-4.2c1.4,0.5,2.9,0.6,4.4,0.3c1.5-0.3,2.9-0.9,4.3-1.9c1.4-1,2.6-2.2,3.7-3.7
				C355.8,584.3,356.7,582.5,357.3,580.6z"/>
		</g>
		<polygon class="st4" points="219.7,540.6 219.7,540.6 219.7,540.6 219.7,540.6 219.7,540.6 219.7,540.6 219.7,540.6 219.7,540.6 
			219.7,540.6 		"/>
		<polygon class="st2" points="451.3,281 439.3,316.2 284.6,341.7 296.2,310.1 		"/>
		<path class="st4" d="M397.8,438.9l-45.1,133.2c-0.6,1.7-1.4,3.3-2.4,4.6c-1,1.3-2.1,2.4-3.3,3.3c-1.2,0.8-2.5,1.4-3.8,1.7
			c-1.3,0.3-2.6,0.2-3.8-0.2l-119.7-40.8c-1-0.3-1.8-1-2.4-1.8c-0.6-0.8-1.1-1.9-1.4-3.1c-0.3-1.2-0.4-2.5-0.2-3.9
			c0.1-1.4,0.4-2.9,1-4.4L245,450L397.8,438.9z"/>
		<polygon class="st4" points="352.6,572.1 352.6,572.1 352.7,572.1 352.7,572.1 352.7,572.1 352.7,572.1 352.7,572.1 352.6,572.1 
					"/>
		<g class="st0">
			<g>
				<polygon class="st2" points="427.9,349.9 397.8,438.9 245,450 273.7,371.6 				"/>
			</g>
			<g>
				<polygon class="st2" points="427.9,349.9 397.8,438.9 245,450 273.7,371.6 				"/>
			</g>
		</g>
		<polygon class="st4" points="326.7,226.7 326.7,226.7 326.7,226.7 326.7,226.7 326.7,226.7 326.7,226.7 326.7,226.7 326.7,226.7 
					"/>
		<polygon class="st4" points="463.6,216.7 463.6,216.7 463.6,216.7 463.6,216.7 463.6,216.7 463.6,216.7 463.6,216.7 463.6,216.7 
			463.6,216.7 		"/>
		<path class="st4" d="M463.6,216.7c1.3,0,2.4,0.3,3.4,0.8c0.9,0.5,1.7,1.3,2.2,2.3c0.5,1,0.8,2.2,0.9,3.5c0,1.3-0.2,2.7-0.7,4.2
			L451.3,281l-155.1,29.1l30.5-83.4c0.5-1.3,1.2-2.6,1.9-3.7c0.8-1.1,1.7-2.2,2.7-3c1-0.9,2-1.6,3.1-2.1c1.1-0.5,2.2-0.8,3.2-0.8
			L463.6,216.7z"/>
		<g class="st0">
			<g>
				<polygon class="st4" points="438.8,317 427.8,349.6 274.1,370.9 284.7,342 				"/>
			</g>
			<g>
				<polygon class="st4" points="438.8,317 427.8,349.6 274.1,370.9 284.7,342 				"/>
			</g>
		</g>
	</g>
	<g>
		<g>
			<g>
				<path class="st6" d="M221.2,204.8c0.5-0.1,1-0.1,1.5,0c0.5,0,1,0.1,1.6,0.3c0.5,0.1,1.1,0.3,1.6,0.6c0.5,0.2,1.1,0.6,1.6,0.9
					l3.8,2.5l77.1,45.4c-0.2-0.1-0.5-0.2-0.7-0.2c-0.2-0.1-0.5-0.1-0.7-0.1c-0.2,0-0.5,0-0.7,0c-0.2,0-0.5,0-0.7,0.1l-120.9,19.5
					c-0.4,0.1-0.7,0.2-1,0.3c-0.3,0.1-0.6,0.3-0.9,0.5c-0.3,0.2-0.6,0.4-0.8,0.6c-0.3,0.2-0.5,0.5-0.7,0.8l33.1-64.4l2-3.3
					c0.3-0.5,0.6-0.9,0.9-1.3c0.3-0.4,0.7-0.7,1.1-1c0.4-0.3,0.8-0.5,1.3-0.7C220.2,204.9,220.7,204.8,221.2,204.8z"/>
			</g>
			<g>
				<path class="st2" d="M305.6,254c0.2,0,0.5-0.1,0.7-0.1c0.2,0,0.5,0,0.7,0c0.2,0,0.5,0.1,0.7,0.1c0.2,0.1,0.5,0.1,0.7,0.2
					c0.1,0,0.1,0.1,0.2,0.1c0.1,0,0.1,0.1,0.2,0.1c0.1,0,0.1,0.1,0.2,0.1c0.1,0,0.1,0.1,0.2,0.1l1,0.6c0.2,0.2,0.5,0.4,0.7,0.6
					c0.2,0.2,0.4,0.4,0.6,0.6c0.2,0.2,0.4,0.5,0.6,0.7c0.2,0.2,0.4,0.5,0.6,0.8c0.1,0.1,0.1,0.2,0.2,0.2s0.1,0.2,0.2,0.2
					s0.1,0.2,0.2,0.3s0.1,0.2,0.1,0.3l-1.1,2.3l-0.5,0.9L279,328.9l-1.8,3.7c-0.3,0.5-0.6,1-0.9,1.4c-0.3,0.4-0.7,0.8-1.1,1.1
					c-0.4,0.3-0.8,0.6-1.2,0.8c-0.4,0.2-0.9,0.4-1.4,0.5c-0.5,0.1-1,0.2-1.5,0.2c-0.5,0-1,0-1.6-0.1c-0.5-0.1-1.1-0.2-1.6-0.4
					c-0.5-0.2-1.1-0.5-1.6-0.8l-3.9-2.3l-78.5-48.9l-1.2-0.7l-3-1.7c0-0.1,0-0.2,0-0.3c0-0.1,0-0.2,0-0.3c0-0.1,0-0.2,0-0.3
					s0-0.2,0-0.3c0-0.3,0-0.7,0.1-1c0-0.3,0.1-0.7,0.2-1c0.1-0.3,0.2-0.6,0.3-0.9c0.1-0.3,0.2-0.6,0.3-0.8l0.6-1
					c0.2-0.3,0.5-0.6,0.8-0.8c0.3-0.2,0.5-0.5,0.8-0.7c0.3-0.2,0.6-0.3,0.9-0.5c0.3-0.1,0.7-0.2,1-0.3L305.6,254z"/>
			</g>
			<g>
				<path class="st3" d="M313.1,256.1c0.1,0,0.2,0.1,0.2,0.1c0.1,0,0.2,0.1,0.2,0.2c0.1,0.1,0.2,0.1,0.2,0.2s0.2,0.1,0.2,0.2
					L313.1,256.1z"/>
			</g>
			<g>
				<path class="st3" d="M316,262.7c0,0.1-0.1,0.2-0.1,0.2c0,0.1-0.1,0.2-0.1,0.2c0,0.1-0.1,0.2-0.1,0.2s-0.1,0.1-0.1,0.2L316,262.7
					z"/>
			</g>
		</g>
		<g>
			<image style="overflow:visible;" width="205" height="236" xlink:href="589176AB.png"  transform="matrix(1 0 0 1 160 179)">
			</image>
		</g>
		<g>
			<g>
				<path class="st1" d="M261.2,235.3c0.2,0,0.4,0,0.7,0c0.2,0.1,0.5,0.2,0.7,0.3c0.2,0.2,0.4,0.4,0.6,0.6c0.2,0.2,0.3,0.5,0.5,0.8
					c0.1,0.3,0.2,0.6,0.2,0.8c0,0.3,0,0.5,0,0.7c-0.1,0.2-0.2,0.4-0.3,0.5c-0.1,0.1-0.3,0.2-0.5,0.3l-44.7,8.5c-0.2,0-0.5,0-0.7,0
					c-0.2-0.1-0.5-0.2-0.7-0.3c-0.2-0.2-0.5-0.4-0.7-0.6c-0.2-0.2-0.4-0.5-0.5-0.8c-0.1-0.3-0.2-0.6-0.2-0.8c0-0.3,0-0.5,0.1-0.7
					c0.1-0.2,0.2-0.4,0.3-0.5c0.2-0.1,0.4-0.2,0.6-0.3L261.2,235.3z"/>
			</g>
			<g class="st0">
				<g>
					<path class="st1" d="M264.9,243.5c0.2,0,0.4,0,0.7,0c0.2,0.1,0.5,0.2,0.7,0.3c0.2,0.2,0.4,0.3,0.6,0.6c0.2,0.2,0.3,0.5,0.5,0.8
						c0.1,0.3,0.2,0.5,0.2,0.8c0,0.3,0,0.5,0,0.7c-0.1,0.2-0.2,0.4-0.3,0.5c-0.1,0.1-0.3,0.2-0.5,0.3l-44.6,8.9c-0.2,0-0.5,0-0.7,0
						c-0.2-0.1-0.5-0.2-0.7-0.3c-0.2-0.2-0.5-0.4-0.7-0.6c-0.2-0.2-0.4-0.5-0.5-0.8c-0.1-0.3-0.2-0.6-0.2-0.8c0-0.3,0-0.5,0.1-0.7
						c0.1-0.2,0.2-0.4,0.3-0.6c0.2-0.1,0.4-0.2,0.6-0.3L264.9,243.5z"/>
				</g>
				<g>
					<path class="st1" d="M252.7,255c0.2,0,0.5,0,0.7,0c0.2,0.1,0.5,0.2,0.7,0.3c0.2,0.2,0.4,0.4,0.6,0.6c0.2,0.2,0.4,0.5,0.5,0.8
						c0.1,0.3,0.2,0.6,0.2,0.8c0,0.3,0,0.5-0.1,0.7c-0.1,0.2-0.2,0.4-0.3,0.5c-0.1,0.1-0.3,0.2-0.5,0.3l-28.6,6c-0.2,0-0.5,0-0.7,0
						c-0.2-0.1-0.5-0.2-0.7-0.3c-0.2-0.2-0.5-0.4-0.7-0.6c-0.2-0.2-0.4-0.5-0.5-0.8c-0.1-0.3-0.2-0.6-0.2-0.8c0-0.3,0-0.5,0.1-0.7
						c0.1-0.2,0.2-0.4,0.3-0.6c0.2-0.1,0.3-0.3,0.6-0.3L252.7,255z"/>
				</g>
			</g>
			<g>
				<path class="st4" d="M261.8,209.7c1.1-0.2,2.3-0.1,3.5,0.3c1.2,0.4,2.4,1,3.5,1.8c1.1,0.8,2.2,1.8,3.2,3c1,1.2,1.8,2.5,2.4,3.9
					l50.3,112.1c0.7,1.5,1.1,3,1.3,4.4c0.2,1.4,0.2,2.8-0.1,4c-0.3,1.2-0.7,2.3-1.4,3.1c-0.7,0.8-1.6,1.5-2.7,1.8l-66.3,20.4
					c-1.2,0.4-2.5,0.4-3.9,0.1c-1.3-0.3-2.7-0.8-4-1.7c-1.3-0.8-2.5-1.9-3.6-3.2c-1.1-1.3-2-2.8-2.7-4.4l-52.6-121.8
					c-0.7-1.6-1.1-3.1-1.2-4.5c-0.1-1.4,0-2.8,0.4-3.9c0.4-1.2,1-2.1,1.9-2.9c0.9-0.7,1.9-1.3,3.2-1.5L261.8,209.7z M263,239.3
					c0.2,0,0.4-0.1,0.5-0.3c0.1-0.1,0.2-0.3,0.3-0.5c0.1-0.2,0.1-0.4,0-0.7c0-0.3-0.1-0.5-0.2-0.8c-0.1-0.3-0.3-0.5-0.5-0.8
					c-0.2-0.2-0.4-0.4-0.6-0.6c-0.2-0.2-0.5-0.3-0.7-0.3c-0.2-0.1-0.5-0.1-0.7,0l-44.7,8.3c-0.2,0-0.4,0.1-0.6,0.3
					c-0.2,0.1-0.3,0.3-0.3,0.5c-0.1,0.2-0.1,0.5-0.1,0.7c0,0.3,0.1,0.6,0.2,0.8c0.1,0.3,0.3,0.6,0.5,0.8c0.2,0.2,0.4,0.4,0.7,0.6
					c0.2,0.2,0.5,0.3,0.7,0.3c0.2,0.1,0.5,0.1,0.7,0L263,239.3 M266.7,247.6c0.2,0,0.4-0.1,0.5-0.3c0.1-0.1,0.2-0.3,0.3-0.5
					c0.1-0.2,0.1-0.4,0-0.7c0-0.3-0.1-0.5-0.2-0.8c-0.1-0.3-0.3-0.5-0.5-0.8c-0.2-0.2-0.4-0.4-0.6-0.6c-0.2-0.2-0.5-0.3-0.7-0.3
					c-0.2-0.1-0.5-0.1-0.7,0l-44.7,8.7c-0.2,0-0.4,0.1-0.6,0.3c-0.2,0.1-0.3,0.3-0.3,0.6c-0.1,0.2-0.1,0.5-0.1,0.7
					c0,0.3,0.1,0.6,0.2,0.8c0.1,0.3,0.3,0.6,0.5,0.8c0.2,0.2,0.4,0.4,0.7,0.6c0.2,0.2,0.5,0.3,0.7,0.3c0.2,0.1,0.5,0.1,0.7,0
					L266.7,247.6 M254.5,259.1c0.2,0,0.4-0.1,0.5-0.3c0.1-0.1,0.2-0.3,0.3-0.5c0.1-0.2,0.1-0.5,0.1-0.7c0-0.3-0.1-0.5-0.2-0.8
					c-0.1-0.3-0.3-0.5-0.5-0.8c-0.2-0.2-0.4-0.4-0.6-0.6c-0.2-0.2-0.5-0.3-0.7-0.3c-0.2-0.1-0.5-0.1-0.7,0l-28.7,5.8
					c-0.2,0-0.4,0.2-0.6,0.3c-0.2,0.1-0.3,0.3-0.3,0.6c-0.1,0.2-0.1,0.5-0.1,0.7c0,0.3,0.1,0.6,0.2,0.8c0.1,0.3,0.3,0.6,0.5,0.8
					c0.2,0.2,0.4,0.4,0.7,0.6c0.2,0.2,0.5,0.3,0.7,0.3c0.2,0.1,0.5,0.1,0.7,0L254.5,259.1"/>
			</g>
		</g>
		<g>
			<image style="overflow:visible;" width="177" height="142" xlink:href="589176A9.png"  transform="matrix(1 0 0 1 183 255)">
			</image>
		</g>
		<g>
			<g class="st0">
				<g>
					<path class="st3" d="M272.6,320c0.5-0.1,1-0.2,1.5-0.2c0.5,0,1.1,0,1.6,0.1c0.5,0.1,1.1,0.2,1.7,0.4c0.6,0.2,1.1,0.5,1.7,0.8
						l4,2.1l77.8,41.3c0.2,0.9,0.3,1.8,0.3,2.7c0,0.8-0.2,1.6-0.4,2.3c-0.2,0.7-0.6,1.2-1,1.7c-0.5,0.5-1,0.8-1.7,1l-117,34.9
						c-0.8,0.2-1.7,0.3-2.5,0.2c-0.9-0.1-1.7-0.4-2.6-0.8c-0.9-0.4-1.7-0.9-2.5-1.6c-0.8-0.7-1.5-1.4-2.1-2.3l35.1-75.4l1.7-3.6
						c0.2-0.5,0.5-0.9,0.8-1.3c0.3-0.4,0.7-0.8,1-1.1c0.4-0.3,0.8-0.6,1.2-0.8C271.7,320.3,272.1,320.1,272.6,320z"/>
				</g>
				<g>
					<path class="st5" d="M179.8,281.8l3.1,1.6l1.2,0.7l82.3,43.2l-35.3,75.2c-0.1-0.1-0.2-0.3-0.3-0.4c-0.1-0.2-0.2-0.3-0.3-0.5
						c-0.1-0.2-0.2-0.4-0.3-0.6c-0.1-0.2-0.2-0.4-0.3-0.7l-49.4-115.9c-0.1-0.2-0.2-0.4-0.3-0.6c-0.1-0.2-0.1-0.4-0.2-0.6
						s-0.1-0.4-0.2-0.6C179.8,282.2,179.8,282,179.8,281.8z"/>
				</g>
			</g>
			<g>
				<path class="st7" d="M312.8,258.6c0.1,0.2,0.2,0.3,0.3,0.5c0.1,0.2,0.2,0.3,0.3,0.5s0.2,0.4,0.3,0.5c0.1,0.2,0.2,0.4,0.3,0.6
					l46.2,101.8c0.1,0.2,0.2,0.4,0.2,0.6c0.1,0.2,0.1,0.4,0.2,0.6c0.1,0.2,0.1,0.4,0.2,0.6c0.1,0.2,0.1,0.4,0.2,0.6l-77.7-41.5
					L312.8,258.6z"/>
			</g>
		</g>
	</g>
	<g>
		<g class="st0">
			<g>
				<path class="st5" d="M201.2,8.7c7.7-0.4,14.8,0.8,21.1,3.4c6.4,2.6,11.9,6.7,16.2,11.9c4.4,5.2,7.6,11.6,9.4,18.9
					c1.8,7.3,2,15.4,0.5,23.9c-1.1,6-2.9,11.7-5.5,17.2c-2.5,5.4-5.7,10.6-9.4,15.2c-3.7,4.7-7.9,8.9-12.4,12.5
					c-4.5,3.6-9.4,6.7-14.5,9c0.9,1.5,1.9,2.9,2.9,4.3c1,1.4,2.2,2.8,3.3,4.1c1.2,1.3,2.4,2.6,3.7,3.8c1.3,1.2,2.7,2.4,4.1,3.5
					c-0.6,0.1-1.2,0.1-1.7,0.2c-0.6,0-1.1,0.1-1.7,0.1c-0.6,0-1.1,0-1.6,0c-0.5,0-1.1,0-1.6-0.1c-1.5-0.1-2.8-0.3-4.1-0.5
					c-1.3-0.2-2.5-0.5-3.7-0.9c-1.2-0.3-2.2-0.7-3.2-1c-1-0.4-1.9-0.7-2.7-1.1c-1.1-0.5-2.2-1-3.3-1.5c-1-0.5-2.1-1.1-3-1.7
					c-1-0.6-1.9-1.2-2.8-1.9c-0.9-0.7-1.8-1.3-2.6-2.1c-0.8,0.1-1.6,0.2-2.4,0.3c-0.8,0.1-1.6,0.1-2.4,0.1c-0.8,0-1.6,0-2.4,0
					c-0.8,0-1.6,0-2.4-0.1c-7.6-0.4-14.4-2.4-20.2-5.7c-5.7-3.3-10.5-7.8-14.2-13.2c-3.6-5.3-6.1-11.6-7.3-18.4
					c-1.2-6.8-1.1-14.2,0.4-21.9c1.5-7.7,4.4-15.1,8.2-21.8c3.9-6.7,8.8-12.9,14.4-18.1c5.7-5.3,12.1-9.7,18.9-12.8
					C186.2,11.1,193.6,9.1,201.2,8.7z"/>
			</g>
			<g>
				<path class="st5" d="M164.5,123.4c-5.6-1.8-10.6-4.7-14.9-8.4c-4.2-3.6-7.6-8.1-10.2-13.1c-2.5-5-4.2-10.6-4.9-16.6
					c-0.7-6-0.5-12.4,0.9-19c1.5-7.7,4.4-15.1,8.3-21.8c3.9-6.7,8.8-12.9,14.4-18.1c5.7-5.3,12.1-9.7,19-12.9
					c6.9-3.2,14.4-5.2,21.9-5.7l2.3,1c-7.6,0.4-15,2.4-21.9,5.6c-6.9,3.2-13.3,7.6-18.9,12.8c-5.6,5.2-10.5,11.4-14.4,18.1
					c-3.9,6.7-6.7,14.1-8.2,21.8c-1.3,6.6-1.6,13-0.8,19c0.7,6,2.4,11.6,5,16.6c2.6,5,6,9.5,10.2,13.1c4.2,3.7,9.2,6.5,14.9,8.3
					C166.1,123.9,165.2,123.6,164.5,123.4z"/>
			</g>
			<g>
				<path class="st5" d="M223.4,12.6c-1.6-0.7-3.4-1.4-5.1-1.9c-1.8-0.5-3.6-1-5.4-1.3c-1.9-0.3-3.8-0.5-5.7-0.7
					c-1.9-0.1-3.9-0.1-6,0l-2.3-1c2-0.1,4-0.1,6,0c1.9,0.1,3.9,0.3,5.7,0.7c1.9,0.3,3.7,0.8,5.4,1.3c1.8,0.5,3.5,1.2,5.1,1.9
					C221.8,11.9,222.7,12.3,223.4,12.6z"/>
			</g>
			<g>
				<path class="st5" d="M166.8,124.1l-2.4-0.8c0.9,0.3,1.9,0.6,2.9,0.8c1,0.2,2,0.5,3,0.6c1,0.2,2,0.3,3.1,0.5
					c1,0.1,2.1,0.2,3.2,0.3c0.8,0,1.6,0.1,2.4,0.1c0.8,0,1.6,0,2.4,0c0.8,0,1.6-0.1,2.4-0.1c0.8-0.1,1.6-0.2,2.4-0.3l2.4,0.8
					c-0.8,0.1-1.6,0.2-2.4,0.3c-0.8,0.1-1.6,0.1-2.4,0.1c-0.8,0-1.6,0-2.4,0c-0.8,0-1.6,0-2.4-0.1c-1.1-0.1-2.1-0.1-3.2-0.3
					c-1-0.1-2.1-0.3-3.1-0.5c-1-0.2-2-0.4-3-0.6C168.7,124.7,167.8,124.4,166.8,124.1z"/>
			</g>
			<g>
				<path class="st5" d="M202.1,133.9c-0.4-0.1-0.8-0.3-1.2-0.4c-0.4-0.1-0.8-0.3-1.1-0.4c-0.4-0.1-0.7-0.3-1-0.4
					c-0.3-0.1-0.7-0.3-1-0.4c-1.1-0.5-2.2-1-3.2-1.5c-1-0.5-2.1-1.1-3-1.7c-1-0.6-1.9-1.2-2.8-1.9c-0.9-0.7-1.8-1.3-2.6-2.1l2.4,0.8
					c0.8,0.7,1.7,1.4,2.6,2.1c0.9,0.7,1.8,1.3,2.8,1.9c1,0.6,2,1.2,3,1.7c1,0.5,2.1,1,3.3,1.5c0.3,0.1,0.6,0.3,1,0.4
					C201.5,133.6,201.8,133.7,202.1,133.9c0.4,0.1,0.8,0.2,1.2,0.4c0.4,0.1,0.8,0.3,1.2,0.4c-0.1,0-0.2-0.1-0.2-0.1c0,0-0.1,0-0.1,0
					c-0.1,0-0.2-0.1-0.2-0.1c-0.1,0-0.2-0.1-0.2-0.1c0,0-0.1,0-0.1,0c-0.1,0-0.2-0.1-0.2-0.1c-0.1,0-0.2-0.1-0.2-0.1
					c0,0-0.1,0-0.1,0c-0.1,0-0.2-0.1-0.2-0.1c-0.1,0-0.2-0.1-0.2-0.1c0,0-0.1,0-0.1,0C202.3,134,202.2,133.9,202.1,133.9z"/>
			</g>
			<g>
				<path class="st5" d="M204.2,119.8l2.4,0.8c0.9,1.5,1.9,2.9,2.9,4.3c1,1.4,2.2,2.8,3.3,4.1c1.2,1.3,2.4,2.6,3.7,3.8
					c1.3,1.2,2.7,2.4,4.1,3.5l-2.4-0.8c-1.4-1.1-2.8-2.2-4.1-3.5c-1.3-1.2-2.5-2.5-3.7-3.8c-1.2-1.3-2.3-2.7-3.3-4.1
					C206.1,122.8,205.1,121.3,204.2,119.8z"/>
			</g>
			<g>
				<path class="st5" d="M204.5,134.7c-0.1,0-0.2-0.1-0.2-0.1c0,0-0.1,0-0.1,0c-0.1,0-0.2-0.1-0.2-0.1c-0.1,0-0.2-0.1-0.2-0.1
					c0,0-0.1,0-0.1,0c-0.1,0-0.2-0.1-0.2-0.1c-0.1,0-0.2-0.1-0.2-0.1c0,0-0.1,0-0.1,0c-0.1,0-0.2-0.1-0.2-0.1
					c-0.1,0-0.2-0.1-0.2-0.1c0,0-0.1,0-0.1,0c-0.1,0-0.2-0.1-0.2-0.1c0.7,0.2,1.4,0.4,2.1,0.6c0.7,0.2,1.5,0.4,2.3,0.5
					c0.8,0.2,1.6,0.3,2.5,0.4c0.8,0.1,1.7,0.2,2.6,0.3c0.5,0,1.1,0.1,1.6,0.1c0.5,0,1.1,0,1.6,0c0.6,0,1.1-0.1,1.7-0.1
					c0.6-0.1,1.2-0.1,1.7-0.2l2.4,0.8c-0.6,0.1-1.2,0.1-1.7,0.2c-0.6,0-1.1,0.1-1.7,0.1c-0.6,0-1.1,0-1.6,0c-0.5,0-1.1,0-1.6-0.1
					c-0.9-0.1-1.8-0.1-2.6-0.3c-0.8-0.1-1.7-0.3-2.5-0.4c-0.8-0.2-1.6-0.3-2.3-0.5C205.9,135.1,205.2,134.9,204.5,134.7z"/>
			</g>
			<g>
				<path class="st5" d="M198.9,7.7c7.7-0.4,14.8,0.8,21.1,3.4c6.4,2.6,11.9,6.7,16.2,11.9c4.4,5.3,7.6,11.7,9.4,18.9
					c1.8,7.3,2,15.4,0.5,24c-1.1,6-2.9,11.7-5.5,17.2c-2.5,5.5-5.7,10.6-9.4,15.3c-3.7,4.7-7.9,8.9-12.4,12.5
					c-4.5,3.6-9.4,6.7-14.5,9.1c0.9,1.5,1.9,2.9,2.9,4.3c1,1.4,2.2,2.8,3.3,4.1c1.2,1.3,2.4,2.6,3.7,3.8c1.3,1.2,2.7,2.4,4.1,3.5
					c-0.6,0.1-1.2,0.1-1.7,0.2c-0.6,0.1-1.1,0.1-1.7,0.1c-0.6,0-1.1,0-1.6,0c-0.5,0-1.1,0-1.6-0.1c-1.5-0.1-2.8-0.3-4.1-0.5
					c-1.3-0.2-2.5-0.5-3.7-0.9c-1.2-0.3-2.2-0.7-3.2-1c-1-0.4-1.9-0.7-2.7-1.1c-1.1-0.5-2.2-1-3.2-1.5c-1-0.5-2.1-1.1-3-1.7
					c-1-0.6-1.9-1.2-2.8-1.9c-0.9-0.7-1.8-1.3-2.6-2.1c-0.8,0.1-1.6,0.2-2.4,0.3c-0.8,0.1-1.6,0.1-2.4,0.1c-0.8,0-1.6,0-2.4,0
					c-0.8,0-1.6,0-2.4-0.1c-7.6-0.4-14.4-2.4-20.2-5.7c-5.7-3.3-10.5-7.8-14.1-13.2c-3.6-5.4-6.1-11.6-7.3-18.5
					c-1.2-6.8-1.1-14.2,0.4-22c1.5-7.7,4.4-15.1,8.3-21.8c3.9-6.7,8.8-12.9,14.4-18.1c5.7-5.3,12.1-9.7,19-12.9
					C183.9,10.2,191.3,8.1,198.9,7.7z"/>
			</g>
			<g>
				<path class="st5" d="M221.1,11.6l2.3,1c4.6,2.1,8.7,4.9,12.3,8.3c3.6,3.5,6.5,7.6,8.8,12.3c2.3,4.7,3.8,9.9,4.5,15.5
					c0.7,5.7,0.5,11.7-0.6,18c-1.1,6-2.9,11.7-5.5,17.2c-2.5,5.4-5.7,10.6-9.4,15.2c-3.7,4.7-7.9,8.9-12.4,12.5
					c-4.5,3.6-9.4,6.7-14.5,9l-2.4-0.8c5.1-2.4,10-5.4,14.5-9.1c4.6-3.6,8.7-7.9,12.4-12.5c3.7-4.7,6.9-9.8,9.4-15.3
					c2.5-5.5,4.4-11.2,5.5-17.2c1.1-6.3,1.3-12.3,0.6-18c-0.7-5.6-2.2-10.9-4.5-15.6c-2.3-4.7-5.2-8.8-8.8-12.3
					C229.8,16.4,225.7,13.6,221.1,11.6z"/>
			</g>
		</g>
		<g class="st0">
			<g>
				<path class="st4" d="M168.9,58.4c-0.2-0.1-0.3-0.2-0.4-0.3c-0.1-0.1-0.2-0.3-0.3-0.5c-0.1-0.2-0.1-0.4-0.1-0.6
					c0-0.2,0-0.5,0-0.7c0.1-0.3,0.2-0.6,0.3-0.8c0.1-0.3,0.3-0.5,0.5-0.7c0.2-0.2,0.4-0.4,0.6-0.5c0.2-0.1,0.4-0.2,0.6-0.2l2.3,0.9
					c-0.2,0-0.4,0.1-0.6,0.2c-0.2,0.1-0.4,0.3-0.6,0.5c-0.2,0.2-0.3,0.4-0.5,0.7c-0.1,0.3-0.2,0.5-0.3,0.8c0,0.3-0.1,0.5,0,0.7
					c0,0.2,0.1,0.4,0.1,0.6c0.1,0.2,0.2,0.3,0.3,0.5c0.1,0.1,0.3,0.2,0.4,0.3C170.5,59,169.6,58.7,168.9,58.4z"/>
			</g>
			<g>
				<path class="st4" d="M203.3,55c0.2,0,0.4,0.1,0.6,0.2c0.2,0.1,0.3,0.3,0.4,0.5c0.1,0.2,0.2,0.4,0.2,0.7c0,0.3,0,0.6,0,0.9
					c-0.1,0.3-0.2,0.6-0.3,0.9c-0.1,0.3-0.3,0.5-0.5,0.7c-0.2,0.2-0.4,0.4-0.6,0.5c-0.2,0.1-0.4,0.2-0.7,0.2l-30.9-0.1
					c-0.2,0-0.4-0.1-0.6-0.2c-0.2-0.1-0.3-0.3-0.4-0.5c-0.1-0.2-0.2-0.4-0.2-0.7c0-0.3,0-0.5,0-0.8c0.1-0.3,0.2-0.6,0.3-0.8
					c0.1-0.3,0.3-0.5,0.5-0.7c0.2-0.2,0.4-0.4,0.6-0.5c0.2-0.1,0.4-0.2,0.6-0.2L203.3,55z"/>
			</g>
			<g>
				<path class="st4" d="M171.2,59.3l-2.3-0.9c0,0,0.1,0,0.1,0s0.1,0,0.1,0c0,0,0.1,0,0.1,0c0,0,0.1,0,0.1,0l2.3,0.9
					c0,0-0.1,0-0.1,0c0,0-0.1,0-0.1,0C171.4,59.3,171.3,59.3,171.2,59.3C171.3,59.3,171.3,59.3,171.2,59.3z"/>
			</g>
			<g>
				<polygon class="st4" points="170.1,54.1 201,54.1 203.3,55 172.4,55 				"/>
			</g>
			<g>
				<path class="st4" d="M203.7,55C203.7,55,203.7,55,203.7,55c-0.1,0-0.2-0.1-0.2-0.1c0,0-0.1,0-0.1,0c0,0-0.1,0-0.1,0l-2.3-0.9
					c0,0,0.1,0,0.1,0c0,0,0.1,0,0.1,0c0,0,0.1,0,0.1,0c0,0,0.1,0,0.1,0C202.2,54.4,203,54.7,203.7,55z"/>
			</g>
			<g>
				<polygon class="st4" points="200.2,58.5 202.5,59.4 171.6,59.3 169.3,58.5 				"/>
			</g>
			<g>
				<path class="st4" d="M201.4,54.1c0.8,0.3,1.6,0.6,2.3,0.9c0.2,0.1,0.3,0.2,0.4,0.3c0.1,0.1,0.2,0.3,0.3,0.5
					c0.1,0.2,0.1,0.4,0.1,0.6c0,0.2,0,0.5,0,0.7c-0.1,0.3-0.2,0.6-0.3,0.9c-0.1,0.3-0.3,0.5-0.5,0.7c-0.2,0.2-0.4,0.4-0.6,0.5
					c-0.2,0.1-0.4,0.2-0.7,0.2l-2.3-0.9c0.2,0,0.5-0.1,0.7-0.2c0.2-0.1,0.4-0.3,0.6-0.5c0.2-0.2,0.4-0.4,0.5-0.7
					c0.1-0.3,0.2-0.6,0.3-0.9c0-0.3,0.1-0.5,0-0.7c0-0.2-0.1-0.4-0.1-0.6c-0.1-0.2-0.2-0.4-0.3-0.5
					C201.7,54.3,201.6,54.2,201.4,54.1z"/>
			</g>
			<g>
				<path class="st4" d="M201,54.1c0.2,0,0.4,0.1,0.6,0.2c0.2,0.1,0.3,0.3,0.4,0.5c0.1,0.2,0.2,0.4,0.2,0.7c0,0.3,0,0.6,0,0.9
					c-0.1,0.3-0.2,0.6-0.3,0.9c-0.1,0.3-0.3,0.5-0.5,0.7c-0.2,0.2-0.4,0.4-0.6,0.5c-0.2,0.1-0.4,0.2-0.7,0.2l-30.9-0.1
					c-0.2,0-0.4-0.1-0.6-0.2c-0.2-0.1-0.3-0.3-0.4-0.5c-0.1-0.2-0.2-0.4-0.2-0.7c0-0.3,0-0.5,0-0.8c0.1-0.3,0.2-0.6,0.3-0.8
					c0.1-0.3,0.3-0.5,0.5-0.7c0.2-0.2,0.4-0.4,0.6-0.5c0.2-0.1,0.4-0.2,0.6-0.2L201,54.1z"/>
			</g>
		</g>
		<g class="st0">
			<g>
				<path class="st4" d="M167.3,67.8c-0.2-0.1-0.3-0.2-0.4-0.3c-0.1-0.1-0.2-0.3-0.3-0.5c-0.1-0.2-0.1-0.4-0.1-0.6
					c0-0.2,0-0.5,0-0.7c0.1-0.3,0.2-0.6,0.3-0.8c0.1-0.3,0.3-0.5,0.5-0.7c0.2-0.2,0.4-0.4,0.6-0.5c0.2-0.1,0.4-0.2,0.6-0.2l2.3,0.9
					c-0.2,0-0.4,0.1-0.6,0.2c-0.2,0.1-0.4,0.3-0.6,0.5c-0.2,0.2-0.3,0.4-0.5,0.7c-0.1,0.3-0.2,0.5-0.3,0.8c0,0.3-0.1,0.5,0,0.7
					c0,0.2,0.1,0.4,0.1,0.6c0.1,0.2,0.2,0.3,0.3,0.5c0.1,0.1,0.3,0.2,0.4,0.3c-0.1,0-0.2-0.1-0.2-0.1c0,0-0.1,0-0.1,0
					c-0.1,0-0.2-0.1-0.2-0.1c-0.1,0-0.2-0.1-0.2-0.1c0,0-0.1,0-0.1,0c-0.1,0-0.2-0.1-0.2-0.1c-0.1,0-0.2-0.1-0.2-0.1
					c0,0-0.1,0-0.1,0c-0.1,0-0.2-0.1-0.2-0.1c-0.1,0-0.2-0.1-0.2-0.1c0,0-0.1,0-0.1,0C167.4,67.8,167.3,67.8,167.3,67.8z"/>
			</g>
			<g>
				<path class="st4" d="M185.4,64.3c0.2,0,0.4,0.1,0.6,0.2c0.2,0.1,0.3,0.3,0.4,0.5c0.1,0.2,0.2,0.4,0.2,0.7c0,0.3,0,0.6,0,0.9
					c-0.1,0.3-0.2,0.6-0.3,0.9c-0.1,0.3-0.3,0.5-0.5,0.7c-0.2,0.2-0.4,0.4-0.6,0.5c-0.2,0.1-0.4,0.2-0.7,0.2l-14.6,0
					c-0.2,0-0.4-0.1-0.6-0.2c-0.2-0.1-0.3-0.3-0.4-0.5c-0.1-0.2-0.2-0.4-0.2-0.7c0-0.3,0-0.5,0-0.8c0.1-0.3,0.2-0.6,0.3-0.8
					c0.1-0.3,0.3-0.5,0.5-0.7c0.2-0.2,0.4-0.4,0.6-0.5c0.2-0.1,0.4-0.2,0.6-0.2L185.4,64.3z"/>
			</g>
			<g>
				<path class="st4" d="M169.6,68.6c-0.1,0-0.2-0.1-0.2-0.1c0,0-0.1,0-0.1,0c-0.1,0-0.2-0.1-0.2-0.1c-0.1,0-0.2-0.1-0.2-0.1
					c0,0-0.1,0-0.1,0c-0.1,0-0.2-0.1-0.2-0.1c-0.1,0-0.2-0.1-0.2-0.1c0,0-0.1,0-0.1,0c-0.1,0-0.2-0.1-0.2-0.1
					c-0.1,0-0.2-0.1-0.2-0.1c0,0-0.1,0-0.1,0c-0.1,0-0.2-0.1-0.2-0.1c0,0,0.1,0,0.1,0c0,0,0.1,0,0.1,0c0,0,0.1,0,0.1,0
					c0,0,0.1,0,0.1,0l2.3,0.9c0,0-0.1,0-0.1,0s-0.1,0-0.1,0C169.7,68.7,169.7,68.7,169.6,68.6C169.6,68.7,169.6,68.6,169.6,68.6z"/>
			</g>
			<g>
				<polygon class="st4" points="168.5,63.5 183,63.4 185.4,64.3 170.8,64.3 				"/>
			</g>
			<g>
				<path class="st4" d="M185.8,64.4C185.7,64.4,185.7,64.4,185.8,64.4c-0.1,0-0.2,0-0.2-0.1s-0.1,0-0.1,0c0,0-0.1,0-0.1,0l-2.3-0.9
					c0,0,0.1,0,0.1,0s0.1,0,0.1,0c0,0,0.1,0,0.1,0c0,0,0.1,0,0.1,0C184.2,63.8,185,64.1,185.8,64.4z"/>
			</g>
			<g>
				<polygon class="st4" points="182.2,67.8 184.5,68.7 170,68.7 167.6,67.8 				"/>
			</g>
			<g>
				<path class="st4" d="M183.4,63.5c0.8,0.3,1.6,0.6,2.3,0.9c0.2,0.1,0.3,0.2,0.4,0.3c0.1,0.1,0.2,0.3,0.3,0.5
					c0.1,0.2,0.1,0.4,0.1,0.6c0,0.2,0,0.5,0,0.7c-0.1,0.3-0.2,0.6-0.3,0.9c-0.1,0.3-0.3,0.5-0.5,0.7c-0.2,0.2-0.4,0.4-0.6,0.5
					c-0.2,0.1-0.4,0.2-0.7,0.2l-2.3-0.9c0.2,0,0.5-0.1,0.7-0.2c0.2-0.1,0.4-0.3,0.6-0.5c0.2-0.2,0.4-0.4,0.5-0.7
					c0.1-0.3,0.2-0.6,0.3-0.9c0-0.3,0.1-0.5,0-0.7c0-0.2-0.1-0.4-0.1-0.6c-0.1-0.2-0.2-0.4-0.3-0.5
					C183.8,63.7,183.6,63.6,183.4,63.5z"/>
			</g>
			<g>
				<path class="st4" d="M183,63.4c0.2,0,0.4,0.1,0.6,0.2c0.2,0.1,0.3,0.3,0.4,0.5c0.1,0.2,0.2,0.4,0.2,0.7c0,0.3,0,0.6,0,0.9
					c-0.1,0.3-0.2,0.6-0.3,0.9c-0.1,0.3-0.3,0.5-0.5,0.7c-0.2,0.2-0.4,0.4-0.6,0.5c-0.2,0.1-0.4,0.2-0.7,0.2l-14.6,0
					c-0.2,0-0.4-0.1-0.6-0.2c-0.2-0.1-0.3-0.3-0.4-0.5c-0.1-0.2-0.2-0.4-0.2-0.7c0-0.3,0-0.5,0-0.9c0.1-0.3,0.2-0.6,0.3-0.8
					c0.1-0.3,0.3-0.5,0.5-0.7c0.2-0.2,0.4-0.4,0.6-0.5c0.2-0.1,0.4-0.2,0.6-0.2L183,63.4z"/>
			</g>
		</g>
	</g>
	<g>
		<g class="st0">
			<g>
				<path class="st3" d="M316.2,73.3c6.4,0.3,12.7,2,18.6,4.6c5.8,2.7,11.3,6.4,16.2,10.8c4.8,4.4,9,9.7,12.3,15.4
					c3.3,5.7,5.7,12,7,18.6c1.3,6.6,1.3,12.9,0.3,18.7c-1.1,5.8-3.2,11.1-6.3,15.6c-3.1,4.6-7.2,8.3-12.1,11.1
					c-4.9,2.8-10.7,4.4-17.1,4.7c-1.4,0.1-2.8,0.1-4.1,0c-1.4-0.1-2.8-0.2-4.1-0.4c-1.4-0.2-2.8-0.4-4.1-0.8
					c-1.4-0.3-2.7-0.7-4.1-1.1c-0.8,1.1-1.6,2.1-2.5,3.1c-0.9,1-1.9,1.8-2.9,2.6c-1,0.8-2.1,1.5-3.2,2.1c-1.1,0.6-2.3,1.2-3.6,1.6
					c-0.6,0.2-1.2,0.4-1.7,0.6c-0.6,0.2-1.2,0.3-1.8,0.4c-0.6,0.1-1.2,0.2-1.8,0.3c-0.6,0.1-1.2,0.1-1.8,0.2c-0.1,0-0.3,0-0.4,0
					c-0.1,0-0.3,0-0.4,0c-0.1,0-0.3,0-0.4,0c-0.1,0-0.3,0-0.4,0c1.1-1,2.2-2,3.2-3.2c1-1.2,1.9-2.4,2.8-3.7c0.8-1.3,1.6-2.7,2.3-4.2
					c0.7-1.5,1.3-3,1.8-4.6c-3.8-2.2-7.4-4.8-10.8-7.8c-3.4-3-6.4-6.4-9.2-10.1c-2.7-3.7-5-7.7-6.9-12c-1.9-4.2-3.3-8.7-4.1-13.3
					c-1.3-7.2-1.1-14,0.4-20.1c1.4-6.1,4.1-11.5,7.8-15.9c3.6-4.4,8.2-7.9,13.6-10.1C303.7,74.1,309.7,73,316.2,73.3z"/>
			</g>
			<g>
				<path class="st3" d="M345.9,170.9c4.7-1.6,8.9-4,12.4-7.1c3.5-3.1,6.4-6.8,8.5-11c2.1-4.2,3.6-8.9,4.2-14c0.6-5,0.4-10.4-0.7-16
					c-1.3-6.6-3.7-12.8-7-18.6c-3.3-5.7-7.5-10.9-12.3-15.4c-4.8-4.5-10.3-8.2-16.2-10.8c-5.9-2.7-12.2-4.3-18.6-4.6l2.3-1
					c6.4,0.3,12.7,2,18.6,4.7c5.8,2.7,11.3,6.4,16.2,10.9c4.8,4.5,9,9.7,12.3,15.4c3.3,5.7,5.7,12,7,18.6c1.1,5.6,1.3,11,0.7,16.1
					c-0.6,5.1-2,9.8-4.2,14c-2.1,4.2-5,8-8.5,11.1c-3.5,3.1-7.7,5.5-12.4,7.1C347.5,170.4,346.6,170.7,345.9,170.9z"/>
			</g>
			<g>
				<path class="st3" d="M300.4,75.5c1.3-0.6,2.7-1.1,4.2-1.5c1.4-0.4,2.9-0.8,4.4-1c1.5-0.3,3.1-0.4,4.6-0.5c1.6-0.1,3.2-0.1,4.8,0
					l-2.3,1c-1.6-0.1-3.3-0.1-4.8,0c-1.6,0.1-3.1,0.3-4.6,0.5c-1.5,0.3-3,0.6-4.4,1c-1.4,0.4-2.8,0.9-4.2,1.5
					C298.8,76.2,299.7,75.8,300.4,75.5z"/>
			</g>
			<g>
				<path class="st3" d="M348.3,170.1l-2.4,0.8c-0.8,0.3-1.7,0.5-2.6,0.7c-0.9,0.2-1.8,0.4-2.7,0.6c-0.9,0.2-1.8,0.3-2.8,0.4
					c-0.9,0.1-1.9,0.2-2.9,0.2c-1.4,0.1-2.8,0.1-4.1,0c-1.4-0.1-2.8-0.2-4.1-0.4c-1.4-0.2-2.8-0.4-4.1-0.8c-1.4-0.3-2.7-0.7-4.1-1.1
					l2.4-0.8c1.4,0.4,2.7,0.8,4.1,1.1c1.4,0.3,2.7,0.6,4.1,0.8c1.4,0.2,2.8,0.3,4.1,0.4c1.4,0.1,2.8,0.1,4.1,0c1,0,1.9-0.1,2.9-0.2
					c0.9-0.1,1.9-0.2,2.8-0.4c0.9-0.2,1.8-0.4,2.7-0.6C346.6,170.6,347.4,170.4,348.3,170.1z"/>
			</g>
			<g>
				<path class="st3" d="M305.8,180.2c0,0,0.1,0,0.1,0c0,0,0.1,0,0.1,0c0,0,0.1,0,0.1,0c0,0,0.1,0,0.1,0c1.2-0.4,2.4-1,3.6-1.6
					c1.1-0.6,2.2-1.3,3.2-2.1c1-0.8,2-1.7,2.9-2.6c0.9-0.9,1.7-2,2.5-3.1l2.4-0.8c-0.8,1.1-1.6,2.1-2.5,3.1c-0.9,1-1.9,1.8-2.9,2.6
					c-1,0.8-2.1,1.5-3.2,2.1c-1.1,0.6-2.3,1.2-3.6,1.6c0,0-0.1,0-0.1,0c0,0-0.1,0-0.1,0s-0.1,0-0.1,0c0,0-0.1,0-0.1,0
					C307.5,179.7,306.6,180,305.8,180.2z"/>
			</g>
			<g>
				<path class="st3" d="M298.1,76.5l2.3-1c-4,1.7-7.5,4.1-10.5,7.1c-3.1,3-5.6,6.5-7.5,10.5c-1.9,4-3.3,8.5-3.8,13.3
					c-0.6,4.8-0.5,10,0.5,15.3c0.8,4.6,2.2,9.1,4.1,13.3c1.9,4.3,4.2,8.3,6.9,12c2.7,3.7,5.8,7.1,9.2,10.2c3.4,3,7,5.7,10.8,7.9
					l-2.4,0.8c-3.8-2.2-7.4-4.8-10.8-7.8c-3.4-3-6.4-6.4-9.2-10.1c-2.7-3.7-5-7.7-6.9-12c-1.9-4.2-3.3-8.7-4.1-13.3
					c-1-5.3-1.1-10.5-0.5-15.3c0.6-4.8,1.9-9.2,3.9-13.2c1.9-4,4.5-7.5,7.5-10.5C290.7,80.6,294.2,78.2,298.1,76.5z"/>
			</g>
			<g>
				<path class="st3" d="M308.2,179.4l-2.4,0.8c-0.5,0.2-1.1,0.3-1.6,0.5c-0.5,0.1-1.1,0.3-1.6,0.4c-0.6,0.1-1.1,0.2-1.7,0.3
					c-0.6,0.1-1.1,0.1-1.7,0.1c-0.1,0-0.3,0-0.4,0c-0.1,0-0.3,0-0.4,0c-0.1,0-0.3,0-0.4,0c-0.1,0-0.3,0-0.4,0l2.4-0.8
					c0.1,0,0.3,0,0.4,0c0.1,0,0.3,0,0.4,0c0.1,0,0.3,0,0.4,0c0.1,0,0.3,0,0.4,0c0.6,0,1.1-0.1,1.7-0.1c0.6-0.1,1.1-0.1,1.7-0.3
					c0.6-0.1,1.1-0.2,1.6-0.4C307.1,179.8,307.7,179.6,308.2,179.4z"/>
			</g>
			<g>
				<path class="st3" d="M318.5,72.3c6.4,0.3,12.7,2,18.6,4.7c5.8,2.7,11.3,6.4,16.2,10.9c4.8,4.5,9,9.7,12.3,15.4
					c3.3,5.7,5.7,12,7,18.6c1.3,6.6,1.4,12.9,0.3,18.7c-1,5.8-3.2,11.1-6.3,15.7c-3.1,4.6-7.2,8.4-12.1,11.1
					c-4.9,2.8-10.7,4.4-17.1,4.7c-1.4,0.1-2.8,0.1-4.1,0c-1.4-0.1-2.8-0.2-4.1-0.4c-1.4-0.2-2.8-0.4-4.1-0.8
					c-1.4-0.3-2.7-0.7-4.1-1.1c-0.8,1.1-1.6,2.1-2.5,3.1c-0.9,1-1.9,1.8-2.9,2.6c-1,0.8-2.1,1.5-3.2,2.1c-1.1,0.6-2.3,1.2-3.6,1.6
					c-0.6,0.2-1.2,0.4-1.7,0.6c-0.6,0.2-1.2,0.3-1.8,0.4c-0.6,0.1-1.2,0.2-1.8,0.3c-0.6,0.1-1.2,0.1-1.8,0.2c-0.1,0-0.3,0-0.4,0
					c-0.1,0-0.3,0-0.4,0c-0.1,0-0.3,0-0.4,0c-0.1,0-0.3,0-0.4,0c1.1-1,2.2-2,3.2-3.2c1-1.2,1.9-2.4,2.8-3.7c0.8-1.3,1.6-2.7,2.3-4.2
					c0.7-1.5,1.3-3,1.8-4.6c-3.8-2.2-7.5-4.8-10.8-7.9c-3.4-3-6.5-6.5-9.2-10.2c-2.7-3.7-5.1-7.8-6.9-12c-1.9-4.3-3.3-8.7-4.1-13.3
					c-1.3-7.2-1.1-14,0.3-20.1c1.4-6.1,4.1-11.5,7.8-16c3.6-4.4,8.2-7.9,13.6-10.1C306,73.1,312,72,318.5,72.3z"/>
			</g>
			<g>
				<path class="st3" d="M299.9,180.7l-2.4,0.8c1.1-1,2.2-2,3.2-3.2c1-1.2,1.9-2.4,2.8-3.7c0.8-1.3,1.6-2.7,2.3-4.2
					c0.7-1.5,1.3-3,1.8-4.6l2.4-0.8c-0.5,1.6-1.1,3.2-1.8,4.6c-0.7,1.5-1.5,2.9-2.3,4.2c-0.8,1.3-1.8,2.6-2.8,3.7
					C302.1,178.7,301.1,179.7,299.9,180.7z"/>
			</g>
		</g>
		<g class="st0">
			<g>
				<path class="st4" d="M338.7,109.8c0.2-0.1,0.3-0.2,0.4-0.3c0.1-0.1,0.2-0.3,0.3-0.5c0.1-0.2,0.1-0.4,0.1-0.6c0-0.2,0-0.5,0-0.7
					c-0.1-0.3-0.2-0.6-0.3-0.8c-0.1-0.3-0.3-0.5-0.5-0.7c-0.2-0.2-0.4-0.4-0.6-0.5c-0.2-0.1-0.4-0.2-0.6-0.2l2.3-0.9
					c0.2,0,0.4,0.1,0.6,0.2c0.2,0.1,0.4,0.3,0.6,0.5c0.2,0.2,0.3,0.4,0.5,0.7c0.1,0.3,0.2,0.5,0.3,0.8c0,0.3,0.1,0.5,0.1,0.7
					c0,0.2-0.1,0.4-0.1,0.6c-0.1,0.2-0.2,0.3-0.3,0.5c-0.1,0.1-0.3,0.2-0.4,0.3C340.3,109.1,339.4,109.5,338.7,109.8z"/>
			</g>
			<g>
				<path class="st4" d="M337.5,105.5c0.2,0,0.4,0.1,0.6,0.2c0.2,0.1,0.4,0.3,0.6,0.5c0.2,0.2,0.3,0.4,0.5,0.7
					c0.1,0.3,0.2,0.5,0.3,0.8c0.1,0.3,0.1,0.6,0,0.8c0,0.3-0.1,0.5-0.2,0.7c-0.1,0.2-0.2,0.4-0.4,0.5c-0.2,0.1-0.4,0.2-0.6,0.2
					l-30.9,0.1c-0.2,0-0.5-0.1-0.7-0.2c-0.2-0.1-0.4-0.3-0.6-0.5c-0.2-0.2-0.4-0.4-0.5-0.7c-0.1-0.3-0.2-0.6-0.3-0.9
					c-0.1-0.3-0.1-0.6,0-0.9c0-0.3,0.1-0.5,0.2-0.7c0.1-0.2,0.3-0.4,0.4-0.5c0.2-0.1,0.4-0.2,0.6-0.2L337.5,105.5z"/>
			</g>
			<g>
				<path class="st4" d="M341,108.9l-2.3,0.9c0,0-0.1,0-0.1,0c0,0-0.1,0-0.1,0c0,0-0.1,0-0.1,0c0,0-0.1,0-0.1,0l2.3-0.9
					c0,0,0.1,0,0.1,0c0,0,0.1,0,0.1,0C340.9,108.9,340.9,108.9,341,108.9C341,108.9,341,108.9,341,108.9z"/>
			</g>
			<g>
				<polygon class="st4" points="308.9,104.5 339.8,104.6 337.5,105.5 306.6,105.4 				"/>
			</g>
			<g>
				<path class="st4" d="M308.5,104.6C308.6,104.6,308.6,104.6,308.5,104.6c0.1,0,0.2-0.1,0.2-0.1c0,0,0.1,0,0.1,0c0,0,0.1,0,0.1,0
					l-2.3,0.9c0,0-0.1,0-0.1,0c0,0-0.1,0-0.1,0c0,0-0.1,0-0.1,0c0,0-0.1,0-0.1,0C306.9,105.3,307.8,104.9,308.5,104.6z"/>
			</g>
			<g>
				<polygon class="st4" points="340.7,109 338.3,109.8 307.4,109.9 309.8,109 				"/>
			</g>
			<g>
				<path class="st4" d="M306.2,105.5l2.3-0.9c-0.2,0.1-0.3,0.2-0.4,0.3c-0.1,0.1-0.2,0.3-0.3,0.5c-0.1,0.2-0.1,0.4-0.1,0.6
					c0,0.2,0,0.5,0,0.7c0.1,0.3,0.2,0.6,0.3,0.9c0.1,0.3,0.3,0.5,0.5,0.7c0.2,0.2,0.4,0.4,0.6,0.5c0.2,0.1,0.4,0.2,0.7,0.2l-2.3,0.9
					c-0.2,0-0.5-0.1-0.7-0.2c-0.2-0.1-0.4-0.3-0.6-0.5c-0.2-0.2-0.4-0.4-0.5-0.7c-0.1-0.3-0.2-0.6-0.3-0.9c0-0.3-0.1-0.5,0-0.7
					c0-0.2,0.1-0.4,0.1-0.6c0.1-0.2,0.2-0.4,0.3-0.5C305.9,105.7,306,105.6,306.2,105.5z"/>
			</g>
			<g>
				<path class="st4" d="M339.8,104.6c0.2,0,0.4,0.1,0.6,0.2c0.2,0.1,0.4,0.3,0.6,0.5c0.2,0.2,0.3,0.4,0.5,0.7
					c0.1,0.3,0.2,0.5,0.3,0.8c0.1,0.3,0.1,0.6,0,0.8c0,0.3-0.1,0.5-0.2,0.7c-0.1,0.2-0.2,0.4-0.4,0.5c-0.2,0.1-0.4,0.2-0.6,0.2
					l-30.9,0.1c-0.2,0-0.5-0.1-0.7-0.2c-0.2-0.1-0.4-0.3-0.6-0.5c-0.2-0.2-0.4-0.4-0.5-0.7c-0.1-0.3-0.2-0.6-0.3-0.9
					c-0.1-0.3-0.1-0.6,0-0.9c0-0.3,0.1-0.5,0.2-0.7c0.1-0.2,0.3-0.4,0.4-0.5c0.2-0.1,0.4-0.2,0.6-0.2L339.8,104.6z"/>
			</g>
		</g>
		<g class="st0">
			<g>
				<path class="st4" d="M341.4,121.1c0.2-0.1,0.3-0.2,0.4-0.3c0.1-0.1,0.2-0.3,0.3-0.5c0.1-0.2,0.1-0.4,0.1-0.6c0-0.2,0-0.5,0-0.7
					c-0.1-0.3-0.2-0.6-0.3-0.8c-0.1-0.3-0.3-0.5-0.5-0.7c-0.2-0.2-0.4-0.4-0.6-0.5c-0.2-0.1-0.4-0.2-0.6-0.2l2.3-0.9
					c0.2,0,0.4,0.1,0.7,0.2c0.2,0.1,0.4,0.3,0.6,0.5c0.2,0.2,0.3,0.4,0.5,0.7c0.1,0.3,0.2,0.5,0.3,0.8c0,0.3,0.1,0.5,0,0.7
					c0,0.2-0.1,0.4-0.1,0.6c-0.1,0.2-0.2,0.3-0.3,0.5c-0.1,0.1-0.3,0.2-0.4,0.3C343,120.5,342.1,120.9,341.4,121.1z"/>
			</g>
			<g>
				<path class="st4" d="M340.2,116.8c0.2,0,0.4,0.1,0.6,0.2c0.2,0.1,0.4,0.3,0.6,0.5c0.2,0.2,0.3,0.4,0.5,0.7
					c0.1,0.3,0.2,0.5,0.3,0.8c0.1,0.3,0.1,0.6,0,0.8c0,0.3-0.1,0.5-0.2,0.7c-0.1,0.2-0.2,0.4-0.4,0.5c-0.2,0.1-0.4,0.2-0.6,0.2
					l-14.6,0c-0.2,0-0.4-0.1-0.7-0.2c-0.2-0.1-0.4-0.3-0.6-0.5c-0.2-0.2-0.3-0.4-0.5-0.7c-0.1-0.3-0.2-0.6-0.3-0.9
					c-0.1-0.3-0.1-0.6,0-0.9c0-0.3,0.1-0.5,0.2-0.7c0.1-0.2,0.3-0.4,0.4-0.5c0.2-0.1,0.4-0.2,0.6-0.2L340.2,116.8z"/>
			</g>
			<g>
				<path class="st4" d="M343.7,120.2l-2.3,0.9c0,0-0.1,0-0.1,0c0,0-0.1,0-0.1,0c0,0-0.1,0-0.1,0c0,0-0.1,0-0.1,0l2.3-0.9
					c0,0,0.1,0,0.1,0c0,0,0.1,0,0.1,0C343.6,120.3,343.6,120.3,343.7,120.2C343.7,120.3,343.7,120.3,343.7,120.2z"/>
			</g>
			<g>
				<polygon class="st4" points="327.9,115.9 342.5,115.9 340.2,116.8 325.6,116.8 				"/>
			</g>
			<g>
				<path class="st4" d="M327.5,116C327.6,116,327.6,116,327.5,116c0.1,0,0.2,0,0.2-0.1s0.1,0,0.1,0c0,0,0.1,0,0.1,0l-2.3,0.9
					c0,0-0.1,0-0.1,0c0,0-0.1,0-0.1,0c0,0-0.1,0-0.1,0c0,0-0.1,0-0.1,0c0.4-0.1,0.8-0.3,1.2-0.4c0.1,0,0.2-0.1,0.2-0.1
					c0,0,0.1,0,0.1,0c0.1,0,0.2-0.1,0.2-0.1c0.1,0,0.2-0.1,0.2-0.1c0,0,0.1,0,0.1,0C327.4,116,327.5,116,327.5,116z"/>
			</g>
			<g>
				<polygon class="st4" points="343.3,120.3 341,121.2 326.4,121.2 328.8,120.3 				"/>
			</g>
			<g>
				<path class="st4" d="M325.2,116.9c0.4-0.1,0.8-0.3,1.2-0.4c0.1,0,0.2-0.1,0.2-0.1c0,0,0.1,0,0.1,0c0.1,0,0.2-0.1,0.2-0.1
					c0.1,0,0.2-0.1,0.2-0.1c0,0,0.1,0,0.1,0c0.1,0,0.2-0.1,0.2-0.1c-0.2,0.1-0.3,0.2-0.4,0.3c-0.1,0.1-0.2,0.3-0.3,0.5
					c-0.1,0.2-0.1,0.4-0.1,0.6c0,0.2,0,0.5,0,0.7c0.1,0.3,0.2,0.6,0.3,0.9c0.1,0.3,0.3,0.5,0.5,0.7c0.2,0.2,0.4,0.4,0.6,0.5
					c0.2,0.1,0.4,0.2,0.7,0.2l-2.3,0.9c-0.2,0-0.4-0.1-0.7-0.2c-0.2-0.1-0.4-0.3-0.6-0.5c-0.2-0.2-0.3-0.4-0.5-0.7
					c-0.1-0.3-0.2-0.6-0.3-0.9c0-0.3-0.1-0.5,0-0.7c0-0.2,0.1-0.4,0.1-0.6c0.1-0.2,0.2-0.4,0.3-0.5C324.9,117,325,116.9,325.2,116.9
					z"/>
			</g>
			<g>
				<path class="st4" d="M342.5,115.9c0.2,0,0.4,0.1,0.7,0.2c0.2,0.1,0.4,0.3,0.6,0.5c0.2,0.2,0.3,0.4,0.5,0.7
					c0.1,0.3,0.2,0.5,0.3,0.8c0.1,0.3,0.1,0.6,0,0.8c0,0.3-0.1,0.5-0.2,0.7c-0.1,0.2-0.2,0.4-0.4,0.5c-0.2,0.1-0.4,0.2-0.6,0.2
					l-14.6,0c-0.2,0-0.5-0.1-0.7-0.2c-0.2-0.1-0.4-0.3-0.6-0.5c-0.2-0.2-0.3-0.4-0.5-0.7c-0.1-0.3-0.2-0.6-0.3-0.9
					c-0.1-0.3-0.1-0.6,0-0.9c0-0.3,0.1-0.5,0.2-0.7c0.1-0.2,0.3-0.4,0.4-0.5c0.2-0.1,0.4-0.2,0.6-0.2L342.5,115.9z"/>
			</g>
		</g>
	</g>
</g>
</svg>
