<svg width="19" height="18" viewBox="0 0 19 18" fill="none" xmlns="http://www.w3.org/2000/svg">
<path d="M4.34652 3.01402H1.02941C0.736987 3.01402 0.5 2.7721 0.5 2.47396C0.5 2.17581 0.736987 1.93389 1.02941 1.93389H4.34652C4.63894 1.93389 4.87593 2.17581 4.87593 2.47396C4.87593 2.7721 4.63894 3.01402 4.34652 3.01402Z" fill="#271B36"/>
<path d="M6.24206 4.94755C4.90491 4.94755 3.81711 3.83786 3.81711 2.47391C3.81711 1.10968 4.90491 0 6.24206 0C7.57922 0 8.66702 1.10968 8.66702 2.47391C8.66702 3.8379 7.57922 4.94755 6.24206 4.94755ZM6.24206 1.08016C5.48876 1.08016 4.87593 1.70549 4.87593 2.47396C4.87593 3.24242 5.48876 3.86738 6.24206 3.86738C6.99537 3.86738 7.6082 3.24238 7.6082 2.47391C7.6082 1.70545 6.99537 1.08016 6.24206 1.08016ZM17.9706 3.01402H10.0581C9.76565 3.01402 9.52866 2.7721 9.52866 2.47396C9.52866 2.17581 9.76565 1.93389 10.0581 1.93389H17.9706C18.263 1.93389 18.5 2.17581 18.5 2.47396C18.5 2.7721 18.263 3.01402 17.9706 3.01402ZM13.3502 11.4737C12.013 11.4737 10.9253 10.364 10.9253 9.00002C10.9253 7.63607 12.0131 6.52639 13.3502 6.52639C14.6874 6.52639 15.7752 7.63607 15.7752 9.00002C15.7752 10.364 14.6874 11.4737 13.3502 11.4737ZM13.3502 7.60655C12.5969 7.60655 11.9841 8.23155 11.9841 9.00002C11.9841 9.76849 12.5969 10.3935 13.3502 10.3935C14.1035 10.3935 14.7164 9.76849 14.7164 9.00002C14.7164 8.23155 14.1035 7.60655 13.3502 7.60655ZM9.53434 9.54008H1.02941C0.736987 9.54008 0.5 9.29816 0.5 9.00002C0.5 8.70188 0.736987 8.45996 1.02941 8.45996H9.53434C9.82676 8.45996 10.0637 8.70188 10.0637 9.00002C10.0637 9.29816 9.82676 9.54008 9.53434 9.54008Z" fill="#271B36"/>
<path d="M17.9706 9.54008H15.2458C14.9534 9.54008 14.7164 9.29816 14.7164 9.00002C14.7164 8.70188 14.9534 8.45996 15.2458 8.45996H17.9706C18.263 8.45996 18.5 8.70188 18.5 9.00002C18.5 9.29816 18.263 9.54008 17.9706 9.54008ZM5.64977 18C4.31261 18 3.22482 16.8903 3.22482 15.5261C3.22482 14.1621 4.31261 13.0525 5.64977 13.0525C6.98693 13.0525 8.07473 14.1621 8.07473 15.5261C8.07473 16.8903 6.98693 18 5.64977 18ZM5.64977 14.1326C4.89647 14.1326 4.28364 14.7576 4.28364 15.5261C4.28364 16.2945 4.89647 16.9198 5.64977 16.9198C6.40308 16.9198 7.01591 16.2945 7.01591 15.5261C7.01591 14.7576 6.40308 14.1326 5.64977 14.1326ZM17.9706 16.0662H9.46566C9.17324 16.0662 8.93625 15.8243 8.93625 15.5261C8.93625 15.228 9.17324 14.9861 9.46566 14.9861H17.9706C18.263 14.9861 18.5 15.228 18.5 15.5261C18.5 15.8243 18.263 16.0662 17.9706 16.0662Z" fill="#271B36"/>
<path d="M3.75423 16.0662H1.02941C0.736987 16.0662 0.5 15.8243 0.5 15.5261C0.5 15.2279 0.736987 14.986 1.02941 14.986H3.75423C4.04665 14.986 4.28364 15.2279 4.28364 15.5261C4.28364 15.8243 4.04665 16.0662 3.75423 16.0662Z" fill="#271B36"/>
</svg>