<svg width="13" height="12" viewBox="0 0 13 12" fill="none" xmlns="http://www.w3.org/2000/svg">
<path id="Vector" d="M12.7177 5.4382C12.8428 5.32157 12.9313 5.17335 12.973 5.01051C13.0147 4.84768 13.008 4.67682 12.9536 4.5175C12.9004 4.35772 12.8016 4.21561 12.6684 4.10747C12.5353 3.99932 12.3732 3.92951 12.2008 3.90604L9.05319 3.46537C8.98716 3.45613 8.92447 3.43155 8.8705 3.39376C8.81653 3.35596 8.77292 3.30608 8.74343 3.24843L7.33622 0.500613C7.25974 0.349921 7.14074 0.223037 6.99287 0.134499C6.845 0.0459609 6.67423 -0.000649989 6.50013 6.84739e-06C6.32608 -0.000602801 6.15536 0.0460303 6.00754 0.134566C5.85972 0.223101 5.74076 0.349959 5.6643 0.500613L4.25684 3.24868C4.19697 3.3658 4.08087 3.44681 3.94681 3.46562L0.799226 3.90629C0.626794 3.92976 0.464715 3.99957 0.33157 4.10772C0.198425 4.21586 0.0996013 4.35797 0.0464287 4.51775C-0.00797947 4.67707 -0.0147145 4.84793 0.0269949 5.01076C0.0687044 5.1736 0.157172 5.32182 0.282264 5.43845L2.55966 7.57731C2.65675 7.66861 2.70126 7.80003 2.67836 7.92844L2.14109 10.9486C2.11678 11.077 2.12242 11.2089 2.15758 11.3349C2.19274 11.4608 2.25655 11.5777 2.34439 11.677C2.62187 11.9947 3.10629 12.0915 3.49363 11.8954L6.30855 10.4693C6.36787 10.4402 6.43353 10.425 6.50013 10.425C6.56673 10.425 6.63239 10.4402 6.69171 10.4693L9.50689 11.8954C9.64036 11.964 9.78929 11.9999 9.94056 12C10.2157 12 10.4765 11.8821 10.6559 11.677C10.7437 11.5777 10.8075 11.4608 10.8427 11.3349C10.8779 11.2089 10.8835 11.077 10.8592 10.9486L10.3216 7.92844C10.3104 7.86503 10.3153 7.79993 10.336 7.73876C10.3567 7.67759 10.3925 7.62218 10.4403 7.57731L12.7177 5.4382Z" fill="#271B36"/>
</svg>