<svg width="18" height="19" viewBox="0 0 18 19" fill="none" xmlns="http://www.w3.org/2000/svg">
<path d="M8.20508 0.297929L3.27344 5.32723C3.09115 5.51603 3 5.73087 3 5.97176C3 6.23217 3.07975 6.44213 3.23926 6.60164C3.39876 6.76114 3.60547 6.8409 3.85938 6.8409C4.10026 6.8409 4.30534 6.75626 4.47461 6.58699L6.50586 4.48738L8.07812 2.67098L7.98047 4.92684V17.4757C7.98047 17.7296 8.06185 17.9395 8.22461 18.1055C8.38737 18.2716 8.59896 18.3546 8.85938 18.3546C9.11328 18.3546 9.32161 18.2716 9.48438 18.1055C9.64714 17.9395 9.72852 17.7296 9.72852 17.4757V4.92684L9.64062 2.67098L11.2031 4.48738L13.2441 6.58699C13.4069 6.75626 13.6087 6.8409 13.8496 6.8409C14.1035 6.8409 14.3102 6.76114 14.4697 6.60164C14.6292 6.44213 14.709 6.23217 14.709 5.97176C14.709 5.73087 14.6178 5.51603 14.4355 5.32723L9.51367 0.297929C9.33138 0.102617 9.11328 0.00333271 8.85938 7.7505e-05C8.60547 -0.00317771 8.38737 0.0961063 8.20508 0.297929Z" fill="#7B7D87"/>
</svg>