<?xml version="1.0" encoding="utf-8"?>
<!-- Generator: Adobe Illustrator 25.4.1, SVG Export Plug-In . SVG Version: 6.00 Build 0)  -->
<svg version="1.1" id="Слой_1" xmlns="http://www.w3.org/2000/svg" xmlns:xlink="http://www.w3.org/1999/xlink" x="0px" y="0px"
	 width="13px" height="12px" viewBox="0 0 13 12" style="enable-background:new 0 0 13 12;" xml:space="preserve">
<style type="text/css">
	.st0{fill:#D8D8D8;}
	.st1{fill:#271B36;}
</style>
<path id="Vector_00000044872491136099952030000013796899104425841067_" class="st0" d="M12.7,5.4C12.9,5.3,12.9,5.2,13,5
	c0-0.2,0-0.3,0-0.5c-0.1-0.2-0.2-0.3-0.3-0.4c-0.1-0.1-0.3-0.2-0.5-0.2L9.1,3.5c-0.1,0-0.1,0-0.2-0.1c-0.1,0-0.1-0.1-0.1-0.1
	L7.3,0.5C7.3,0.3,7.2,0.2,7,0.1C6.9,0,6.7,0,6.5,0C6.3,0,6.2,0,6,0.1C5.9,0.2,5.8,0.3,5.7,0.5L4.3,3.2C4.2,3.4,4.1,3.4,4,3.5
	L0.8,3.9C0.6,3.9,0.5,4,0.3,4.1C0.2,4.2,0.1,4.4,0.1,4.5C0,4.7,0,4.8,0,5c0,0.2,0.1,0.3,0.3,0.4l2.3,2.1c0.1,0.1,0.1,0.2,0.1,0.4
	l-0.5,3c0,0.1,0,0.3,0,0.4c0,0.1,0.1,0.2,0.2,0.3c0.3,0.3,0.8,0.4,1.1,0.2l2.8-1.4c0.1,0,0.1,0,0.2,0c0.1,0,0.1,0,0.2,0l2.8,1.4
	C9.7,12,9.8,12,10,12c0.3,0,0.5-0.1,0.7-0.3c0.1-0.1,0.2-0.2,0.2-0.3c0-0.1,0-0.3,0-0.4l-0.5-3c0-0.1,0-0.1,0-0.2
	c0-0.1,0.1-0.1,0.1-0.2L12.7,5.4z"/>
<path id="Vector" class="st1" d="M6.5,0c0,0-0.2,0-0.3,0C6.2,0,6.1,0.1,6,0.1C5.9,0.2,5.7,0.3,5.7,0.5L4.3,3.2
	C4.2,3.4,4.1,3.4,3.9,3.5L0.8,3.9C0.6,3.9,0.5,4,0.3,4.1C0.2,4.2,0.1,4.4,0,4.5C0,4.7,0,4.8,0,5s0.1,0.3,0.3,0.4l2.3,2.1
	c0.1,0.1,0.1,0.2,0.1,0.4l-0.5,3c0,0.1,0,0.3,0,0.4c0,0.1,0.1,0.2,0.2,0.3c0.3,0.3,0.8,0.4,1.1,0.2c1-0.5,2-1,3-1.4
	C6.5,9,6.5,0,6.5,0z"/>
</svg>
