<svg width="16" height="24" viewBox="0 0 16 24" fill="none" xmlns="http://www.w3.org/2000/svg">
<path fill-rule="evenodd" clip-rule="evenodd" d="M14.0607 1.93934C13.7794 1.65804 13.3978 1.5 13 1.5H3C2.60218 1.5 2.22064 1.65804 1.93934 1.93934C1.65804 2.22064 1.5 2.60218 1.5 3V21C1.5 21.3978 1.65804 21.7794 1.93934 22.0607C2.22064 22.342 2.60218 22.5 3 22.5H13C13.3978 22.5 13.7794 22.342 14.0607 22.0607C14.342 21.7794 14.5 21.3978 14.5 21V3C14.5 2.60218 14.342 2.22064 14.0607 1.93934ZM0.87868 0.87868C1.44129 0.316071 2.20435 0 3 0H13C13.7956 0 14.5587 0.316071 15.1213 0.87868C15.6839 1.44129 16 2.20435 16 3V21C16 21.7957 15.6839 22.5587 15.1213 23.1213C14.5587 23.6839 13.7956 24 13 24H3C2.20435 24 1.44129 23.6839 0.87868 23.1213C0.31607 22.5587 0 21.7957 0 21V3C0 2.20435 0.31607 1.44129 0.87868 0.87868ZM9.06066 20.5607C8.77936 20.842 8.39782 21 8 21C7.60218 21 7.22064 20.842 6.93934 20.5607C6.65804 20.2794 6.5 19.8978 6.5 19.5C6.5 19.1022 6.65804 18.7206 6.93934 18.4393C7.22064 18.158 7.60218 18 8 18C8.39782 18 8.77936 18.158 9.06066 18.4393C9.34196 18.7206 9.5 19.1022 9.5 19.5C9.5 19.8978 9.34196 20.2794 9.06066 20.5607Z" fill="#ACADBC"/>
</svg>
