<svg width="20" height="20" viewBox="0 0 20 20" fill="none" xmlns="http://www.w3.org/2000/svg">
<path d="M10.0391 19.9219C11.3998 19.9219 12.6807 19.6615 13.8818 19.1406C15.083 18.6198 16.1426 17.9004 17.0605 16.9824C17.9785 16.0645 18.6979 15.0049 19.2187 13.8037C19.7396 12.6026 20 11.3216 20 9.96094C20 8.60026 19.7396 7.31933 19.2187 6.11816C18.6979 4.91699 17.9785 3.85742 17.0605 2.93945C16.1426 2.02148 15.0814 1.30208 13.8769 0.78125C12.6725 0.260417 11.39 0 10.0293 0C8.66862 0 7.3877 0.260417 6.18652 0.78125C4.98535 1.30208 3.92741 2.02148 3.0127 2.93945C2.09798 3.85742 1.38021 4.91699 0.859375 6.11816C0.338542 7.31933 0.078125 8.60026 0.078125 9.96094C0.078125 11.3216 0.338542 12.6026 0.859375 13.8037C1.38021 15.0049 2.09961 16.0645 3.01758 16.9824C3.93555 17.9004 4.99512 18.6198 6.19628 19.1406C7.39746 19.6615 8.67839 19.9219 10.0391 19.9219Z" fill="#ee6a5f"/>
<path d="M9.84374 12.0508C9.30338 12.0508 9.0332 11.7839 9.0332 11.25C9.0332 11.2305 9.0332 11.2093 9.0332 11.1865C9.0332 11.1637 9.0332 11.1425 9.0332 11.123C9.0332 10.6217 9.15365 10.2214 9.39453 9.92188C9.63541 9.6224 9.93488 9.34571 10.2929 9.0918C10.7357 8.78581 11.0645 8.52376 11.2793 8.30566C11.4941 8.08757 11.6015 7.806 11.6015 7.46094C11.6015 7.07683 11.4632 6.76758 11.1865 6.5332C10.9099 6.29883 10.5437 6.18164 10.0879 6.18164C9.86654 6.18164 9.66145 6.21745 9.47265 6.28906C9.28385 6.36068 9.11133 6.46484 8.95507 6.60156C8.79883 6.73828 8.65885 6.9043 8.53515 7.09961L8.35937 7.34375C8.26823 7.46094 8.16406 7.55697 8.04687 7.63184C7.92969 7.70671 7.78646 7.74414 7.61718 7.74414C7.44792 7.74414 7.28841 7.68392 7.13867 7.56348C6.98893 7.44304 6.91406 7.27214 6.91406 7.05078C6.91406 6.96615 6.9222 6.88152 6.93847 6.79688C6.95475 6.71224 6.97591 6.63086 7.00195 6.55273C7.14518 6.08399 7.4886 5.67709 8.03222 5.33203C8.57584 4.98698 9.28384 4.81445 10.1562 4.81445C10.7292 4.81445 11.2581 4.91211 11.7431 5.10742C12.2282 5.30274 12.6205 5.59082 12.9199 5.97168C13.2194 6.35254 13.3691 6.82292 13.3691 7.38281C13.3691 7.98829 13.2113 8.4668 12.8955 8.81836C12.5798 9.16992 12.1778 9.50521 11.6894 9.82422C11.3379 10.0521 11.0775 10.2685 10.9082 10.4736C10.739 10.6787 10.6543 10.9244 10.6543 11.2109C10.6543 11.224 10.6543 11.2419 10.6543 11.2646C10.6543 11.2874 10.6543 11.3086 10.6543 11.3281C10.6543 11.53 10.5827 11.7009 10.4394 11.8408C10.2962 11.9808 10.0977 12.0508 9.84374 12.0508ZM9.81445 15.0488C9.52799 15.0488 9.27571 14.9479 9.05761 14.7461C8.83951 14.5443 8.73046 14.2969 8.73046 14.0039C8.73046 13.7174 8.83789 13.47 9.05273 13.2617C9.26758 13.0534 9.52149 12.9492 9.81445 12.9492C10.1139 12.9492 10.3711 13.0517 10.5859 13.2568C10.8008 13.4619 10.9082 13.711 10.9082 14.0039C10.9082 14.2969 10.7992 14.5443 10.581 14.7461C10.363 14.9479 10.1074 15.0488 9.81445 15.0488Z" fill="white"/>
</svg>
