<svg width="21" height="21" viewBox="0 0 21 21" fill="none" xmlns="http://www.w3.org/2000/svg">
<g id="Help icon">
<path id="Vector" d="M10.6851 20.1303C12.0504 20.1303 13.3358 19.869 14.541 19.3463C15.7463 18.8237 16.8095 18.1018 17.7306 17.1807C18.6518 16.2596 19.3736 15.1964 19.8962 13.9911C20.4189 12.7858 20.6802 11.5005 20.6802 10.1351C20.6802 8.76979 20.4189 7.48447 19.8962 6.27917C19.3736 5.07388 18.6518 4.01068 17.7306 3.08955C16.8095 2.16844 15.7447 1.44657 14.5361 0.923946C13.3276 0.401325 12.0406 0.140015 10.6753 0.140015C9.30992 0.140015 8.0246 0.401325 6.8193 0.923946C5.61401 1.44657 4.55243 2.16844 3.63458 3.08955C2.71673 4.01068 1.99649 5.07388 1.47387 6.27917C0.951252 7.48447 0.689941 8.76979 0.689941 10.1351C0.689941 11.5005 0.951252 12.7858 1.47387 13.9911C1.99649 15.1964 2.71836 16.2596 3.63948 17.1807C4.5606 18.1018 5.62381 18.8237 6.8291 19.3463C8.03439 19.869 9.31972 20.1303 10.6851 20.1303Z" fill="#ACADBC"/>
<path id="Vector_2" d="M10.4891 12.2322C9.94684 12.2322 9.67573 11.9643 9.67573 11.4286C9.67573 11.409 9.67573 11.3878 9.67573 11.3649C9.67573 11.342 9.67573 11.3208 9.67573 11.3012C9.67573 10.7982 9.79659 10.3965 10.0383 10.096C10.28 9.79546 10.5805 9.51781 10.9398 9.26304C11.384 8.95599 11.714 8.69305 11.9296 8.4742C12.1451 8.25536 12.2529 7.97282 12.2529 7.62658C12.2529 7.24115 12.1141 6.93084 11.8364 6.69566C11.5588 6.46048 11.1914 6.34289 10.7341 6.34289C10.5119 6.34289 10.3061 6.37882 10.1167 6.45068C9.92724 6.52254 9.75412 6.62706 9.59733 6.76425C9.44055 6.90144 9.30009 7.06803 9.17597 7.26401L8.99959 7.50899C8.90813 7.62658 8.8036 7.72294 8.68601 7.79807C8.56843 7.87319 8.4247 7.91075 8.25485 7.91075C8.085 7.91075 7.92495 7.85033 7.7747 7.72947C7.62444 7.60861 7.54932 7.43713 7.54932 7.21501C7.54932 7.13009 7.55748 7.04517 7.57381 6.96024C7.59015 6.87531 7.61138 6.79365 7.63751 6.71525C7.78123 6.2449 8.12583 5.8366 8.67131 5.49036C9.2168 5.14413 9.92723 4.97101 10.8026 4.97101C11.3775 4.97101 11.9083 5.069 12.3949 5.26498C12.8817 5.46097 13.2753 5.75004 13.5758 6.13221C13.8763 6.51438 14.0265 6.98637 14.0265 7.54818C14.0265 8.15573 13.8681 8.63589 13.5513 8.98866C13.2345 9.34143 12.8311 9.67786 12.3411 9.99797C11.9883 10.2266 11.727 10.4438 11.5572 10.6496C11.3873 10.8553 11.3024 11.102 11.3024 11.3894C11.3024 11.4025 11.3024 11.4205 11.3024 11.4433C11.3024 11.4662 11.3024 11.4874 11.3024 11.507C11.3024 11.7096 11.2305 11.8811 11.0868 12.0215C10.9431 12.162 10.7438 12.2322 10.4891 12.2322ZM10.4597 15.2405C10.1722 15.2405 9.91907 15.1392 9.70022 14.9367C9.48137 14.7342 9.37195 14.486 9.37195 14.192C9.37195 13.9045 9.47974 13.6563 9.69533 13.4472C9.91091 13.2382 10.1657 13.1337 10.4597 13.1337C10.7601 13.1337 11.0182 13.2366 11.2338 13.4423C11.4494 13.6482 11.5572 13.8981 11.5572 14.192C11.5572 14.486 11.4477 14.7342 11.2289 14.9367C11.01 15.1392 10.7536 15.2405 10.4597 15.2405Z" fill="white"/>
</g>
</svg>