<svg width="16" height="16" viewBox="0 0 16 16" fill="none" xmlns="http://www.w3.org/2000/svg">
<path d="M13.8182 0H2.18182C0.945455 0 0 0.945455 0 2.18182V13.8182C0 15.0545 0.945455 16 2.18182 16H13.8182C15.0545 16 16 15.0545 16 13.8182V2.18182C16 0.945455 15.0545 0 13.8182 0ZM14.5455 13.8182C14.5455 14.2545 14.2545 14.5455 13.8182 14.5455H2.18182C1.74545 14.5455 1.45455 14.2545 1.45455 13.8182V2.18182C1.45455 1.74545 1.74545 1.45455 2.18182 1.45455H13.8182C14.2545 1.45455 14.5455 1.74545 14.5455 2.18182V13.8182ZM10.4 5.67273L7.34546 8.72727L5.81818 7.2C5.52727 6.90909 5.09091 6.90909 4.8 7.2C4.5091 7.49091 4.5091 7.92728 4.8 8.21818L6.83636 10.2545C7.12727 10.5455 7.56363 10.5455 7.85454 10.2545L11.4909 6.61819C11.7818 6.32728 11.7818 5.89091 11.4909 5.6C11.1273 5.38182 10.6909 5.38182 10.4 5.67273Z" fill="#41A15B"/>
</svg>
