<svg width="20" height="40" viewBox="0 0 20 40" fill="none" xmlns="http://www.w3.org/2000/svg">
<path d="M16.8454 20H3.15457C1.41956 20 0 21.4196 0 23.1546V36.8454C0 38.5804 1.41956 40 3.15457 40H16.8454C18.5804 40 20 38.5804 20 36.8454V23.1546C20 21.4196 18.5804 20 16.8454 20ZM18.4543 36.5615C18.4543 37.6025 17.6025 38.4543 16.5615 38.4543H3.47003C2.42902 38.4543 1.57729 37.6025 1.57729 36.5615V23.47C1.57729 22.429 2.42902 21.5773 3.47003 21.5773H16.5615C17.6025 21.5773 18.4543 22.429 18.4543 23.47V36.5615Z" fill="white"/>
<path d="M9.99979 24.6057C7.03449 24.6057 4.60547 27.0347 4.60547 30C4.60547 32.9653 7.03449 35.3943 9.99979 35.3943C12.9651 35.3943 15.3941 32.9653 15.3941 30C15.3941 27.0347 12.9651 24.6057 9.99979 24.6057ZM9.99979 33.817C7.88623 33.817 6.18276 32.1136 6.18276 30C6.18276 27.8865 7.88623 26.183 9.99979 26.183C12.1134 26.183 13.8168 27.8865 13.8168 30C13.8168 32.1136 12.1134 33.817 9.99979 33.817Z" fill="white"/>
<path d="M15.7413 25.5205C16.4382 25.5205 17.0032 24.9555 17.0032 24.2587C17.0032 23.5618 16.4382 22.9968 15.7413 22.9968C15.0444 22.9968 14.4795 23.5618 14.4795 24.2587C14.4795 24.9555 15.0444 25.5205 15.7413 25.5205Z" fill="white"/>
<path d="M16.8454 0H3.15457C1.41956 0 0 1.41956 0 3.15457V16.8454C0 18.5804 1.41956 20 3.15457 20H16.8454C18.5804 20 20 18.5804 20 16.8454V3.15457C20 1.41956 18.5804 0 16.8454 0ZM18.4543 16.5615C18.4543 17.6025 17.6025 18.4543 16.5615 18.4543H3.47003C2.42902 18.4543 1.57729 17.6025 1.57729 16.5615V3.47003C1.57729 2.42902 2.42902 1.57729 3.47003 1.57729H16.5615C17.6025 1.57729 18.4543 2.42902 18.4543 3.47003V16.5615Z" fill="#C4C4C4"/>
<path d="M9.99979 4.60571C7.03449 4.60571 4.60547 7.03473 4.60547 10C4.60547 12.9653 7.03449 15.3943 9.99979 15.3943C12.9651 15.3943 15.3941 12.9653 15.3941 10C15.3941 7.03473 12.9651 4.60571 9.99979 4.60571ZM9.99979 13.817C7.88623 13.817 6.18276 12.1136 6.18276 10C6.18276 7.88647 7.88623 6.183 9.99979 6.183C12.1134 6.183 13.8168 7.88647 13.8168 10C13.8168 12.1136 12.1134 13.817 9.99979 13.817Z" fill="#C4C4C4"/>
<path d="M15.7413 5.52048C16.4382 5.52048 17.0032 4.95554 17.0032 4.25866C17.0032 3.56177 16.4382 2.99683 15.7413 2.99683C15.0444 2.99683 14.4795 3.56177 14.4795 4.25866C14.4795 4.95554 15.0444 5.52048 15.7413 5.52048Z" fill="#C4C4C4"/>
</svg>
