<svg width="6" height="12" viewBox="0 0 6 12" fill="none" xmlns="http://www.w3.org/2000/svg">
<path fill-rule="evenodd" clip-rule="evenodd" d="M0.125877 11.8741C0.0859754 11.8343 0.0543181 11.787 0.0327181 11.735C0.011118 11.6829 -1.62987e-08 11.6271 -1.87621e-08 11.5708C-2.12256e-08 11.5144 0.011118 11.4586 0.032718 11.4066C0.0543181 11.3545 0.0859754 11.3072 0.125877 11.2674L4.96493 6.42923L0.125876 1.59104C0.0860395 1.5512 0.0544393 1.50391 0.0328798 1.45186C0.0113204 1.39981 0.000223863 1.34402 0.00022386 1.28769C0.000223858 1.23135 0.0113204 1.17556 0.0328798 1.12351C0.0544392 1.07146 0.0860395 1.02417 0.125876 0.984334C0.165713 0.944497 0.213006 0.912897 0.265055 0.891337C0.317104 0.869778 0.37289 0.858682 0.429227 0.858682C0.485565 0.858682 0.541351 0.869778 0.5934 0.891337C0.645449 0.912897 0.692742 0.944497 0.732579 0.984334L5.87412 6.12588C5.91402 6.16568 5.94568 6.21296 5.96728 6.26501C5.98888 6.31707 6 6.37287 6 6.42923C6 6.48559 5.98888 6.54139 5.96728 6.59344C5.94568 6.6455 5.91402 6.69278 5.87412 6.73258L0.732579 11.8741C0.692779 11.914 0.645497 11.9457 0.593443 11.9673C0.541389 11.9889 0.485585 12 0.429228 12C0.37287 12 0.317066 11.9889 0.265012 11.9673C0.212958 11.9457 0.165677 11.914 0.125877 11.8741Z" fill="#EC6D62"/>
</svg>
