<svg width="6" height="12" viewBox="0 0 6 12" fill="none" xmlns="http://www.w3.org/2000/svg">
<path fill-rule="evenodd" clip-rule="evenodd" d="M0.125877 11.3741C0.0859754 11.3343 0.0543181 11.287 0.0327181 11.235C0.011118 11.1829 -1.62987e-08 11.1271 -1.87621e-08 11.0708C-2.12256e-08 11.0144 0.011118 10.9586 0.032718 10.9066C0.0543181 10.8545 0.0859754 10.8072 0.125877 10.7674L4.96493 5.92923L0.125876 1.09104C0.0860395 1.0512 0.0544393 1.00391 0.0328798 0.951858C0.0113204 0.899809 0.000223863 0.844023 0.00022386 0.787685C0.000223858 0.731348 0.0113204 0.675561 0.0328798 0.623512C0.0544392 0.571464 0.0860395 0.524171 0.125876 0.484334C0.165713 0.444497 0.213006 0.412897 0.265055 0.391337C0.317104 0.369778 0.37289 0.358682 0.429227 0.358682C0.485565 0.358682 0.541351 0.369778 0.5934 0.391337C0.645449 0.412897 0.692742 0.444497 0.732579 0.484334L5.87412 5.62588C5.91402 5.66568 5.94568 5.71296 5.96728 5.76501C5.98888 5.81707 6 5.87287 6 5.92923C6 5.98559 5.98888 6.04139 5.96728 6.09344C5.94568 6.1455 5.91402 6.19278 5.87412 6.23258L0.732579 11.3741C0.692779 11.414 0.645497 11.4457 0.593443 11.4673C0.541389 11.4889 0.485585 11.5 0.429228 11.5C0.37287 11.5 0.317066 11.4889 0.265012 11.4673C0.212958 11.4457 0.165677 11.414 0.125877 11.3741Z" fill="#ACADBC"/>
</svg>
