<svg width="24" height="24" viewBox="0 0 24 24" fill="none" xmlns="http://www.w3.org/2000/svg">
<path d="M5.7377 10.6593L3.4593 12.8441C2.52493 13.7401 2 14.9553 2 16.2224C2 17.4895 2.52493 18.7047 3.4593 19.6007C4.39367 20.4966 5.66095 21 6.98236 21C8.30376 21 9.57104 20.4966 10.5054 19.6007L13.5411 16.6881C14.1045 16.1478 14.5246 15.4857 14.766 14.7574C15.0073 14.0292 15.063 13.256 14.9283 12.5029C14.7936 11.7497 14.4725 11.0385 13.9918 10.429C13.5112 9.81952 12.8851 9.32947 12.1661 9L11.1929 9.93315C11.0941 10.0281 11.0082 10.1345 10.9372 10.25C11.4927 10.4032 11.9969 10.6927 12.4 11.09C12.8031 11.4872 13.0911 11.9785 13.2355 12.5152C13.3799 13.0519 13.3758 13.6155 13.2234 14.1502C13.0711 14.6848 12.7759 15.1722 12.367 15.5639L9.333 18.4748C8.70979 19.0724 7.86454 19.4082 6.98319 19.4082C6.10184 19.4082 5.25658 19.0724 4.63337 18.4748C4.01017 17.8772 3.66005 17.0667 3.66005 16.2216C3.66005 15.3764 4.01017 14.5659 4.63337 13.9683L5.95027 12.7071C5.76446 12.0395 5.69268 11.3474 5.7377 10.6577V10.6593Z" fill="#414141"/>
<path d="M9.45892 7.31083C8.89548 7.85128 8.47543 8.51346 8.23405 9.24181C7.99267 9.97015 7.93699 10.7434 8.07169 11.4967C8.20639 12.2499 8.52754 12.9612 9.00818 13.5708C9.48882 14.1804 10.1149 14.6705 10.8339 15L12.1209 13.7641C11.5579 13.6193 11.0445 13.3349 10.6324 12.9395C10.2203 12.5441 9.92393 12.0516 9.77314 11.5116C9.62235 10.9715 9.62242 10.4029 9.77336 9.86292C9.9243 9.32292 10.2208 8.83052 10.633 8.43522L13.667 5.52391C14.2902 4.92623 15.1355 4.59046 16.0168 4.59046C16.8982 4.59046 17.7434 4.92623 18.3666 5.52391C18.9898 6.12159 19.3399 6.93222 19.3399 7.77747C19.3399 8.62272 18.9898 9.43334 18.3666 10.031L17.0497 11.2924C17.2357 11.9613 17.3071 12.6541 17.2623 13.3421L19.5407 11.157C20.4751 10.2609 21 9.04554 21 7.77826C21 6.51099 20.4751 5.29562 19.5407 4.39952C18.6063 3.50342 17.339 3 16.0176 3C14.6962 3 13.429 3.50342 12.4946 4.39952L9.45892 7.31083Z" fill="#414141"/>
</svg>
