<svg id="ewDV9XnWYk11" xmlns="http://www.w3.org/2000/svg" xmlns:xlink="http://www.w3.org/1999/xlink" viewBox="0 0 45 44" shape-rendering="geometricPrecision" text-rendering="geometricPrecision">
<style><![CDATA[
#ewDV9XnWYk12_tr {animation: ewDV9XnWYk12_tr__tr 2000ms linear infinite normal forwards}@keyframes ewDV9XnWYk12_tr__tr { 0% {transform: translate(21.937579px,22.000004px) rotate(0deg)} 100% {transform: translate(21.937579px,22.000004px) rotate(360deg)}}
]]></style>
<defs><radialGradient id="ewDV9XnWYk12-fill" cx="0" cy="0" r="1" spreadMethod="pad" gradientUnits="userSpaceOnUse" gradientTransform="matrix(19.499979 17.499955 -17.499955 19.499979 22.091299 22)"><stop id="ewDV9XnWYk12-fill-0" offset="0%" stop-color="rgba(100,102,125,0)"/><stop id="ewDV9XnWYk12-fill-1" offset="100%" stop-color="#64667d"/></radialGradient></defs><g id="ewDV9XnWYk12_tr" transform="translate(21.937579,22.000004) rotate(0)"><path d="M40.0913,22c2.2091,0,4.0369-1.8054,3.6374-3.9781-.6752-3.672-2.2784-7.1348-4.6861-10.04523-3.2633-3.94463-7.8001-6.62769-12.8289-7.586989s-10.2347-.134759-14.721,2.331569-7.97186,6.42003-9.85647,11.18005c-1.884612,4.7599-2.050173,10.0282-.46817,14.8971s4.81253,9.0337,9.13504,11.7768s9.4664,3.893,14.5455,3.2513c3.7475-.4734,7.2867-1.9002,10.2925-4.1148c1.7785-1.3103,1.682-3.8776.0716-5.3899l-1.2246-1.15c-1.6104-1.5122-4.1285-1.3577-6.0755-.3138-1.3204.7078-2.7686,1.1743-4.2772,1.3649-2.8443.3593-5.7249-.2846-8.1455-1.8208-2.4206-1.5361-4.2297-3.8684-5.1156-6.595s-.79322-5.6768.2622-8.3424c1.0553-2.6656,3.0073-4.8797,5.5196-6.2608s5.4276-1.84288,8.2437-1.30568c2.8162.53718,5.3568,2.03968,7.1842,4.24868.9693,1.1716,1.7057,2.5031,2.1836,3.9229C34.4724,20.1636,36.2022,22,38.4113,22h1.68Z" transform="translate(-21.937579,-22.000004)" fill="url(#ewDV9XnWYk12-fill)"/></g></svg>
