<svg width="25" height="25" viewBox="0 0 25 25" fill="none" xmlns="http://www.w3.org/2000/svg">
<path d="M17.4792 16.1106C18.8107 14.2936 19.4071 12.0408 19.149 9.80302C18.891 7.5652 17.7974 5.50734 16.0872 4.04115C14.377 2.57496 12.1763 1.80857 9.92532 1.89531C7.67434 1.98204 5.5391 2.9155 3.9468 4.50894C2.3545 6.10238 1.42257 8.23828 1.33744 10.4893C1.25232 12.7404 2.02029 14.9406 3.4877 16.6497C4.95511 18.3589 7.01375 19.4509 9.25176 19.7074C11.4898 19.9639 13.7421 19.3659 15.5581 18.033H15.5568C15.598 18.088 15.642 18.1403 15.6915 18.1912L20.9858 23.4855C21.2437 23.7435 21.5935 23.8885 21.9582 23.8887C22.323 23.8888 22.6729 23.744 22.931 23.4862C23.189 23.2283 23.334 22.8785 23.3341 22.5137C23.3343 22.149 23.1895 21.7991 22.9316 21.541L17.6373 16.2467C17.5882 16.197 17.5353 16.151 17.4792 16.1092V16.1106ZM17.834 10.8245C17.834 11.8178 17.6384 12.8013 17.2583 13.7189C16.8782 14.6365 16.3211 15.4703 15.6188 16.1726C14.9164 16.8749 14.0827 17.432 13.1651 17.8121C12.2474 18.1922 11.2639 18.3878 10.2707 18.3878C9.27749 18.3878 8.29399 18.1922 7.37637 17.8121C6.45875 17.432 5.62498 16.8749 4.92266 16.1726C4.22035 15.4703 3.66324 14.6365 3.28315 13.7189C2.90306 12.8013 2.70743 11.8178 2.70743 10.8245C2.70743 8.81864 3.50427 6.89489 4.92266 5.4765C6.34105 4.05811 8.2648 3.26127 10.2707 3.26127C12.2766 3.26127 14.2004 4.05811 15.6188 5.4765C17.0371 6.89489 17.834 8.81864 17.834 10.8245Z" fill="#7B7D87"/>
</svg>
