<svg width="352" height="136" viewBox="0 0 352 136" fill="none" xmlns="http://www.w3.org/2000/svg">
<path d="M145.71 81.7357L130.136 57.4148H125.973V89.9957H130.444V65.9807L146.018 89.9957H150.181V57.4148H145.71V81.7357Z" fill="black"/>
<path d="M158.354 57.4148V89.9957H179.478V85.7127H162.979V76.0761H177.011V71.6402H162.979V61.8507H179.478V57.4148H158.354Z" fill="black"/>
<path d="M216.639 57.4148L210.934 82.9594L204.15 57.4148H200.911L194.281 82.9594L188.422 57.4148H183.642L191.66 89.9957H196.286L202.608 67.2044L208.775 89.9957H213.401L221.419 57.4148H216.639Z" fill="black"/>
<path d="M236.53 61.8507H245.782V89.9957H250.408V61.8507H259.814V57.4148H236.53V61.8507Z" fill="black"/>
<path d="M268.911 57.4148H264.286V89.9957H268.911V57.4148Z" fill="black"/>
<path d="M291.115 78.9824L281.401 57.4148H277.084V89.9957H281.555V67.9692L289.419 85.5598H292.657L300.521 67.5103V89.9957H304.993V57.4148H300.676L291.115 78.9824Z" fill="black"/>
<path d="M334.29 61.8507V57.4148H313.165V89.9957H334.29V85.7127H317.791V76.0761H331.823V71.6402H317.791V61.8507H334.29Z" fill="black"/>
<path d="M344.281 57.7206C340.735 57.7206 337.805 54.8143 337.805 51.2962C337.805 47.7781 340.735 44.8718 344.281 44.8718C347.828 44.8718 350.758 47.7781 350.758 51.2962C350.758 54.8143 347.828 57.7206 344.281 57.7206ZM344.281 45.7896C341.197 45.7896 338.73 48.237 338.73 51.2962C338.73 54.3555 341.197 56.8028 344.281 56.8028C347.365 56.8028 349.832 54.3555 349.832 51.2962C349.832 48.237 347.211 45.7896 344.281 45.7896Z" fill="black"/>
<path d="M341.968 48.3899H343.973C345.515 48.3899 346.44 49.0018 346.44 50.3785C346.44 51.2962 345.978 51.7551 345.207 52.061L346.44 54.2025H345.207L344.127 52.214H343.048V54.2025H341.968V48.3899ZM343.973 51.1433C344.744 51.1433 345.361 50.8373 345.361 50.2255C345.361 49.4607 344.744 49.1548 343.973 49.1548H343.048V51.1433H343.973Z" fill="black"/>
<path d="M132.649 104.499V115.338H131.336V105.664H125.875V115.338H124.562V104.499H132.649ZM135.997 115.338V104.499H142.538V105.664H137.309V109.326H142.199V110.49H137.309V114.173H142.622V115.338H135.997ZM145.604 115.338V104.499H149.266C150.116 104.499 150.811 104.653 151.351 104.96C151.894 105.263 152.296 105.674 152.557 106.193C152.819 106.711 152.949 107.29 152.949 107.929C152.949 108.567 152.819 109.148 152.557 109.67C152.3 110.192 151.901 110.608 151.361 110.919C150.822 111.226 150.13 111.379 149.287 111.379H146.662V110.215H149.245C149.827 110.215 150.294 110.114 150.647 109.913C151 109.712 151.256 109.44 151.414 109.098C151.577 108.752 151.658 108.363 151.658 107.929C151.658 107.495 151.577 107.107 151.414 106.764C151.256 106.422 150.998 106.154 150.642 105.96C150.285 105.762 149.813 105.664 149.223 105.664H146.916V115.338H145.604ZM155.764 115.338V104.499H162.305V105.664H157.076V109.326H161.966V110.49H157.076V114.173H162.389V115.338H155.764ZM165.371 104.499H166.937L170.621 113.496H170.748L174.431 104.499H175.997V115.338H174.77V107.103H174.664L171.277 115.338H170.091L166.704 107.103H166.598V115.338H165.371V104.499ZM188.474 109.919C188.474 111.062 188.268 112.049 187.855 112.882C187.442 113.715 186.876 114.357 186.156 114.808C185.436 115.26 184.614 115.486 183.69 115.486C182.766 115.486 181.944 115.26 181.224 114.808C180.504 114.357 179.938 113.715 179.525 112.882C179.112 112.049 178.906 111.062 178.906 109.919C178.906 108.775 179.112 107.788 179.525 106.955C179.938 106.122 180.504 105.48 181.224 105.029C181.944 104.577 182.766 104.351 183.69 104.351C184.614 104.351 185.436 104.577 186.156 105.029C186.876 105.48 187.442 106.122 187.855 106.955C188.268 107.788 188.474 108.775 188.474 109.919ZM187.204 109.919C187.204 108.98 187.047 108.188 186.733 107.542C186.422 106.897 186.001 106.408 185.468 106.076C184.939 105.745 184.346 105.579 183.69 105.579C183.034 105.579 182.439 105.745 181.906 106.076C181.377 106.408 180.956 106.897 180.642 107.542C180.331 108.188 180.176 108.98 180.176 109.919C180.176 110.857 180.331 111.649 180.642 112.295C180.956 112.94 181.377 113.429 181.906 113.761C182.439 114.092 183.034 114.258 183.69 114.258C184.346 114.258 184.939 114.092 185.468 113.761C186.001 113.429 186.422 112.94 186.733 112.295C187.047 111.649 187.204 110.857 187.204 109.919ZM197.922 104.499V105.664H192.694V115.338H191.381V104.499H197.922ZM199.832 115.338H198.456L202.436 104.499H203.79L207.77 115.338H206.394L203.155 106.214H203.071L199.832 115.338ZM200.34 111.104H205.886V112.268H200.34V111.104ZM215.051 115.338V104.499H221.592V105.664H216.363V109.051H219.115C219.891 109.051 220.545 109.178 221.078 109.432C221.614 109.686 222.02 110.044 222.295 110.506C222.574 110.968 222.713 111.513 222.713 112.141C222.713 112.769 222.574 113.323 222.295 113.803C222.02 114.283 221.614 114.658 221.078 114.93C220.545 115.202 219.891 115.338 219.115 115.338H215.051ZM216.363 114.195H219.115C219.609 114.195 220.027 114.096 220.369 113.898C220.715 113.697 220.976 113.44 221.152 113.126C221.332 112.808 221.422 112.473 221.422 112.12C221.422 111.601 221.223 111.155 220.824 110.781C220.426 110.404 219.856 110.215 219.115 110.215H216.363V114.195ZM226.146 115.486V114.258H226.823C227.084 114.258 227.303 114.207 227.48 114.105C227.66 114.002 227.808 113.87 227.924 113.708C228.044 113.545 228.143 113.376 228.22 113.2L228.39 112.797L224.643 104.499H226.061L229.046 111.231L231.777 104.499H233.174L229.427 113.581C229.279 113.919 229.11 114.233 228.919 114.523C228.732 114.812 228.476 115.045 228.152 115.221C227.831 115.398 227.395 115.486 226.845 115.486H226.146ZM234.643 117.963V114.173H235.342C235.581 113.955 235.807 113.646 236.019 113.247C236.234 112.845 236.416 112.309 236.564 111.638C236.716 110.965 236.816 110.109 236.866 109.072L237.099 104.499H243.534V114.173H244.783V117.941H243.534V115.338H235.892V117.963H234.643ZM236.908 114.173H242.285V105.664H238.284L238.115 109.072C238.072 109.862 237.998 110.578 237.892 111.22C237.787 111.859 237.651 112.425 237.485 112.919C237.319 113.41 237.127 113.828 236.908 114.173ZM247.466 115.338V104.499H254.007V105.664H248.779V109.326H253.669V110.49H248.779V114.173H254.092V115.338H247.466ZM265.437 115.486C264.738 115.486 264.116 115.366 263.569 115.126C263.025 114.886 262.593 114.553 262.272 114.126C261.955 113.695 261.782 113.196 261.753 112.628H263.087C263.115 112.977 263.235 113.279 263.447 113.533C263.659 113.784 263.936 113.978 264.278 114.115C264.62 114.253 264.999 114.322 265.416 114.322C265.881 114.322 266.294 114.24 266.654 114.078C267.014 113.916 267.296 113.69 267.501 113.401C267.705 113.111 267.808 112.776 267.808 112.395C267.808 111.997 267.709 111.646 267.511 111.342C267.314 111.035 267.024 110.795 266.643 110.622C266.262 110.449 265.797 110.363 265.246 110.363H264.378V109.199H265.246C265.677 109.199 266.054 109.121 266.379 108.966C266.707 108.811 266.963 108.592 267.146 108.31C267.333 108.027 267.427 107.696 267.427 107.315C267.427 106.948 267.345 106.629 267.183 106.357C267.021 106.085 266.792 105.874 266.495 105.722C266.202 105.57 265.857 105.494 265.458 105.494C265.084 105.494 264.731 105.563 264.4 105.701C264.071 105.835 263.803 106.031 263.595 106.288C263.387 106.542 263.274 106.849 263.256 107.209H261.986C262.007 106.641 262.179 106.143 262.5 105.717C262.821 105.286 263.241 104.951 263.759 104.711C264.281 104.471 264.855 104.351 265.479 104.351C266.149 104.351 266.725 104.487 267.204 104.759C267.684 105.027 268.053 105.381 268.31 105.822C268.568 106.263 268.697 106.74 268.697 107.251C268.697 107.862 268.536 108.382 268.215 108.812C267.898 109.243 267.465 109.541 266.919 109.707V109.792C267.603 109.904 268.138 110.195 268.522 110.665C268.907 111.13 269.099 111.707 269.099 112.395C269.099 112.984 268.938 113.514 268.617 113.983C268.3 114.449 267.866 114.815 267.315 115.084C266.765 115.352 266.139 115.486 265.437 115.486ZM272.599 115.338H271.223L275.203 104.499H276.557L280.537 115.338H279.161L275.922 106.214H275.838L272.599 115.338ZM273.107 111.104H278.653V112.268H273.107V111.104ZM287.817 115.338V104.499H289.13V109.326H294.909V104.499H296.221V115.338H294.909V110.49H289.13V115.338H287.817ZM299.994 115.338H298.618L302.598 104.499H303.952L307.932 115.338H306.556L303.317 106.214H303.233L299.994 115.338ZM300.502 111.104H306.048V112.268H300.502V111.104ZM310.321 104.499H311.887L315.57 113.496H315.697L319.381 104.499H320.947V115.338H319.719V107.103H319.614L316.227 115.338H315.041L311.654 107.103H311.548V115.338H310.321V104.499ZM324.279 104.499H325.57V113.03H325.676L331.603 104.499H332.873V115.338H331.561V106.828H331.455L325.549 115.338H324.279V104.499Z" fill="black"/>
<path fill-rule="evenodd" clip-rule="evenodd" d="M77.4973 69.51C77.7289 69.3606 77.7952 69.0521 77.6453 68.8211C77.4955 68.5901 77.1863 68.524 76.9548 68.6735L53.539 83.7875C53.0859 83.3267 52.4545 83.0408 51.7562 83.0408C50.9795 83.0408 50.2856 83.3946 49.8276 83.9494L35.0101 76.1241C34.7663 75.9954 34.464 76.0882 34.335 76.3314C34.2059 76.5745 34.2989 76.876 34.5427 77.0047L49.3597 84.8297C49.2943 85.0523 49.2592 85.2879 49.2592 85.5316C49.2592 86.9073 50.3772 88.0225 51.7562 88.0225C53.1353 88.0225 54.2533 86.9073 54.2533 85.5316C54.2533 85.2112 54.1926 84.905 54.0822 84.6237L77.4973 69.51Z" fill="black"/>
<path fill-rule="evenodd" clip-rule="evenodd" d="M52.2559 86.9413C52.8378 86.7362 53.2547 86.1826 53.2547 85.5319C53.2547 84.7065 52.5839 84.0374 51.7565 84.0374C50.9291 84.0374 50.2583 84.7065 50.2583 85.5319C50.2583 86.1826 50.6752 86.7362 51.2571 86.9413V110.441C51.2571 110.716 51.4808 110.939 51.7565 110.939C52.0323 110.939 52.2559 110.716 52.2559 110.441V86.9413Z" fill="#E83E46"/>
<path fill-rule="evenodd" clip-rule="evenodd" d="M85.4543 0C84.9609 17.3357 70.9978 31.2988 53.6621 31.7922C54.1555 14.4565 68.1186 0.493398 85.4543 0Z" fill="black"/>
<path fill-rule="evenodd" clip-rule="evenodd" d="M89.4286 37.5628C86.2765 36.0259 82.7351 35.1636 78.9923 35.1636H25.8442C12.6754 35.1636 2 45.839 2 59.0077V112.156C2 125.325 12.6754 136 25.8442 136H78.9923C92.1611 136 102.836 125.325 102.836 112.156V59.0077C102.836 57.1654 102.628 55.3718 102.232 53.6495H93.4026C91.2078 53.6495 89.4286 51.8702 89.4286 49.6754V37.5628ZM93.7869 85.5819C93.7869 108.429 75.2654 126.951 52.4181 126.951C29.5707 126.951 11.0493 108.429 11.0493 85.5819C11.0493 62.7345 29.5707 44.2131 52.4181 44.2131C75.2654 44.2131 93.7869 62.7345 93.7869 85.5819Z" fill="black"/>
<g clip-path="url(#clip0_6258_1237)">
<path d="M134 46.7886C120.415 39.1368 106.83 54.4404 93.2446 46.7886C93.2446 38.2865 93.2446 29.906 93.2446 21.404C106.83 29.0558 120.415 13.7521 134 21.404C134 29.906 134 38.2865 134 46.7886Z" fill="#FDE939"/>
<path d="M93.2446 34.0356C106.83 41.6874 120.415 26.3837 134 34.0356C134 29.7846 134 25.655 134 21.404C120.415 13.8736 106.83 29.0558 93.2446 21.404C93.2446 25.655 93.2446 29.906 93.2446 34.0356Z" fill="#289DDF"/>
<g style="mix-blend-mode:multiply">
<path d="M133.633 29.5416V38.0437V46.5457C120.048 39.0153 106.463 54.1975 93 46.5457V21.1611C106.585 28.8129 120.048 13.6307 133.633 21.1611V29.5416Z" fill="url(#paint0_linear_6258_1237)"/>
<path opacity="0.25" d="M133.633 29.5416V38.0437V46.5457C120.048 39.0153 106.463 54.1975 93 46.5457V21.1611C106.585 28.8129 120.048 13.6307 133.633 21.1611V29.5416Z" fill="url(#paint1_linear_6258_1237)"/>
</g>
</g>
<defs>
<linearGradient id="paint0_linear_6258_1237" x1="93" y1="33.8347" x2="133.68" y2="33.8347" gradientUnits="userSpaceOnUse">
<stop stop-color="white"/>
<stop offset="0.132" stop-color="#F7F7F7"/>
<stop offset="0.3408" stop-color="#C8D8E9"/>
<stop offset="0.738204" stop-color="#C8D8E9"/>
<stop offset="0.9141" stop-color="white"/>
</linearGradient>
<linearGradient id="paint1_linear_6258_1237" x1="93" y1="33.8347" x2="133.68" y2="33.8347" gradientUnits="userSpaceOnUse">
<stop stop-color="white"/>
<stop offset="0.132" stop-color="#F7F7F7"/>
<stop offset="0.3408" stop-color="#C8D8E9"/>
<stop offset="0.738204" stop-color="#C8D8E9"/>
<stop offset="0.9141" stop-color="white"/>
</linearGradient>
<clipPath id="clip0_6258_1237">
<rect width="41" height="30" fill="white" transform="translate(94 19)"/>
</clipPath>
</defs>
</svg>