<svg width="366" height="512" viewBox="0 0 366 512" fill="none" xmlns="http://www.w3.org/2000/svg">
<path fill-rule="evenodd" clip-rule="evenodd" d="M184.13 125.11C224.34 125.11 256.65 155.34 256.65 195.54C256.65 234.13 224.34 266.3 184.13 266.3C143.61 266.3 111.28 234.13 111.28 195.54C111.28 155.34 143.61 125.11 184.13 125.11ZM365.67 177.53C365.67 78.79 285 0 184.13 0C83.1299 0 0.329866 78.79 0.329866 177.53C0.329866 181.71 0.329364 187 0.329714 191.68C0.329714 288.49 184.13 512 184.13 512C184.13 512 365.67 288.49 365.67 191.68V177.53Z" fill="white"/>
</svg>
