<svg width="27" height="28" viewBox="0 0 27 28" fill="none" xmlns="http://www.w3.org/2000/svg">
<path fill-rule="evenodd" clip-rule="evenodd" d="M13.5556 0.888916C6.16967 0.888916 0.444443 6.29908 0.444443 13.6067C0.444443 17.4291 2.01096 20.732 4.56207 23.0134C4.77622 23.2051 4.9055 23.4736 4.91428 23.761L4.98569 26.0932C5.0085 26.8371 5.77692 27.3212 6.45764 27.0207L9.06001 25.8719C9.28062 25.7746 9.52782 25.7565 9.76028 25.8205C10.9561 26.1493 12.2289 26.3245 13.5556 26.3245C20.9414 26.3245 26.6667 20.9143 26.6667 13.6067C26.6667 6.29908 20.9414 0.888916 13.5556 0.888916Z" fill="url(#paint0_radial_59779_18304)"/>
<path fill-rule="evenodd" clip-rule="evenodd" d="M5.68253 17.3261L9.53392 11.2158C10.1466 10.2437 11.4584 10.0017 12.3777 10.6911L15.4409 12.9885C15.7219 13.1993 16.1086 13.1982 16.3885 12.9858L20.5255 9.84605C21.0777 9.42702 21.7985 10.0878 21.4289 10.6742L17.5775 16.7846C16.9649 17.7566 15.653 17.9987 14.7338 17.3092L11.6705 15.0118C11.3895 14.801 11.0028 14.8021 10.7229 15.0145L6.58589 18.1542C6.03373 18.5733 5.31293 17.9125 5.68253 17.3261Z" fill="white"/>
<defs>
<radialGradient id="paint0_radial_59779_18304" cx="0" cy="0" r="1" gradientUnits="userSpaceOnUse" gradientTransform="translate(5.49155 26.9709) scale(28.5716 28.5716)">
<stop stop-color="#0099FF"/>
<stop offset="0.609754" stop-color="#A033FF"/>
<stop offset="0.934823" stop-color="#FF5280"/>
<stop offset="1" stop-color="#FF7061"/>
</radialGradient>
</defs>
</svg>
