<svg width="39" height="36" viewBox="0 0 39 36" fill="none" xmlns="http://www.w3.org/2000/svg">
<path id="Vector" d="M16.5676 36H16.5512C16.4451 35.9977 16.3405 35.9721 16.2437 35.9249C16.147 35.8777 16.06 35.8098 15.9882 35.7253L1.1366 18.2469C1.01309 18.1016 0.940033 17.9144 0.929922 17.7172C0.919811 17.5201 0.97327 17.3252 1.08117 17.166C1.1891 17.0068 1.34471 16.8931 1.52146 16.8442C1.69821 16.7953 1.88515 16.8143 2.05042 16.8979L15.6434 23.7865C15.7577 23.8446 15.8929 23.8165 15.9804 23.7181L36.715 0.263242C36.9957 -0.0545639 37.4547 -0.0892507 37.7735 0.184494C38.0922 0.458238 38.1659 0.949478 37.9433 1.31791L17.3177 35.5153C17.2883 35.565 17.2536 35.61 17.2155 35.6522L17.1246 35.7506C16.9766 35.91 16.7764 35.9996 16.5676 36Z" fill="#271B36"/>
</svg>