<svg width="16" height="16" viewBox="0 0 16 16" fill="none" xmlns="http://www.w3.org/2000/svg">
<path d="M13.8182 0H2.18182C0.945455 0 0 0.945455 0 2.18182V13.8182C0 15.0545 0.945455 16 2.18182 16H13.8182C15.0545 16 16 15.0545 16 13.8182V2.18182C16 0.945455 15.0545 0 13.8182 0ZM14.5455 13.8182C14.5455 14.2545 14.2545 14.5455 13.8182 14.5455H2.18182C1.74545 14.5455 1.45455 14.2545 1.45455 13.8182V2.18182C1.45455 1.74545 1.74545 1.45455 2.18182 1.45455H13.8182C14.2545 1.45455 14.5455 1.74545 14.5455 2.18182V13.8182ZM10.9091 7.27273H5.09091C4.65455 7.27273 4.36364 7.56364 4.36364 8C4.36364 8.43636 4.65455 8.72727 5.09091 8.72727H10.9091C11.3455 8.72727 11.6364 8.43636 11.6364 8C11.6364 7.56364 11.3455 7.27273 10.9091 7.27273Z" fill="#F53A42"/>
</svg>