<svg width="21" height="20" viewBox="0 0 21 20" fill="none" xmlns="http://www.w3.org/2000/svg">
<path d="M1.00486 9.96582C1.00486 11.3265 1.26529 12.6074 1.78616 13.8086C2.30696 15.0098 3.02636 16.0693 3.94436 16.9873C4.86229 17.9053 5.92186 18.6247 7.12306 19.1455C8.32419 19.6663 9.60511 19.9268 10.9658 19.9268C12.3265 19.9268 13.6074 19.6663 14.8086 19.1455C16.0098 18.6247 17.0693 17.9053 17.9873 16.9873C18.9053 16.0694 19.6247 15.0081 20.1455 13.8037C20.6663 12.5993 20.9268 11.3167 20.9268 9.95605C20.9268 8.59538 20.6663 7.31446 20.1455 6.11328C19.6247 4.91211 18.9053 3.85417 17.9873 2.93945C17.0693 2.02474 16.0098 1.30697 14.8086 0.786133C13.6074 0.265299 12.3265 0.00488244 10.9658 0.00488238C9.60511 0.00488232 8.32419 0.265299 7.12306 0.786132C5.92186 1.30697 4.86229 2.02637 3.94436 2.94433C3.02636 3.86231 2.30696 4.92188 1.78616 6.12304C1.26529 7.32422 1.00486 8.60514 1.00486 9.96582Z" fill="black" fill-opacity="0.36"/>
<path d="M10.9853 15.1416C10.7836 15.1416 10.585 15.044 10.3897 14.8487L6.98146 11.46C6.83819 11.3167 6.76656 11.1377 6.76656 10.9229C6.76656 10.7146 6.83819 10.5404 6.98146 10.4004C7.12466 10.2604 7.30043 10.1904 7.50876 10.1904C7.72363 10.1904 7.90593 10.2685 8.05566 10.4248L9.28616 11.6748L10.3116 12.8955L10.2237 10.7569L10.2237 5.53223C10.2237 5.31087 10.2953 5.12858 10.4385 4.98536C10.5817 4.84212 10.764 4.77051 10.9854 4.77051C11.2067 4.77051 11.389 4.84212 11.5322 4.98536C11.6755 5.12858 11.7471 5.31087 11.7471 5.53223L11.7471 10.7569L11.6592 12.8858L12.6748 11.6748L13.915 10.4248C14.0778 10.2685 14.2568 10.1904 14.4522 10.1904C14.6605 10.1904 14.8346 10.2604 14.9746 10.4004C15.1146 10.5404 15.1846 10.7146 15.1846 10.9229C15.1846 11.1442 15.1162 11.3233 14.9795 11.46L11.5713 14.8487C11.376 15.044 11.1807 15.1416 10.9853 15.1416Z" fill="white"/>
</svg>
