<svg width="20" height="16" viewBox="0 0 20 16" fill="none" xmlns="http://www.w3.org/2000/svg">
<path d="M4.15055 11.4364H5.44177V10.4915H4.16228C3.86883 10.4915 3.64384 10.4132 3.48732 10.2567C3.33082 10.1002 3.25256 9.86935 3.25256 9.56416V3.73019C3.25256 3.42499 3.33082 3.19413 3.48732 3.03762C3.64384 2.88111 3.86883 2.80285 4.16228 2.80285H12.6961C12.9856 2.80285 13.2096 2.88111 13.3681 3.03762C13.5266 3.19413 13.6058 3.42499 13.6058 3.73019V5.23857H14.5508V3.67736C14.5508 3.07479 14.3972 2.62091 14.09 2.31571C13.7829 2.01051 13.3241 1.85791 12.7137 1.85791H4.15055C3.53623 1.85791 3.0755 2.00953 2.76835 2.31277C2.46119 2.61601 2.30762 3.07088 2.30762 3.67736V9.61699C2.30762 10.2235 2.46119 10.6783 2.76835 10.9816C3.0755 11.2848 3.53623 11.4364 4.15055 11.4364ZM7.11449 14.1539H15.6776C16.292 14.1539 16.7517 14.0022 17.0569 13.699C17.3621 13.3958 17.5147 12.9409 17.5147 12.3344V6.9465C17.5147 6.34002 17.3621 5.88613 17.0569 5.58485C16.7517 5.28356 16.292 5.13292 15.6776 5.13292H14.9205C14.7014 5.13292 14.54 5.11238 14.4363 5.07129C14.3326 5.03021 14.2182 4.94119 14.093 4.80425L13.6703 4.34645C13.5178 4.18211 13.3623 4.06081 13.2038 3.98256C13.0453 3.9043 12.8526 3.86518 12.6257 3.86518H10.1665C9.93562 3.86518 9.74095 3.9043 9.58249 3.98256C9.42402 4.06081 9.26848 4.18211 9.11587 4.34645L8.69919 4.80425C8.57006 4.94119 8.45364 5.03021 8.34995 5.07129C8.24626 5.11238 8.08486 5.13292 7.86575 5.13292H7.11449C6.50018 5.13292 6.03944 5.28356 5.73229 5.58485C5.42514 5.88613 5.27156 6.34002 5.27156 6.9465V12.3344C5.27156 12.9409 5.42514 13.3958 5.73229 13.699C6.03944 14.0022 6.50018 14.1539 7.11449 14.1539ZM7.12623 13.2089C6.83277 13.2089 6.60778 13.1307 6.45127 12.9741C6.29476 12.8176 6.2165 12.5868 6.2165 12.2816V6.99932C6.2165 6.69413 6.29476 6.46425 6.45127 6.3097C6.60778 6.15514 6.83277 6.07786 7.12623 6.07786H8.09465C8.34899 6.07786 8.56126 6.04656 8.73147 5.98396C8.90167 5.92135 9.06112 5.80984 9.20981 5.64941L9.71453 5.09184C9.80845 4.99402 9.90529 4.92261 10.0051 4.87761C10.1048 4.83261 10.2349 4.81011 10.3953 4.81011H12.3909C12.5513 4.81011 12.6814 4.83261 12.7812 4.87761C12.881 4.92261 12.9778 4.99402 13.0717 5.09184L13.5824 5.64941C13.731 5.80984 13.8905 5.92135 14.0607 5.98396C14.2309 6.04656 14.4412 6.07786 14.6916 6.07786H15.66C15.9535 6.07786 16.1785 6.15514 16.335 6.3097C16.4915 6.46425 16.5698 6.69413 16.5698 6.99932V12.2816C16.5698 12.5868 16.4915 12.8176 16.335 12.9741C16.1785 13.1307 15.9535 13.2089 15.66 13.2089H7.12623ZM11.399 12.4166C11.9233 12.4166 12.3997 12.2884 12.8282 12.0321C13.2566 11.7759 13.599 11.4325 13.8553 11.0021C14.1115 10.5717 14.2397 10.0944 14.2397 9.57005C14.2397 9.04962 14.1115 8.57421 13.8553 8.14381C13.599 7.71341 13.2566 7.37006 12.8282 7.11377C12.3997 6.85749 11.9233 6.72934 11.399 6.72934C10.8747 6.72934 10.3973 6.85749 9.96689 7.11377C9.53649 7.37006 9.19414 7.71341 8.93983 8.14381C8.68549 8.57421 8.55832 9.04962 8.55832 9.57005C8.55832 10.0944 8.68549 10.5717 8.93983 11.0021C9.19414 11.4325 9.53649 11.7759 9.96689 12.0321C10.3973 12.2884 10.8747 12.4166 11.399 12.4166ZM11.399 11.5186C11.043 11.5186 10.7182 11.4306 10.4247 11.2545C10.1312 11.0784 9.89647 10.8436 9.72042 10.5502C9.54432 10.2567 9.45628 9.93002 9.45628 9.57005C9.45628 9.21398 9.54432 8.88921 9.72042 8.59576C9.89647 8.30227 10.1312 8.06848 10.4247 7.89439C10.7182 7.72026 11.043 7.6332 11.399 7.6332C11.7551 7.6332 12.0798 7.72026 12.3733 7.89439C12.6667 8.06848 12.9005 8.30227 13.0746 8.59576C13.2488 8.88921 13.3358 9.21398 13.3358 9.57005C13.3358 9.93002 13.2488 10.2567 13.0746 10.5502C12.9005 10.8436 12.6667 11.0784 12.3733 11.2545C12.0798 11.4306 11.7551 11.5186 11.399 11.5186ZM15.0027 8.22014C15.1866 8.22014 15.3431 8.15655 15.4722 8.02938C15.6014 7.9022 15.6659 7.74667 15.6659 7.56277C15.6659 7.37886 15.6014 7.22235 15.4722 7.09323C15.3431 6.96411 15.1866 6.89955 15.0027 6.89955C14.8227 6.89955 14.6681 6.96411 14.539 7.09323C14.4099 7.22235 14.3453 7.37886 14.3453 7.56277C14.3453 7.74667 14.4099 7.9022 14.539 8.02938C14.6681 8.15655 14.8227 8.22014 15.0027 8.22014Z" fill="#ACADBC"/>
</svg>
