<svg width="55" height="55" viewBox="0 0 55 55" fill="none" xmlns="http://www.w3.org/2000/svg">
<g opacity="0.8">
<path d="M27.5 55C12.3122 55 0 42.6877 0 27.5C0 12.3122 12.3122 0 27.5 0C42.6877 0 55 12.3122 55 27.5C55 42.6877 42.6877 55 27.5 55ZM23.7102 17.6401C23.5295 17.5196 23.3172 17.4554 23.1 17.4554C22.4925 17.4554 22 17.9478 22 18.5554V36.4446C22 36.6619 22.0643 36.8742 22.1848 37.0549C22.5217 37.5603 23.2048 37.697 23.7102 37.3598L37.1272 28.4152C37.2479 28.3346 37.3516 28.2309 37.4322 28.1102C37.7693 27.6048 37.6326 26.9217 37.1272 26.5848L23.7102 17.6401Z" fill="white"/>
</g>
</svg>
