<svg width="24" height="24" viewBox="0 0 24 24" fill="none" xmlns="http://www.w3.org/2000/svg">
<rect x="0.820312" y="11.7445" width="16" height="16" rx="8" transform="rotate(-45 0.820312 11.7445)" fill="#2C2E3F" fill-opacity="0.3"/>
<path d="M11.775 15.5324C11.775 15.8031 12.0126 16.0462 12.2943 16.0462C12.5788 16.0434 12.8164 15.8004 12.8164 15.5352L12.8164 12.2648H16.0812C16.3574 12.2648 16.595 12.0273 16.595 11.7455C16.5922 11.461 16.3574 11.2263 16.0812 11.2263L12.8164 11.2263L12.8136 7.95866C12.8136 7.68244 12.5788 7.44214 12.2943 7.4449C12.0126 7.4449 11.775 7.68244 11.775 7.95866L11.775 11.2235L8.50743 11.2263C8.23951 11.2235 7.99091 11.461 7.99368 11.7455C7.99368 12.0273 8.23951 12.2676 8.50743 12.2648L11.775 12.2676V15.5324Z" fill="white"/>
</svg>