<svg width="68" height="93" viewBox="0 0 68 93" fill="none" xmlns="http://www.w3.org/2000/svg">
<path d="M19.16 28.63H0.26C1.436 23.254 3.41 18.55 6.182 14.518C12.986 5.026 22.562 0.279996 34.91 0.279996C44.654 0.279996 52.55 2.926 58.598 8.218C64.646 13.426 67.67 19.6 67.67 26.74C67.67 35.728 63.47 42.658 55.07 47.53C52.298 49.21 50.198 50.596 48.77 51.688C47.342 52.78 45.914 54.376 44.486 56.476C43.142 58.576 42.47 60.844 42.47 63.28H24.2C24.2 54.04 28.19 46.858 36.17 41.734C38.774 40.222 40.79 38.92 42.218 37.828C43.646 36.736 44.99 35.266 46.25 33.418C47.51 31.57 48.14 29.554 48.14 27.37C48.14 24.682 46.964 22.456 44.612 20.692C42.26 18.844 38.816 17.92 34.28 17.92C28.988 17.92 24.872 19.726 21.932 23.338C20.588 24.766 19.664 26.53 19.16 28.63ZM25.838 89.992C23.906 88.06 22.94 85.666 22.94 82.81C22.94 79.954 23.906 77.56 25.838 75.628C27.77 73.696 30.164 72.73 33.02 72.73C35.876 72.73 38.27 73.696 40.202 75.628C42.134 77.56 43.1 79.954 43.1 82.81C43.1 85.666 42.134 88.06 40.202 89.992C38.27 91.924 35.876 92.89 33.02 92.89C30.164 92.89 27.77 91.924 25.838 89.992Z" fill="#F5F5F7"/>
</svg>