<svg width="566" height="566" viewBox="0 0 566 566" fill="none" xmlns="http://www.w3.org/2000/svg">
<path d="M273.758 20.1625C273.37 9.12359 282.013 -0.213762 293.052 0.178486C342.444 1.93357 390.644 16.6028 432.775 42.8824C480.577 72.6991 518.391 116.105 541.376 167.542C564.362 218.978 571.471 276.105 561.795 331.607C552.118 387.108 526.096 438.458 487.061 479.082C448.025 519.706 397.753 547.754 342.681 559.635C287.61 571.517 230.245 566.69 177.933 545.774C125.621 524.857 80.7421 488.803 49.0436 442.228C21.1054 401.177 4.52652 353.601 0.803937 304.318C-0.0280296 293.304 8.95738 284.295 20.003 284.243L78.4477 283.967C78.6402 324.688 90.9826 364.426 113.895 398.091C136.807 431.756 169.245 457.816 207.057 472.935C244.868 488.053 286.332 491.542 326.138 482.954C365.944 474.366 402.282 454.093 430.497 424.73C458.712 395.367 477.521 358.25 484.515 318.133C491.509 278.016 486.37 236.725 469.756 199.546C453.143 162.367 425.81 130.993 391.258 109.441C356.707 87.8895 316.509 77.1409 275.812 78.5718L273.758 20.1625Z" fill="#DFC0FD" fill-opacity="0.1"/>
<path d="M275.736 76.4175C275.459 68.5303 281.634 61.8633 289.522 62.0962C328.557 63.2483 366.684 74.73 399.962 95.4876C437.291 118.772 466.821 152.668 484.771 192.836C502.72 233.004 508.272 277.616 500.716 320.958C493.159 364.3 472.838 404.4 442.355 436.124C411.871 467.848 372.613 489.752 329.606 499.03C286.6 508.308 241.803 504.539 200.951 488.205C160.1 471.871 125.053 443.715 100.299 407.344C78.2314 374.919 65.239 337.281 62.5317 298.323C61.9846 290.45 68.4002 284.014 76.2922 283.977C84.1842 283.94 90.557 290.316 91.1797 298.184C93.8124 331.447 105.06 363.544 123.926 391.264C145.479 422.932 175.993 447.446 211.562 461.668C247.13 475.889 286.134 479.171 323.579 471.093C361.024 463.014 395.206 443.944 421.747 416.322C448.288 388.701 465.982 353.786 472.561 316.049C479.14 278.312 474.306 239.47 458.678 204.496C443.05 169.523 417.338 140.01 384.836 119.737C356.387 101.991 323.867 92.0315 290.525 90.7269C282.639 90.4183 276.014 84.3048 275.736 76.4175Z" fill="#DFC0FD"/>
<path d="M349.245 135.012C351.774 129.362 358.425 126.8 363.9 129.689C388.085 142.451 408.958 160.782 424.758 183.232C442.712 208.742 453.45 238.626 455.838 269.73C458.226 300.834 452.177 332.006 438.327 359.958C424.478 387.911 403.342 411.609 377.148 428.552C350.955 445.495 320.675 455.055 289.501 456.225C258.327 457.395 227.416 450.131 200.026 435.199C172.636 420.267 149.784 398.22 133.878 371.384C119.881 347.769 111.721 321.215 109.998 293.923C109.607 287.745 114.672 282.73 120.862 282.74C127.052 282.75 132.019 287.783 132.469 293.957C134.161 317.211 141.223 339.81 153.162 359.954C167.011 383.32 186.909 402.516 210.756 415.517C234.604 428.518 261.518 434.842 288.66 433.824C315.803 432.805 342.167 424.481 364.973 409.729C387.779 394.977 406.182 374.344 418.24 350.006C430.299 325.668 435.566 298.527 433.487 271.446C431.407 244.364 422.058 218.345 406.426 196.134C392.949 176.984 375.232 161.276 354.717 150.198C349.27 147.257 346.716 140.663 349.245 135.012Z" fill="#7FEAF1"/>
<path d="M403.415 303.145C408.012 303.914 411.143 308.274 410.078 312.812C403.31 341.666 386.893 367.452 363.416 385.815C337.717 405.915 305.421 415.663 272.893 413.137C240.364 410.61 209.961 395.993 187.673 372.165C167.313 350.398 155.074 322.386 152.843 292.833C152.492 288.185 156.258 284.361 160.919 284.311C165.58 284.261 169.366 288.005 169.762 292.649C171.92 317.98 182.524 341.949 200.001 360.634C219.406 381.381 245.878 394.108 274.2 396.307C302.522 398.507 330.641 390.02 353.017 372.519C373.169 356.756 387.347 334.711 393.39 310.018C394.498 305.49 398.817 302.376 403.415 303.145Z" fill="#A1E776"/>
<path d="M227.134 346.56C225.001 348.987 221.289 349.238 219.006 346.952C211.405 339.347 205.209 330.435 200.724 320.628C196.239 310.821 193.55 300.306 192.768 289.582C192.533 286.36 195.15 283.716 198.381 283.69C201.612 283.664 204.229 286.265 204.495 289.485C205.245 298.561 207.564 307.453 211.364 315.762C215.164 324.071 220.374 331.641 226.749 338.144C229.011 340.452 229.267 344.133 227.134 346.56Z" fill="#EF8080"/>
</svg>