<svg width="20" height="20" viewBox="0 0 20 20" fill="none" xmlns="http://www.w3.org/2000/svg">
<path d="M9.96094 19.9561C11.3216 19.9561 12.6026 19.6957 13.8037 19.1748C15.0049 18.654 16.0645 17.9346 16.9824 17.0166C17.9004 16.0987 18.6198 15.0391 19.1406 13.8379C19.6615 12.6368 19.9219 11.3558 19.9219 9.99514C19.9219 8.63446 19.6615 7.35353 19.1406 6.15235C18.6198 4.95119 17.9004 3.89162 16.9824 2.97364C16.0645 2.05568 15.0033 1.33628 13.7988 0.815445C12.5944 0.294612 11.3119 0.0341949 9.95117 0.0341949C8.5905 0.0341949 7.30957 0.294612 6.1084 0.815445C4.90723 1.33628 3.84928 2.05568 2.93457 2.97364C2.01986 3.89162 1.30208 4.95119 0.78125 6.15235C0.260417 7.35353 0 8.63446 0 9.99514C0 11.3558 0.260417 12.6368 0.78125 13.8379C1.30208 15.0391 2.02148 16.0987 2.93945 17.0166C3.85742 17.9346 4.91699 18.654 6.11816 19.1748C7.31933 19.6957 8.60026 19.9561 9.96094 19.9561Z" fill="#EE6A5F"/>
<path d="M15.1367 9.9756C15.1367 10.1774 15.0391 10.376 14.8438 10.5713L11.4551 13.9795C11.3118 14.1228 11.1328 14.1944 10.918 14.1944C10.7097 14.1944 10.5355 14.1228 10.3955 13.9795C10.2555 13.8363 10.1855 13.6605 10.1855 13.4522C10.1855 13.2373 10.2636 13.055 10.4199 12.9053L11.6699 11.6748L12.8906 10.6494L10.752 10.7373H5.52734C5.30599 10.7373 5.1237 10.6657 4.98047 10.5225C4.83724 10.3792 4.76562 10.1969 4.76562 9.9756C4.76562 9.75425 4.83724 9.57196 4.98047 9.42872C5.1237 9.2855 5.30599 9.21388 5.52734 9.21388H10.752L12.8809 9.30177L11.6699 8.28614L10.4199 7.04591C10.2636 6.88315 10.1855 6.70412 10.1855 6.5088C10.1855 6.30047 10.2555 6.12632 10.3955 5.98634C10.5355 5.84637 10.7097 5.77638 10.918 5.77638C11.1393 5.77638 11.3184 5.84474 11.4551 5.98146L14.8438 9.38966C15.0391 9.58498 15.1367 9.78029 15.1367 9.9756Z" fill="white"/>
</svg>
