<svg width="28" height="21" viewBox="0 0 28 21" fill="none" xmlns="http://www.w3.org/2000/svg">
<path d="M3.68757 10.5208V11.4895H12.1152C11.986 11.7595 11.7938 12.0487 11.5384 12.3569C11.283 12.6651 10.9924 12.9586 10.6666 13.2375C10.3407 13.5164 10.0046 13.7512 9.65825 13.942C9.31186 14.1328 8.98603 14.2458 8.68074 14.281C8.45765 14.3046 8.28446 14.3823 8.16117 14.5144C8.03788 14.6465 7.97624 14.8182 7.97624 15.0296C7.97624 15.2234 8.04816 15.3936 8.19199 15.5404C8.33583 15.6871 8.53397 15.7429 8.78642 15.7076C9.12106 15.6549 9.49533 15.5242 9.90923 15.3158C10.3231 15.1074 10.7311 14.8388 11.1333 14.51C11.5355 14.1812 11.8936 13.8114 12.2076 13.4005C12.5217 12.9895 12.7522 12.558 12.8989 12.1059H12.9606V17.9973H14.0261V12.1059H14.0966C14.2434 12.558 14.4738 12.9895 14.7879 13.4005C15.102 13.8114 15.4601 14.1812 15.8623 14.51C16.2644 14.8388 16.671 15.1074 17.0819 15.3158C17.4929 15.5242 17.8686 15.6549 18.2091 15.7076C18.4616 15.7429 18.6597 15.6871 18.8036 15.5404C18.9474 15.3936 19.0194 15.2234 19.0194 15.0296C19.0194 14.8182 18.9577 14.6465 18.8344 14.5144C18.7111 14.3823 18.535 14.3046 18.306 14.281C18.0007 14.2458 17.6763 14.1328 17.3329 13.942C16.9894 13.7512 16.6548 13.5164 16.3291 13.2375C16.0032 12.9586 15.7126 12.6651 15.4572 12.3569C15.2018 12.0487 15.0096 11.7595 14.8804 11.4895H23.22V10.5208H17.0203C17.3961 10.3505 17.7263 10.1392 18.011 9.88672C18.2957 9.63427 18.5174 9.34807 18.6759 9.0281C18.8344 8.70814 18.9137 8.36323 18.9137 7.99336C18.9137 7.34757 18.7038 6.81479 18.284 6.39502C17.8642 5.97526 17.3373 5.76538 16.7033 5.76538C16.3393 5.76538 15.99 5.83876 15.6553 5.98553C15.3207 6.1323 15.0139 6.34219 14.7351 6.61518C14.4562 6.88817 14.2199 7.21254 14.0261 7.58827V3.29961H12.9606V7.58827C12.7727 7.21254 12.5394 6.88817 12.2605 6.61518C11.9816 6.34219 11.6749 6.1323 11.3402 5.98553C11.0056 5.83876 10.6534 5.76538 10.2835 5.76538C9.65531 5.76538 9.12986 5.97526 8.70716 6.39502C8.28446 6.81479 8.07311 7.34757 8.07311 7.99336C8.07311 8.36323 8.15383 8.70814 8.31528 9.0281C8.47673 9.34807 8.69982 9.63427 8.98456 9.88672C9.2693 10.1392 9.5966 10.3505 9.96646 10.5208H3.68757ZM12.5379 10.3887C12.1035 10.3887 11.6925 10.3212 11.305 10.1861C10.9175 10.0511 10.5741 9.87351 10.2747 9.65335C9.97527 9.43319 9.74043 9.18662 9.57018 8.91362C9.39993 8.64063 9.3148 8.36617 9.3148 8.09023C9.3148 7.75559 9.40873 7.49287 9.5966 7.30207C9.78447 7.11127 10.0369 7.01587 10.3539 7.01587C10.6827 7.01587 10.9939 7.09806 11.2874 7.26244C11.581 7.42683 11.8422 7.65432 12.0712 7.94493C12.3001 8.23554 12.4792 8.56871 12.6084 8.94445C12.7375 9.32018 12.8021 9.7194 12.8021 10.1421V10.3887H12.5379ZM14.4489 10.3887H14.1847V10.1421C14.1847 9.7194 14.2507 9.32018 14.3829 8.94445C14.5149 8.56871 14.6954 8.23554 14.9244 7.94493C15.1534 7.65432 15.4146 7.42683 15.7082 7.26244C16.0017 7.09806 16.31 7.01587 16.6329 7.01587C16.9557 7.01587 17.2097 7.11127 17.3946 7.30207C17.5795 7.49287 17.672 7.75559 17.672 8.09023C17.672 8.36617 17.5868 8.64063 17.4166 8.91362C17.2463 9.18662 17.0129 9.43319 16.7164 9.65335C16.42 9.87351 16.078 10.0511 15.6905 10.1861C15.3031 10.3212 14.8892 10.3887 14.4489 10.3887ZM5.91557 18.1911H21.08C22.0017 18.1911 22.693 17.9636 23.1539 17.5085C23.6147 17.0536 23.8452 16.374 23.8452 15.4699V5.87985C23.8452 4.97574 23.6147 4.29472 23.1539 3.83679C22.693 3.37887 22.0017 3.1499 21.08 3.1499H5.91557C4.99384 3.1499 4.30255 3.3774 3.84169 3.83239C3.38082 4.28738 3.15039 4.96987 3.15039 5.87985V15.4699C3.15039 16.374 3.38082 17.0536 3.84169 17.5085C4.30255 17.9636 4.99384 18.1911 5.91557 18.1911ZM5.93318 16.7733C5.49287 16.7733 5.15529 16.6573 4.92046 16.4254C4.68562 16.1935 4.56821 15.8486 4.56821 15.3907V5.95911C4.56821 5.50118 4.68562 5.1548 4.92046 4.91997C5.15529 4.68513 5.49287 4.56771 5.93318 4.56771H21.0624C21.4968 4.56771 21.8329 4.68513 22.0707 4.91997C22.3085 5.1548 22.4274 5.50118 22.4274 5.95911V15.3907C22.4274 15.8486 22.3085 16.1935 22.0707 16.4254C21.8329 16.6573 21.4968 16.7733 21.0624 16.7733H5.93318Z" fill="#EE6A5F"/>
</svg>
