<svg width="28" height="22" viewBox="0 0 28 22" fill="none" xmlns="http://www.w3.org/2000/svg">
<path d="M3.68721 11.0208V11.9895H12.1148C11.9857 12.2595 11.7934 12.5487 11.538 12.8569C11.2826 13.1651 10.992 13.4586 10.6662 13.7375C10.3404 14.0164 10.0043 14.2512 9.65788 14.442C9.31149 14.6328 8.98566 14.7458 8.68038 14.781C8.45729 14.8046 8.2841 14.8823 8.16081 15.0144C8.03752 15.1465 7.97587 15.3182 7.97587 15.5296C7.97587 15.7234 8.04779 15.8936 8.19163 16.0404C8.33547 16.1871 8.53361 16.2429 8.78605 16.2076C9.12069 16.1549 9.49496 16.0242 9.90886 15.8158C10.3228 15.6074 10.7308 15.3388 11.1329 15.01C11.5351 14.6812 11.8932 14.3114 12.2073 13.9005C12.5214 13.4895 12.7518 13.058 12.8986 12.6059H12.9602V18.4973H14.0258V12.6059H14.0963C14.243 13.058 14.4735 13.4895 14.7876 13.9005C15.1016 14.3114 15.4597 14.6812 15.8619 15.01C16.2641 15.3388 16.6706 15.6074 17.0816 15.8158C17.4925 16.0242 17.8683 16.1549 18.2088 16.2076C18.4612 16.2429 18.6594 16.1871 18.8032 16.0404C18.9471 15.8936 19.019 15.7234 19.019 15.5296C19.019 15.3182 18.9574 15.1465 18.8341 15.0144C18.7108 14.8823 18.5346 14.8046 18.3056 14.781C18.0003 14.7458 17.676 14.6328 17.3325 14.442C16.9891 14.2512 16.6545 14.0164 16.3287 13.7375C16.0028 13.4586 15.7122 13.1651 15.4569 12.8569C15.2015 12.5487 15.0092 12.2595 14.88 11.9895H23.2196V11.0208H17.02C17.3957 10.8505 17.7259 10.6392 18.0107 10.3867C18.2954 10.1343 18.517 9.84807 18.6755 9.5281C18.8341 9.20814 18.9133 8.86323 18.9133 8.49336C18.9133 7.84757 18.7034 7.31479 18.2836 6.89502C17.8639 6.47526 17.337 6.26538 16.7029 6.26538C16.3389 6.26538 15.9896 6.33876 15.655 6.48553C15.3203 6.6323 15.0136 6.84219 14.7347 7.11518C14.4558 7.38817 14.2195 7.71254 14.0258 8.08827V3.79961H12.9602V8.08827C12.7724 7.71254 12.539 7.38817 12.2601 7.11518C11.9813 6.84219 11.6745 6.6323 11.3399 6.48553C11.0052 6.33876 10.653 6.26538 10.2831 6.26538C9.65494 6.26538 9.1295 6.47526 8.7068 6.89502C8.28409 7.31479 8.07274 7.84757 8.07274 8.49336C8.07274 8.86323 8.15347 9.20814 8.31492 9.5281C8.47636 9.84807 8.69946 10.1343 8.9842 10.3867C9.26893 10.6392 9.59623 10.8505 9.96609 11.0208H3.68721ZM12.5376 10.8887C12.1031 10.8887 11.6921 10.8212 11.3047 10.6861C10.9172 10.5511 10.5737 10.3735 10.2743 10.1534C9.9749 9.93319 9.74007 9.68662 9.56981 9.41362C9.39956 9.14063 9.31443 8.86617 9.31443 8.59023C9.31443 8.25559 9.40837 7.99287 9.59624 7.80207C9.7841 7.61127 10.0365 7.51587 10.3536 7.51587C10.6823 7.51587 10.9935 7.59806 11.287 7.76244C11.5806 7.92683 11.8418 8.15432 12.0708 8.44493C12.2997 8.73554 12.4788 9.06871 12.608 9.44445C12.7371 9.82018 12.8017 10.2194 12.8017 10.6421V10.8887H12.5376ZM14.4485 10.8887H14.1843V10.6421C14.1843 10.2194 14.2504 9.82018 14.3825 9.44445C14.5146 9.06871 14.6951 8.73554 14.924 8.44493C15.153 8.15432 15.4143 7.92683 15.7078 7.76244C16.0014 7.59806 16.3096 7.51587 16.6325 7.51587C16.9554 7.51587 17.2093 7.61127 17.3942 7.80207C17.5791 7.99287 17.6716 8.25559 17.6716 8.59023C17.6716 8.86617 17.5865 9.14063 17.4162 9.41362C17.246 9.68662 17.0126 9.93319 16.7161 10.1534C16.4196 10.3735 16.0777 10.5511 15.6901 10.6861C15.3027 10.8212 14.8888 10.8887 14.4485 10.8887ZM5.91521 18.6911H21.0796C22.0014 18.6911 22.6926 18.4636 23.1535 18.0085C23.6144 17.5536 23.8448 16.874 23.8448 15.9699V6.37985C23.8448 5.47574 23.6144 4.79472 23.1535 4.33679C22.6926 3.87887 22.0014 3.6499 21.0796 3.6499H5.91521C4.99348 3.6499 4.30218 3.8774 3.84132 4.33239C3.38046 4.78738 3.15002 5.46987 3.15002 6.37985V15.9699C3.15002 16.874 3.38046 17.5536 3.84132 18.0085C4.30218 18.4636 4.99348 18.6911 5.91521 18.6911ZM5.93282 17.2733C5.4925 17.2733 5.15493 17.1573 4.92009 16.9254C4.68526 16.6935 4.56784 16.3486 4.56784 15.8907V6.45911C4.56784 6.00118 4.68526 5.6548 4.92009 5.41997C5.15493 5.18513 5.4925 5.06771 5.93282 5.06771H21.062C21.4965 5.06771 21.8325 5.18513 22.0703 5.41997C22.3081 5.6548 22.4271 6.00118 22.4271 6.45911V15.8907C22.4271 16.3486 22.3081 16.6935 22.0703 16.9254C21.8325 17.1573 21.4965 17.2733 21.062 17.2733H5.93282Z" fill="white"/>
</svg>