<svg width="11" height="11" viewBox="0 0 11 11" fill="none" xmlns="http://www.w3.org/2000/svg">
<path d="M0.234863 9.43989C-0.0761719 9.75092 -0.0825195 10.3032 0.241211 10.6269C0.571289 10.9506 1.12354 10.9443 1.42822 10.6396L5.18604 6.88178L8.9375 10.6332C9.25488 10.9506 9.80078 10.9506 10.1245 10.6269C10.4482 10.2968 10.4482 9.75727 10.1309 9.43989L6.37939 5.68842L10.1309 1.93061C10.4482 1.61323 10.4546 1.06733 10.1245 0.743597C9.80078 0.419867 9.25488 0.419867 8.9375 0.73725L5.18604 4.48871L1.42822 0.73725C1.12354 0.426214 0.564941 0.413519 0.241211 0.743597C-0.0825195 1.06733 -0.0761719 1.62592 0.234863 1.93061L3.98633 5.68842L0.234863 9.43989Z" fill="#3C3C43" fill-opacity="0.6"/>
</svg>
