<svg width="20" height="20" viewBox="0 0 20 20" fill="none" xmlns="http://www.w3.org/2000/svg">
<path d="M19.8106 18.9119L14.6469 13.8308C15.9991 12.3616 16.8299 10.4187 16.8299 8.28069C16.8293 3.7071 13.0621 0 8.41464 0C3.7672 0 0 3.7071 0 8.28069C0 12.8543 3.7672 16.5614 8.41464 16.5614C10.4227 16.5614 12.2644 15.8668 13.711 14.7122L18.8948 19.8134C19.1474 20.0622 19.5575 20.0622 19.81 19.8134C19.8701 19.7547 19.9179 19.6846 19.9505 19.6073C19.9831 19.5299 19.9999 19.4468 20 19.3628C20.0001 19.2788 19.9833 19.1957 19.9508 19.1182C19.9183 19.0408 19.8706 18.9707 19.8106 18.9119ZM8.41464 15.2873C4.4824 15.2873 1.29471 12.1504 1.29471 8.28069C1.29471 4.41101 4.4824 1.27403 8.41464 1.27403C12.3469 1.27403 15.5346 4.41101 15.5346 8.28069C15.5346 12.1504 12.3469 15.2873 8.41464 15.2873Z" fill="#271B36"/>
</svg>