<svg width="58" height="58" viewBox="0 0 58 58" fill="none" xmlns="http://www.w3.org/2000/svg">
<g id="searcn_btn=hover">
<path id="Rectangle 244" d="M0 6C0 2.68629 2.68629 0 6 0H52C55.3137 0 58 2.68629 58 6V52C58 55.3137 55.3137 58 52 58H6C2.68629 58 0 55.3137 0 52V6Z" fill="#BA90E3"/>
<path id="Vector" d="M40.8106 37.9119L35.6469 32.8308C36.9991 31.3616 37.8299 29.4187 37.8299 27.2807C37.8293 22.7071 34.0621 19 29.4146 19C24.7672 19 21 22.7071 21 27.2807C21 31.8543 24.7672 35.5614 29.4146 35.5614C31.4227 35.5614 33.2644 34.8668 34.711 33.7122L39.8948 38.8134C40.1474 39.0622 40.5575 39.0622 40.81 38.8134C40.8701 38.7547 40.9179 38.6846 40.9505 38.6073C40.9831 38.5299 40.9999 38.4468 41 38.3628C41.0001 38.2788 40.9833 38.1957 40.9508 38.1182C40.9183 38.0408 40.8706 37.9707 40.8106 37.9119ZM29.4146 34.2873C25.4824 34.2873 22.2947 31.1504 22.2947 27.2807C22.2947 23.411 25.4824 20.274 29.4146 20.274C33.3469 20.274 36.5346 23.411 36.5346 27.2807C36.5346 31.1504 33.3469 34.2873 29.4146 34.2873Z" fill="#271B36"/>
</g>
</svg>