<svg width="18" height="18" viewBox="0 0 18 18" fill="none" xmlns="http://www.w3.org/2000/svg">
<path d="M12.8601 11.4164C13.8588 10.0537 14.3061 8.36413 14.1125 6.68576C13.9189 5.00739 13.0988 3.464 11.8162 2.36436C10.5335 1.26472 8.88297 0.689924 7.19473 0.754975C5.50648 0.820026 3.90506 1.52012 2.71083 2.7152C1.51661 3.91028 0.817658 5.51221 0.753816 7.2005C0.689973 8.88878 1.26595 10.5389 2.36651 11.8208C3.46706 13.1026 5.01104 13.9217 6.68955 14.114C8.36806 14.3064 10.0573 13.8579 11.4193 12.8583H11.4183C11.4492 12.8995 11.4822 12.9387 11.5194 12.9769L15.4901 16.9476C15.6835 17.1411 15.9458 17.2499 16.2194 17.25C16.493 17.2501 16.7554 17.1415 16.9489 16.9481C17.1425 16.7547 17.2512 16.4924 17.2513 16.2188C17.2514 15.9452 17.1428 15.6828 16.9495 15.4893L12.9787 11.5185C12.9419 11.4812 12.9022 11.4467 12.8601 11.4154V11.4164ZM13.1262 7.45191C13.1262 8.19682 12.9795 8.93445 12.6944 9.62266C12.4094 10.3109 11.9915 10.9362 11.4648 11.4629C10.9381 11.9897 10.3127 12.4075 9.62452 12.6926C8.93631 12.9776 8.19868 13.1244 7.45376 13.1244C6.70885 13.1244 5.97122 12.9776 5.28301 12.6926C4.59479 12.4075 3.96947 11.9897 3.44273 11.4629C2.91599 10.9362 2.49816 10.3109 2.2131 9.62266C1.92803 8.93445 1.78131 8.19682 1.78131 7.45191C1.78131 5.94748 2.37894 4.50466 3.44273 3.44087C4.50652 2.37708 5.94934 1.77945 7.45376 1.77945C8.95819 1.77945 10.401 2.37708 11.4648 3.44087C12.5286 4.50466 13.1262 5.94748 13.1262 7.45191Z" fill="#ACADBC"/>
</svg>
