<svg width="38" height="38" viewBox="0 0 38 38" fill="none" xmlns="http://www.w3.org/2000/svg">
<circle cx="19" cy="19" r="18.5" fill="white" stroke="#F5F5F7"/>
<path d="M19.0141 8C17.5471 8 16.3535 9.19359 16.3535 10.6605V11.4633H17.7296V10.6605C17.7296 9.9523 18.306 9.37613 19.0141 9.37613C19.7223 9.37613 20.2987 9.95227 20.2987 10.6605V11.4633H21.6748V10.6605C21.6748 9.19359 20.4811 8 19.0141 8Z" fill="#ACADBC"/>
<path d="M20.8945 24.7656C20.8945 25.7902 20.061 26.6236 19.0366 26.6236H18.9908C17.9665 26.6236 17.133 25.7902 17.133 24.7656H15.7568C15.7568 26.5491 17.2075 27.9998 18.9908 27.9998H19.0366C20.8199 27.9998 22.2706 26.5491 22.2706 24.7656H20.8945Z" fill="#ACADBC"/>
<path d="M27.9181 24.5087L25.9633 21.4677V17.5643C25.9633 13.6943 22.8456 10.5459 19.0137 10.5459C15.1816 10.5459 12.0642 13.6943 12.0642 17.5643V21.4677L10.1094 24.5085C9.97314 24.7202 9.96353 24.9895 10.0842 25.2104C10.2048 25.4312 10.4362 25.5688 10.6881 25.5688H27.3394C27.5913 25.5688 27.8227 25.4312 27.9431 25.2106C28.0639 24.9897 28.0543 24.7205 27.9181 24.5087ZM11.9483 24.1927L13.3309 22.0418C13.4022 21.931 13.4403 21.8016 13.4403 21.6698V17.5643C13.4403 14.4532 15.9406 11.9221 19.0137 11.9221C22.0871 11.9221 24.5871 14.4533 24.5871 17.5643V21.6698C24.5871 21.8016 24.625 21.9308 24.6963 22.0418L26.0789 24.1927H11.9483Z" fill="#ACADBC"/>
</svg>