<svg width="20" height="40" viewBox="0 0 20 40" fill="none" xmlns="http://www.w3.org/2000/svg">
<g clip-path="url(#clip0_603_14)">
<path d="M7.84765 12.6505L7.51682 17.3039C7.99015 17.3039 8.19515 17.1005 8.44098 16.8564L10.6601 14.7355L15.2585 18.103C16.1018 18.573 16.696 18.3255 16.9235 17.3272L19.9418 3.18385L19.9426 3.18302C20.2101 1.93635 19.4918 1.44885 18.6701 1.75469L0.928482 8.54719C-0.282352 9.01719 -0.264019 9.69219 0.722648 9.99802L5.25848 11.4089L15.7943 4.81635C16.2901 4.48802 16.741 4.66969 16.3701 4.99802L7.84765 12.6505Z" fill="#C4C4C4"/>
</g>
<g clip-path="url(#clip1_603_14)">
<path d="M7.84765 32.6505L7.51682 37.3039C7.99015 37.3039 8.19515 37.1005 8.44098 36.8564L10.6601 34.7355L15.2585 38.103C16.1018 38.573 16.696 38.3255 16.9235 37.3272L19.9418 23.1839L19.9426 23.183C20.2101 21.9364 19.4918 21.4489 18.6701 21.7547L0.928482 28.5472C-0.282352 29.0172 -0.264019 29.6922 0.722648 29.998L5.25848 31.4089L15.7943 24.8163C16.2901 24.488 16.741 24.6697 16.3701 24.998L7.84765 32.6505Z" fill="white"/>
</g>
<defs>
<clipPath id="clip0_603_14">
<rect width="20" height="20" fill="white"/>
</clipPath>
<clipPath id="clip1_603_14">
<rect width="20" height="20" fill="white" transform="translate(0 20)"/>
</clipPath>
</defs>
</svg>
