<svg width="27" height="28" viewBox="0 0 27 28" fill="none" xmlns="http://www.w3.org/2000/svg">
<g clip-path="url(#clip0_58098_5329)">
<rect y="0.888672" width="26.2222" height="26.2222" rx="13.1111" fill="#27A6E5"/>
<path d="M18.3555 9.15016L16.3852 19.4359C16.3852 19.4359 16.1096 20.149 15.3523 19.807L10.8065 16.1976L10.7854 16.187C11.3994 15.616 16.1609 11.1827 16.369 10.9817C16.6912 10.6705 16.4912 10.4852 16.1171 10.7203L9.0838 15.3457L6.37035 14.4002C6.37035 14.4002 5.94334 14.2429 5.90226 13.9009C5.86064 13.5583 6.38441 13.373 6.38441 13.373L17.4463 8.87924C17.4463 8.87924 18.3555 8.46557 18.3555 9.15016V9.15016Z" fill="#FEFEFE"/>
</g>
<defs>
<clipPath id="clip0_58098_5329">
<rect width="26.2222" height="26.2222" fill="white" transform="translate(0 0.888672)"/>
</clipPath>
</defs>
</svg>
