<svg width="987" height="641" viewBox="0 0 987 641" fill="none" xmlns="http://www.w3.org/2000/svg">
<path d="M366.031 482.581C365.737 482.581 365.441 482.524 365.156 482.403C364.007 481.917 363.468 480.593 363.951 479.444C366.189 474.126 367.775 468.543 368.659 462.85C368.851 461.616 370.002 460.775 371.239 460.967C372.472 461.159 373.313 462.314 373.121 463.548C372.179 469.605 370.494 475.544 368.111 481.2C367.747 482.064 366.912 482.584 366.028 482.584L366.031 482.581Z" fill="white" fill-opacity="0.5"/>
<path d="M334.593 531.716C333.743 531.716 332.93 531.233 332.546 530.414C332.018 529.285 332.504 527.941 333.633 527.41C346.16 521.542 357.145 512.525 365.402 501.334C373.737 490.039 379.111 476.747 380.949 462.898C381.112 461.662 382.247 460.795 383.483 460.956C384.72 461.119 385.589 462.255 385.425 463.491C383.486 478.094 377.818 492.109 369.034 504.017C360.332 515.809 348.754 525.315 335.547 531.502C335.236 531.646 334.912 531.716 334.59 531.716H334.593Z" fill="white" fill-opacity="0.5"/>
<path d="M319.658 549.605C318.622 549.605 317.691 548.888 317.456 547.838C317.185 546.621 317.953 545.412 319.17 545.141C337.813 540.99 354.63 531.408 367.801 517.433C380.923 503.511 389.493 486.232 392.583 467.465C392.787 466.233 393.95 465.403 395.177 465.604C396.408 465.807 397.241 466.968 397.038 468.199C393.8 487.856 384.827 505.954 371.084 520.534C357.289 535.167 339.676 545.203 320.146 549.552C319.98 549.589 319.816 549.605 319.652 549.605H319.658Z" fill="white" fill-opacity="0.5"/>
<path d="M325.95 560.63C324.945 560.63 324.027 559.955 323.765 558.935C323.452 557.727 324.177 556.496 325.385 556.182C345.889 550.876 364.25 539.688 378.476 523.826C392.71 507.959 401.85 488.483 404.91 467.504C405.091 466.27 406.234 465.412 407.47 465.595C408.703 465.776 409.559 466.922 409.378 468.157C406.191 490.019 396.668 510.311 381.838 526.845C367.013 543.37 347.884 555.027 326.514 560.556C326.325 560.604 326.133 560.63 325.947 560.63H325.95Z" fill="white" fill-opacity="0.5"/>
<path d="M398.528 408.68C397.67 408.68 396.848 408.186 396.47 407.353C392.753 399.147 388 391.412 382.337 384.367C381.555 383.395 381.711 381.972 382.682 381.19C383.653 380.408 385.075 380.563 385.857 381.534C391.756 388.876 396.71 396.936 400.583 405.486C401.096 406.622 400.594 407.96 399.457 408.477C399.155 408.615 398.838 408.677 398.525 408.677L398.528 408.68Z" fill="white" fill-opacity="0.5"/>
<path d="M344.678 567.224C343.789 567.224 342.948 566.696 342.589 565.82C342.115 564.665 342.668 563.346 343.823 562.872C364.016 554.584 381.598 540.885 394.669 523.256C407.905 505.403 415.901 484.303 417.792 462.232C417.9 460.99 418.992 460.069 420.234 460.173C421.476 460.281 422.399 461.374 422.292 462.616C420.327 485.521 412.031 507.42 398.296 525.944C384.736 544.234 366.491 558.45 345.536 567.049C345.256 567.164 344.966 567.218 344.681 567.218L344.678 567.224Z" fill="white" fill-opacity="0.5"/>
<path d="M419.412 437.887C418.298 437.887 417.327 437.06 417.177 435.925C413.841 410.73 402.798 387.651 385.245 369.183C384.386 368.279 384.42 366.847 385.326 365.989C386.23 365.13 387.658 365.164 388.519 366.071C397.404 375.421 404.749 386.027 410.349 397.591C416.11 409.488 419.912 422.184 421.654 435.335C421.817 436.572 420.948 437.707 419.712 437.87C419.61 437.885 419.511 437.89 419.412 437.89V437.887Z" fill="white" fill-opacity="0.5"/>
<path d="M386.882 555.191C386.255 555.191 385.631 554.931 385.182 554.423C384.361 553.485 384.451 552.057 385.391 551.235C415.543 524.761 431.917 486.602 430.313 446.545C429.599 428.713 425.419 411.555 417.883 395.549C410.603 380.088 400.521 366.342 387.909 354.696C375.298 343.051 360.798 334.09 344.81 328.067C328.259 321.832 310.832 319.033 293.007 319.745C281.087 320.222 269.333 322.284 258.077 325.873C256.888 326.251 255.618 325.596 255.24 324.407C254.862 323.218 255.517 321.948 256.705 321.569C268.346 317.856 280.5 315.724 292.826 315.23C311.258 314.493 329.283 317.39 346.402 323.84C362.937 330.069 377.931 339.334 390.972 351.375C404.012 363.419 414.439 377.632 421.967 393.623C429.76 410.18 434.085 427.925 434.824 446.365C435.662 467.343 431.841 487.652 423.46 506.733C415.475 524.919 403.338 541.481 388.366 554.629C387.937 555.005 387.407 555.191 386.879 555.191H386.882Z" fill="white" fill-opacity="0.5"/>
<path d="M398.528 561.093C397.927 561.093 397.325 560.853 396.879 560.379C396.027 559.469 396.072 558.037 396.981 557.185C400.636 553.756 404.151 550.094 407.43 546.304C408.246 545.361 409.672 545.26 410.617 546.076C411.56 546.892 411.662 548.318 410.846 549.264C407.464 553.172 403.84 556.945 400.072 560.48C399.637 560.89 399.081 561.093 398.528 561.093Z" fill="white" fill-opacity="0.5"/>
<path d="M418.554 537.946C418.108 537.946 417.657 537.813 417.264 537.539C416.243 536.825 415.992 535.415 416.706 534.393C425.476 521.824 432.151 508.041 436.543 493.422C441.085 478.303 443.1 462.562 442.527 446.636C441.827 427.154 437.333 408.395 429.173 390.878C421.29 373.958 410.335 358.901 396.611 346.126C382.888 333.35 367.089 323.501 349.651 316.851C331.601 309.966 312.573 306.832 293.103 307.535C276.35 308.139 260.039 311.576 244.624 317.754C229.726 323.724 215.994 332.108 203.815 342.675C202.872 343.491 201.446 343.389 200.628 342.449C199.812 341.506 199.914 340.08 200.854 339.261C213.414 328.364 227.575 319.717 242.942 313.561C258.842 307.19 275.665 303.643 292.936 303.022C313.016 302.302 332.637 305.533 351.257 312.632C369.24 319.488 385.533 329.646 399.685 342.819C413.838 355.992 425.134 371.521 433.263 388.972C441.68 407.039 446.315 426.389 447.038 446.475C447.628 462.898 445.553 479.133 440.867 494.726C436.337 509.803 429.453 524.021 420.409 536.983C419.969 537.612 419.269 537.948 418.554 537.948V537.946Z" fill="white" fill-opacity="0.5"/>
<path d="M405.81 570.982C405.201 570.982 404.594 570.737 404.148 570.254C403.304 569.336 403.36 567.907 404.278 567.063C406.934 564.614 409.536 562.045 412.017 559.421C412.875 558.515 414.304 558.475 415.21 559.331C416.116 560.189 416.155 561.618 415.3 562.525C412.748 565.224 410.07 567.867 407.34 570.386C406.905 570.787 406.358 570.985 405.81 570.985V570.982Z" fill="white" fill-opacity="0.5"/>
<path d="M443.944 517.425C443.642 517.425 443.337 517.365 443.044 517.235C441.9 516.738 441.378 515.406 441.875 514.262C444.664 507.854 447.04 501.201 448.94 494.481C449.279 493.28 450.526 492.58 451.729 492.922C452.928 493.261 453.626 494.509 453.287 495.712C451.334 502.625 448.886 509.475 446.019 516.066C445.649 516.916 444.819 517.425 443.947 517.425H443.944Z" fill="white" fill-opacity="0.5"/>
<path d="M453.699 486.851C453.547 486.851 453.388 486.834 453.233 486.803C452.014 486.546 451.232 485.348 451.486 484.128C454.049 471.909 455.141 459.326 454.729 446.726C454.04 425.595 449.236 405.235 440.452 386.208C431.965 367.827 420.141 351.457 405.302 337.552C390.466 323.648 373.367 312.909 354.481 305.631C334.928 298.1 314.306 294.627 293.187 295.319C252.268 296.654 214.081 313.617 185.659 343.087C184.793 343.985 183.365 344.011 182.467 343.144C181.569 342.277 181.544 340.848 182.411 339.95C211.653 309.63 250.941 292.178 293.041 290.803C314.766 290.094 335.987 293.664 356.104 301.415C375.535 308.901 393.125 319.948 408.39 334.254C423.652 348.56 435.82 365.401 444.551 384.313C453.592 403.894 458.534 424.841 459.243 446.579C459.666 459.538 458.543 472.483 455.903 485.055C455.68 486.119 454.741 486.851 453.696 486.851H453.699Z" fill="white" fill-opacity="0.5"/>
<path d="M463.759 497.358C463.57 497.358 463.378 497.336 463.189 497.285C461.98 496.968 461.258 495.734 461.574 494.529C465.616 479.031 467.423 462.98 466.943 446.816C466.265 424.039 461.151 402.075 451.74 381.537C442.648 361.699 429.952 344.016 414.004 328.979C398.056 313.945 379.659 302.313 359.324 294.412C338.273 286.231 316.056 282.428 293.286 283.105C279.388 283.518 265.619 285.624 252.364 289.366C239.493 292.997 227.053 298.182 215.39 304.779C192.507 317.718 172.664 336.132 158.006 358.031C157.312 359.068 155.912 359.347 154.873 358.652C153.837 357.958 153.561 356.554 154.252 355.518C169.3 333.034 189.67 314.128 213.166 300.845C225.142 294.073 237.918 288.747 251.136 285.02C264.747 281.179 278.882 279.016 293.151 278.593C316.525 277.895 339.34 281.806 360.959 290.205C381.838 298.318 400.727 310.257 417.101 325.695C433.475 341.13 446.51 359.288 455.844 379.656C465.509 400.748 470.762 423.299 471.456 446.684C471.95 463.277 470.096 479.757 465.943 495.669C465.678 496.686 464.764 497.358 463.759 497.358Z" fill="white" fill-opacity="0.5"/>
<path d="M481.177 464.725C481.135 464.725 481.09 464.725 481.047 464.723C479.803 464.652 478.851 463.585 478.922 462.339C479.213 457.239 479.289 452.046 479.151 446.91C478.487 422.483 473.062 398.918 463.025 376.869C453.329 355.572 439.764 336.575 422.701 320.412C405.638 304.245 385.942 291.727 364.16 283.199C341.607 274.371 317.787 270.231 293.377 270.895C278.343 271.304 263.451 273.561 249.112 277.599C235.191 281.521 221.744 287.135 209.144 294.285C184.406 308.325 163.019 328.316 147.297 352.095C146.608 353.137 145.208 353.423 144.167 352.734C143.128 352.045 142.84 350.644 143.529 349.602C159.643 325.232 181.561 304.745 206.914 290.354C219.83 283.023 233.616 277.268 247.887 273.247C262.585 269.107 277.846 266.795 293.252 266.377C318.278 265.693 342.685 269.94 365.802 278.988C388.129 287.728 408.317 300.56 425.803 317.127C443.289 333.695 457.193 353.163 467.129 374.994C477.417 397.596 482.978 421.749 483.658 446.785C483.802 452.049 483.723 457.366 483.424 462.593C483.356 463.796 482.36 464.723 481.172 464.723L481.177 464.725Z" fill="white" fill-opacity="0.5"/>
<path d="M493.495 462.746C493.461 462.746 493.43 462.746 493.396 462.746C492.152 462.692 491.183 461.639 491.237 460.391C491.429 455.957 491.469 451.453 491.358 447.003C490.706 420.927 484.971 395.761 474.31 372.201C464.01 349.444 449.575 329.137 431.4 311.841C413.225 294.545 392.231 281.134 368.998 271.982C344.946 262.505 319.531 258.032 293.47 258.685C277.824 259.077 262.311 261.342 247.354 265.419C232.826 269.381 218.758 275.069 205.536 282.323C179.622 296.544 156.942 316.904 139.956 341.195C139.241 342.217 137.833 342.466 136.811 341.752C135.789 341.037 135.541 339.628 136.255 338.606C153.637 313.75 176.844 292.918 203.363 278.364C216.895 270.937 231.296 265.117 246.165 261.062C261.472 256.889 277.35 254.57 293.357 254.169C320.028 253.506 346.033 258.083 370.652 267.78C394.427 277.147 415.912 290.871 434.511 308.571C453.109 326.268 467.883 347.052 478.422 370.34C489.335 394.453 495.206 420.21 495.872 446.893C495.985 451.445 495.945 456.053 495.748 460.589C495.694 461.803 494.695 462.749 493.492 462.749L493.495 462.746Z" fill="white" fill-opacity="0.5"/>
<path d="M505.429 468.012C505.378 468.012 505.328 468.012 505.277 468.007C504.032 467.925 503.089 466.849 503.174 465.604C503.578 459.484 503.71 453.258 503.569 447.093C502.931 419.368 496.882 392.601 485.597 367.531C474.696 343.316 459.389 321.694 440.102 303.268C420.815 284.842 398.522 270.542 373.841 260.763C348.288 250.639 321.281 245.83 293.571 246.468C276.373 246.864 259.33 249.391 242.919 253.977C226.988 258.428 211.599 264.832 197.184 273.007C168.868 289.067 144.443 311.971 126.545 339.241C125.862 340.283 124.462 340.574 123.418 339.891C122.376 339.207 122.085 337.807 122.769 336.762C141.056 308.893 166.017 285.486 194.954 269.076C209.688 260.721 225.419 254.175 241.703 249.626C258.475 244.938 275.89 242.357 293.467 241.953C321.786 241.301 349.389 246.214 375.507 256.564C400.732 266.557 423.514 281.174 443.224 300.003C462.935 318.833 478.578 340.93 489.718 365.678C501.255 391.302 507.433 418.66 508.088 446.992C508.232 453.289 508.097 459.654 507.685 465.906C507.605 467.1 506.612 468.015 505.435 468.015L505.429 468.012Z" fill="white" fill-opacity="0.5"/>
<path d="M517.99 460.713C517.967 460.713 517.945 460.713 517.922 460.713C516.675 460.676 515.695 459.634 515.732 458.389C515.839 454.684 515.856 450.917 515.777 447.189C515.15 417.815 508.794 389.447 496.882 362.866C485.377 337.191 469.201 314.258 448.799 294.7C428.4 275.145 404.808 259.952 378.676 249.546C351.624 238.773 323.02 233.631 293.662 234.255C274.917 234.656 256.358 237.441 238.499 242.535C221.171 247.477 204.475 254.598 188.877 263.697C158.181 281.603 132.049 307.055 113.301 337.301C112.644 338.36 111.252 338.688 110.194 338.03C109.135 337.372 108.808 335.98 109.465 334.921C128.6 304.05 155.274 278.07 186.605 259.794C202.527 250.504 219.573 243.235 237.263 238.192C255.491 232.993 274.437 230.149 293.566 229.74C323.534 229.102 352.731 234.351 380.347 245.35C407.021 255.974 431.104 271.48 451.923 291.439C472.746 311.398 489.258 334.808 501.003 361.016C513.163 388.151 519.652 417.112 520.293 447.09C520.375 450.891 520.358 454.737 520.248 458.519C520.211 459.744 519.209 460.713 517.993 460.713H517.99Z" fill="white" fill-opacity="0.5"/>
<path d="M528.784 480.734C528.699 480.734 528.611 480.728 528.524 480.72C527.285 480.579 526.396 479.458 526.537 478.218C527.014 474.036 527.381 469.783 527.629 465.573C527.703 464.327 528.767 463.373 530.017 463.449C531.262 463.523 532.213 464.59 532.14 465.838C531.889 470.13 531.513 474.465 531.025 478.729C530.892 479.881 529.916 480.731 528.784 480.731V480.734Z" fill="white" fill-opacity="0.5"/>
<path d="M530.178 461.487C530.155 461.487 530.13 461.487 530.107 461.487C528.86 461.447 527.883 460.405 527.92 459.16C528.041 455.226 528.064 451.23 527.988 447.285C527.375 416.262 520.705 386.29 508.17 358.201C496.061 331.069 479.012 306.82 457.501 286.135C435.99 265.451 411.097 249.366 383.52 238.336C354.969 226.916 324.77 221.435 293.76 222.048C273.725 222.443 253.894 225.419 234.816 230.895C216.308 236.204 198.494 243.865 181.869 253.664C149.123 272.962 121.397 300.365 101.686 332.91C101.04 333.977 99.6512 334.319 98.5843 333.672C97.5173 333.026 97.1758 331.636 97.8221 330.569C117.919 297.386 146.188 269.446 179.574 249.77C196.529 239.779 214.693 231.968 233.568 226.552C253.021 220.972 273.243 217.936 293.667 217.532C325.281 216.908 356.076 222.494 385.194 234.142C413.316 245.393 438.697 261.788 460.629 282.879C482.563 303.971 499.945 328.694 512.291 356.362C525.075 385.008 531.874 415.57 532.501 447.201C532.58 451.225 532.557 455.297 532.433 459.306C532.397 460.529 531.392 461.495 530.178 461.495V461.487Z" fill="white" fill-opacity="0.5"/>
<path d="M541.065 480.734C540.983 480.734 540.901 480.728 540.819 480.72C539.58 480.584 538.683 479.472 538.818 478.229C539.193 474.764 539.498 471.24 539.724 467.758C539.806 466.513 540.87 465.564 542.123 465.649C543.368 465.731 544.311 466.804 544.232 468.049C544.003 471.599 543.69 475.185 543.309 478.715C543.185 479.873 542.205 480.731 541.068 480.731L541.065 480.734Z" fill="white" fill-opacity="0.5"/>
<path d="M542.394 461.19C542.372 461.19 542.352 461.19 542.329 461.19C541.082 461.153 540.1 460.114 540.136 458.869C540.244 455.065 540.263 451.199 540.193 447.378C539.591 414.709 532.614 383.133 519.452 353.533C506.739 324.941 488.821 299.382 466.198 277.565C443.574 255.748 417.383 238.776 388.355 227.116C358.303 215.047 326.506 209.23 293.851 209.832C272.379 210.227 251.136 213.435 230.711 219.365C210.902 225.117 191.864 233.422 174.129 244.054C139.154 265.021 109.793 294.731 89.2244 329.973C88.595 331.052 87.2119 331.413 86.1365 330.784C85.0582 330.154 84.6969 328.77 85.3264 327.694C106.276 291.797 136.182 261.534 171.809 240.177C189.876 229.347 209.271 220.884 229.455 215.025C250.264 208.984 271.902 205.717 293.772 205.313C327.042 204.701 359.426 210.625 390.04 222.92C419.61 234.797 446.29 252.085 469.333 274.309C492.377 296.53 510.629 322.566 523.582 351.694C536.989 381.851 544.099 414.014 544.712 447.294C544.782 451.185 544.763 455.121 544.655 458.996C544.621 460.221 543.617 461.19 542.4 461.19H542.394Z" fill="white" fill-opacity="0.5"/>
<path d="M554.537 463.418C554.509 463.418 554.484 463.418 554.455 463.418C553.208 463.373 552.234 462.328 552.279 461.08C552.44 456.573 552.482 451.995 552.403 447.472C551.816 413.153 544.528 379.975 530.74 348.865C517.423 318.813 498.635 291.941 474.9 268.994C451.164 246.048 423.675 228.184 393.199 215.9C361.647 203.181 328.259 197.031 293.95 197.621C271.089 198.014 248.477 201.439 226.743 207.804C205.669 213.977 185.445 222.898 166.627 234.326C129.478 256.883 98.5137 288.798 77.0787 326.618C76.4633 327.703 75.0859 328.084 73.9992 327.468C72.9153 326.853 72.5342 325.475 73.1496 324.388C94.9657 285.898 126.477 253.418 164.284 230.463C183.438 218.831 204.023 209.75 225.475 203.469C247.596 196.991 270.609 193.504 293.873 193.106C328.784 192.51 362.771 198.768 394.887 211.712C425.905 224.216 453.882 242.396 478.038 265.75C502.195 289.103 521.315 316.452 534.869 347.038C548.901 378.705 556.321 412.473 556.92 447.398C556.999 451.998 556.956 456.658 556.793 461.244C556.75 462.464 555.748 463.424 554.537 463.424V463.418Z" fill="white" fill-opacity="0.5"/>
<path d="M551.272 496.175C551.15 496.175 551.026 496.164 550.902 496.144C549.671 495.941 548.838 494.777 549.042 493.546C550.286 486.012 551.198 478.32 551.757 470.681C551.847 469.436 552.931 468.498 554.173 468.594C555.418 468.685 556.352 469.769 556.259 471.011C555.692 478.786 554.76 486.613 553.496 494.283C553.312 495.39 552.355 496.175 551.272 496.175Z" fill="white" fill-opacity="0.5"/>
<path d="M566.635 466.327C566.601 466.327 566.567 466.327 566.533 466.327C565.289 466.27 564.323 465.214 564.377 463.969C564.62 458.541 564.699 453.023 564.611 447.568C564.035 411.6 556.437 376.821 542.027 344.2C528.106 312.688 508.449 284.503 483.602 260.427C458.751 236.351 429.966 217.594 398.04 204.684C364.987 191.318 330.003 184.832 294.048 185.408C269.712 185.798 245.652 189.466 222.537 196.314C200.131 202.95 178.657 212.554 158.712 224.857C119.291 249.177 86.7095 283.506 64.4897 324.142C63.8913 325.238 62.5196 325.639 61.4244 325.04C60.3292 324.441 59.9284 323.069 60.5268 321.973C83.1219 280.654 116.254 245.743 156.341 221.011C176.624 208.499 198.463 198.731 221.253 191.982C244.76 185.018 269.229 181.288 293.975 180.893C330.539 180.305 366.116 186.905 399.733 200.499C432.202 213.63 461.475 232.702 486.743 257.185C512.012 281.668 532.001 310.333 546.16 342.378C560.818 375.556 568.546 410.925 569.13 447.5C569.218 453.046 569.139 458.657 568.893 464.175C568.84 465.386 567.84 466.332 566.638 466.332L566.635 466.327Z" fill="white" fill-opacity="0.5"/>
<path d="M562.455 503.091C562.319 503.091 562.181 503.079 562.043 503.054C560.818 502.828 560.005 501.65 560.231 500.422C562.014 490.745 563.271 480.844 563.971 470.994C564.058 469.749 565.139 468.812 566.384 468.902C567.629 468.99 568.566 470.071 568.475 471.316C567.764 481.333 566.485 491.403 564.673 501.241C564.473 502.328 563.525 503.091 562.455 503.091Z" fill="white" fill-opacity="0.5"/>
<path d="M578.959 463.483C578.933 463.483 578.908 463.483 578.883 463.483C577.638 463.443 576.658 462.399 576.701 461.15C576.847 456.686 576.887 452.148 576.819 447.661C576.257 410.044 568.348 373.664 553.312 339.532C538.79 306.563 518.261 277.065 492.301 251.856C466.339 226.648 436.255 207.005 402.88 193.467C368.329 179.452 331.739 172.636 294.144 173.195C242.634 173.966 192.535 188.893 149.265 216.366C107.196 243.074 72.9604 280.615 50.2609 324.927C49.6907 326.037 48.3302 326.477 47.2209 325.907C46.1116 325.339 45.6713 323.975 46.2415 322.865C69.308 277.836 104.094 239.691 146.843 212.548C190.819 184.628 241.731 169.456 294.077 168.674C332.284 168.1 369.463 175.036 404.577 189.279C438.493 203.037 469.065 222.999 495.448 248.615C521.829 274.23 542.688 304.205 557.447 337.711C572.729 372.399 580.765 409.369 581.338 447.596C581.406 452.154 581.366 456.765 581.217 461.3C581.177 462.523 580.175 463.486 578.961 463.486L578.959 463.483Z" fill="white" fill-opacity="0.5"/>
<path d="M574.067 507.394C573.926 507.394 573.782 507.38 573.638 507.352C572.413 507.117 571.611 505.931 571.846 504.706C574.262 492.128 575.82 479.232 576.48 466.378C576.545 465.132 577.609 464.172 578.851 464.237C580.096 464.302 581.056 465.364 580.991 466.609C580.322 479.672 578.736 492.775 576.283 505.556C576.074 506.637 575.128 507.389 574.067 507.389V507.394Z" fill="white" fill-opacity="0.5"/>
<path d="M586.865 505.313C586.735 505.313 586.602 505.302 586.47 505.279C585.242 505.062 584.42 503.89 584.638 502.661C587.81 484.662 589.287 466.191 589.03 447.757C588.479 408.491 580.26 370.51 564.6 334.867C549.473 300.438 528.075 269.627 501 243.289C473.926 216.951 442.541 196.415 407.718 182.251C371.665 167.586 333.483 160.431 294.237 160.979C267.033 161.36 240.153 165.491 214.352 173.262C189.349 180.791 165.441 191.699 143.3 205.686C99.4423 233.388 63.6796 272.369 39.8793 318.415C39.3063 319.522 37.9429 319.957 36.8365 319.384C35.73 318.81 35.2953 317.446 35.8683 316.34C60.0385 269.582 96.3516 229.997 140.89 201.865C163.378 187.661 187.658 176.58 213.053 168.933C239.258 161.044 266.553 156.844 294.178 156.458C334.036 155.898 372.808 163.167 409.423 178.06C444.788 192.445 476.661 213.299 504.153 240.044C531.646 266.789 553.374 298.08 568.738 333.043C584.643 369.242 592.99 407.816 593.549 447.689C593.811 466.406 592.31 485.165 589.089 503.441C588.897 504.536 587.943 505.307 586.868 505.307L586.865 505.313Z" fill="white" fill-opacity="0.5"/>
<path d="M599.739 502.342C599.62 502.342 599.502 502.334 599.383 502.314C598.153 502.119 597.311 500.961 597.506 499.727C600.21 482.694 601.466 465.242 601.238 447.85C600.701 406.935 592.171 367.353 575.885 330.199C568.058 312.341 558.433 295.146 547.28 279.087C536.233 263.18 523.59 248.253 509.7 234.718C495.813 221.184 480.565 208.931 464.38 198.299C448.042 187.565 430.607 178.393 412.556 171.032C375.004 155.718 335.23 148.226 294.331 148.762C265.98 149.135 237.971 153.416 211.074 161.49C185.013 169.312 160.092 180.658 137.006 195.215C91.2793 224.044 53.9811 264.632 29.142 312.592C28.569 313.699 27.2057 314.131 26.0992 313.558C24.9927 312.985 24.558 311.621 25.1339 310.514C50.3427 261.842 88.197 220.65 134.601 191.394C158.032 176.623 183.325 165.104 209.779 157.166C237.076 148.971 265.503 144.626 294.274 144.25C335.775 143.702 376.147 151.31 414.264 166.852C432.583 174.321 450.278 183.632 466.861 194.526C483.283 205.316 498.759 217.75 512.853 231.485C526.946 245.22 539.778 260.37 550.989 276.512C562.308 292.808 572.077 310.263 580.02 328.386C596.549 366.096 605.206 406.271 605.751 447.794C605.983 465.44 604.709 483.151 601.966 500.439C601.788 501.552 600.828 502.345 599.739 502.345V502.342Z" fill="white" fill-opacity="0.5"/>
<path d="M581.931 567.108C581.651 567.108 581.369 567.057 581.095 566.947C579.938 566.484 579.374 565.171 579.834 564.013C583.046 555.951 585.945 547.651 588.443 539.349C588.804 538.155 590.063 537.48 591.257 537.838C592.451 538.197 593.128 539.459 592.767 540.654C590.229 549.083 587.288 557.504 584.028 565.687C583.675 566.571 582.828 567.111 581.931 567.111V567.108Z" fill="white" fill-opacity="0.5"/>
<path d="M611.981 503.088C611.865 503.088 611.749 503.079 611.633 503.062C610.4 502.87 609.556 501.718 609.748 500.484C612.421 483.228 613.666 465.553 613.448 447.949C612.923 405.388 604.086 364.201 587.175 325.534C579.049 306.95 569.051 289.052 557.462 272.338C545.982 255.782 532.843 240.242 518.405 226.151C503.967 212.06 488.118 199.299 471.29 188.226C454.303 177.046 436.173 167.488 417.403 159.818C378.349 143.857 336.975 136.03 294.435 136.552C265.619 136.908 237.119 141.147 209.722 149.158C183.167 156.921 157.704 168.202 134.042 182.688C87.2712 211.323 48.5617 251.842 22.1052 299.871C21.504 300.964 20.1293 301.362 19.037 300.76C17.9446 300.159 17.5466 298.783 18.1479 297.691C44.9826 248.979 84.2425 207.877 131.682 178.837C155.683 164.141 181.513 152.699 208.452 144.823C236.241 136.699 265.15 132.398 294.376 132.037C337.531 131.506 379.495 139.447 419.108 155.636C438.146 163.418 456.539 173.113 473.768 184.453C490.833 195.684 506.911 208.626 521.555 222.92C536.199 237.212 549.524 252.975 561.168 269.765C572.924 286.72 583.063 304.875 591.308 323.724C608.461 362.945 617.428 404.724 617.959 447.892C618.179 465.745 616.915 483.674 614.205 501.173C614.033 502.289 613.07 503.088 611.975 503.088H611.981Z" fill="white" fill-opacity="0.5"/>
<path d="M596.482 563.233C596.225 563.233 595.962 563.188 595.705 563.095C594.534 562.666 593.933 561.37 594.362 560.198C597.537 551.523 600.357 542.605 602.748 533.687C603.07 532.482 604.306 531.767 605.514 532.092C606.719 532.414 607.433 533.653 607.109 534.859C604.684 543.904 601.822 552.952 598.601 561.751C598.266 562.666 597.402 563.233 596.482 563.233Z" fill="white" fill-opacity="0.5"/>
<path d="M623.745 506.858C623.627 506.858 623.505 506.849 623.384 506.829C622.153 506.632 621.315 505.471 621.513 504.24C624.479 485.792 625.874 466.886 625.656 448.045C625.145 403.834 615.994 361.044 598.46 320.869C590.032 301.559 579.661 282.961 567.637 265.592C555.726 248.386 542.089 232.233 527.104 217.586C512.119 202.936 495.663 189.672 478.194 178.156C460.558 166.53 441.734 156.587 422.241 148.604C381.688 131.994 338.719 123.828 294.528 124.342C264.795 124.686 235.374 129.012 207.083 137.207C179.656 145.151 153.338 156.703 128.857 171.548C80.494 200.877 40.3027 242.453 12.6296 291.786C12.0199 292.873 10.6425 293.26 9.55578 292.65C8.46907 292.04 8.08237 290.662 8.69206 289.575C36.7461 239.567 77.4879 197.418 126.517 167.685C151.336 152.634 178.019 140.921 205.827 132.867C234.508 124.562 264.335 120.174 294.475 119.823C339.278 119.31 382.837 127.581 423.951 144.422C443.712 152.515 462.796 162.597 480.678 174.381C498.387 186.055 515.068 199.502 530.257 214.353C545.448 229.203 559.271 245.576 571.346 263.019C583.537 280.629 594.051 299.484 602.595 319.062C620.372 359.793 629.65 403.174 630.167 447.991C630.387 467.089 628.973 486.255 625.967 504.957C625.789 506.067 624.829 506.858 623.74 506.858H623.745Z" fill="white" fill-opacity="0.5"/>
<path d="M607.106 569.711C606.843 569.711 606.575 569.666 606.316 569.567C605.147 569.13 604.554 567.828 604.992 566.659C609.779 553.867 613.798 540.645 616.934 527.356C617.222 526.142 618.436 525.391 619.65 525.676C620.863 525.964 621.614 527.178 621.329 528.393C618.148 541.865 614.075 555.273 609.22 568.243C608.881 569.149 608.021 569.711 607.106 569.711Z" fill="white" fill-opacity="0.5"/>
<path d="M635.547 510.339C635.425 510.339 635.301 510.328 635.174 510.308C633.943 510.105 633.111 508.942 633.314 507.71C636.549 488.161 638.079 468.12 637.861 448.141C637.364 402.281 627.903 357.89 609.745 316.204C601.018 296.169 590.275 276.87 577.813 258.843C565.469 240.987 551.336 224.222 535.804 209.015C520.271 193.809 503.211 180.037 485.101 168.081C466.816 156.009 447.294 145.682 427.084 137.388C385.033 120.128 340.464 111.631 294.627 112.128C270.338 112.391 246.123 115.235 222.656 120.575C199.806 125.773 177.432 133.395 156.149 143.222C135.253 152.871 115.246 164.723 96.6846 178.45C78.2783 192.061 61.1732 207.604 45.8463 224.64C45.0136 225.566 43.5854 225.642 42.6567 224.809C41.7309 223.973 41.6547 222.547 42.4902 221.618C58.0203 204.356 75.3512 188.607 94.0003 174.816C112.81 160.905 133.082 148.895 154.258 139.119C175.825 129.159 198.5 121.439 221.656 116.169C245.437 110.759 269.974 107.878 294.582 107.61C341.037 107.105 386.187 115.718 428.803 133.206C449.284 141.612 469.065 152.075 487.593 164.308C505.946 176.422 523.229 190.378 538.968 205.785C554.707 221.192 569.026 238.178 581.533 256.27C594.159 274.538 605.045 294.093 613.891 314.397C632.295 356.639 641.881 401.62 642.386 448.09C642.606 468.332 641.057 488.641 637.777 508.447C637.593 509.554 636.636 510.337 635.552 510.337L635.547 510.339Z" fill="white" fill-opacity="0.5"/>
<path d="M2.25647 283.029C1.87259 283.029 1.48307 282.93 1.12742 282.724C0.0491744 282.1 -0.32059 280.716 0.303211 279.638C9.16626 264.321 19.3023 249.558 30.4319 235.763C31.2166 234.792 32.6364 234.639 33.6074 235.424C34.5784 236.209 34.7308 237.63 33.9461 238.601C22.9633 252.215 12.957 266.783 4.21255 281.902C3.7948 282.625 3.03551 283.029 2.25647 283.029Z" fill="white" fill-opacity="0.5"/>
<path d="M617.14 577.672C616.869 577.672 616.593 577.624 616.325 577.519C615.162 577.068 614.586 575.76 615.035 574.597C621.956 556.744 627.384 538.172 631.174 519.396C631.42 518.173 632.614 517.382 633.833 517.628C635.056 517.874 635.846 519.065 635.6 520.288C631.762 539.315 626.257 558.136 619.246 576.229C618.899 577.124 618.046 577.672 617.14 577.672Z" fill="white" fill-opacity="0.5"/>
<path d="M627.937 583.591C627.663 583.591 627.384 583.54 627.113 583.433C625.953 582.975 625.382 581.665 625.837 580.504C642.386 538.389 650.54 493.888 650.075 448.237C649.589 400.728 639.82 354.736 621.036 311.539C612.006 290.778 600.891 270.776 587.994 252.094C575.219 233.586 560.589 216.211 544.508 200.448C528.428 184.685 510.764 170.405 492.01 158.005C473.076 145.487 452.861 134.776 431.928 126.169C388.375 108.263 342.216 99.4295 294.726 99.9123C247.362 100.395 201.5 110.123 158.418 128.82C137.709 137.809 117.756 148.875 99.1093 161.718C80.6408 174.437 63.2901 189.006 47.5427 205.02C46.6677 205.909 45.2394 205.92 44.3503 205.045C43.4612 204.17 43.4499 202.741 44.3249 201.851C60.2727 185.631 77.8436 170.876 96.5491 157.997C115.435 144.99 135.648 133.782 156.623 124.678C200.264 105.738 246.713 95.8855 294.683 95.397C342.784 94.9085 389.535 103.854 433.647 121.992C454.851 130.709 475.323 141.559 494.5 154.238C513.493 166.796 531.383 181.257 547.67 197.223C563.956 213.186 578.772 230.785 591.711 249.527C604.774 268.449 616.034 288.708 625.176 309.737C644.204 353.49 654.1 400.076 654.591 448.192C655.062 494.424 646.803 539.499 630.04 582.156C629.69 583.046 628.84 583.591 627.937 583.591Z" fill="white" fill-opacity="0.5"/>
<path d="M638.282 590.628C638.002 590.628 637.717 590.574 637.441 590.464C636.283 589.998 635.722 588.682 636.187 587.524C653.964 543.271 662.746 496.44 662.283 448.333C661.811 399.175 651.732 351.581 632.32 306.874C622.992 285.387 611.504 264.685 598.169 245.345C584.962 226.187 569.836 208.199 553.208 191.88C536.58 175.561 518.312 160.775 498.915 147.932C479.331 134.968 458.421 123.873 436.769 114.955C391.717 96.3994 343.964 87.2275 294.825 87.7019C265.551 87.9843 236.455 91.7485 208.348 98.8958C181.042 105.84 154.526 116.006 129.54 129.111C128.436 129.69 127.07 129.264 126.492 128.16C125.913 127.055 126.339 125.689 127.443 125.11C152.742 111.84 179.588 101.547 207.236 94.5159C235.691 87.2812 265.145 83.4661 294.779 83.1809C344.525 82.7008 392.874 91.9886 438.488 110.776C460.411 119.807 481.581 131.04 501.407 144.162C521.044 157.164 539.538 172.13 556.372 188.653C573.206 205.175 588.519 223.383 601.89 242.778C615.388 262.358 627.02 283.317 636.464 305.072C656.115 350.336 666.322 398.523 666.799 448.288C667.267 496.991 658.376 544.401 640.376 589.207C640.023 590.088 639.174 590.625 638.279 590.625L638.282 590.628Z" fill="white" fill-opacity="0.5"/>
<path d="M640.142 616.768C639.817 616.768 639.484 616.698 639.171 616.548C638.045 616.012 637.568 614.665 638.104 613.538C650.131 588.292 659.325 561.669 665.424 534.405C671.702 506.363 674.75 477.439 674.488 448.432C674.03 397.625 663.638 348.43 643.605 302.212C633.977 279.999 622.114 258.594 608.345 238.598C594.709 218.792 579.083 200.191 561.907 183.315C544.732 166.437 525.859 151.146 505.819 137.862C485.586 124.452 463.982 112.973 441.607 103.742C395.056 84.5364 345.694 75.0397 294.918 75.4915C266.483 75.7485 238.169 79.1908 210.764 85.7252C184.11 92.0789 158.099 101.403 133.458 113.442C132.337 113.989 130.985 113.523 130.438 112.402C129.89 111.281 130.356 109.929 131.476 109.381C156.417 97.1986 182.741 87.7612 209.717 81.3284C237.452 74.7178 266.102 71.2331 294.875 70.9733C346.275 70.5045 396.213 80.1283 443.329 99.565C465.972 108.906 487.836 120.524 508.311 134.095C528.592 147.537 547.69 163.012 565.071 180.091C582.453 197.169 598.263 215.99 612.065 236.034C625.998 256.27 638.005 277.929 647.749 300.413C668.024 347.19 678.541 396.975 679.004 448.389C679.269 477.741 676.181 507.01 669.83 535.39C663.654 562.985 654.351 589.93 642.18 615.481C641.793 616.294 640.983 616.768 640.139 616.768H640.142Z" fill="white" fill-opacity="0.5"/>
<path d="M644.528 635.299C644.175 635.299 643.817 635.217 643.481 635.039C642.377 634.46 641.951 633.093 642.53 631.989C657.047 604.287 668.173 574.862 675.594 544.534C683.241 513.296 686.975 480.994 686.701 448.525C686.255 396.072 675.555 345.273 654.896 297.544C644.966 274.603 632.73 252.5 618.526 231.849C604.458 211.393 588.335 192.18 570.612 174.748C552.886 157.313 533.413 141.514 512.729 127.79C491.847 113.933 469.548 102.07 446.453 92.5279C399.445 73.1053 349.657 63.2641 298.426 63.2641C297.289 63.2641 296.16 63.2698 295.019 63.2783C266.203 63.5239 237.497 66.938 209.691 73.4301C182.639 79.7442 156.205 89.0235 131.126 101.008C130 101.547 128.654 101.07 128.115 99.9434C127.578 98.8167 128.052 97.4697 129.179 96.9303C154.554 84.8046 181.296 75.4181 208.664 69.0305C236.791 62.465 265.831 59.0086 294.977 58.7629C348.028 58.3139 399.558 68.268 448.172 88.3542C471.538 98.0062 494.096 110.011 515.221 124.028C536.145 137.913 555.844 153.893 573.773 171.529C591.703 189.164 608.012 208.598 622.244 229.294C636.614 250.188 648.991 272.547 659.037 295.756C679.935 344.044 690.763 395.43 691.212 448.494C691.491 481.335 687.712 514.013 679.975 545.615C672.467 576.299 661.21 606.069 646.524 634.093C646.12 634.864 645.336 635.304 644.523 635.304L644.528 635.299Z" fill="white" fill-opacity="0.5"/>
<path d="M655.328 641C654.975 641 654.616 640.918 654.28 640.74C653.177 640.161 652.751 638.795 653.329 637.69C668.295 609.141 679.766 578.818 687.424 547.564C695.313 515.372 699.177 482.084 698.909 448.621C698.294 371.761 675.891 297.261 634.116 233.182C613.956 202.258 589.617 174.239 561.777 149.906C533.819 125.471 502.686 105.066 469.24 89.2551C468.114 88.7213 467.631 87.3744 468.162 86.2476C468.696 85.1209 470.039 84.638 471.168 85.1689C504.992 101.158 536.475 121.792 564.747 146.503C592.9 171.108 617.51 199.44 637.895 230.714C680.141 295.519 702.801 370.857 703.422 448.584C703.693 482.42 699.784 516.083 691.807 548.64C684.062 580.25 672.461 610.914 657.326 639.789C656.922 640.56 656.138 641 655.325 641H655.328Z" fill="white" fill-opacity="0.5"/>
<path d="M454.518 82.4665C454.224 82.4665 453.928 82.41 453.642 82.2886C444.336 78.369 434.765 74.7601 425.193 71.5635C424.011 71.1682 423.373 69.8889 423.765 68.7057C424.16 67.5225 425.442 66.8843 426.622 67.2769C436.303 70.5102 445.982 74.1586 455.395 78.1233C456.544 78.6062 457.083 79.9335 456.601 81.0828C456.237 81.9469 455.401 82.4665 454.518 82.4665Z" fill="white" fill-opacity="0.5"/>
<path d="M400.281 64.0689C400.092 64.0689 399.9 64.0463 399.708 63.9955C395.547 62.9083 391.31 61.8776 387.116 60.926C385.899 60.6492 385.137 59.4406 385.411 58.2235C385.688 57.0064 386.896 56.244 388.112 56.5179C392.355 57.478 396.64 58.5229 400.848 59.6213C402.056 59.9376 402.779 61.1688 402.463 62.3774C402.197 63.394 401.283 64.0661 400.278 64.0661L400.281 64.0689Z" fill="white" fill-opacity="0.5"/>
<path d="M125.797 89.7746C124.953 89.7746 124.143 89.2974 123.756 88.4841C123.223 87.3574 123.703 86.0104 124.829 85.4739C150.904 73.094 178.374 63.5126 206.476 56.998C235.355 50.3026 265.167 46.7868 295.081 46.5468H295.101C296.34 46.5468 297.348 47.5465 297.359 48.789C297.371 50.0371 296.366 51.0565 295.118 51.065C265.534 51.3022 236.052 54.7784 207.495 61.4004C179.709 67.8416 152.547 77.3157 126.763 89.5572C126.449 89.7069 126.119 89.7746 125.797 89.7746Z" fill="white" fill-opacity="0.5"/>
<path d="M711.952 488.96C711.89 488.96 711.825 488.96 711.763 488.951C710.521 488.847 709.596 487.757 709.7 486.512C710.736 474.03 711.216 461.314 711.12 448.717C710.513 367.985 686.639 289.962 642.084 223.078C620.59 190.816 594.681 161.73 565.071 136.626C535.301 111.386 502.214 90.5371 466.731 74.6528C465.594 74.1445 465.083 72.806 465.591 71.668C466.102 70.53 467.437 70.0188 468.574 70.5271C504.447 86.5837 537.895 107.664 567.99 133.178C597.921 158.553 624.115 187.955 645.841 220.571C690.887 288.188 715.021 367.068 715.636 448.68C715.732 461.41 715.249 474.265 714.202 486.884C714.103 488.065 713.115 488.957 711.955 488.957L711.952 488.96Z" fill="white" fill-opacity="0.5"/>
<path d="M120.985 78.5385C120.138 78.5385 119.328 78.0612 118.941 77.2451C118.408 76.1184 118.89 74.7714 120.016 74.2377C166.276 52.3358 215.712 39.2979 266.951 35.4857C268.196 35.3925 269.277 36.3272 269.37 37.5697C269.463 38.8151 268.529 39.8966 267.287 39.9898C216.604 43.7625 167.705 56.6563 121.95 78.3182C121.637 78.465 121.309 78.5356 120.985 78.5356V78.5385Z" fill="white" fill-opacity="0.5"/>
<path d="M671.304 636.482C670.971 636.482 670.632 636.408 670.313 636.25C669.192 635.702 668.729 634.347 669.277 633.229C686.506 598.032 698.593 560.604 705.201 521.985C705.412 520.754 706.578 519.927 707.809 520.138C709.039 520.35 709.864 521.516 709.655 522.748C702.974 561.79 690.754 599.63 673.336 635.214C672.944 636.016 672.142 636.479 671.307 636.479L671.304 636.482Z" fill="white" fill-opacity="0.5"/>
<path d="M724.431 485.978C724.375 485.978 724.318 485.978 724.262 485.972C723.017 485.879 722.086 484.798 722.176 483.552C723.023 472.073 723.409 460.385 723.328 448.816C722.732 364.518 697.546 283.218 650.498 213.712C627.81 180.195 600.487 150.09 569.288 124.234C537.892 98.2152 503.05 76.9006 465.729 60.8836C464.583 60.3923 464.052 59.0622 464.544 57.9157C465.035 56.7692 466.364 56.2383 467.51 56.7297C505.229 72.919 540.441 94.4594 572.17 120.755C603.699 146.885 631.31 177.306 654.238 211.179C701.788 281.428 727.243 363.591 727.847 448.785C727.928 460.476 727.539 472.285 726.684 483.885C726.596 485.074 725.605 485.978 724.434 485.978H724.431Z" fill="white" fill-opacity="0.5"/>
<path d="M113.894 68.3895C113.053 68.3895 112.246 67.9151 111.856 67.1074C111.317 65.9835 111.791 64.6337 112.918 64.0944C151.74 45.4822 193.046 32.8849 235.691 26.6498C236.249 26.5679 236.808 26.486 237.37 26.407C238.609 26.2319 239.747 27.0903 239.924 28.3272C240.099 29.5612 239.241 30.7049 238.005 30.8828C237.452 30.9619 236.899 31.0409 236.343 31.1228C194.15 37.2902 153.281 49.7547 114.868 68.1692C114.552 68.3189 114.222 68.3923 113.894 68.3923V68.3895Z" fill="white" fill-opacity="0.5"/>
<path d="M688.973 627.493C688.666 627.493 688.355 627.431 688.056 627.299C686.916 626.793 686.402 625.457 686.91 624.317C700.089 594.652 709.835 563.44 715.884 531.547C716.116 530.321 717.298 529.516 718.523 529.748C719.749 529.979 720.553 531.163 720.321 532.388C714.208 564.623 704.357 596.168 691.037 626.152C690.661 626.994 689.837 627.493 688.973 627.493Z" fill="white" fill-opacity="0.5"/>
<path d="M737.562 468.894C737.537 468.894 737.511 468.894 737.486 468.894C736.238 468.854 735.262 467.809 735.304 466.561C735.496 460.71 735.575 454.771 735.535 448.915C734.96 362.366 709.181 278.858 660.984 207.426C637.743 172.977 609.745 142.016 577.765 115.404C545.587 88.6253 509.869 66.6584 471.597 50.1134C470.451 49.6192 469.926 48.2891 470.42 47.1427C470.914 45.9962 472.244 45.4709 473.39 45.9651C512.057 62.6824 548.147 84.8752 580.655 111.931C612.963 138.817 641.248 170.094 664.73 204.898C713.426 277.074 739.473 361.442 740.055 448.886C740.094 454.802 740.015 460.8 739.82 466.711C739.781 467.933 738.776 468.896 737.565 468.896L737.562 468.894Z" fill="white" fill-opacity="0.5"/>
<path d="M121.281 51.5507C120.414 51.5507 119.585 51.0481 119.212 50.2009C118.71 49.0601 119.226 47.7244 120.369 47.2217C139.975 38.5807 160.383 31.3205 181.028 25.6473C182.23 25.317 183.472 26.0257 183.802 27.2287C184.132 28.4317 183.427 29.6742 182.224 30.0046C161.791 35.6184 141.593 42.8024 122.19 51.3559C121.894 51.4858 121.586 51.5479 121.281 51.5479V51.5507Z" fill="white" fill-opacity="0.5"/>
<path d="M711.207 605.069C710.95 605.069 710.688 605.024 710.431 604.931C709.26 604.502 708.658 603.205 709.085 602.033C715.08 585.632 720.132 568.692 724.104 551.684C724.386 550.47 725.6 549.713 726.816 549.998C728.03 550.28 728.787 551.497 728.501 552.712C724.491 569.898 719.384 587.013 713.327 603.587C712.991 604.502 712.127 605.069 711.207 605.069Z" fill="white" fill-opacity="0.5"/>
<path d="M749.852 466.321C749.832 466.321 749.812 466.321 749.79 466.321C748.542 466.287 747.56 465.251 747.591 464.003C747.724 459.027 747.774 453.984 747.743 449.008C747.187 360.285 720.855 274.631 671.589 201.312C647.831 165.951 619.198 134.146 586.487 106.774C553.578 79.2388 517.03 56.6083 477.861 39.5126C476.717 39.0127 476.195 37.6827 476.695 36.539C477.194 35.3954 478.524 34.8729 479.667 35.3728C519.232 52.6407 556.146 75.5 589.385 103.309C622.424 130.952 651.342 163.077 675.337 198.79C725.097 272.849 751.698 359.364 752.26 448.98C752.291 454.003 752.24 459.098 752.107 464.121C752.076 465.347 751.071 466.321 749.852 466.321Z" fill="white" fill-opacity="0.5"/>
<path d="M724.186 605.069C723.934 605.069 723.68 605.027 723.432 604.939C722.258 604.521 721.642 603.231 722.057 602.056C726.853 588.516 731.042 574.583 734.505 560.644C734.807 559.432 736.032 558.695 737.24 558.998C738.451 559.3 739.188 560.525 738.886 561.734C735.389 575.814 731.157 589.888 726.311 603.564C725.984 604.49 725.111 605.069 724.183 605.069H724.186Z" fill="white" fill-opacity="0.5"/>
<path d="M762.218 456.005H762.209C760.962 456 759.954 454.986 759.96 453.738C759.965 452.193 759.965 450.634 759.954 449.107C759.421 358.59 732.741 271.104 682.795 196.102C658.704 159.925 629.65 127.321 596.442 99.1951C563.048 70.9112 525.927 47.5662 486.117 29.8069C484.976 29.2986 484.466 27.9629 484.974 26.8249C485.482 25.6869 486.817 25.1729 487.954 25.6812C528.154 43.6156 565.636 67.1865 599.358 95.7471C632.891 124.147 662.226 157.068 686.552 193.597C736.986 269.336 763.928 357.681 764.467 449.081C764.476 450.623 764.479 452.199 764.473 453.755C764.467 455 763.457 456.005 762.215 456.005H762.218Z" fill="white" fill-opacity="0.5"/>
<path d="M737.974 602.559C737.734 602.559 737.492 602.519 737.252 602.44C736.069 602.042 735.434 600.76 735.835 599.577C739.922 587.462 743.543 575.023 746.6 562.604C746.899 561.392 748.119 560.652 749.332 560.952C750.543 561.251 751.283 562.474 750.984 563.685C747.898 576.226 744.24 588.79 740.114 601.023C739.795 601.966 738.917 602.559 737.974 602.559Z" fill="white" fill-opacity="0.5"/>
<path d="M774.42 451.45C773.178 451.45 772.17 450.448 772.162 449.205C772.156 448.406 772.151 447.61 772.142 446.811C771.671 401.855 764.916 357.435 752.068 314.786C739.614 273.459 721.51 233.987 698.257 197.469C652.118 125.014 587.229 66.376 510.609 27.898C509.494 27.3388 509.045 25.9806 509.604 24.8651C510.163 23.7497 511.52 23.3007 512.635 23.8598C589.987 62.705 655.491 121.899 702.068 195.04C725.543 231.906 743.823 271.756 756.395 313.482C769.367 356.537 776.187 401.38 776.661 446.763C776.67 447.568 776.675 448.372 776.681 449.177C776.689 450.425 775.682 451.442 774.437 451.45H774.42Z" fill="white" fill-opacity="0.5"/>
<path d="M757.467 580.555C757.27 580.555 757.066 580.53 756.869 580.473C755.666 580.143 754.958 578.9 755.291 577.697C757.668 569.039 759.824 560.198 761.701 551.416C761.961 550.196 763.16 549.419 764.383 549.679C765.602 549.939 766.378 551.142 766.119 552.362C764.225 561.226 762.046 570.155 759.646 578.895C759.37 579.897 758.461 580.555 757.47 580.555H757.467Z" fill="white" fill-opacity="0.5"/>
<path d="M786.631 451.546C785.389 451.546 784.378 450.544 784.373 449.299C784.144 405.529 778.106 362.168 766.423 320.42C755.096 279.94 738.482 241.021 717.05 204.746C674.736 133.13 614.383 73.1505 542.513 31.2923C541.435 30.6654 541.071 29.2817 541.697 28.2029C542.324 27.1242 543.707 26.76 544.785 27.3869C617.321 69.632 678.233 130.167 720.94 202.447C742.575 239.061 759.341 278.344 770.776 319.203C782.569 361.338 788.663 405.102 788.892 449.276C788.897 450.524 787.892 451.541 786.645 451.546H786.631Z" fill="white" fill-opacity="0.5"/>
<path d="M770.053 580.798C769.859 580.798 769.664 580.773 769.466 580.722C768.261 580.4 767.547 579.16 767.869 577.954C770.392 568.528 772.659 558.899 774.606 549.329C774.855 548.106 776.049 547.315 777.268 547.567C778.49 547.815 779.278 549.01 779.029 550.229C777.065 559.89 774.776 569.61 772.23 579.123C771.959 580.132 771.047 580.798 770.05 580.798H770.053Z" fill="white" fill-opacity="0.5"/>
<path d="M798.839 451.645C797.596 451.645 796.586 450.64 796.58 449.398C796.363 404.715 790.235 360.443 778.372 317.808C766.867 276.466 749.984 236.698 728.194 199.609C685.194 126.414 623.796 64.9641 550.642 21.9029C549.567 21.2703 549.208 19.8866 549.84 18.8108C550.473 17.7349 551.856 17.3762 552.931 18.0088C626.746 61.4597 688.697 123.466 732.086 197.322C754.074 234.747 771.109 274.879 782.721 316.599C794.695 359.621 800.876 404.295 801.097 449.378C801.102 450.626 800.097 451.643 798.85 451.648H798.839V451.645Z" fill="white" fill-opacity="0.5"/>
<path d="M781.824 584.051C781.629 584.051 781.434 584.026 781.237 583.975C780.031 583.653 779.317 582.413 779.639 581.207C783.232 567.794 786.3 554.053 788.75 540.366C788.971 539.137 790.145 538.318 791.373 538.542C792.6 538.762 793.416 539.937 793.196 541.165C790.721 554.976 787.627 568.842 784 582.379C783.729 583.387 782.817 584.054 781.821 584.054L781.824 584.051Z" fill="white" fill-opacity="0.5"/>
<path d="M811.046 451.741C809.804 451.741 808.794 450.736 808.788 449.493C808.579 403.679 802.305 358.282 790.142 314.563C778.349 272.171 761.038 231.397 738.691 193.371C694.588 118.321 631.612 55.3347 556.575 11.2202C555.5 10.5876 555.141 9.20394 555.774 8.12805C556.406 7.05215 557.789 6.69352 558.864 7.32607C634.564 51.8303 698.093 115.37 742.586 191.081C765.131 229.446 782.597 270.584 794.494 313.352C806.764 357.458 813.093 403.253 813.304 449.471C813.31 450.719 812.305 451.736 811.058 451.741H811.046Z" fill="white" fill-opacity="0.5"/>
<path d="M794.576 583.591C794.387 583.591 794.198 583.568 794.006 583.517C792.798 583.204 792.075 581.97 792.389 580.761C795.748 567.845 798.632 554.623 800.961 541.467C801.178 540.239 802.353 539.42 803.578 539.637C804.805 539.855 805.624 541.026 805.407 542.255C803.058 555.53 800.148 568.867 796.758 581.899C796.493 582.916 795.578 583.591 794.573 583.591H794.576Z" fill="white" fill-opacity="0.5"/>
<path d="M823.203 446.229C821.973 446.229 820.965 445.241 820.945 444.004C820.293 399.751 814.098 355.86 802.53 313.544C791.299 272.454 774.984 232.761 754.043 195.568C733.449 158.993 708.413 124.881 679.63 94.1827C650.913 63.5522 618.549 36.4091 583.444 13.5075C582.399 12.827 582.103 11.4263 582.786 10.3815C583.466 9.33666 584.866 9.04016 585.911 9.72353C621.321 32.8228 653.961 60.2002 682.924 91.0934C711.955 122.057 737.206 156.463 757.978 193.354C779.103 230.872 795.556 270.909 806.886 312.355C818.552 355.035 824.801 399.308 825.459 443.939C825.478 445.187 824.482 446.212 823.234 446.232C823.223 446.232 823.212 446.232 823.201 446.232L823.203 446.229Z" fill="white" fill-opacity="0.5"/>
<path d="M807.185 583.591C807.001 583.591 806.815 583.568 806.629 583.52C805.421 583.212 804.69 581.984 804.995 580.775C808.108 568.494 810.806 555.937 813.011 543.447C813.228 542.218 814.4 541.399 815.628 541.614C816.855 541.831 817.674 543.003 817.459 544.232C815.235 556.829 812.514 569.5 809.372 581.885C809.113 582.907 808.195 583.591 807.185 583.591Z" fill="white" fill-opacity="0.5"/>
<path d="M835.013 431.774C833.808 431.774 832.809 430.822 832.758 429.608C830.703 379.326 821.648 329.795 805.844 282.394C790.506 236.382 768.902 192.612 741.635 152.301C740.935 151.267 741.206 149.864 742.239 149.163C743.272 148.466 744.675 148.734 745.375 149.768C772.873 190.42 794.658 234.56 810.129 280.962C826.066 328.767 835.197 378.716 837.271 429.421C837.322 430.67 836.354 431.72 835.106 431.771C835.075 431.771 835.044 431.771 835.013 431.771V431.774Z" fill="white" fill-opacity="0.5"/>
<path d="M728.143 131.74C727.457 131.74 726.78 131.43 726.336 130.837C715.495 116.392 703.786 102.332 691.531 89.0461C690.684 88.1283 690.743 86.6995 691.658 85.8551C692.575 85.008 694.003 85.0673 694.847 85.9822C707.205 99.3815 719.015 113.56 729.947 128.126C730.695 129.122 730.494 130.54 729.498 131.288C729.091 131.593 728.614 131.74 728.143 131.74Z" fill="white" fill-opacity="0.5"/>
<path d="M662.091 58.6951C661.543 58.6951 660.995 58.4974 660.561 58.0993C640.083 39.2358 617.976 21.8408 594.853 6.40548C593.817 5.71363 593.535 4.31017 594.229 3.27381C594.921 2.23745 596.323 1.95506 597.359 2.64973C620.677 18.2177 642.97 35.754 663.62 54.7784C664.538 55.6227 664.597 57.0516 663.753 57.9694C663.307 58.4523 662.7 58.6979 662.091 58.6979V58.6951Z" fill="white" fill-opacity="0.5"/>
<path d="M645.804 28.3921C645.302 28.3921 644.796 28.2255 644.376 27.881C634.274 19.6184 623.748 11.6184 613.09 4.10685C612.071 3.38959 611.825 1.97765 612.545 0.958235C613.265 -0.0611823 614.673 -0.306859 615.692 0.413228C626.438 7.98685 637.051 16.0518 647.235 24.3823C648.201 25.1729 648.344 26.5962 647.554 27.5619C647.108 28.1069 646.459 28.3921 645.804 28.3921Z" fill="white" fill-opacity="0.5"/>
<path d="M847.23 431.774C846.024 431.774 845.022 430.822 844.974 429.605C843.024 380.783 834.607 332.577 819.963 286.33C805.737 241.408 785.668 198.406 760.315 158.522C758.02 154.91 755.652 151.284 753.281 147.737C752.587 146.701 752.866 145.298 753.902 144.603C754.938 143.908 756.341 144.188 757.035 145.224C759.426 148.799 761.814 152.456 764.129 156.096C789.693 196.311 809.929 239.669 824.27 284.966C839.038 331.597 847.523 380.201 849.491 429.427C849.541 430.672 848.57 431.726 847.326 431.774C847.294 431.774 847.263 431.774 847.232 431.774H847.23Z" fill="white" fill-opacity="0.5"/>
<path d="M858.5 414.362C857.326 414.362 856.333 413.452 856.251 412.261C853.075 366.819 844.373 321.928 830.387 278.836C816.765 236.867 798.096 196.486 774.9 158.81C774.245 157.748 774.575 156.356 775.639 155.701C776.701 155.046 778.092 155.376 778.747 156.441C802.13 194.422 820.951 235.133 834.683 277.441C848.785 320.883 857.558 366.136 860.758 411.947C860.846 413.193 859.909 414.271 858.664 414.359C858.61 414.362 858.557 414.365 858.503 414.365L858.5 414.362Z" fill="white" fill-opacity="0.5"/>
<path d="M870.42 409.951C869.252 409.951 868.261 409.05 868.171 407.864C864.716 362.414 855.836 317.506 841.782 274.388C828.086 232.372 809.429 191.897 786.329 154.086C785.679 153.021 786.012 151.632 787.077 150.979C788.141 150.33 789.529 150.663 790.181 151.728C813.465 189.839 832.27 230.635 846.075 272.985C860.242 316.444 869.192 361.708 872.673 407.52C872.769 408.765 871.837 409.849 870.592 409.942C870.533 409.948 870.477 409.948 870.417 409.948L870.42 409.951Z" fill="white" fill-opacity="0.5"/>
<path d="M882.603 409.143C881.434 409.143 880.443 408.24 880.353 407.056C876.884 361.296 868.03 316.06 854.038 272.601C840.399 230.243 821.826 189.384 798.827 151.154C798.184 150.084 798.528 148.698 799.598 148.054C800.668 147.41 802.053 147.754 802.697 148.825C825.871 187.351 844.59 228.528 858.337 271.217C872.438 315.012 881.361 360.601 884.855 406.715C884.951 407.96 884.017 409.044 882.775 409.138C882.716 409.143 882.659 409.143 882.603 409.143Z" fill="white" fill-opacity="0.5"/>
<path d="M894.517 404.907C893.354 404.907 892.366 404.012 892.27 402.832C888.564 357.269 879.619 312.208 865.678 268.901C852.084 226.67 833.672 185.868 810.953 147.633C810.315 146.56 810.668 145.173 811.741 144.538C812.813 143.9 814.199 144.253 814.834 145.326C837.726 183.852 856.279 224.965 869.974 267.518C884.02 311.152 893.035 356.557 896.767 402.468C896.868 403.71 895.942 404.8 894.698 404.902C894.636 404.907 894.573 404.91 894.511 404.91L894.517 404.907Z" fill="white" fill-opacity="0.5"/>
<path d="M906.078 396.944C904.927 396.944 903.942 396.066 903.832 394.894C899.674 350.071 890.523 305.733 876.638 263.112C863.084 221.511 844.926 181.251 822.67 143.456C822.038 142.381 822.396 140.997 823.469 140.364C824.541 139.732 825.927 140.088 826.56 141.163C848.982 179.241 867.276 219.797 880.932 261.712C894.921 304.649 904.139 349.317 908.328 394.476C908.444 395.719 907.529 396.82 906.287 396.936C906.217 396.941 906.146 396.947 906.076 396.947L906.078 396.944Z" fill="white" fill-opacity="0.5"/>
<path d="M914.995 367.776C913.886 367.776 912.918 366.957 912.763 365.828C903.572 299.492 883.794 235.486 853.984 175.586C853.428 174.468 853.883 173.113 855 172.556C856.115 172 857.473 172.455 858.029 173.573C888.059 233.914 907.981 298.388 917.239 365.209C917.411 366.446 916.548 367.587 915.311 367.757C915.207 367.771 915.103 367.779 914.998 367.779L914.995 367.776Z" fill="white" fill-opacity="0.5"/>
<path d="M926.972 365.235C925.862 365.235 924.897 364.419 924.739 363.289C915.774 299.218 897.08 237.172 869.181 178.879C868.642 177.752 869.119 176.405 870.242 175.866C871.369 175.327 872.715 175.804 873.254 176.928C901.353 235.642 920.18 298.131 929.21 362.662C929.382 363.899 928.521 365.04 927.288 365.212C927.181 365.226 927.076 365.235 926.972 365.235Z" fill="white" fill-opacity="0.5"/>
<path d="M936.382 346.123C935.298 346.123 934.344 345.341 934.158 344.237C924.124 284.455 905.689 226.467 879.365 171.882C878.823 170.758 879.295 169.408 880.418 168.866C881.541 168.323 882.891 168.795 883.433 169.919C909.943 224.888 928.507 283.286 938.612 343.488C938.818 344.719 937.988 345.883 936.758 346.089C936.631 346.112 936.506 346.12 936.382 346.12V346.123Z" fill="white" fill-opacity="0.5"/>
<path d="M948.762 346.12C947.676 346.12 946.719 345.335 946.538 344.228C936.842 285.319 919.125 228.04 893.879 173.974C893.351 172.844 893.84 171.5 894.969 170.972C896.098 170.444 897.441 170.933 897.969 172.062C923.39 226.501 941.229 284.178 950.992 343.494C951.195 344.725 950.363 345.888 949.132 346.089C949.008 346.109 948.884 346.12 948.762 346.12Z" fill="white" fill-opacity="0.5"/>
<path d="M961.348 347.461C960.259 347.461 959.299 346.671 959.121 345.558C950.078 288.829 933.712 233.459 910.479 180.983C909.974 179.842 910.49 178.506 911.628 178.004C912.768 177.498 914.103 178.012 914.606 179.153C937.997 231.985 954.472 287.734 963.578 344.847C963.776 346.078 962.935 347.236 961.704 347.433C961.583 347.453 961.464 347.461 961.346 347.461H961.348Z" fill="white" fill-opacity="0.5"/>
<path d="M973.5 346.12C972.407 346.12 971.448 345.327 971.273 344.214C962.314 287.7 946.211 232.468 923.409 180.054C922.913 178.91 923.435 177.58 924.578 177.08C925.721 176.583 927.051 177.106 927.55 178.249C950.504 231.013 966.714 286.613 975.733 343.505C975.927 344.736 975.089 345.894 973.855 346.089C973.737 346.109 973.616 346.117 973.5 346.117V346.12Z" fill="white" fill-opacity="0.5"/>
<path d="M984.74 339.154C983.656 339.154 982.699 338.369 982.515 337.264C973.782 284.675 958.927 233.103 938.364 183.982C937.881 182.83 938.423 181.508 939.575 181.025C940.723 180.542 942.047 181.085 942.53 182.237C963.228 231.683 978.18 283.591 986.969 336.525C987.173 337.756 986.343 338.919 985.112 339.123C984.988 339.142 984.861 339.154 984.74 339.154Z" fill="white" fill-opacity="0.5"/>
<path d="M980.119 262.262C979.131 262.262 978.225 261.61 977.945 260.613C971.849 238.878 964.611 217.185 956.434 196.139C955.983 194.975 956.558 193.668 957.721 193.216C958.884 192.764 960.194 193.34 960.646 194.504C968.874 215.685 976.159 237.517 982.295 259.393C982.631 260.593 981.931 261.842 980.731 262.178C980.528 262.234 980.322 262.262 980.119 262.262Z" fill="white" fill-opacity="0.5"/>
<path d="M982.995 229.717C982.044 229.717 981.16 229.113 980.85 228.161C977.223 217.075 973.268 205.932 969.099 195.037C968.653 193.871 969.235 192.566 970.401 192.12C971.566 191.674 972.87 192.259 973.316 193.422C977.514 204.384 981.491 215.601 985.14 226.755C985.53 227.941 984.881 229.217 983.698 229.604C983.464 229.681 983.227 229.717 982.995 229.717Z" fill="white" fill-opacity="0.5"/>
</svg>