<svg width="16" height="24" viewBox="0 0 16 24" fill="none" xmlns="http://www.w3.org/2000/svg">
<path d="M15.6667 21.25H13.8333V19.4167C13.8333 17.8978 12.6022 16.6667 11.0833 16.6667H5.58333C4.06455 16.6667 2.83333 17.8978 2.83333 19.4167V21.25H1V19.4167C1 16.8854 3.05203 14.8333 5.58333 14.8333H11.0833C13.6146 14.8333 15.6667 16.8854 15.6667 19.4167V21.25ZM8.33333 13C5.29577 13 2.83333 10.5376 2.83333 7.5C2.83333 4.46243 5.29577 2 8.33333 2C11.3709 2 13.8333 4.46243 13.8333 7.5C13.8333 10.5376 11.3709 13 8.33333 13ZM8.33333 11.1667C10.3583 11.1667 12 9.52505 12 7.5C12 5.47496 10.3583 3.83333 8.33333 3.83333C6.30829 3.83333 4.66667 5.47496 4.66667 7.5C4.66667 9.52505 6.30829 11.1667 8.33333 11.1667Z" fill="black"/>
</svg>
