<svg width="27" height="28" viewBox="0 0 27 28" fill="none" xmlns="http://www.w3.org/2000/svg">
<rect x="0.555557" y="0.888916" width="26.2222" height="26.2222" rx="13.1111" fill="#7C509A"/>
<path d="M17.7665 7.14682C15.2678 6.66965 12.673 6.66965 10.1744 7.14682C9.0692 7.3854 7.67572 8.72148 7.43546 9.77125C7.003 11.8231 7.003 13.9226 7.43546 15.9744C7.72377 17.0242 9.11725 18.3603 10.1744 18.5989C10.2224 18.5989 10.2705 18.6466 10.2705 18.6943V21.7005C10.2705 21.8436 10.4627 21.9391 10.5588 21.7959L12.0003 20.3167C12.0003 20.3167 13.1536 19.1238 13.3458 18.9329C13.3458 18.9329 13.3938 18.8852 13.4419 18.8852C14.8834 18.9329 16.373 18.7897 17.8145 18.5512C18.9197 18.3126 20.3132 16.9765 20.5534 15.9267C20.9859 13.8749 20.9859 11.7754 20.5534 9.72353C20.2651 8.72148 18.8716 7.3854 17.7665 7.14682ZM17.8145 16.1176C17.5743 16.5948 17.286 16.9765 16.8054 17.2151C16.6613 17.2628 16.5171 17.3105 16.373 17.3582C16.1808 17.3105 16.0366 17.2628 15.8925 17.2151C14.3548 16.5948 12.9133 15.7359 11.7601 14.4952C11.1354 13.7795 10.6068 12.9683 10.1744 12.1094C9.98217 11.6799 9.78997 11.2982 9.64581 10.8687C9.50166 10.487 9.74192 10.1053 9.98217 9.81896C10.2224 9.53266 10.5107 9.34179 10.8471 9.19864C11.0874 9.05549 11.3276 9.15093 11.5198 9.3418C11.9042 9.81896 12.2886 10.2961 12.5769 10.821C12.7691 11.155 12.7211 11.5368 12.3847 11.7754C12.2886 11.8231 12.2406 11.8708 12.1445 11.9662C12.0964 12.0139 12.0003 12.0617 11.9523 12.1571C11.8562 12.3002 11.8562 12.4434 11.9042 12.5865C12.2886 13.684 13.0094 14.5429 14.1146 15.0201C14.3068 15.1155 14.4509 15.1633 14.6912 15.1633C15.0275 15.1155 15.1717 14.7338 15.412 14.5429C15.6522 14.3521 15.9405 14.3521 16.2288 14.4952C16.4691 14.6384 16.7093 14.8292 16.9976 15.0201C17.2379 15.211 17.4782 15.3541 17.7184 15.545C17.8626 15.6404 17.9106 15.879 17.8145 16.1176ZM15.7964 12.5388C15.7003 12.5388 15.7483 12.5388 15.7964 12.5388C15.6042 12.5388 15.5561 12.4434 15.5081 12.3002C15.5081 12.2048 15.5081 12.0617 15.46 11.9662C15.412 11.7754 15.3159 11.5845 15.1237 11.4413C15.0275 11.3936 14.9314 11.3459 14.8353 11.2982C14.6912 11.2505 14.5951 11.2505 14.4509 11.2505C14.3068 11.2028 14.2587 11.1073 14.2587 10.9642C14.2587 10.8687 14.4029 10.7733 14.499 10.7733C15.2678 10.821 15.8444 11.2505 15.9405 12.1571C15.9405 12.2048 15.9405 12.3002 15.9405 12.348C15.9405 12.4434 15.8925 12.5388 15.7964 12.5388ZM15.3159 10.4393C15.0756 10.3438 14.8353 10.2484 14.547 10.2007C14.4509 10.2007 14.3068 10.153 14.2107 10.153C14.0665 10.153 13.9704 10.0575 14.0185 9.9144C14.0185 9.77125 14.1146 9.67581 14.2587 9.72353C14.7392 9.77125 15.1717 9.86668 15.6042 10.0575C16.4691 10.487 16.9496 11.2028 17.0938 12.1571C17.0938 12.2048 17.0938 12.2525 17.0938 12.3002C17.0938 12.3957 17.0938 12.4911 17.0938 12.6343C17.0938 12.682 17.0938 12.7297 17.0938 12.7774C17.0457 12.9683 16.7093 13.016 16.6613 12.7774C16.6613 12.7297 16.6132 12.6343 16.6132 12.5865C16.6132 12.1571 16.5171 11.7276 16.3249 11.3459C16.0366 10.9165 15.7003 10.6302 15.3159 10.4393ZM17.9106 13.3023C17.7665 13.3023 17.6704 13.1591 17.6704 13.016C17.6704 12.7297 17.6223 12.4434 17.5743 12.1571C17.3821 10.6302 16.1327 9.38951 14.6431 9.15093C14.4029 9.10321 14.1626 9.10321 13.9704 9.05549C13.8263 9.05549 13.6341 9.05549 13.586 8.86463C13.538 8.72148 13.6821 8.57832 13.8263 8.57832C13.8743 8.57832 13.9224 8.57832 13.9224 8.57832C15.8925 8.62604 14.0185 8.57832 13.9224 8.57832C15.9405 8.62604 17.6223 9.96212 17.9587 11.9662C18.0067 12.3002 18.0548 12.6343 18.0548 13.016C18.1509 13.1591 18.0548 13.3023 17.9106 13.3023Z" fill="white"/>
</svg>
