<svg width="20" height="16" viewBox="0 0 20 16" fill="none" xmlns="http://www.w3.org/2000/svg">
<g clip-path="url(#clip0_65781_267)">
<path d="M2.056 13.1692H17.944C18.6213 13.1692 19.1333 13.0079 19.48 12.6854C19.8267 12.3629 20 11.8865 20 11.2563V2.72669C20 2.10148 19.8267 1.62761 19.48 1.30508C19.1333 0.982553 18.6213 0.821289 17.944 0.821289H2.056C1.37866 0.821289 0.866665 0.982553 0.519999 1.30508C0.173333 1.62761 0 2.10148 0 2.72669V11.2563C0 11.8865 0.173333 12.3629 0.519999 12.6854C0.866665 13.0079 1.37866 13.1692 2.056 13.1692ZM2.07999 11.9709C1.81866 11.9709 1.62133 11.9101 1.488 11.7885C1.35467 11.667 1.288 11.4846 1.288 11.2415V2.74902C1.288 2.50588 1.35467 2.32353 1.488 2.20196C1.62133 2.08039 1.81866 2.01961 2.07999 2.01961H17.92C18.1866 2.01961 18.3853 2.08039 18.5159 2.20196C18.6466 2.32353 18.712 2.50588 18.712 2.74902V11.2415C18.712 11.4846 18.6466 11.667 18.5159 11.7885C18.3853 11.9101 18.1866 11.9709 17.92 11.9709H2.07999ZM5.97599 15.6923H14.0239C14.2 15.6923 14.352 15.6341 14.48 15.5175C14.608 15.4009 14.672 15.2582 14.672 15.0895C14.672 14.9258 14.608 14.7844 14.48 14.6652C14.352 14.5461 14.2 14.4866 14.0239 14.4866H5.97599C5.79999 14.4866 5.64799 14.5461 5.51999 14.6652C5.39199 14.7844 5.32799 14.9258 5.32799 15.0895C5.32799 15.2582 5.39199 15.4009 5.51999 15.5175C5.64799 15.6341 5.79999 15.6923 5.97599 15.6923ZM7.40799 10.0729C7.40799 10.2764 7.49866 10.4103 7.67999 10.4748C7.86132 10.5393 8.03731 10.5269 8.20796 10.4376L13.76 7.39345C13.9253 7.29917 14.0066 7.16643 14.004 6.99524C14.0013 6.82406 13.9173 6.6938 13.752 6.60449L8.20796 3.56031C8.03731 3.47099 7.86132 3.45859 7.67999 3.52309C7.49866 3.5876 7.40799 3.72157 7.40799 3.92501V10.0729Z" fill="#EE6A5F"/>
</g>
<defs>
<clipPath id="clip0_65781_267">
<rect width="20" height="15.3846" fill="white" transform="translate(0 0.307739)"/>
</clipPath>
</defs>
</svg>
