<svg width="20" height="20" viewBox="0 0 20 20" fill="none" xmlns="http://www.w3.org/2000/svg">
<path d="M9.99999 19.9903C11.366 19.9903 12.652 19.7289 13.8578 19.2063C15.0637 18.6837 16.1274 17.9618 17.049 17.0407C17.9706 16.1196 18.6928 15.0564 19.2156 13.8511C19.7385 12.6458 20 11.3605 20 9.99512C20 8.62978 19.7385 7.34445 19.2156 6.13916C18.6928 4.93387 17.9706 3.87066 17.049 2.94954C16.1274 2.02842 15.0621 1.30655 13.8529 0.783931C12.6438 0.26131 11.3562 0 9.99018 0C8.62417 0 7.33823 0.26131 6.13235 0.783931C4.92646 1.30655 3.86437 2.02842 2.94607 2.94954C2.02778 3.87066 1.30719 4.93387 0.784313 6.13916C0.261438 7.34445 0 8.62978 0 9.99512C0 11.3605 0.261438 12.6458 0.784313 13.8511C1.30719 15.0564 2.02941 16.1196 2.95097 17.0407C3.87255 17.9618 4.93627 18.6837 6.14214 19.2063C7.34803 19.7289 8.63398 19.9903 9.99999 19.9903ZM9.99999 18.3244C8.84313 18.3244 7.76143 18.1088 6.7549 17.6777C5.74836 17.2465 4.86437 16.6504 4.10293 15.8893C3.3415 15.1283 2.74673 14.2447 2.31862 13.2387C1.89052 12.2326 1.67647 11.1515 1.67647 9.99512C1.67647 8.83882 1.89052 7.75765 2.31862 6.75161C2.74673 5.74556 3.33987 4.86037 4.09803 4.09604C4.8562 3.3317 5.73855 2.73559 6.74509 2.30769C7.75163 1.8798 8.83332 1.66586 9.99018 1.66586C11.1471 1.66586 12.2288 1.8798 13.2353 2.30769C14.2418 2.73559 15.1274 3.3317 15.8922 4.09604C16.6569 4.86037 17.2549 5.74556 17.6863 6.75161C18.1176 7.75765 18.3333 8.83882 18.3333 9.99512C18.3333 11.1515 18.1193 12.2326 17.6912 13.2387C17.263 14.2447 16.6683 15.1283 15.9068 15.8893C15.1454 16.6504 14.2598 17.2465 13.2499 17.6777C12.2402 18.1088 11.1569 18.3244 9.99999 18.3244ZM9.99018 11.759C10.4804 11.759 10.7288 11.501 10.7353 10.9849L10.8823 5.81089C10.8889 5.56264 10.8055 5.35523 10.6323 5.18865C10.4591 5.02206 10.2418 4.93877 9.98038 4.93877C9.71241 4.93877 9.49509 5.02043 9.32842 5.18375C9.16175 5.34707 9.08169 5.55285 9.08822 5.80109L9.21568 10.9849C9.22875 11.501 9.48692 11.759 9.99018 11.759ZM9.99018 14.9437C10.2712 14.9437 10.518 14.8457 10.7304 14.6497C10.9428 14.4537 11.049 14.212 11.049 13.9246C11.049 13.6372 10.9445 13.3954 10.7353 13.1994C10.5262 13.0034 10.2778 12.9054 9.99018 12.9054C9.7026 12.9054 9.45423 13.0051 9.24508 13.2044C9.03593 13.4036 8.93136 13.6437 8.93136 13.9246C8.93136 14.2055 9.03593 14.4456 9.24508 14.6448C9.45423 14.8441 9.7026 14.9437 9.99018 14.9437Z" fill="#FF9500"/>
</svg>