<svg width="21" height="21" viewBox="0 0 21 21" fill="none" xmlns="http://www.w3.org/2000/svg">
<g id="warning icon">
<path id="Vector" d="M10.6899 20.4502C12.056 20.4502 13.3419 20.1889 14.5478 19.6662C15.7537 19.1437 16.8174 18.4218 17.7389 17.5006C18.6605 16.5796 19.3827 15.5164 19.9056 14.311C20.4285 13.1058 20.6899 11.8205 20.6899 10.4551C20.6899 9.08974 20.4285 7.80441 19.9056 6.59912C19.3827 5.39383 18.6605 4.33062 17.7389 3.4095C16.8174 2.48838 15.752 1.76651 14.5428 1.24389C13.3337 0.721271 12.0461 0.459961 10.6801 0.459961C9.31412 0.459961 8.02817 0.721271 6.82229 1.24389C5.61641 1.76651 4.55432 2.48838 3.63602 3.4095C2.71772 4.33062 1.99713 5.39383 1.47425 6.59912C0.951379 7.80441 0.689941 9.08974 0.689941 10.4551C0.689941 11.8205 0.951379 13.1058 1.47425 14.311C1.99713 15.5164 2.71935 16.5796 3.64091 17.5006C4.56249 18.4218 5.62621 19.1437 6.83209 19.6662C8.03797 20.1889 9.32392 20.4502 10.6899 20.4502ZM10.6899 18.7843C9.53307 18.7843 8.45137 18.5688 7.44484 18.1376C6.4383 17.7065 5.55431 17.1104 4.79287 16.3493C4.03144 15.5882 3.43667 14.7047 3.00857 13.6986C2.58046 12.6926 2.36641 11.6114 2.36641 10.4551C2.36641 9.29878 2.58046 8.21761 3.00857 7.21157C3.43667 6.20552 4.02981 5.32033 4.78797 4.556C5.54614 3.79167 6.42849 3.19555 7.43503 2.76765C8.44157 2.33976 9.52327 2.12582 10.6801 2.12582C11.837 2.12582 12.9187 2.33976 13.9252 2.76765C14.9318 3.19555 15.8174 3.79167 16.5821 4.556C17.3468 5.32033 17.9449 6.20552 18.3762 7.21157C18.8076 8.21761 19.0232 9.29878 19.0232 10.4551C19.0232 11.6114 18.8092 12.6926 18.3811 13.6986C17.953 14.7047 17.3582 15.5882 16.5968 16.3493C15.8353 17.1104 14.9497 17.7065 13.9399 18.1376C12.9301 18.5688 11.8468 18.7843 10.6899 18.7843ZM10.6801 12.219C11.1703 12.219 11.4187 11.9609 11.4253 11.4448L11.5722 6.27085C11.5788 6.02261 11.4955 5.81519 11.3223 5.64861C11.1491 5.48202 10.9317 5.39873 10.6703 5.39873C10.4024 5.39873 10.185 5.48039 10.0184 5.64371C9.8517 5.80703 9.77163 6.01281 9.77816 6.26105L9.90562 11.4448C9.91869 11.9609 10.1769 12.219 10.6801 12.219ZM10.6801 15.4037C10.9612 15.4037 11.2079 15.3057 11.4203 15.1097C11.6328 14.9137 11.739 14.672 11.739 14.3846C11.739 14.0971 11.6344 13.8554 11.4253 13.6594C11.2161 13.4634 10.9677 13.3654 10.6801 13.3654C10.3925 13.3654 10.1442 13.465 9.93502 13.6643C9.72587 13.8635 9.6213 14.1036 9.6213 14.3846C9.6213 14.6655 9.72587 14.9055 9.93502 15.1047C10.1442 15.304 10.3925 15.4037 10.6801 15.4037Z" fill="#ACADBC"/>
</g>
</svg>