<svg width="28" height="29" viewBox="0 0 28 29" fill="none" xmlns="http://www.w3.org/2000/svg">
<path fill-rule="evenodd" clip-rule="evenodd" d="M13.1653 26.3914C13.5082 26.8243 14.1372 26.8973 14.5701 26.5544C19.533 22.6235 23.1056 18.5365 24.3007 16.9411C24.6318 16.4991 24.5419 15.8723 24.0999 15.5412C23.6579 15.2101 23.0311 15.3 22.7 15.742C21.6061 17.2022 18.1537 21.1647 13.3283 24.9866C12.8954 25.3295 12.8224 25.9584 13.1653 26.3914ZM20.0714 10.7838C15.7476 13.7602 11.7644 16.0835 7.14028 18.4554C6.64887 18.7075 6.45485 19.3102 6.70691 19.8016C6.95897 20.293 7.56168 20.4871 8.05308 20.235C12.7422 17.8298 16.8009 15.4632 21.2054 12.4312C21.6603 12.1181 21.7753 11.4954 21.4621 11.0405C21.1489 10.5856 20.5263 10.4707 20.0714 10.7838ZM17.7564 5.82993C18.2784 5.64946 18.8478 5.9263 19.0283 6.44827C19.2088 6.97024 18.9319 7.53968 18.41 7.72014C13.1024 9.55517 7.04577 10.7578 2.47684 10.5503C1.92512 10.5253 1.49818 10.0577 1.52323 9.50599C1.54829 8.95427 2.01585 8.52733 2.56757 8.55239C6.79181 8.74421 12.5819 7.61898 17.7564 5.82993Z" fill="#ACADBC"/>
</svg>
