<svg width="57" height="40" viewBox="0 0 57 40" fill="none" xmlns="http://www.w3.org/2000/svg">
<g clip-path="url(#clip0_69242_15084)">
<path opacity="0.8" d="M55.9037 6.24183C55.2458 3.78364 53.3139 1.85187 50.8557 1.19384C46.4048 3.57361e-07 28.5487 0 28.5487 0C28.5487 0 10.6929 3.57361e-07 6.24181 1.19384C3.78364 1.85187 1.85187 3.78364 1.19384 6.24183C3.57361e-07 10.6929 0 19.9851 0 19.9851C0 19.9851 3.57361e-07 29.2774 1.19384 33.7285C1.85187 36.1866 3.78364 38.1184 6.24181 38.7763C10.6929 39.9702 28.5487 39.9702 28.5487 39.9702C28.5487 39.9702 46.4048 39.9702 50.8557 38.7763C53.3139 38.1184 55.2458 36.1866 55.9037 33.7285C57.0976 29.2774 57.0976 19.9851 57.0976 19.9851C57.0976 19.9851 57.0928 10.6929 55.9037 6.24183Z" fill="#FF0000"/>
<path d="M22.8335 28.5492L37.6672 19.9856L22.8335 11.4219V28.5492Z" fill="white"/>
</g>
<defs>
<clipPath id="clip0_69242_15084">
<rect width="57" height="40" fill="white"/>
</clipPath>
</defs>
</svg>