<svg width="20" height="20" viewBox="0 0 20 20" fill="none" xmlns="http://www.w3.org/2000/svg">
<path d="M9.96094 19.9219C11.3216 19.9219 12.6026 19.6615 13.8037 19.1406C15.0049 18.6198 16.0645 17.9004 16.9824 16.9824C17.9004 16.0645 18.6198 15.0049 19.1406 13.8037C19.6615 12.6026 19.9219 11.3216 19.9219 9.96094C19.9219 8.60026 19.6615 7.31933 19.1406 6.11816C18.6198 4.91699 17.9004 3.85742 16.9824 2.93945C16.0645 2.02148 15.0033 1.30208 13.7988 0.78125C12.5944 0.260417 11.3119 0 9.95117 0C8.5905 0 7.30957 0.260417 6.1084 0.78125C4.90723 1.30208 3.84928 2.02148 2.93457 2.93945C2.01986 3.85742 1.30208 4.91699 0.78125 6.11816C0.260417 7.31933 0 8.60026 0 9.96094C0 11.3216 0.260417 12.6026 0.78125 13.8037C1.30208 15.0049 2.02148 16.0645 2.93945 16.9824C3.85742 17.9004 4.91699 18.6198 6.11816 19.1406C7.31933 19.6615 8.60026 19.9219 9.96094 19.9219Z" fill="black" fill-opacity="0.85"/>
<path d="M8.87695 12.998C8.10872 12.998 7.40723 12.8076 6.77246 12.4268C6.13769 12.0459 5.63151 11.5397 5.25391 10.9082C4.8763 10.2767 4.6875 9.57682 4.6875 8.80859C4.6875 8.04036 4.8763 7.33724 5.25391 6.69922C5.63151 6.0612 6.13769 5.55338 6.77246 5.17578C7.40723 4.79818 8.10872 4.60938 8.87695 4.60938C9.64518 4.60938 10.3467 4.79818 10.9814 5.17578C11.6162 5.55338 12.1224 6.05957 12.5 6.69434C12.8776 7.3291 13.0664 8.03385 13.0664 8.80859C13.0664 9.23827 13.0029 9.65168 12.876 10.0488C12.749 10.4459 12.5716 10.8073 12.3438 11.1328L14.9316 13.7402C15.0163 13.8249 15.0846 13.9209 15.1367 14.0283C15.1888 14.1358 15.2148 14.2448 15.2148 14.3555C15.2148 14.6094 15.1383 14.8177 14.9854 14.9805C14.8324 15.1432 14.6322 15.2246 14.3848 15.2246C14.1113 15.2246 13.8737 15.1204 13.6719 14.9121L11.0938 12.3438C10.7747 12.5456 10.428 12.7051 10.0537 12.8223C9.67936 12.9394 9.28711 12.998 8.87695 12.998ZM8.87695 11.6211C9.39128 11.6211 9.86003 11.4925 10.2832 11.2354C10.7064 10.9782 11.0449 10.6364 11.2988 10.21C11.5527 9.78354 11.6797 9.3164 11.6797 8.80859C11.6797 8.28775 11.5527 7.81412 11.2988 7.3877C11.0449 6.96126 10.7064 6.62109 10.2832 6.36719C9.86003 6.11328 9.39128 5.98633 8.87695 5.98633C8.36263 5.98633 7.89225 6.11491 7.46582 6.37207C7.03939 6.62923 6.69922 6.97102 6.44531 7.39746C6.1914 7.82389 6.06445 8.29427 6.06445 8.80859C6.06445 9.3164 6.1914 9.78354 6.44531 10.21C6.69922 10.6364 7.03939 10.9782 7.46582 11.2354C7.89225 11.4925 8.36263 11.6211 8.87695 11.6211Z" fill="white"/>
</svg>
