<svg width="72" height="72" viewBox="0 0 72 72" fill="none" xmlns="http://www.w3.org/2000/svg">
<rect width="72" height="72" rx="16" fill="url(#paint0_linear_1491_2655)"/>
<path d="M50.6663 17.6665C53.704 17.6665 56.1663 20.1289 56.1663 23.1665V26.8332H52.4997V48.8332C52.4997 51.8708 50.0373 54.3332 46.9997 54.3332H21.333C18.2954 54.3332 15.833 51.8708 15.833 48.8332V45.1665H45.1663V48.8332C45.1663 49.7733 45.874 50.5483 46.7859 50.6542L46.9997 50.6665C47.9398 50.6665 48.7148 49.9588 48.8207 49.0469L48.833 48.8332V41.4998H19.4997V23.1665C19.4997 20.1289 21.9621 17.6665 24.9997 17.6665H50.6663Z" fill="white"/>
<defs>
<linearGradient id="paint0_linear_1491_2655" x1="72" y1="72" x2="2.14577e-06" y2="-2.14577e-06" gradientUnits="userSpaceOnUse">
<stop stop-color="#854076"/>
<stop offset="1" stop-color="#854076" stop-opacity="0.5"/>
</linearGradient>
</defs>
</svg>