<svg width="72" height="72" viewBox="0 0 72 72" fill="none" xmlns="http://www.w3.org/2000/svg">
<rect width="72" height="72" rx="16" fill="url(#paint0_linear_1491_8351)"/>
<path d="M37.5862 19.5005L55.0508 49.7505C55.5572 50.6274 55.2567 51.7487 54.3799 52.2549C54.1012 52.4158 53.7851 52.5005 53.4632 52.5005H18.5335C17.521 52.5005 16.7002 51.6797 16.7002 50.6672C16.7002 50.3453 16.7849 50.0292 16.9458 49.7505L34.4106 19.5005C34.917 18.6236 36.0381 18.3232 36.915 18.8294C37.1938 18.9903 37.4252 19.2218 37.5862 19.5005ZM34.165 43.3339V47.0005H37.8316V43.3339H34.165ZM34.165 30.5005V39.6672H37.8316V30.5005H34.165Z" fill="white"/>
<defs>
<linearGradient id="paint0_linear_1491_8351" x1="72" y1="72" x2="2.14577e-06" y2="-2.14577e-06" gradientUnits="userSpaceOnUse">
<stop stop-color="#D34F65"/>
<stop offset="1" stop-color="#D34F65" stop-opacity="0.5"/>
</linearGradient>
</defs>
</svg>