<svg width="72" height="72" viewBox="0 0 72 72" fill="none" xmlns="http://www.w3.org/2000/svg">
<rect width="72" height="72" rx="16" fill="url(#paint0_linear_1491_9933)"/>
<path d="M35.9967 14.9165L28.249 26.2528L15.0734 30.1181L23.4607 40.9896L23.0655 54.7149L35.9967 50.0976L48.928 54.7149L48.5326 40.9896L56.9199 30.1181L43.7443 26.2528L35.9967 14.9165ZM39.6633 35.9998L43.33 35.9998C43.33 40.0499 40.0468 43.3332 35.9967 43.3332C32.0693 43.3332 28.863 40.2458 28.6724 36.3658L28.6634 35.9998L32.33 35.9998C32.33 38.0249 33.9716 39.6665 35.9967 39.6665C37.9296 39.6665 39.5132 38.1707 39.6533 36.2736L39.6633 35.9998Z" fill="white"/>
<defs>
<linearGradient id="paint0_linear_1491_9933" x1="72" y1="72" x2="2.14577e-06" y2="-2.14577e-06" gradientUnits="userSpaceOnUse">
<stop stop-color="#33776D"/>
<stop offset="1" stop-color="#33776D" stop-opacity="0.5"/>
</linearGradient>
</defs>
</svg>